<svg width="232" height="106" viewBox="0 0 232 106" fill="none" xmlns="http://www.w3.org/2000/svg">
<path d="M2.06305 47.1982C3.69117 34.2182 17.8791 28.6554 41.3705 26.8011C45.7897 20.5429 54.6281 15.117 64.1642 13.8211C74.3981 12.4303 88.1209 13.8211 92.54 16.1389C93.9356 10.3443 110.915 2 129.289 2C144.783 2 157.365 14.6032 162.549 23.5561C173.016 23.5561 176.272 23.7878 186.738 27.0329C195.954 29.89 201.755 38.1445 203.252 46.9665C221.859 49.2843 230 58.0922 230 68.0589C230 82.7787 214.417 87.7607 189.064 87.7607C183.485 94.3574 177.298 99.2028 167.899 101.204C157.949 103.323 151.719 102.185 142.081 97.7275C135.258 101.514 127.649 104.221 117.892 103.986C107.67 103.739 103.937 103.986 93.0052 95.8732C81.3758 102.827 70.1748 104.768 56.7214 100.045C44.1616 95.6362 32.7557 87.8073 30.9041 73.6218C10.4878 69.8967 1.13268 60.41 2.06305 47.1982Z" fill="#ffffff" stroke="black" stroke-width="3"/>
</svg>
