<svg width="6100" height="4138" viewBox="0 0 6100 4138" fill="none" xmlns="http://www.w3.org/2000/svg">
<g clip-path="url(#clip0_7_611)">
<path d="M6100 0H0V2593H6100V0Z" fill="#BFE4DE"/>
<path d="M6100 200H0V214.42H6100V200Z" fill="#6CA09F"/>
<path d="M6100 414.42H0V428.84H6100V414.42Z" fill="#6CA09F"/>
<path d="M6100 628.84H0V643.259H6100V628.84Z" fill="#6CA09F"/>
<path d="M6100 843.259H0V857.679H6100V843.259Z" fill="#6CA09F"/>
<path d="M6100 1057.68H0V1072.1H6100V1057.68Z" fill="#6CA09F"/>
<path d="M6100 1272.1H0V1286.52H6100V1272.1Z" fill="#6CA09F"/>
<path d="M6100 1486.52H0V1500.94H6100V1486.52Z" fill="#6CA09F"/>
<path d="M6100 1700.94H0V1715.36H6100V1700.94Z" fill="#6CA09F"/>
<path d="M6100 1915.36H0V1929.78H6100V1915.36Z" fill="#6CA09F"/>
<path d="M6100 2129.78H0V2144.2H6100V2129.78Z" fill="#6CA09F"/>
<path d="M6100 2344.2H0V2358.62H6100V2344.2Z" fill="#6CA09F"/>
<path d="M6100 2558.62H0V2573.04H6100V2558.62Z" fill="#6CA09F"/>
<path d="M214.42 2593L217.066 0.0249387L202.646 0L200 2592.97L214.42 2593Z" fill="#6CA09F"/>
<path d="M431.485 2593L434.131 0.0249387L419.711 0L417.065 2592.97L431.485 2593Z" fill="#6CA09F"/>
<path d="M648.552 2593L651.198 0.0249387L636.778 0L634.132 2592.97L648.552 2593Z" fill="#6CA09F"/>
<path d="M865.617 2593L868.263 0.0249387L853.843 0L851.197 2592.97L865.617 2593Z" fill="#6CA09F"/>
<path d="M1082.68 2593L1085.33 0.0249387L1070.91 0L1068.26 2592.97L1082.68 2593Z" fill="#6CA09F"/>
<path d="M1299.75 2593L1302.4 0.0249387L1287.98 0L1285.33 2592.97L1299.75 2593Z" fill="#6CA09F"/>
<path d="M1516.81 2593L1519.46 0.0249387L1505.04 0L1502.39 2592.97L1516.81 2593Z" fill="#6CA09F"/>
<path d="M1733.88 2593L1736.53 0.0249387L1722.11 0L1719.46 2592.97L1733.88 2593Z" fill="#6CA09F"/>
<path d="M1950.95 2593L1953.59 0.0249387L1939.17 0L1936.53 2592.97L1950.95 2593Z" fill="#6CA09F"/>
<path d="M2168.01 2593L2170.66 0.0249387L2156.24 0L2153.59 2592.97L2168.01 2593Z" fill="#6CA09F"/>
<path d="M2385.08 2593L2387.72 0.0249387L2373.3 0L2370.66 2592.97L2385.08 2593Z" fill="#6CA09F"/>
<path d="M2602.14 2593L2604.79 0.0249387L2590.37 0L2587.72 2592.97L2602.14 2593Z" fill="#6CA09F"/>
<path d="M2819.21 2593L2821.86 0.0249387L2807.44 0L2804.79 2592.97L2819.21 2593Z" fill="#6CA09F"/>
<path d="M3036.28 2593L3038.92 0.0249387L3024.5 0L3021.86 2592.97L3036.28 2593Z" fill="#6CA09F"/>
<path d="M3253.34 2593L3255.99 0.0249387L3241.57 0L3238.92 2592.97L3253.34 2593Z" fill="#6CA09F"/>
<path d="M3470.41 2593L3473.05 0.0249387L3458.63 0L3455.99 2592.97L3470.41 2593Z" fill="#6CA09F"/>
<path d="M3687.47 2593L3690.12 0.0249387L3675.7 0L3673.05 2592.97L3687.47 2593Z" fill="#6CA09F"/>
<path d="M3904.54 2593L3907.19 0.0249387L3892.77 0L3890.12 2592.97L3904.54 2593Z" fill="#6CA09F"/>
<path d="M4121.61 2593L4124.25 0.0249387L4109.83 0L4107.19 2592.97L4121.61 2593Z" fill="#6CA09F"/>
<path d="M4338.67 2593L4341.32 0.0249387L4326.9 0L4324.25 2592.97L4338.67 2593Z" fill="#6CA09F"/>
<path d="M4555.74 2593L4558.38 0.0249387L4543.96 0L4541.32 2592.97L4555.74 2593Z" fill="#6CA09F"/>
<path d="M4772.8 2593L4775.45 0.0249387L4761.03 0L4758.38 2592.97L4772.8 2593Z" fill="#6CA09F"/>
<path d="M4989.87 2593L4992.52 0.0249387L4978.1 0L4975.45 2592.97L4989.87 2593Z" fill="#6CA09F"/>
<path d="M5206.94 2593L5209.58 0.0249387L5195.16 0L5192.52 2592.97L5206.94 2593Z" fill="#6CA09F"/>
<path d="M5424 2593L5426.65 0.0249387L5412.23 0L5409.58 2592.97L5424 2593Z" fill="#6CA09F"/>
<path d="M5641.07 2593L5643.71 0.0249387L5629.29 0L5626.65 2592.97L5641.07 2593Z" fill="#6CA09F"/>
<path d="M5858.13 2593L5860.78 0.0249387L5846.36 0L5843.71 2592.97L5858.13 2593Z" fill="#6CA09F"/>
<path d="M6075.2 2593L6077.85 0.0249387L6063.43 0L6060.78 2592.97L6075.2 2593Z" fill="#6CA09F"/>
<path d="M6100 2593.04H0V2983.62H6100V2593.04Z" fill="#537580"/>
<path d="M6100 2983.2H0V4138H6100V2983.2Z" fill="#829CA9"/>
</g>
<defs>
<clipPath id="clip0_7_611">
<rect width="6100" height="4138" fill="white"/>
</clipPath>
</defs>
</svg>
