<?xml version="1.0" encoding="UTF-8" standalone="no"?>
<!DOCTYPE svg PUBLIC "-//W3C//DTD SVG 1.1//EN" "http://www.w3.org/Graphics/SVG/1.1/DTD/svg11.dtd">
<svg width="100%" height="100%" viewBox="0 0 3134 2084" version="1.1" xmlns="http://www.w3.org/2000/svg" xmlns:xlink="http://www.w3.org/1999/xlink" xml:space="preserve" xmlns:serif="http://www.serif.com/" style="fill-rule:evenodd;clip-rule:evenodd;stroke-linejoin:round;stroke-miterlimit:2;">
    <g transform="matrix(4.16667,0,0,4.16667,0,0)">
        <rect x="1.911" y="0" width="750" height="368.072" style="fill:rgb(254,197,86);fill-rule:nonzero;"/>
        <rect x="1.911" y="385" width="750" height="115" style="fill:rgb(163,111,75);fill-rule:nonzero;"/>
        <path d="M751.911,387.889L678.286,387.889L678.286,385L751.911,385L751.911,387.889ZM675.138,387.889L636.846,387.889L636.846,385L675.138,385L675.138,387.889ZM550.645,387.889L504,387.889C505.518,387.15 506.886,386.181 508.146,385L550.645,385L550.645,387.889ZM164.761,387.889L1.911,387.889L1.911,385L1.911,385.035L65.769,385.035L65.769,385L160.615,385C161.875,386.181 163.243,387.15 164.761,387.889Z" style="fill:rgb(149,101,70);fill-rule:nonzero;"/>
        <path d="M1.911,390.817L1.911,390.317L30.744,387.903L34.237,387.903L1.911,390.817Z" style="fill:rgb(155,106,75);fill-rule:nonzero;"/>
        <rect x="1.911" y="19.172" width="221.222" height="178.022" style="fill:rgb(172,216,214);fill-rule:nonzero;"/>
        <path d="M65.769,173.652L65.769,120.875L79.661,112.209L105.839,112.209L105.839,148.656L65.769,173.652ZM113.839,143.666L113.839,112.209L164.266,112.21L113.839,143.666ZM170.68,104.21L113.839,104.21L113.839,90.89L170.68,55.433L170.68,104.21ZM105.839,104.21L92.485,104.21L105.839,95.881L105.839,104.21Z" style="fill:rgb(184,220,218);fill-rule:nonzero;"/>
        <path d="M155.229,191.846L148.596,191.846L170.68,178.07L170.68,182.208L155.229,191.846Z" style="fill:rgb(184,220,218);fill-rule:nonzero;"/>
        <path d="M1.911,137.789L1.911,121.612L1.911,137.789ZM65.769,97.956L65.769,81.778L105.839,56.783L105.839,72.96L65.769,97.956ZM113.839,67.97L113.839,51.792L145.505,32.039C153.001,32.725 160.458,33.466 167.875,34.263L113.839,67.97Z" style="fill:rgb(184,220,218);fill-rule:nonzero;"/>
        <path d="M1.911,72.659L1.911,68.521L1.911,72.659ZM65.769,32.825L65.769,28.687L68.402,27.045C70.494,27.126 72.541,27.209 74.628,27.298L65.769,32.825Z" style="fill:rgb(184,220,218);fill-rule:nonzero;"/>
        <path d="M88.462,191.846L81.829,191.846L105.839,176.869L105.839,181.007L88.462,191.846Z" style="fill:rgb(184,220,218);fill-rule:nonzero;"/>
        <path d="M113.839,176.016L113.839,171.879L170.68,136.421L170.68,140.559L113.839,176.016Z" style="fill:rgb(184,220,218);fill-rule:nonzero;"/>
        <path d="M111.839,190.535L111.839,177.264L113.839,176.016L113.839,188.108C113.349,188.695 112.666,189.521 111.839,190.535ZM111.839,173.127L111.839,144.914L113.839,143.666L113.839,171.879L111.839,173.127ZM111.839,92.138L111.839,69.218L113.839,67.97L113.839,90.89L111.839,92.138ZM111.839,53.04L111.839,29.357C112.524,29.403 113.154,29.447 113.839,29.494L113.839,51.792L111.839,53.04Z" style="fill:rgb(150,187,186);fill-rule:nonzero;"/>
        <path d="M111.839,144.914L111.839,112.209L113.839,112.209L113.839,143.666L111.839,144.914ZM113.839,104.21L111.839,104.21L111.839,92.138L113.839,90.89L113.839,104.21Z" style="fill:rgb(162,193,192);fill-rule:nonzero;"/>
        <path d="M111.839,69.218L111.839,53.04L113.839,51.792L113.839,67.97L111.839,69.218Z" style="fill:rgb(162,193,192);fill-rule:nonzero;"/>
        <path d="M111.839,177.264L111.839,173.127L113.839,171.879L113.839,176.016L111.839,177.264Z" style="fill:rgb(162,193,192);fill-rule:nonzero;"/>
        <rect x="105.839" y="17.815" width="6" height="178.789" style="fill:rgb(155,75,33);fill-rule:nonzero;"/>
        <path d="M170.68,112.21L164.266,112.21L167.472,110.21L170.68,110.21L170.68,112.21ZM79.661,112.209L65.769,112.209L65.769,110.209L82.867,110.209L79.661,112.209Z" style="fill:rgb(150,187,186);fill-rule:nonzero;"/>
        <path d="M164.266,112.21L113.839,112.209L113.839,110.209L167.472,110.21L164.266,112.21ZM105.839,112.209L79.661,112.209L82.867,110.209L105.839,110.209L105.839,112.209Z" style="fill:rgb(162,193,192);fill-rule:nonzero;"/>
        <rect x="111.839" y="110.209" width="2" height="2" style="fill:rgb(141,167,167);fill-rule:nonzero;"/>
        <rect x="105.839" y="110.209" width="6" height="2" style="fill:rgb(134,64,27);fill-rule:nonzero;"/>
        <path d="M220.464,104.21L220.464,110.21L1.911,110.209L1.911,104.209L220.464,104.21Z" style="fill:rgb(155,75,33);fill-rule:nonzero;"/>
        <path d="M170.68,201.289L165.745,201.289L165.745,199.289L170.68,199.289L170.68,201.289ZM157.95,201.289L151.999,201.289L151.999,199.289L157.95,199.289L157.95,201.289ZM148.453,201.289L136.436,201.289L136.436,199.289L148.453,199.289L148.453,201.289ZM128.641,201.289L122.691,201.289L122.691,199.289L128.641,199.289L128.641,201.289ZM119.145,201.289L114.343,201.289C114.371,200.612 114.396,199.943 114.42,199.289L119.145,199.289L119.145,201.289Z" style="fill:rgb(232,175,71);fill-rule:nonzero;"/>
        <rect x="119.145" y="199.289" width="3.546" height="2" style="fill:rgb(228,183,95);fill-rule:nonzero;"/>
        <rect x="128.641" y="199.289" width="7.795" height="2" style="fill:rgb(231,180,83);fill-rule:nonzero;"/>
        <rect x="148.453" y="199.289" width="3.546" height="2" style="fill:rgb(228,183,95);fill-rule:nonzero;"/>
        <rect x="157.95" y="199.289" width="7.795" height="2" style="fill:rgb(231,180,83);fill-rule:nonzero;"/>
        <path d="M99.332,201.289L93.382,201.289L93.382,199.289L99.332,199.289L99.332,201.289ZM89.836,201.289L77.819,201.289L77.819,199.289L89.836,199.289L89.836,201.289ZM70.024,201.289L65.769,201.289L65.769,199.289L70.024,199.289L70.024,201.289Z" style="fill:rgb(232,175,71);fill-rule:nonzero;"/>
        <rect x="70.024" y="199.289" width="7.795" height="2" style="fill:rgb(231,180,83);fill-rule:nonzero;"/>
        <rect x="89.836" y="199.289" width="3.546" height="2" style="fill:rgb(228,183,95);fill-rule:nonzero;"/>
        <path d="M103.408,201.289L99.332,201.289L99.332,199.289L104.922,199.289C104.422,199.943 103.915,200.612 103.408,201.289Z" style="fill:rgb(231,180,83);fill-rule:nonzero;"/>
        <path d="M1.911,16.379L1.911,23.822L216.746,23.822L216.746,191.846L1.911,191.846L1.911,199.289L224.361,199.289L224.361,16.379L1.911,16.379Z" style="fill:rgb(155,75,33);fill-rule:nonzero;"/>
        <rect x="170.68" y="0" width="112.298" height="382.744" style="fill:rgb(246,140,86);fill-rule:nonzero;"/>
        <path d="M265.678,244.697C264.361,244.695 263.032,244.694 261.712,244.692L262.909,47.825C263.444,47.921 263.949,48.012 264.483,48.109L265.678,244.697Z" style="fill:rgb(245,134,76);fill-rule:nonzero;"/>
        <path d="M202.586,244.963L203.84,38.595C204.333,38.661 204.811,38.725 205.302,38.791L206.555,244.909C205.198,244.925 203.876,244.943 202.586,244.963Z" style="fill:rgb(245,134,76);fill-rule:nonzero;"/>
        <path d="M244.948,244.693L247.698,45.189C248.858,45.383 250.044,45.583 251.201,45.78L253.943,244.688L253.246,244.688C250.466,244.688 247.698,244.69 244.948,244.693Z" style="fill:rgb(245,134,76);fill-rule:nonzero;"/>
        <path d="M222.845,244.765L224.559,41.526C225.248,41.629 225.95,41.734 226.638,41.838L228.35,244.737C226.486,244.745 224.655,244.755 222.845,244.765Z" style="fill:rgb(245,134,76);fill-rule:nonzero;"/>
        <path d="M279.027,244.723C277.207,244.719 275.367,244.715 273.524,244.711L275.165,50.085C275.892,50.223 276.664,50.37 277.389,50.508L279.027,244.723Z" style="fill:rgb(245,134,76);fill-rule:nonzero;"/>
        <path d="M179.424,245.722L182.429,35.902C183.549,36.034 184.681,36.169 185.799,36.303L188.791,245.261C184.756,245.387 181.563,245.54 179.424,245.722Z" style="fill:rgb(245,134,76);fill-rule:nonzero;"/>
        <rect x="1.911" y="0" width="63.858" height="385.035" style="fill:rgb(246,140,86);fill-rule:nonzero;"/>
        <path d="M49.308,385.035L43.664,385.035L44.117,309.984C45.341,313.327 46.602,316.21 47.572,317.113C47.81,317.334 48.267,317.681 48.904,318.13L49.308,385.035ZM48.798,300.688C47.42,299.784 45.731,298.912 44.189,298.187L45.831,26.345C46.248,26.355 46.724,26.366 47.141,26.376L48.291,216.771C47.135,226.012 44.547,248.783 46.251,255.12C46.54,256.197 47.36,258.529 48.563,261.764L48.619,270.987C47.916,270.195 47.473,269.717 47.473,269.717C47.473,269.717 47.73,281.985 48.735,290.185L48.798,300.688Z" style="fill:rgb(245,134,76);fill-rule:nonzero;"/>
        <path d="M37.852,385.035L26.62,385.035L30.936,26.068C31.797,26.08 32.677,26.093 33.537,26.106L37.852,385.035Z" style="fill:rgb(245,134,76);fill-rule:nonzero;"/>
        <path d="M18.071,385.035L10.238,385.035L13.249,25.929C13.849,25.931 14.461,25.932 15.06,25.934L18.071,385.035Z" style="fill:rgb(245,134,76);fill-rule:nonzero;"/>
        <path d="M62.982,385.035L55.15,385.035L55.674,322.567C57.766,323.894 60.102,325.353 62.494,326.836L62.982,385.035ZM62.149,314.792C59.833,312.202 57.644,309.763 55.798,307.719L55.817,305.516C57.69,308.294 59.874,311.487 62.149,314.792ZM61.817,246.13C61.005,242.372 60.411,239.703 60.124,238.557C59.447,235.851 58.05,232.255 56.461,228.611L58.154,26.685C58.767,26.704 59.366,26.724 59.978,26.744L61.817,246.13Z" style="fill:rgb(245,134,76);fill-rule:nonzero;"/>
        <path d="M80.072,397.744C67.843,397.744 57.929,397.112 57.929,396.333C57.929,396.251 58.039,396.171 58.249,396.093L60.607,395.66C64.358,395.221 71.668,394.923 80.072,394.923C92.301,394.923 102.215,395.554 102.215,396.333C102.215,397.112 92.301,397.744 80.072,397.744Z" style="fill:rgb(134,92,61);fill-rule:nonzero;"/>
        <path d="M58.249,396.093C58.665,395.939 59.473,395.793 60.607,395.66L58.249,396.093Z" style="fill:rgb(129,88,61);fill-rule:nonzero;"/>
        <path d="M78.327,341.498C78.327,341.498 99.989,299.39 102.429,295.962C104.868,292.534 117.943,289.341 117.943,289.341C117.943,289.341 113.558,300.481 110.945,303.984C108.331,307.487 79.219,342.1 79.219,342.1L78.327,341.498Z" style="fill:rgb(100,151,63);fill-rule:nonzero;"/>
        <path d="M78.677,341.734L78.327,341.498L78.909,340.731C78.827,341.086 78.75,341.42 78.677,341.734ZM82.581,338.099C82.582,337.705 82.583,337.287 82.583,336.846C82.887,336.143 83.204,335.407 83.535,334.64L117.943,289.341C117.943,289.341 113.558,300.481 110.945,303.984C110.461,304.632 109.072,306.343 107.128,308.703C105.029,311.252 102.283,314.556 99.332,318.093C97.395,320.417 95.37,322.84 93.382,325.215C92.177,326.655 90.985,328.079 89.836,329.451C87.035,332.794 84.481,335.836 82.581,338.099Z" style="fill:rgb(110,167,66);fill-rule:nonzero;"/>
        <path d="M81.922,338.699C81.922,338.699 50.303,319.657 47.572,317.113C44.84,314.568 39.791,296.303 39.791,296.303C39.791,296.303 47.844,299.359 50.662,302.137C53.481,304.916 82.095,337.202 82.095,337.202L81.922,338.699Z" style="fill:rgb(100,151,63);fill-rule:nonzero;"/>
        <path d="M71.35,328.06L39.791,296.303C39.791,296.303 47.844,299.359 50.662,302.137C51.739,303.199 56.578,308.564 62.149,314.792C65.229,319.264 68.475,323.938 71.35,328.06Z" style="fill:rgb(110,167,66);fill-rule:nonzero;"/>
        <path d="M80.007,340.927C80.007,340.927 48.404,263.132 46.251,255.12C44.097,247.109 48.802,212.832 48.802,212.832C48.802,212.832 57.999,230.071 60.124,238.557C62.249,247.044 81.206,339.054 81.206,339.054L80.007,340.927Z" style="fill:rgb(100,151,63);fill-rule:nonzero;"/>
        <path d="M78.835,334.577C78.554,333.893 78.246,333.142 77.914,332.336L48.802,212.832C48.802,212.832 57.999,230.071 60.124,238.557C61.566,244.315 70.753,288.51 76.514,316.342C77.477,322.034 78.371,327.284 79.113,331.628C79.006,332.756 78.913,333.745 78.835,334.577Z" style="fill:rgb(110,167,66);fill-rule:nonzero;"/>
        <path d="M77.948,344.888C77.948,344.888 90.962,288.446 92.749,283.465C94.535,278.485 107.82,267.698 107.82,267.698C107.82,267.698 105.825,281.864 103.869,287.021C101.914,292.179 79.055,345.01 79.055,345.01L77.948,344.888Z" style="fill:rgb(90,133,59);fill-rule:nonzero;"/>
        <path d="M79.055,345.01L77.948,344.888L79.792,340.122C80.004,340.424 80.117,340.585 80.117,340.585L80.483,339.626C80.578,340.174 80.663,340.672 80.739,341.114C79.683,343.559 79.055,345.01 79.055,345.01ZM82.583,336.846C82.585,335.684 82.587,334.358 82.589,332.894L107.82,267.698C107.82,267.698 107.557,269.566 107.128,272.192C106.376,276.798 105.115,283.737 103.869,287.021C103.391,288.281 101.667,292.384 99.332,297.868C94.472,309.287 86.97,326.687 82.583,336.846Z" style="fill:rgb(104,155,64);fill-rule:nonzero;"/>
        <path d="M80.117,340.585C80.117,340.585 52.285,301.037 50.115,296.661C47.946,292.284 47.473,269.717 47.473,269.717C47.473,269.717 55.03,277.875 57.229,282.554C59.428,287.233 80.688,339.092 80.688,339.092L80.117,340.585Z" style="fill:rgb(90,133,59);fill-rule:nonzero;"/>
        <path d="M80.117,340.585L78.75,337.615L79.984,337.377C80.054,337.547 80.119,337.705 80.179,337.852C80.289,338.492 80.39,339.083 80.483,339.626L80.117,340.585ZM78.583,337.254L47.473,269.717C47.473,269.717 55.03,277.875 57.229,282.554C59.029,286.386 73.611,321.853 78.835,334.577C78.714,335.859 78.628,336.769 78.583,337.254Z" style="fill:rgb(111,167,66);fill-rule:nonzero;"/>
        <path d="M81.164,343.577C81.164,343.577 67.472,264.305 67.04,256.505C66.608,248.704 77.121,219.919 77.121,219.919C77.121,219.919 82.103,238.209 82.422,246.421C82.741,254.632 82.574,342.316 82.574,342.316L81.164,343.577Z" style="fill:rgb(90,133,59);fill-rule:nonzero;"/>
        <path d="M81.164,343.577L80.925,336.289C81.238,335.174 81.813,333.122 82.593,330.335C82.583,337.636 82.574,342.316 82.574,342.316L81.164,343.577ZM80.348,318.639L77.121,219.919C77.121,219.919 82.103,238.209 82.422,246.421C82.576,250.389 82.617,272.922 82.618,295.146C81.779,303.74 80.997,311.854 80.348,318.639Z" style="fill:rgb(111,167,66);fill-rule:nonzero;"/>
        <path d="M78.545,337.654C78.545,337.654 88.388,232.508 90.455,222.874C92.521,213.239 114.68,187.104 114.68,187.104C114.68,187.104 114.598,212.783 112.259,222.819C109.92,232.856 80.657,337.248 80.657,337.248L78.545,337.654Z" style="fill:rgb(100,151,63);fill-rule:nonzero;"/>
        <path d="M78.545,337.654L114.68,187.104C114.68,187.104 114.674,188.95 114.621,191.846C114.583,193.895 114.521,196.47 114.42,199.289C114.396,199.943 114.371,200.612 114.343,201.289C114.029,208.943 113.424,217.82 112.259,222.819C111.726,225.107 109.794,232.298 107.128,242.038C104.91,250.144 102.184,260.012 99.332,270.291C92.934,293.361 85.908,318.492 82.593,330.335C81.813,333.122 81.238,335.174 80.925,336.289C80.75,336.916 80.657,337.248 80.657,337.248L80.094,337.356L79.984,337.377L78.75,337.615L78.545,337.654Z" style="fill:rgb(110,167,66);fill-rule:nonzero;"/>
        <path d="M85.098,391.083L75.046,391.083C66.997,391.083 60.473,393.359 60.473,396.166L60.473,396.459L99.671,396.459L99.671,396.166C99.671,393.359 93.147,391.083 85.098,391.083Z" style="fill:rgb(118,31,33);fill-rule:nonzero;"/>
        <path d="M104.439,332.611L104.439,376.241C104.439,385.263 96.327,392.576 86.321,392.576L73.823,392.576C63.817,392.576 55.705,385.263 55.705,376.241L55.705,332.611" style="fill:rgb(134,40,40);fill-rule:nonzero;"/>
        <path d="M107.177,332.651C107.177,333.647 106.281,334.454 105.177,334.454L54.968,334.454C53.863,334.454 52.968,333.647 52.968,332.651C52.968,331.655 53.863,330.848 54.968,330.848L105.177,330.848C106.281,330.848 107.177,331.655 107.177,332.651Z" style="fill:rgb(118,31,33);fill-rule:nonzero;"/>
        <rect x="55.481" y="364.923" width="49.182" height="2.86" style="fill:rgb(118,31,33);fill-rule:nonzero;"/>
        <rect x="55.481" y="357.506" width="49.182" height="2.861" style="fill:rgb(118,31,33);fill-rule:nonzero;"/>
        <path d="M553.721,147.555C553.72,147.883 553.454,148.148 553.127,148.147L549.764,148.139C549.437,148.138 549.172,147.872 549.172,147.544L549.187,141.624C549.188,141.297 549.454,141.032 549.781,141.033L553.144,141.041C553.471,141.041 553.736,141.308 553.735,141.635L553.721,147.555Z" style="fill:rgb(46,17,20);fill-rule:nonzero;"/>
        <path d="M706.757,147.924C706.756,148.251 706.49,148.516 706.162,148.516L702.8,148.507C702.472,148.507 702.207,148.24 702.208,147.913L702.222,141.993C702.223,141.665 702.489,141.4 702.817,141.401L706.179,141.409C706.507,141.41 706.772,141.676 706.771,142.004L706.757,147.924Z" style="fill:rgb(46,17,20);fill-rule:nonzero;"/>
        <clipPath id="_clip1">
            <path d="M557.699,144.671L553.728,144.662L553.733,142.667L553.899,142.667C555.172,143.334 556.436,144 557.699,144.671ZM549.179,144.651L546.753,144.645L546.753,142.65L549.184,142.656L549.179,144.651ZM538.958,144.626L534.451,144.615C533.913,144.614 533.477,144.177 533.479,143.638L533.481,142.618L538.958,142.631L538.958,144.626Z"/>
        </clipPath>
        <g clip-path="url(#_clip1)">
            <rect x="533.477" y="142.618" width="24.222" height="2.053" style="fill:rgb(232,175,71);fill-rule:nonzero;"/>
        </g>
        <path d="M546.753,144.645L538.958,144.626L538.958,142.631L546.753,142.65L546.753,144.645Z" style="fill:rgb(231,180,83);fill-rule:nonzero;"/>
        <path d="M553.728,144.662L549.179,144.651L549.184,142.656L553.733,142.667L553.728,144.662Z" style="fill:rgb(39,11,15);fill-rule:nonzero;"/>
        <path d="M724.479,142.103C724.477,142.641 724.04,143.077 723.501,143.075L532.451,142.615C531.913,142.614 531.477,142.177 531.479,141.638L531.495,134.815C531.496,134.277 531.934,133.841 532.472,133.843L723.523,134.303C724.061,134.304 724.496,134.741 724.495,135.28L724.479,142.103Z" style="fill:rgb(98,58,56);fill-rule:nonzero;"/>
        <path d="M724.492,136.269L724.498,133.98C724.499,133.442 724.064,133.004 723.526,133.003L532.475,132.543C531.937,132.542 531.499,132.977 531.498,133.515L531.493,135.805L724.492,136.269Z" style="fill:rgb(112,68,65);fill-rule:nonzero;"/>
        <path d="M676.712,399C660.37,399 647.123,398.513 647.123,397.912C647.123,397.311 660.37,396.824 676.712,396.824C687.865,396.824 697.577,397.051 702.619,397.386L706.129,398.03C704.528,398.575 691.969,399 676.712,399Z" style="fill:rgb(145,99,66);fill-rule:nonzero;"/>
        <path d="M706.129,398.03L702.619,397.386C704.965,397.542 706.301,397.721 706.301,397.912C706.301,397.952 706.243,397.991 706.129,398.03Z" style="fill:rgb(139,95,66);fill-rule:nonzero;"/>
        <rect x="675.138" y="192.847" width="3.148" height="200.441" style="fill:rgb(130,133,135);fill-rule:nonzero;"/>
        <path d="M695.563,162.287L657.861,162.287L655.893,172.709L697.531,172.709L695.563,162.287Z" style="fill:rgb(245,133,92);fill-rule:nonzero;"/>
        <path d="M698.383,177.223L655.041,177.223L648.345,212.685L705.079,212.685L698.383,177.223Z" style="fill:rgb(245,133,92);fill-rule:nonzero;"/>
        <path d="M645.524,227.621L707.9,227.621L705.932,217.198L647.492,217.198L645.524,227.621Z" style="fill:rgb(245,133,92);fill-rule:nonzero;"/>
        <path d="M697.531,172.709L655.893,172.709L655.041,177.223L698.383,177.223L697.531,172.709Z" style="fill:rgb(250,172,119);fill-rule:nonzero;"/>
        <path d="M648.345,212.685L647.492,217.198L705.932,217.198L705.079,212.685L648.345,212.685Z" style="fill:rgb(250,172,119);fill-rule:nonzero;"/>
        <path d="M683.003,391.792C683.003,393.457 681.812,394.807 680.342,394.807L673.082,394.807C671.612,394.807 670.421,393.457 670.421,391.792C670.421,390.127 671.612,388.777 673.082,388.777L680.342,388.777C681.812,388.777 683.003,390.127 683.003,391.792Z" style="fill:rgb(231,122,81);fill-rule:nonzero;"/>
        <path d="M655.122,397.672C655.122,394.616 664.788,392.138 676.712,392.138C688.636,392.138 698.302,394.616 698.302,397.672" style="fill:rgb(245,133,92);fill-rule:nonzero;"/>
        <path d="M593.746,407.436C571.644,407.436 552.706,406.857 544.787,406.034L592.717,406.034L596.533,407.433C595.61,407.435 594.68,407.436 593.746,407.436ZM600.79,407.416L596.962,406.034L642.704,406.034C635.641,406.768 619.811,407.308 600.79,407.416ZM646.568,405.037L594.199,405.037L588.346,402.924C590.122,402.916 591.922,402.912 593.746,402.912C621.894,402.912 644.91,403.851 646.568,405.037ZM589.995,405.037L540.923,405.037C542.391,403.987 560.603,403.13 584.296,402.948L589.995,405.037Z" style="fill:rgb(145,99,66);fill-rule:nonzero;"/>
        <path d="M642.704,406.034L596.962,406.034L594.199,405.037L646.568,405.037C646.632,405.082 646.664,405.128 646.664,405.174C646.664,405.479 645.257,405.769 642.704,406.034ZM592.717,406.034L544.787,406.034C542.234,405.769 540.827,405.479 540.827,405.174C540.827,405.128 540.859,405.082 540.923,405.037L589.995,405.037L592.717,406.034Z" style="fill:rgb(139,95,66);fill-rule:nonzero;"/>
        <path d="M596.533,407.433L592.717,406.034L589.995,405.037L584.296,402.948C585.629,402.938 586.981,402.93 588.346,402.924L594.199,405.037L596.962,406.034L600.79,407.416C599.387,407.424 597.968,407.43 596.533,407.433Z" style="fill:rgb(139,95,66);fill-rule:nonzero;"/>
        <rect x="556.062" y="398.423" width="5.624" height="6.992" style="fill:rgb(62,30,22);fill-rule:nonzero;"/>
        <rect x="625.805" y="398.423" width="5.625" height="6.992" style="fill:rgb(62,30,22);fill-rule:nonzero;"/>
        <rect x="550.645" y="289.571" width="86.201" height="111.771" style="fill:rgb(120,75,61);fill-rule:nonzero;"/>
        <rect x="554.35" y="293.181" width="78.791" height="104.55" style="fill:rgb(143,101,85);fill-rule:nonzero;"/>
        <rect x="554.35" y="293.181" width="78.791" height="104.55" style="fill:rgb(143,101,85);fill-rule:nonzero;"/>
        <path d="M646.496,288.25C646.496,289.244 645.675,290.05 644.662,290.05L542.829,290.05C541.816,290.05 540.995,289.244 540.995,288.25L540.995,282.714C540.995,281.72 541.816,280.914 542.829,280.914L644.662,280.914C645.675,280.914 646.496,281.72 646.496,282.714L646.496,288.25Z" style="fill:rgb(143,101,85);fill-rule:nonzero;"/>
        <path d="M633.393,328.789L633.141,328.789L633.141,327.786L633.393,327.786L633.393,328.789ZM554.35,328.789L554.099,328.789L554.099,327.786L554.35,327.786L554.35,328.789Z" style="fill:rgb(117,73,62);fill-rule:nonzero;"/>
        <rect x="554.35" y="327.786" width="78.791" height="1.003" style="fill:rgb(131,88,77);fill-rule:nonzero;"/>
        <path d="M633.393,363.185L633.141,363.185L633.141,362.182L633.393,362.182L633.393,363.185ZM554.35,363.185L554.099,363.185L554.099,362.182L554.35,362.182L554.35,363.185Z" style="fill:rgb(117,73,62);fill-rule:nonzero;"/>
        <rect x="554.35" y="362.182" width="78.791" height="1.003" style="fill:rgb(131,88,77);fill-rule:nonzero;"/>
        <path d="M606.584,304.92L580.907,304.92C579.894,304.92 579.073,304.115 579.073,303.121L579.073,301.193C579.073,300.199 579.894,299.393 580.907,299.393L606.584,299.393C607.597,299.393 608.418,300.199 608.418,301.193L608.418,303.121C608.418,304.115 607.597,304.92 606.584,304.92Z" style="fill:rgb(125,81,73);fill-rule:nonzero;"/>
        <path d="M606.584,340.702L580.907,340.702C579.894,340.702 579.073,339.896 579.073,338.902L579.073,336.974C579.073,335.98 579.894,335.175 580.907,335.175L606.584,335.175C607.597,335.175 608.418,335.98 608.418,336.974L608.418,338.902C608.418,339.896 607.597,340.702 606.584,340.702Z" style="fill:rgb(125,81,73);fill-rule:nonzero;"/>
        <path d="M606.584,376.483L580.907,376.483C579.894,376.483 579.073,375.677 579.073,374.683L579.073,372.755C579.073,371.761 579.894,370.956 580.907,370.956L606.584,370.956C607.597,370.956 608.418,371.761 608.418,372.755L608.418,374.683C608.418,375.677 607.597,376.483 606.584,376.483Z" style="fill:rgb(125,81,73);fill-rule:nonzero;"/>
        <path d="M334.381,421.976C316.934,421.976 300.016,421.879 283.881,421.697L306.7,404.609L355.57,405.037L346.876,421.96C344.241,421.965 337.041,421.976 334.381,421.976ZM346.876,421.96L355.57,405.037L400.929,405.02L408.859,421.353C389.511,421.691 368.657,421.901 346.876,421.96ZM283.881,421.697C255.585,421.346 225.362,420.677 203.672,419.862L229.725,406.034L306.7,404.609L283.881,421.697ZM408.859,421.353L400.929,405.02L446.972,406.034C447.688,406.056 448.402,406.077 449.112,406.099L467.376,419.775C451.44,420.392 428.728,420.981 408.859,421.353ZM203.672,419.862C171.768,418.595 145.112,416.724 137.208,414.794L151.007,409.736C166.226,408.232 190.918,406.95 221.789,406.034L229.725,406.034L203.672,419.862ZM467.376,419.775L449.112,406.099C463.676,406.568 480.98,407.254 492.144,407.875L494.129,418.515C487.338,418.906 475.551,419.44 467.376,419.775ZM137.208,414.794C136.637,414.618 133.928,414.194 134.061,413.093C134.179,412.121 141.168,410.884 151.007,409.736L137.208,414.794ZM400.938,405.037L355.57,405.037L351.803,404.559C367.451,404.631 386.569,404.799 400.929,405.02L400.938,405.037ZM355.57,405.037L306.129,405.037L306.7,404.609C315.748,404.555 324.989,404.526 334.381,404.526C340.248,404.526 346.064,404.537 351.803,404.559L355.57,405.037ZM304.797,406.034L262.94,406.034C274.466,405.854 292.402,406.12 304.797,406.034Z" style="fill:rgb(145,99,66);fill-rule:nonzero;"/>
        <path d="M500.759,418.111L499.501,408.311C521.687,409.716 534.674,411.417 534.674,413.251C534.674,415.05 522.176,416.722 500.759,418.111Z" style="fill:rgb(145,99,66);fill-rule:nonzero;"/>
        <path d="M491.526,245.981C480.486,243.992 366.051,244.891 334.381,244.891C302.71,244.891 188.275,243.992 177.235,245.981C165.768,248.047 163.228,254.507 163.88,268.112C164.484,280.732 168.459,300.927 168.459,300.927L174.945,338.322L493.816,338.322L500.303,300.927C500.303,300.927 504.277,280.732 504.881,268.112C505.533,254.507 502.993,248.047 491.526,245.981Z" style="fill:rgb(167,141,118);fill-rule:nonzero;"/>
        <path d="M174.341,385.627L167.775,413.151L176.638,413.151L197.975,385.627L174.341,385.627Z" style="fill:rgb(62,30,22);fill-rule:nonzero;"/>
        <path d="M494.421,385.627L500.986,413.151L492.123,413.151L470.786,385.627L494.421,385.627Z" style="fill:rgb(62,30,22);fill-rule:nonzero;"/>
        <path d="M379.459,324.638L289.303,324.638C304.07,323.161 328.962,323.661 331.165,318.474C333.367,313.287 334.381,246.351 334.381,246.351C334.381,246.351 335.394,313.287 337.597,318.474C339.799,323.661 364.691,323.161 379.459,324.638Z" style="fill:rgb(159,132,110);fill-rule:nonzero;"/>
        <path d="M480.977,325.071L474.756,325.071C476.806,319.566 482.735,304.308 487.35,299.086C490.732,295.26 495.458,293.423 498.723,292.564C497.037,293.229 495.526,294.156 494.395,295.445C489.439,301.092 485.961,309.173 480.977,325.071Z" style="fill:rgb(159,132,110);fill-rule:nonzero;"/>
        <path d="M194.005,325.071L187.784,325.071C182.8,309.173 179.322,301.092 174.367,295.445C173.235,294.156 171.724,293.229 170.038,292.564C173.303,293.423 178.029,295.259 181.411,299.086C186.026,304.308 191.956,319.566 194.005,325.071Z" style="fill:rgb(159,132,110);fill-rule:nonzero;"/>
        <path d="M512.38,290.899C508.233,290.879 498.644,290.603 494.395,295.445C489.13,301.445 485.533,310.192 480.026,328.14L188.735,328.14C183.228,310.192 179.631,301.445 174.367,295.445C170.117,290.603 160.528,290.879 156.381,290.899C138.417,290.988 134.169,296.245 136.859,319.302C139.549,342.358 149.156,365.798 153.767,375.02C158.378,384.243 163.374,389.622 172.98,389.622L495.781,389.622C505.388,389.622 510.383,384.243 514.994,375.02C519.606,365.798 529.212,342.358 531.902,319.302C534.592,296.245 530.344,290.988 512.38,290.899Z" style="fill:rgb(87,51,41);fill-rule:nonzero;"/>
        <path d="M235.838,302.734C235.007,290.194 236.618,278.535 236.618,278.535C236.618,278.535 235.01,279.21 232.111,279.431C230.381,279.563 217.571,279.264 208.077,279.264C198.583,279.264 185.803,279.563 184.06,279.431C181.137,279.21 179.46,278.535 179.46,278.535C179.46,278.535 182.274,290.194 182.737,302.734C183.568,315.274 181.957,326.932 181.957,326.932C181.957,326.932 183.565,326.258 186.464,326.036C188.194,325.904 201.005,326.203 210.498,326.203C219.992,326.203 232.772,325.904 234.515,326.036C237.438,326.258 239.115,326.932 239.115,326.932C239.115,326.932 236.301,315.274 235.838,302.734Z" style="fill:rgb(111,79,67);fill-rule:nonzero;"/>
        <path d="M235.838,302.734C235.007,290.194 236.618,278.535 236.618,278.535C236.618,278.535 235.01,279.21 232.111,279.431C231.828,279.453 231.247,279.463 230.437,279.464C225.233,304.625 204.25,322.684 182.513,321.514C182.244,324.853 181.957,326.932 181.957,326.932C181.957,326.932 183.565,326.258 186.464,326.036C188.194,325.904 201.005,326.203 210.498,326.203C219.992,326.203 232.772,325.904 234.515,326.036C237.438,326.258 239.115,326.932 239.115,326.932C239.115,326.932 236.301,315.274 235.838,302.734Z" style="fill:rgb(107,75,64);fill-rule:nonzero;"/>
        <path d="M483.593,301.621C484.118,289.213 487.014,277.734 487.014,277.734C487.014,277.734 485.317,278.362 482.366,278.511C480.605,278.6 467.704,277.997 458.119,277.769C448.534,277.542 435.599,277.53 433.853,277.357C430.927,277.069 429.307,276.362 429.307,276.362C429.307,276.362 430.88,287.947 429.982,300.346C429.457,312.755 426.561,324.233 426.561,324.233C426.561,324.233 428.258,323.605 431.209,323.456C432.97,323.367 445.871,323.97 455.456,324.198C465.041,324.426 477.976,324.438 479.722,324.61C482.648,324.899 484.268,325.606 484.268,325.606C484.268,325.606 482.695,314.021 483.593,301.621Z" style="fill:rgb(111,79,67);fill-rule:nonzero;"/>
        <path d="M483.593,301.621C484.118,289.213 487.014,277.734 487.014,277.734C487.014,277.734 485.317,278.362 482.366,278.511C482.079,278.526 481.49,278.522 480.673,278.504C472.68,303.235 449.531,320.571 427.712,318.894C427.077,322.186 426.561,324.233 426.561,324.233C426.561,324.233 428.258,323.605 431.209,323.456C432.97,323.367 445.871,323.97 455.456,324.198C465.041,324.426 477.976,324.438 479.722,324.61C482.648,324.899 484.268,325.606 484.268,325.606C484.268,325.606 482.695,314.021 483.593,301.621Z" style="fill:rgb(107,75,64);fill-rule:nonzero;"/>
        <path d="M263.843,305.734C263.112,294.878 264.528,284.785 264.528,284.785C264.528,284.785 263.115,285.369 260.568,285.561C259.049,285.675 247.796,285.417 239.455,285.417C231.115,285.417 219.889,285.675 218.357,285.561C215.79,285.369 214.316,284.785 214.316,284.785C214.316,284.785 216.789,294.878 217.195,305.734C217.926,316.59 216.51,326.682 216.51,326.682C216.51,326.682 217.923,326.098 220.47,325.907C221.989,325.792 233.243,326.051 241.583,326.051C249.923,326.051 261.15,325.792 262.681,325.907C265.248,326.098 266.722,326.682 266.722,326.682C266.722,326.682 264.249,316.59 263.843,305.734Z" style="fill:rgb(123,97,82);fill-rule:nonzero;"/>
        <path d="M263.843,305.734C263.113,294.878 264.528,284.785 264.528,284.785C264.528,284.785 263.116,285.369 260.568,285.561C260.32,285.579 259.81,285.588 259.097,285.59C254.526,307.371 236.094,323.004 216.998,321.992C216.762,324.882 216.51,326.682 216.51,326.682C216.51,326.682 217.923,326.098 220.47,325.907C221.989,325.792 233.243,326.051 241.583,326.051C249.923,326.051 261.15,325.792 262.681,325.907C265.248,326.098 266.722,326.682 266.722,326.682C266.722,326.682 264.249,316.59 263.843,305.734Z" style="fill:rgb(117,93,79);fill-rule:nonzero;"/>
        <path d="M451.762,304.622C451.132,294.022 452.684,284.028 452.684,284.028C452.684,284.028 451.236,284.695 448.636,285.053C447.085,285.267 435.607,285.766 427.098,286.324C418.59,286.882 407.134,287.886 405.573,287.877C402.956,287.861 401.459,287.386 401.459,287.386C401.459,287.386 403.874,297.121 404.173,307.742C404.803,318.342 403.251,328.337 403.251,328.337C403.251,328.337 404.699,327.669 407.299,327.311C408.85,327.097 420.328,326.598 428.837,326.041C437.345,325.483 448.801,324.478 450.362,324.488C452.979,324.504 454.477,324.978 454.477,324.978C454.477,324.978 452.061,315.244 451.762,304.622Z" style="fill:rgb(123,97,82);fill-rule:nonzero;"/>
        <path d="M451.762,304.622C451.132,294.022 452.684,284.028 452.684,284.028C452.684,284.028 451.237,284.695 448.636,285.053C448.383,285.088 447.862,285.131 447.136,285.18C442.24,306.851 423.27,323.419 403.799,323.703C403.527,326.554 403.251,328.337 403.251,328.337C403.251,328.337 404.699,327.669 407.299,327.311C408.85,327.097 420.328,326.598 428.837,326.041C437.345,325.483 448.801,324.478 450.362,324.488C452.979,324.504 454.476,324.978 454.476,324.978C454.476,324.978 452.061,315.244 451.762,304.622Z" style="fill:rgb(117,93,79);fill-rule:nonzero;"/>
        <path d="M489.766,348.255C489.766,352.637 486.213,356.19 481.831,356.19L186.93,356.19C182.548,356.19 178.995,352.637 178.995,348.255L178.995,333.006C178.995,328.624 182.548,325.071 186.93,325.071L481.831,325.071C486.213,325.071 489.766,328.624 489.766,333.006L489.766,348.255Z" style="fill:rgb(180,151,126);fill-rule:nonzero;"/>
        <path d="M398.315,452.901C374.449,452.901 346.371,452.476 325.969,451.967L334.374,436.543L421.242,436.543L429.608,452.735C421.203,452.809 407.099,452.901 398.315,452.901ZM429.608,452.735L421.242,436.543L486.771,436.543C487.827,436.581 494.182,436.828 495.221,436.867L513.524,450.26C491.895,451.361 459.699,452.412 429.608,452.735ZM325.969,451.967C291.834,451.03 260.076,448.813 244.92,446.879L254.458,439.9C267.026,438.782 289.847,437.26 309.859,436.543L334.374,436.543L325.969,451.967ZM513.524,450.26L498.899,439.559L503.514,439.559L503.213,437.217C538.183,438.85 560.37,441.283 560.37,444.001C560.37,446.441 542.485,448.652 513.524,450.26ZM244.92,446.879C239.306,445.976 236.26,445.008 236.26,444.001C236.26,442.522 242.83,441.127 254.458,439.9L244.92,446.879ZM497.922,438.844L495.221,436.867C496.009,436.9 496.795,436.933 497.572,436.966L497.922,438.844Z" style="fill:rgb(145,99,66);fill-rule:nonzero;"/>
        <path d="M486.771,436.543L421.242,436.543L420.541,435.185C444.73,435.367 467.211,435.842 486.771,436.543ZM421.242,436.543L339.384,436.543L339.817,435.699C357.964,435.313 377.688,435.102 398.315,435.102C404.138,435.102 414.877,435.152 420.541,435.185L421.242,436.543ZM339.384,436.543L309.859,436.543C317.717,436.261 331.093,435.903 339.817,435.699L339.384,436.543Z" style="fill:rgb(139,95,66);fill-rule:nonzero;"/>
        <path d="M282.638,372.478L273.044,447.184L278.502,447.184L292.316,373.144L282.638,372.478Z" style="fill:rgb(116,76,67);fill-rule:nonzero;"/>
        <path d="M302.711,364.852L293.116,439.559L298.575,439.559L312.389,365.519L302.711,364.852Z" style="fill:rgb(102,66,59);fill-rule:nonzero;"/>
        <path d="M513.992,372.478L523.586,447.184L518.128,447.184L504.314,373.144L513.992,372.478Z" style="fill:rgb(116,76,67);fill-rule:nonzero;"/>
        <path d="M493.919,364.852L503.514,439.559L498.056,439.559L484.241,365.519L493.919,364.852Z" style="fill:rgb(102,66,59);fill-rule:nonzero;"/>
        <path d="M531.174,367.892C531.174,365.146 471.691,362.92 398.315,362.92C324.939,362.92 265.456,365.146 265.456,367.892L265.456,373.944C265.456,376.69 324.939,378.916 398.315,378.916C471.691,378.916 531.174,376.69 531.174,373.944L531.174,367.892Z" style="fill:rgb(128,84,75);fill-rule:nonzero;"/>
        <path d="M540.093,367.241C540.093,369.987 476.617,372.213 398.315,372.213C320.013,372.213 256.536,369.987 256.536,367.241C256.536,364.495 320.013,362.268 398.315,362.268C476.617,362.268 540.093,364.495 540.093,367.241Z" style="fill:rgb(200,151,121);fill-rule:nonzero;"/>
        <path d="M530.237,366.902C530.237,368.786 471.174,370.313 398.315,370.313C325.457,370.313 266.393,368.786 266.393,366.902C266.393,365.019 325.457,363.491 398.315,363.491C471.174,363.491 530.237,365.019 530.237,366.902Z" style="fill:rgb(172,127,99);fill-rule:nonzero;"/>
        <path d="M329.939,351.168L320.207,351.168C319.822,351.168 319.511,350.9 319.511,350.57C319.511,350.9 319.822,351.168 320.207,351.168L329.939,351.168Z" style="fill:rgb(162,136,113);fill-rule:nonzero;"/>
        <path d="M0,25.961L0,0L1.911,0L1.911,25.949C1.274,25.953 0.636,25.957 0,25.961Z" style="fill:rgb(234,235,234);fill-rule:nonzero;"/>
        <path d="M170.68,34.567C169.741,34.464 168.815,34.363 167.875,34.263L170.68,32.513L170.68,34.567ZM145.505,32.039C135.032,31.082 124.457,30.231 113.839,29.494L113.839,25.822L155.472,25.822L145.505,32.039ZM105.839,28.961C95.507,28.301 85.085,27.745 74.628,27.298L76.995,25.822L105.839,25.822L105.839,28.961ZM68.402,27.045C67.53,27.011 66.641,26.978 65.769,26.946L65.769,25.822L70.362,25.822L68.402,27.045Z" style="fill:rgb(163,202,201);fill-rule:nonzero;"/>
        <path d="M167.875,34.263C160.458,33.466 153.001,32.725 145.505,32.039L155.472,25.822L170.68,25.822L170.68,32.513L167.875,34.263Z" style="fill:rgb(174,206,205);fill-rule:nonzero;"/>
        <path d="M74.628,27.298C72.541,27.209 70.494,27.126 68.402,27.045L70.362,25.822L76.995,25.822L74.628,27.298Z" style="fill:rgb(174,206,205);fill-rule:nonzero;"/>
        <path d="M113.839,29.494C113.154,29.447 112.524,29.403 111.839,29.357L111.839,25.822L113.839,25.822L113.839,29.494Z" style="fill:rgb(142,177,176);fill-rule:nonzero;"/>
        <path d="M111.839,29.357C109.846,29.221 107.836,29.089 105.839,28.961L105.839,25.822L111.839,25.822L111.839,29.357Z" style="fill:rgb(145,70,30);fill-rule:nonzero;"/>
        <path d="M155.472,25.822L113.839,25.822L113.839,23.822L158.678,23.822L155.472,25.822ZM105.839,25.822L76.995,25.822L80.201,23.822L105.839,23.822L105.839,25.822ZM70.362,25.822L65.769,25.822L65.769,23.822L73.569,23.822L70.362,25.822Z" style="fill:rgb(142,177,176);fill-rule:nonzero;"/>
        <path d="M170.68,25.822L155.472,25.822L158.678,23.822L170.68,23.822L170.68,25.822Z" style="fill:rgb(151,180,179);fill-rule:nonzero;"/>
        <path d="M76.995,25.822L70.362,25.822L73.569,23.822L80.201,23.822L76.995,25.822Z" style="fill:rgb(151,180,179);fill-rule:nonzero;"/>
        <rect x="111.839" y="23.822" width="2" height="2" style="fill:rgb(124,155,155);fill-rule:nonzero;"/>
        <rect x="105.839" y="23.822" width="6" height="2" style="fill:rgb(125,58,24);fill-rule:nonzero;"/>
        <rect x="65.769" y="16.379" width="104.911" height="7.443" style="fill:rgb(145,70,30);fill-rule:nonzero;"/>
        <path d="M282.978,51.59C281.121,51.226 279.253,50.865 277.389,50.508L276.963,0L282.978,0L282.978,51.59ZM275.165,50.085C271.609,49.412 268.065,48.756 264.483,48.109L264.191,0L275.587,0L275.165,50.085ZM262.909,47.825C259.027,47.129 255.112,46.445 251.201,45.78L250.57,0L263.199,0L262.909,47.825ZM247.698,45.189C240.719,44.021 233.706,42.905 226.638,41.838L226.285,0L248.321,0L247.698,45.189ZM224.559,41.526C218.173,40.572 211.758,39.661 205.302,38.791L205.067,0L224.909,0L224.559,41.526ZM203.84,38.595C197.851,37.794 191.845,37.031 185.799,36.303L185.279,0L204.075,0L203.84,38.595ZM182.429,35.902C178.529,35.442 174.603,34.996 170.68,34.567L170.68,0L182.943,0L182.429,35.902Z" style="fill:rgb(246,136,77);fill-rule:nonzero;"/>
        <path d="M264.483,48.109C263.949,48.012 263.444,47.921 262.909,47.825L263.199,0L264.191,0L264.483,48.109Z" style="fill:rgb(245,129,69);fill-rule:nonzero;"/>
        <path d="M205.302,38.791C204.811,38.725 204.333,38.661 203.84,38.595L204.075,0L205.067,0L205.302,38.791Z" style="fill:rgb(245,129,69);fill-rule:nonzero;"/>
        <path d="M251.201,45.78C250.044,45.583 248.858,45.383 247.698,45.189L248.321,0L250.57,0L251.201,45.78Z" style="fill:rgb(245,129,69);fill-rule:nonzero;"/>
        <path d="M226.638,41.838C225.95,41.734 225.248,41.629 224.559,41.526L224.909,0L226.285,0L226.638,41.838Z" style="fill:rgb(245,129,69);fill-rule:nonzero;"/>
        <path d="M277.389,50.508C276.664,50.37 275.892,50.223 275.165,50.085L275.587,0L276.963,0L277.389,50.508Z" style="fill:rgb(245,129,69);fill-rule:nonzero;"/>
        <path d="M185.799,36.303C184.681,36.169 183.549,36.034 182.429,35.902L182.943,0L185.279,0L185.799,36.303Z" style="fill:rgb(245,129,69);fill-rule:nonzero;"/>
        <path d="M65.769,26.946C63.849,26.875 61.901,26.807 59.978,26.744L59.754,0L65.769,0L65.769,26.946ZM58.154,26.685C54.48,26.568 50.829,26.466 47.141,26.376L46.982,0L58.378,0L58.154,26.685ZM45.831,26.345C41.724,26.248 37.661,26.169 33.537,26.106L33.223,0L45.99,0L45.831,26.345ZM30.936,26.068C25.661,25.996 20.361,25.951 15.06,25.934L14.843,0L31.25,0L30.936,26.068ZM1.911,25.949L1.911,0L13.467,0L13.249,25.929C12.206,25.927 11.186,25.926 10.142,25.926C7.395,25.926 4.651,25.934 1.911,25.949Z" style="fill:rgb(246,136,77);fill-rule:nonzero;"/>
        <path d="M47.141,26.376C46.724,26.366 46.248,26.355 45.831,26.345L45.99,0L46.982,0L47.141,26.376Z" style="fill:rgb(245,129,69);fill-rule:nonzero;"/>
        <path d="M33.537,26.106C32.677,26.093 31.797,26.08 30.936,26.068L31.25,0L33.223,0L33.537,26.106Z" style="fill:rgb(245,129,69);fill-rule:nonzero;"/>
        <path d="M15.06,25.934C14.461,25.932 13.849,25.931 13.249,25.929L13.467,0L14.843,0L15.06,25.934Z" style="fill:rgb(245,129,69);fill-rule:nonzero;"/>
        <path d="M59.978,26.744C59.366,26.724 58.767,26.704 58.154,26.685L58.378,0L59.754,0L59.978,26.744Z" style="fill:rgb(245,129,69);fill-rule:nonzero;"/>
        <path d="M706.163,148.516L706.162,148.516L705.311,148.513L702.8,148.507C702.472,148.507 702.207,148.24 702.208,147.913L702.215,145.019L706.763,145.03L706.757,147.924C706.756,148.251 706.49,148.516 706.163,148.516Z" style="fill:rgb(42,14,17);fill-rule:nonzero;"/>
        <path d="M725.504,145.075L725.501,145.075L722.603,145.068L722.603,143.073L723.501,143.075L723.504,143.075C724.041,143.075 724.477,142.641 724.479,142.103L724.488,138.264L726.492,138.269L726.495,137.279L726.495,137.28L726.479,144.103C726.477,144.641 726.041,145.075 725.504,145.075ZM714.808,145.05L708.858,145.035L708.858,143.04L714.808,143.055L714.808,145.05Z" style="fill:rgb(217,165,69);fill-rule:nonzero;"/>
        <path d="M708.858,145.035L706.763,145.03L706.768,143.035L708.858,143.04L708.858,145.035Z" style="fill:rgb(213,172,90);fill-rule:nonzero;"/>
        <path d="M722.603,145.068L714.808,145.05L714.808,143.055L722.603,143.073L722.603,145.068Z" style="fill:rgb(215,168,79);fill-rule:nonzero;"/>
        <path d="M702.215,145.019L693.295,144.998L693.295,143.003L702.219,143.024L702.215,145.019ZM685.5,144.979L679.55,144.965L679.55,142.97L685.5,142.984L685.5,144.979ZM676.003,144.956L663.986,144.927L663.986,142.932L676.003,142.961L676.003,144.956ZM656.191,144.909L650.241,144.894L650.241,142.899L656.191,142.913L656.191,144.909ZM646.695,144.886L634.678,144.857L634.678,142.862L646.695,142.891L646.695,144.886ZM626.883,144.838L620.933,144.824L620.933,142.828L626.883,142.843L626.883,144.838ZM617.386,144.815L605.37,144.786L605.37,142.791L617.386,142.82L617.386,144.815ZM597.575,144.767L591.625,144.753L591.625,142.758L597.575,142.772L597.575,144.767ZM588.078,144.745L576.061,144.716L576.061,142.72L588.078,142.749L588.078,144.745ZM568.266,144.697L562.316,144.682L562.316,142.687L568.266,142.702L568.266,144.697ZM558.77,144.674L557.699,144.671C556.436,144 555.172,143.334 553.899,142.667L558.77,142.679L558.77,144.674Z" style="fill:rgb(217,165,69);fill-rule:nonzero;"/>
        <path d="M562.316,144.682L558.77,144.674L558.77,142.679L562.316,142.687L562.316,144.682Z" style="fill:rgb(213,172,90);fill-rule:nonzero;"/>
        <path d="M576.061,144.716L568.266,144.697L568.266,142.702L576.061,142.72L576.061,144.716Z" style="fill:rgb(215,168,79);fill-rule:nonzero;"/>
        <path d="M591.625,144.753L588.078,144.745L588.078,142.749L591.625,142.758L591.625,144.753Z" style="fill:rgb(213,172,90);fill-rule:nonzero;"/>
        <path d="M605.37,144.786L597.575,144.767L597.575,142.772L605.37,142.791L605.37,144.786Z" style="fill:rgb(215,168,79);fill-rule:nonzero;"/>
        <path d="M620.933,144.824L617.386,144.815L617.386,142.82L620.933,142.828L620.933,144.824Z" style="fill:rgb(213,172,90);fill-rule:nonzero;"/>
        <path d="M634.678,144.857L626.883,144.838L626.883,142.843L634.678,142.862L634.678,144.857Z" style="fill:rgb(215,168,79);fill-rule:nonzero;"/>
        <path d="M650.241,144.894L646.695,144.886L646.695,142.891L650.241,142.899L650.241,144.894Z" style="fill:rgb(213,172,90);fill-rule:nonzero;"/>
        <path d="M663.986,144.927L656.191,144.909L656.191,142.913L663.986,142.932L663.986,144.927Z" style="fill:rgb(215,168,79);fill-rule:nonzero;"/>
        <path d="M679.55,144.965L676.003,144.956L676.003,142.961L679.55,142.97L679.55,144.965Z" style="fill:rgb(213,172,90);fill-rule:nonzero;"/>
        <path d="M693.295,144.998L685.5,144.979L685.5,142.984L693.295,143.003L693.295,144.998Z" style="fill:rgb(215,168,79);fill-rule:nonzero;"/>
        <path d="M706.763,145.03L702.215,145.019L702.219,143.024L706.768,143.035L706.763,145.03Z" style="fill:rgb(34,7,11);fill-rule:nonzero;"/>
        <path d="M726.492,138.269L724.488,138.264L724.495,135.28C724.495,135.279 724.496,135.001 724.496,135.001L725.526,135.003C726.064,135.004 726.499,135.442 726.498,135.98L726.495,137.279L726.492,138.269Z" style="fill:rgb(217,165,69);fill-rule:nonzero;"/>
        <path d="M723.504,143.075L723.501,143.075L722.603,143.073L714.808,143.055L708.858,143.04L706.768,143.035L702.219,143.024L693.295,143.003L685.5,142.984L679.55,142.97L676.003,142.961L663.986,142.932L656.191,142.913L650.241,142.899L646.695,142.891L634.678,142.862L626.883,142.843L620.933,142.828L617.386,142.82L605.37,142.791L597.575,142.772L591.625,142.758L588.078,142.749L576.061,142.72L568.266,142.702L562.316,142.687L558.77,142.679L553.899,142.667C549.479,140.352 545.036,138.084 540.503,135.826L724.492,136.269L724.495,135.279L724.495,135.28L724.488,138.264L724.479,142.103C724.477,142.641 724.041,143.075 723.504,143.075Z" style="fill:rgb(92,52,51);fill-rule:nonzero;"/>
        <path d="M724.492,136.269L540.503,135.826C538.302,134.73 536.063,133.629 533.836,132.546L537.859,132.556C537.969,132.631 538.102,132.675 538.245,132.675L545.455,132.693L545.456,132.693C545.462,132.693 545.468,132.692 545.474,132.692C545.61,132.689 545.736,132.646 545.841,132.575L546.512,132.577C546.632,132.652 546.773,132.696 546.925,132.696L551.999,132.708L555.092,132.716L555.099,132.716C555.248,132.715 555.387,132.672 555.506,132.598L556.176,132.6C556.286,132.675 556.419,132.719 556.562,132.719L561.041,132.73L563.772,132.737L563.774,132.737C563.781,132.737 563.788,132.736 563.796,132.736C563.93,132.732 564.054,132.689 564.158,132.619L564.892,132.621C565.02,132.697 565.17,132.74 565.329,132.74L570.971,132.754L574.411,132.762L574.418,132.762C574.575,132.761 574.722,132.719 574.849,132.645L575.647,132.647C575.766,132.722 575.908,132.766 576.06,132.766L584.227,132.786L584.238,132.786C584.386,132.784 584.523,132.741 584.64,132.669L588.078,132.677L591.625,132.685L597.575,132.7L600.652,132.707C600.758,132.802 600.896,132.855 601.04,132.855C601.108,132.855 601.177,132.843 601.244,132.818L601.531,132.709L605.37,132.719L617.386,132.747L620.933,132.756L626.883,132.77L634.678,132.789L646.695,132.818L650.241,132.827L656.191,132.841L663.112,132.857L663.12,132.858L706.475,132.962L706.484,132.962L708.488,132.967L708.858,132.968L714.808,132.982L722.603,133.001L723.526,133.003C724.064,133.004 724.499,133.442 724.498,133.98L724.496,135.001L724.495,135.279L724.492,136.269Z" style="fill:rgb(106,63,61);fill-rule:nonzero;"/>
        <path d="M678.286,229.26C677.712,228.712 677.135,228.166 676.555,227.621L678.286,227.621L678.286,229.26Z" style="fill:rgb(123,127,128);fill-rule:nonzero;"/>
        <path d="M697.531,172.709L655.893,172.709L656.191,171.13L657.861,162.287L695.563,162.287L697.531,172.709Z" style="fill:rgb(229,125,88);fill-rule:nonzero;"/>
        <path d="M705.079,212.685L659.825,212.685C656.578,209.932 653.27,207.206 649.89,204.498L650.241,202.641L655.041,177.223L698.383,177.223L705.079,212.685Z" style="fill:rgb(229,125,88);fill-rule:nonzero;"/>
        <path d="M707.9,227.621L676.555,227.621C672.831,224.114 668.999,220.638 665.066,217.198L705.932,217.198L707.9,227.621Z" style="fill:rgb(229,125,88);fill-rule:nonzero;"/>
        <path d="M698.383,177.223L655.041,177.223L655.893,172.709L697.531,172.709L698.383,177.223Z" style="fill:rgb(239,164,112);fill-rule:nonzero;"/>
        <path d="M705.932,217.198L665.066,217.198C663.344,215.691 661.587,214.178 659.825,212.685L705.079,212.685L705.311,213.913L705.932,217.198Z" style="fill:rgb(239,164,112);fill-rule:nonzero;"/>
    </g>
</svg>
