<svg width="3125" height="2084" viewBox="0 0 3125 2084" fill="none" xmlns="http://www.w3.org/2000/svg">
<g clip-path="url(#clip0_227_558)">
<path d="M3125 0H0V2083.33H3125V0Z" fill="#E7F3FA"/>
<path d="M2829.54 305.708V642.459H2648.34V526.792H2471.21V604.167H2392.3V642.459H2301.92V533.5H2178.46V642.459H2142.79V305.708H1999.59V534.288H1939.59V642.459H1821.21V305.708H1644.04V584.625H1603.13V539.084H1508.25V305.708H1376.55V642.459H1195.38V526.792H1018.21V604.167H939.297V642.459H848.922V533.5H725.505V642.459H689.838V305.708H546.63V534.288H486.584V642.459H368.213V305.708H191.084V584.625H146.754V539.084H60.296V642.459H3.4585V1121.83H3121.54V642.459H3053.63V551.459H2961.22V305.708H2829.54Z" fill="#BADEE3"/>
<path d="M1812.38 173.818H2193.07C2193.07 173.818 2134.94 90.7764 2069.03 146.743C2069.03 146.743 2039.93 28.4805 1918.1 148.31C1918.1 148.31 1871.47 90.3472 1812.38 173.818Z" fill="white"/>
<path d="M821.138 159.727H1066.32C1066.32 159.727 1028.88 106.244 986.43 142.289C986.43 142.289 967.688 66.1227 889.222 143.298C889.222 143.298 859.188 105.969 821.138 159.727Z" fill="white"/>
<path d="M1374.67 833.522C1391.65 844.513 1402.92 866.351 1396.69 885.438H963.867C965.467 866.784 981.676 851.892 999.538 846.322C1017.42 840.751 1036.7 842.688 1055.2 845.492C1038.65 837.434 1023.84 825.842 1012.04 811.705C1006.99 805.68 1002.38 798.942 1000.93 791.226C999.463 783.505 1001.84 774.622 1008.35 770.255C1016.16 765.022 1026.61 767.655 1035.45 770.78C1064.29 781.005 1091.87 794.726 1117.42 811.555C1120.15 789.867 1127.64 768.805 1139.18 750.242C1143.32 743.597 1148.12 737.142 1154.67 732.851C1161.22 728.559 1169.82 726.751 1177 729.876C1187.7 734.526 1191.49 747.663 1192.86 759.242C1194.95 776.751 1194.52 794.538 1191.56 811.909C1206.11 794.255 1225.05 780.23 1246.21 771.497C1253.68 768.409 1261.76 765.922 1269.78 767.017C1277.82 768.088 1285.7 773.567 1287.36 781.492C1288.83 788.513 1285.29 795.534 1281.39 801.559C1275.1 811.309 1267.6 820.251 1259.09 828.138C1277.35 823.772 1296.06 821.305 1314.83 820.776C1335.53 820.192 1357.28 822.284 1374.67 833.522Z" fill="#87AFB9"/>
<path d="M790.121 887.886C804.388 887.886 816.417 876.548 816.492 862.281V862.011C816.492 831.423 789.642 804.906 750.421 791.873C727.963 784.406 711.888 764.819 709.559 741.269C709.505 740.727 709.45 740.185 709.392 739.64C700.642 660.185 632.596 602.085 552.767 606.206C520.18 607.885 490.359 619.994 466.559 639.252C432.059 667.169 389.109 682.177 344.725 682.069H343.867C209.738 682.069 101 758.023 101 851.719C101 864.136 102.963 876.227 106.588 887.886H790.121Z" fill="#87AFB9"/>
<path d="M218.317 270.937C218.317 213.875 264.579 167.612 321.642 167.612C325.875 167.612 330.038 167.9 334.142 168.391C334.142 168.325 334.129 168.254 334.129 168.183C334.129 148.579 350.025 132.687 369.63 132.687C378.18 132.687 386.025 135.712 392.15 140.745C404.571 116.783 429.555 100.383 458.409 100.383C475.763 100.383 491.692 106.358 504.367 116.295C519.85 102.82 540.063 94.6411 562.2 94.6411C608.388 94.6411 646.255 130.174 650.013 175.391C652.817 175.166 655.646 175.016 658.509 175.016C716.376 175.016 763.288 221.929 763.288 279.795C763.288 318.637 742.138 352.516 710.746 370.608C712.159 375.841 712.984 381.321 712.984 387C712.984 421.596 684.942 449.641 650.346 449.641C636.601 449.641 623.93 445.158 613.601 437.654C576.188 489.062 506.78 515.066 437.155 497.908C371.68 481.771 324.113 431.921 310.992 373.716C258.929 368.383 218.317 324.404 218.317 270.937Z" fill="#B3D843"/>
<path d="M404.582 285.538C457.807 354.434 516.982 356.825 578.132 331.467C695.828 282.671 710.745 370.609 710.745 370.609C712.162 375.842 712.987 381.321 712.987 387.005C712.987 421.596 684.941 449.642 650.345 449.642C649.482 449.642 648.628 449.625 647.778 449.592C623.391 448.592 599.741 456.767 580.037 471.171C541.47 499.367 489.374 510.78 437.153 497.909C388.099 485.821 349.103 454.809 327.107 415.538C314.015 392.171 293.682 373.992 270.428 360.696C239.299 342.896 218.315 309.367 218.315 270.938C233.115 201.796 351.357 216.646 404.582 285.538Z" fill="#8EAC37"/>
<path d="M499.879 879.809V345.613C485.254 344.1 470.859 339.813 456.759 332.163V879.809H499.879Z" fill="#746663"/>
<path d="M394.464 273.875C396.556 292.225 399.977 310.383 404.239 328.283C408.544 346.171 413.835 363.804 420.502 380.825C423.785 389.35 427.527 397.675 431.61 405.775C435.664 413.892 440.219 421.717 445.277 429.121C455.244 444.013 467.694 457.063 482.248 466.167L474.385 478.088C458.269 466.496 445.76 451.238 436.227 434.85C431.385 426.675 427.173 418.204 423.519 409.546C419.835 400.9 416.556 392.117 413.769 383.208C408.094 365.417 403.914 347.271 400.739 329.004C397.614 310.733 395.373 292.329 394.464 273.875Z" fill="#746663"/>
<path d="M623 385.96C609.225 389.494 595.563 394.369 582.442 399.952C569.288 405.556 556.617 412.135 544.68 419.623C532.784 427.177 521.671 435.744 511.988 445.448C507.15 450.298 502.759 455.486 498.721 460.844C494.755 466.261 491.33 471.956 488.325 477.79L485.25 483.752L477.917 483.619C461.934 482.652 447.567 476.977 434.959 469.827C422.292 462.623 411.088 453.802 400.788 444.294C380.263 425.169 363.134 403.348 348.167 380.335C333.271 357.269 320.534 332.885 310.659 307.298C305.75 294.494 301.567 281.377 298.646 267.894C295.771 254.427 293.988 240.515 295.342 226.423L302.933 227.04C302.3 239.89 304.563 252.973 307.917 265.66C311.317 278.381 315.938 290.819 321.259 302.94C331.954 327.173 345.429 350.215 360.813 371.715C376.238 393.156 393.692 413.219 413.467 429.94C423.359 438.248 433.884 445.677 444.95 451.273C455.971 456.886 467.65 460.544 478.717 460.636L468.313 466.465C472.634 459.765 477.392 453.436 482.621 447.611C487.917 441.856 493.513 436.477 499.454 431.598C511.338 421.844 524.263 413.844 537.63 407.106C551.038 400.444 564.863 394.944 578.955 390.527C593.075 386.115 607.288 382.569 621.967 380.319L623 385.96Z" fill="#746663"/>
<path d="M518.671 431.479C518.671 388.9 484.155 354.383 441.575 354.383C438.417 354.383 435.309 354.596 432.25 354.967C432.25 354.917 432.259 354.863 432.259 354.813C432.259 340.183 420.4 328.325 405.767 328.325C399.392 328.325 393.538 330.583 388.967 334.342C379.696 316.458 361.059 304.221 339.529 304.221C326.579 304.221 314.692 308.679 305.234 316.096C293.684 306.042 278.6 299.938 262.083 299.938C227.621 299.938 199.371 326.45 196.563 360.188C194.471 360.021 192.363 359.913 190.221 359.913C147.046 359.913 112.046 394.913 112.046 438.088C112.046 467.071 127.825 492.346 151.25 505.85C150.192 509.754 149.575 513.842 149.575 518.079C149.575 543.892 170.5 564.817 196.317 564.817C206.571 564.817 216.025 561.475 223.733 555.871C251.65 594.234 303.438 613.634 355.388 600.834C404.242 588.792 439.734 551.596 449.525 508.167C488.367 504.188 518.671 471.375 518.671 431.479Z" fill="#AAC85A"/>
<path d="M379.692 442.371C339.979 493.775 295.829 495.559 250.196 476.642C162.379 440.229 151.25 505.846 151.25 505.846C150.192 509.75 149.579 513.838 149.579 518.075C149.579 543.888 170.504 564.813 196.317 564.813C196.958 564.813 197.6 564.8 198.233 564.775C216.429 564.034 234.075 570.129 248.779 580.88C277.554 601.921 316.425 610.43 355.388 600.83C391.992 591.809 421.088 568.671 437.5 539.371C447.267 521.934 462.442 508.367 479.788 498.446C503.017 485.167 518.671 460.15 518.671 431.475C507.634 379.884 419.409 390.967 379.692 442.371Z" fill="#8EAC37"/>
<path d="M461.201 398.267L455.538 398.725C457.713 442.971 410.821 524.771 362.325 558.367C358.767 560.834 354.375 556.734 356.542 552.984C376.292 518.792 385.446 470.234 387.242 433.671C383.071 470.25 347.088 561.934 340.763 549.18V477.167C330.238 482.871 319.5 486.071 308.588 487.2V535.055C307.463 553.901 242.984 517.001 217.492 513.092L216.721 517.305C240.771 523.471 267.609 536.809 288.571 554.371C301.192 564.942 308.588 580.476 308.588 596.942V879.813H340.763V628.746C340.763 609.113 350.334 590.821 366.23 579.292C418.267 541.555 465.93 447.346 461.201 398.267Z" fill="#8A6A60"/>
<path d="M2887.92 895.446C2904.5 888.646 2915.5 876.846 2915.5 863.405C2915.5 842.576 2892.77 829.863 2868.39 826.326C2855.23 824.417 2843.9 816.421 2837.85 804.576C2830.14 789.471 2816.29 777.121 2798.96 769.759C2778.63 761.121 2762.66 744.234 2756.21 723.101C2737.15 660.713 2679.15 615.33 2610.53 615.33C2547.78 615.33 2493.9 653.271 2470.56 707.467C2460.8 730.134 2441.18 747.534 2417.22 753.476C2380.05 762.696 2351.12 794.367 2346.45 833.392C2344.75 847.596 2335.63 859.571 2322.7 865.692C2308.84 872.255 2299.7 883.109 2299.39 895.446H2887.92Z" fill="#87AFB9"/>
<path d="M2755.41 273.09C2757.62 266.198 2758.83 258.852 2758.83 251.223C2758.83 214.056 2730.47 183.523 2694.21 180.056C2686.35 133.481 2645.84 97.9936 2597.03 97.9936C2577.39 97.9936 2559.11 103.76 2543.74 113.656C2537.12 99.127 2522.51 89.002 2505.5 89.002C2494.54 89.002 2484.59 93.2353 2477.1 100.114C2464.49 93.0478 2449.95 89.002 2434.47 89.002C2386.2 89.002 2347.07 128.131 2347.07 176.402C2347.07 187.273 2349.07 197.669 2352.69 207.269C2350.83 207.148 2348.96 207.069 2347.07 207.069C2298.41 207.069 2258.97 246.51 2258.97 295.165C2258.97 343.819 2298.41 383.261 2347.07 383.261C2347.22 383.261 2347.38 383.248 2347.54 383.248C2347.23 386.381 2347.07 389.556 2347.07 392.773C2347.07 446.677 2390.76 490.373 2444.67 490.373C2486.82 490.373 2522.73 463.656 2536.39 426.236C2553.99 447.723 2580.74 461.44 2610.69 461.44C2650.16 461.44 2684.06 437.606 2698.81 403.552C2705.56 405.665 2712.74 406.806 2720.18 406.806C2759.67 406.806 2791.68 374.794 2791.68 335.302C2791.68 308.627 2777.06 285.377 2755.41 273.09Z" fill="#AAC85A"/>
<path d="M2607.53 361.321C2493.51 387.192 2468.28 331.667 2385.04 308.667C2337.66 295.575 2305.72 328.646 2286.99 359.571C2292.58 364.788 2298.8 369.255 2305.53 372.859C2327.92 384.863 2344.51 404.95 2353.84 428.58C2368.09 464.65 2403.28 490.375 2444.67 490.375C2467.2 490.375 2487.95 482.746 2504.46 469.925C2525.99 453.217 2554.79 448.138 2580.67 456.655C2590.11 459.759 2600.2 461.442 2610.69 461.442C2637.87 461.442 2662.41 450.138 2679.87 431.98C2693.3 418.017 2710.97 408.838 2730.15 406.117C2754.06 402.73 2775.53 387.321 2785.76 363.809C2739.21 356.6 2724.72 334.734 2607.53 361.321Z" fill="#8EAC37"/>
<path d="M2505.17 482.575V898.897H2549.71L2554.96 649.055C2555.99 607.534 2564.94 566.588 2581.3 528.409L2656.96 351.959C2651.3 352.771 2645.31 353.738 2638.94 354.888C2638.94 354.888 2547.71 542.496 2547.71 478.959V367.917C2531.74 367.434 2517.89 364.842 2505.17 360.93V402.042C2505.17 407.8 2499.26 411.663 2493.98 409.371C2463.41 396.08 2436.96 358.538 2422.53 322.384C2417.58 320.146 2412.47 317.975 2407.1 315.925C2417.29 343.592 2435.82 387.084 2478.72 423.946C2495.73 438.563 2505.17 460.146 2505.17 482.575Z" fill="#746663"/>
<path d="M2991.67 480.888C2996.96 472.067 2999.9 462.384 2999.9 452.213C2999.9 411.321 2952.56 378.175 2894.16 378.175C2871.31 378.175 2850.19 383.263 2832.9 391.884C2821 346.709 2775.01 313.025 2720.04 313.025C2656.03 313.025 2604.15 358.663 2604.15 414.959C2604.15 428.738 2607.28 441.875 2612.91 453.863C2584.16 465.292 2564.14 490.73 2564.14 520.301C2564.14 560.551 2601.21 593.18 2646.95 593.18C2661.79 593.18 2675.72 589.726 2687.76 583.701C2703.44 625.263 2752.28 655.588 2810.14 655.588C2866.77 655.588 2914.76 626.526 2931.46 586.309C2943.65 591.871 2958.04 595.101 2973.48 595.101C3017.28 595.101 3052.8 569.184 3052.8 537.221C3052.8 509.826 3026.7 486.892 2991.67 480.888Z" fill="#B3D843"/>
<path d="M2874.7 545.975C2796.5 562.421 2776.95 553.679 2661.08 505.379C2611.69 484.792 2582.46 492.838 2565.18 508.838C2564.51 512.575 2564.14 516.396 2564.14 520.3C2564.14 562.371 2602.91 592.375 2645.37 593.217C2669.93 593.705 2693.89 602.046 2711.66 619C2735.07 641.346 2770.48 655.588 2810.14 655.588C2847.3 655.588 2880.74 643.071 2904.07 623.1C2923.84 606.171 2948.41 595.45 2974.44 595.154C3011.68 594.725 3046.32 574.875 3052.01 545.346C3021.04 513.096 2941.59 531.913 2874.7 545.975Z" fill="#8EAC37"/>
<path d="M2913.75 537.829C2897.81 558.363 2823.43 655.588 2823.15 599.921V553.413C2810.34 553.954 2798.41 553.096 2785.76 550.688V605.171C2758.07 585.071 2722.68 548.85 2700.97 521.929C2696.01 519.896 2690.79 517.742 2685.38 515.496C2687.86 519.917 2690.37 524.317 2692.94 528.692C2709.13 556.021 2734.23 592.817 2761.14 617.871C2776.85 632.488 2785.76 652.967 2785.76 674.421V898.363C2793.66 899.563 2801.79 898.363 2810.14 898.363C2814.53 898.363 2818.87 898.68 2823.15 898.646V702.571C2823.15 673.467 2835.71 645.467 2858.34 627.167C2887.42 603.663 2913.16 562.921 2927.7 535.146C2923.05 536.004 2918.4 536.9 2913.75 537.829Z" fill="#8A6A60"/>
<path d="M2002.09 879.313L1991.8 878.313L2001.11 884.434C2000.91 885.505 2000.57 886.597 2000.09 887.713H1785.56C1780.4 878.859 1776.32 869.072 1774.05 858.601C1770.71 843.192 1769.34 828.351 1769.72 815.242L1789.28 808.321L1770.59 803.338C1773.12 782.963 1780.56 768.696 1791.87 766.234C1798.97 764.688 1806.67 768.034 1814.04 775.088L1808.21 780.734L1815.93 776.98C1821.01 782.305 1825.95 789.338 1830.41 797.717C1831.2 783.651 1833.21 770.492 1836.19 758.838L1850.62 757.267L1837.46 754.171C1845.24 727.246 1858.36 709.538 1873.24 709.538C1881.18 709.538 1888.61 714.546 1894.98 723.309L1881.89 729.271H1898.85C1903.36 737.101 1907.2 746.934 1910.14 758.201L1887.53 769.63H1912.71C1914.03 776.526 1915.03 783.855 1915.67 791.476C1921.02 784.742 1926.52 779.301 1931.94 775.409L1940.34 780.734L1935.49 773.088C1942.6 768.876 1949.4 767.488 1955.27 769.676C1964.83 773.226 1970.11 785.471 1970.98 802.359L1956.82 805.43L1971.07 809.484C1970.89 819.726 1969.25 831.288 1966.15 843.463C1973.94 833.426 1982.4 828.101 1989.94 829.784C1996.7 831.288 1999.5 840.826 2001.82 852.592L1991.8 855.663H2002.32C2003.39 863.109 2003.03 871.142 2002.09 879.313Z" fill="#87AFB9"/>
<path d="M1871.67 792.367L1878.5 887.713H1874.22L1867.41 792.684C1867.32 791.501 1868.21 790.476 1869.39 790.384C1870.58 790.317 1871.58 791.205 1871.67 792.367Z" fill="#297F63"/>
<path d="M1919.56 847.242L1907.36 887.709H1902.9L1915.46 846.013C1915.81 844.876 1917.01 844.238 1918.12 844.58C1919.26 844.922 1919.9 846.126 1919.56 847.242Z" fill="#297F63"/>
<path d="M1857.11 887.713H1851.5L1809.88 838.525C1809.1 837.617 1809.21 836.271 1810.13 835.521C1811.01 834.75 1812.36 834.863 1813.13 835.771L1857.11 887.713Z" fill="#297F63"/>
<path d="M1958.16 887.234L1957.16 887.713H1947.33L1956.3 883.388C1957.37 882.863 1958.64 883.322 1959.16 884.388C1959.66 885.434 1959.24 886.713 1958.16 887.234Z" fill="#297F63"/>
<path d="M0 882.078H3125V2084.52H0V882.078Z" fill="#AAC85A"/>
<path d="M3 1043H3121.12V1248.76H3V1043Z" fill="#EDDBC4"/>
<path d="M0.154053 2045.43H3125.16V2083.35H0.154053V2045.43Z" fill="#8EAC37"/>
<path d="M1951.49 1806.79L1932.66 1804.96L1949.7 1816.17C1949.33 1818.13 1948.7 1820.13 1947.83 1822.17H1555.12C1545.66 1805.96 1538.2 1788.04 1534.03 1768.88C1527.91 1740.67 1525.41 1713.5 1526.12 1689.5L1561.91 1676.83L1527.7 1667.71C1532.33 1630.42 1545.95 1604.29 1566.66 1599.79C1579.66 1596.96 1593.74 1603.08 1607.24 1616L1596.58 1626.33L1610.7 1619.46C1619.99 1629.21 1629.03 1642.08 1637.2 1657.42C1638.66 1631.67 1642.33 1607.58 1647.78 1586.25L1674.2 1583.38L1650.12 1577.71C1664.37 1528.42 1688.37 1496 1715.62 1496C1730.16 1496 1743.74 1505.17 1755.41 1521.21L1731.45 1532.13H1762.49C1770.74 1546.46 1777.78 1564.46 1783.16 1585.08L1741.78 1606H1787.87C1790.28 1618.63 1792.12 1632.04 1793.28 1646C1803.08 1633.67 1813.16 1623.71 1823.08 1616.58L1838.45 1626.33L1829.58 1612.33C1842.58 1604.62 1855.03 1602.08 1865.78 1606.08C1883.28 1612.58 1892.95 1635 1894.53 1665.92L1868.62 1671.54L1894.7 1678.96C1894.37 1697.71 1891.37 1718.88 1885.7 1741.17C1899.95 1722.79 1915.45 1713.04 1929.24 1716.13C1941.62 1718.88 1946.74 1736.33 1950.99 1757.88L1932.66 1763.5H1951.91C1953.87 1777.13 1953.2 1791.83 1951.49 1806.79Z" fill="#6EAA50"/>
<path d="M1712.75 1647.62L1725.25 1822.17H1717.41L1704.95 1648.21C1704.79 1646.04 1706.41 1644.17 1708.58 1644C1710.75 1643.88 1712.58 1645.5 1712.75 1647.62Z" fill="#297F63"/>
<path d="M1800.41 1748.08L1778.07 1822.17H1769.91L1792.91 1745.83C1793.53 1743.75 1795.74 1742.58 1797.78 1743.21C1799.87 1743.83 1801.03 1746.04 1800.41 1748.08Z" fill="#297F63"/>
<path d="M1686.08 1822.17H1675.83L1599.62 1732.13C1598.2 1730.45 1598.41 1728 1600.08 1726.62C1601.7 1725.2 1604.16 1725.41 1605.58 1727.08L1686.08 1822.17Z" fill="#297F63"/>
<path d="M1871.08 1821.29L1869.25 1822.17H1851.25L1867.66 1814.25C1869.62 1813.29 1871.95 1814.12 1872.91 1816.08C1873.83 1818 1873.04 1820.33 1871.08 1821.29Z" fill="#297F63"/>
<path d="M365.811 974.075L350.298 972.546L364.594 981.967C363.698 986.625 362.498 991.184 360.936 995.479H105.715C99.3732 982.013 93.9982 966.221 90.2524 949.013C86.2441 930.604 84.6107 912.896 85.0774 897.238L108.411 888.979L86.1107 883.021C89.1232 858.692 98.0274 841.65 111.523 838.704C120.011 836.854 129.182 840.85 138.019 849.271L131.027 856.029L140.248 851.533C146.323 857.892 152.198 866.3 157.54 876.317C158.49 859.508 160.886 843.796 164.448 829.883L181.673 828L165.982 824.308C175.248 792.154 190.927 771 208.719 771C218.169 771 227.04 776.992 234.682 787.442L219.036 794.583H239.273C244.665 803.904 249.261 815.654 252.773 829.117L225.778 842.763H255.832C257.398 851 258.611 859.742 259.365 868.842C265.753 860.804 272.344 854.317 278.803 849.671L288.853 856.029L283.061 846.892C291.515 841.85 299.657 840.221 306.678 842.829C318.078 847.075 324.403 861.671 325.419 881.858L308.511 885.538L325.553 890.346C325.303 902.579 323.369 916.408 319.678 930.954C328.965 918.954 339.065 912.596 348.086 914.613C356.14 916.392 361.932 927.046 364.711 941.075L350.298 945.517H365.461C366.773 954.388 366.94 964.308 365.811 974.075Z" fill="#6EAA50"/>
<path d="M198.55 845.429L202.392 995.479H197.4L197.1 984.046C180.642 975.359 168.459 960.834 162.784 943.092L150.384 904.379C149.967 903.067 150.684 901.667 152 901.25C153.296 900.833 154.696 901.55 155.113 902.867L167.513 941.575C172.504 957.188 182.904 970.1 196.95 978.304L193.575 845.546C193.521 844.163 194.621 843.033 196.004 842.983H196.071C197.417 842.983 198.517 844.063 198.55 845.429Z" fill="#297F63"/>
<path d="M307.311 938.625L278.286 967.454C265.336 980.317 248.282 987.592 230.086 988.071L228.09 995.479H222.932L254.053 879.875C254.403 878.546 255.786 877.767 257.098 878.117C258.432 878.479 259.228 879.846 258.865 881.175L231.436 983.046C247.794 982.25 263.073 975.521 274.773 963.904L303.782 935.079C304.765 934.1 306.348 934.117 307.311 935.079C308.294 936.067 308.278 937.646 307.311 938.625Z" fill="#297F63"/>
<path d="M2478.58 1367.84L2454.78 1367.37L2475.57 1382.21C2471.78 1396.98 2465.63 1413.02 2457.24 1429.15H2189.09L2204.42 1415.2L2176.1 1413.49C2173.98 1405.22 2173.56 1395.96 2174.41 1386.6L2191.25 1381.37L2175.46 1378.45C2177.13 1368.45 2180.11 1358.69 2183.92 1350.24L2198.96 1354.56L2185.93 1346.05C2192.68 1332.93 2201.45 1324.05 2209.96 1324.56C2219.45 1325.14 2227.65 1334.32 2233.47 1348.84C2233.93 1333.38 2235.94 1319.12 2239.19 1306.94L2257.44 1307L2241.73 1298.56C2248.5 1278.85 2258.9 1266.17 2271.43 1265.21C2279.13 1264.61 2286.7 1268.55 2293.68 1275.95L2285.33 1283.37L2297.09 1279.92C2302.19 1286.37 2306.87 1294.68 2310.9 1304.47C2314.24 1295.67 2317.92 1287.34 2321.84 1279.6L2351.62 1288.16L2328.77 1266.97C2336.07 1254.63 2343.96 1244.27 2351.95 1236.57L2372.03 1242.34L2358.55 1230.82C2369.09 1222.62 2379.58 1219.21 2388.96 1221.91C2406.58 1226.96 2416.09 1252.38 2416.14 1286.89L2399.54 1286.11L2416.07 1292.86C2415.63 1307.67 2413.55 1323.94 2409.7 1340.85C2417.83 1332.42 2426.05 1325.78 2433.89 1321.22L2441.75 1328.3L2436.74 1319.62C2447.9 1313.77 2458.13 1312.42 2466.01 1316.67C2478.55 1323.42 2482.52 1342.87 2478.58 1367.84Z" fill="#8EAC37"/>
<path d="M2231.86 1387.64L2272.34 1429.15H2263L2227.08 1392.3C2225.78 1390.99 2225.8 1388.87 2227.14 1387.57C2228.45 1386.28 2230.57 1386.31 2231.86 1387.64Z" fill="#1F664D"/>
<path d="M2285.37 1354.25L2299 1429.15H2292.21L2278.8 1355.45C2278.47 1353.63 2279.67 1351.89 2281.49 1351.56C2283.32 1351.22 2285.04 1352.43 2285.37 1354.25Z" fill="#1F664D"/>
<path d="M2352.8 1341.07L2340.08 1429.15H2333.31L2346.18 1340.11C2346.45 1338.28 2348.15 1336.99 2349.97 1337.28C2351.8 1337.52 2353.07 1339.24 2352.8 1341.07Z" fill="#1F664D"/>
<path d="M2424.15 1383.99L2358.77 1429.15H2347.01L2420.34 1378.49C2421.86 1377.44 2423.95 1377.82 2425 1379.36C2426.05 1380.87 2425.67 1382.94 2424.15 1383.99Z" fill="#1F664D"/>
<path d="M411.183 1439.58C410.896 1439.53 410.675 1439.43 410.492 1439.31C348.513 1441.01 286.504 1442.28 224.496 1443.11C224.042 1443.49 223.4 1443.61 222.742 1443.14C222.725 1443.12 222.725 1443.12 222.708 1443.11C221.917 1443.07 221.425 1442.57 221.275 1441.94C209.842 1432.36 208.558 1414.52 214.429 1401.33C223.921 1380.03 244.092 1393.32 259.538 1399.12C254.767 1387.08 252.492 1374.3 253.621 1361.3C254.263 1353.83 256.421 1343.37 264.65 1340.64C273.521 1337.69 282.475 1346.37 287.517 1352.59C294.783 1361.53 299.404 1372.21 306.338 1381.38C309.321 1361.04 324.667 1334.21 347.958 1337.23C374.738 1340.69 364.217 1377.81 359.492 1396.95C372.75 1387.86 391.25 1374.21 406.917 1382.82C413.154 1386.24 415.671 1392.9 414.671 1399.78C413.646 1406.91 409.075 1412.36 403.879 1417.05C416.109 1413.93 434.471 1410.73 437.979 1423.46C441.892 1437.68 420.542 1441.13 411.183 1439.58Z" fill="#8EAC37"/>
<path d="M586.183 1545.58C585.896 1545.53 585.675 1545.43 585.492 1545.31C523.513 1547.01 461.504 1548.28 399.496 1549.11C399.042 1549.49 398.4 1549.61 397.742 1549.14C397.725 1549.12 397.725 1549.12 397.708 1549.11C396.917 1549.07 396.425 1548.57 396.275 1547.94C384.842 1538.36 383.558 1520.52 389.429 1507.33C398.921 1486.03 419.092 1499.32 434.538 1505.12C429.767 1493.08 427.492 1480.3 428.621 1467.3C429.263 1459.83 431.421 1449.37 439.65 1446.64C448.521 1443.69 457.475 1452.37 462.517 1458.59C469.783 1467.53 474.404 1478.21 481.338 1487.38C484.321 1467.04 499.667 1440.21 522.958 1443.23C549.738 1446.69 539.217 1483.81 534.492 1502.95C547.75 1493.86 566.25 1480.21 581.917 1488.82C588.154 1492.24 590.671 1498.9 589.671 1505.78C588.646 1512.91 584.075 1518.36 578.879 1523.05C591.109 1519.93 609.471 1516.73 612.979 1529.46C616.892 1543.68 595.542 1547.13 586.183 1545.58Z" fill="#8EAC37"/>
<path d="M2345.18 1028.58C2344.9 1028.53 2344.68 1028.43 2344.49 1028.31C2282.52 1030.01 2220.5 1031.28 2158.5 1032.11C2158.04 1032.49 2157.4 1032.61 2156.74 1032.14C2156.73 1032.12 2156.73 1032.12 2156.71 1032.11C2155.92 1032.07 2155.43 1031.57 2155.28 1030.94C2143.84 1021.36 2142.56 1003.52 2148.43 990.33C2157.93 969.034 2178.09 982.322 2193.54 988.122C2188.77 976.08 2186.49 963.301 2187.63 950.297C2188.26 942.826 2190.42 932.368 2198.65 929.638C2207.52 926.688 2216.48 935.372 2221.52 941.597C2228.78 950.534 2233.41 961.209 2240.34 970.38C2243.33 950.043 2258.67 923.213 2281.96 926.234C2308.74 929.693 2298.22 966.809 2293.5 985.951C2306.75 976.859 2325.25 963.213 2340.92 971.818C2347.16 975.238 2349.67 981.901 2348.68 988.78C2347.65 995.913 2343.08 1001.36 2337.88 1006.05C2350.11 1002.93 2368.48 999.726 2371.98 1012.46C2375.89 1026.68 2354.54 1030.13 2345.18 1028.58Z" fill="#8EAC37"/>
</g>
<defs>
<clipPath id="clip0_227_558">
<rect width="3125" height="2084" fill="white"/>
</clipPath>
</defs>
</svg>
