<svg width="1366" height="1024" viewBox="0 0 1366 1024" fill="none" xmlns="http://www.w3.org/2000/svg">
<g clip-path="url(#clip0_245_393)">
<rect width="1366" height="1024" fill="#F2F5F8"/>
<path d="M1461.8 336V522.917H1361.15V458.715H1262.76V501.663H1218.93V522.917H1168.72V462.439H1100.15V522.917H1080.33V336H1000.79V462.876H967.458V522.917H901.705V336H803.294V490.816H780.566V465.538H727.866V336H654.708V522.917H554.076V458.715H455.663V501.663H411.829V522.917H361.629V462.439H293.074V522.917H273.263V336H193.715V462.876H160.361V522.917H94.6098V336H-3.77999V490.816H-28.4036V465.538H-76.4285V522.917H-108V789H1624V522.917H1586.27V472.406H1534.94V336H1461.8Z" fill="#BADEE3"/>
<path d="M1393.5 746.5C849.125 648.213 493.873 643.531 -27 749.5V1057H1393.5V746.5Z" fill="#AAC85A" stroke="black" stroke-width="8"/>
<path d="M239.811 814.075L224.298 812.546L238.594 821.967C237.698 826.625 236.498 831.184 234.936 835.479H-20.2851C-26.6268 822.013 -32.0018 806.221 -35.7476 789.013C-39.7559 770.604 -41.3893 752.896 -40.9226 737.238L-17.5892 728.979L-39.8893 723.021C-36.8768 698.692 -27.9726 681.65 -14.4767 678.704C-5.98923 676.854 3.18162 680.85 12.0191 689.271L5.02745 696.029L14.2483 691.533C20.3233 697.892 26.1983 706.3 31.54 716.317C32.49 699.508 34.8858 683.796 38.4483 669.883L55.6733 668L39.9816 664.308C49.2483 632.154 64.9275 611 82.7192 611C92.1692 611 101.04 616.992 108.682 627.442L93.0358 634.583H113.273C118.665 643.904 123.261 655.654 126.773 669.117L99.7775 682.763H129.832C131.398 691 132.611 699.742 133.365 708.842C139.753 700.804 146.344 694.317 152.803 689.671L162.853 696.029L157.061 686.892C165.515 681.85 173.657 680.221 180.678 682.829C192.078 687.075 198.403 701.671 199.419 721.858L182.511 725.538L199.553 730.346C199.303 742.579 197.369 756.408 193.678 770.954C202.965 758.954 213.065 752.596 222.086 754.613C230.14 756.392 235.932 767.046 238.711 781.075L224.298 785.517H239.461C240.773 794.388 240.94 804.308 239.811 814.075Z" fill="#6EAA50"/>
<path d="M72.5503 685.429L76.3919 835.479H71.4003L71.1003 824.046C54.6419 815.359 42.4586 800.834 36.7836 783.092L24.3836 744.379C23.9669 743.067 24.6836 741.667 26.0002 741.25C27.2961 740.833 28.6961 741.55 29.1127 742.867L41.5128 781.575C46.5044 797.188 56.9044 810.1 70.9503 818.304L67.5753 685.546C67.5211 684.163 68.6211 683.033 70.0044 682.983H70.0711C71.4169 682.983 72.5169 684.063 72.5503 685.429Z" fill="#297F63"/>
<path d="M181.311 778.625L152.286 807.454C139.336 820.317 122.282 827.592 104.086 828.071L102.09 835.479H96.9316L128.052 719.875C128.403 718.546 129.786 717.767 131.098 718.117C132.432 718.479 133.228 719.846 132.865 721.175L105.436 823.046C121.794 822.25 137.073 815.521 148.773 803.904L177.782 775.079C178.765 774.1 180.348 774.117 181.311 775.079C182.294 776.067 182.278 777.646 181.311 778.625Z" fill="#297F63"/>
<path d="M1298.18 930.58C1297.9 930.53 1297.68 930.43 1297.49 930.313C1235.51 932.013 1173.5 933.276 1111.5 934.105C1111.04 934.493 1110.4 934.613 1109.74 934.138C1109.73 934.122 1109.73 934.122 1109.71 934.105C1108.92 934.072 1108.43 933.568 1108.28 932.938C1096.84 923.363 1095.56 905.518 1101.43 892.33C1110.92 871.034 1131.09 884.322 1146.54 890.122C1141.77 878.08 1139.49 865.301 1140.62 852.297C1141.26 844.826 1143.42 834.368 1151.65 831.638C1160.52 828.688 1169.48 837.372 1174.52 843.593C1181.78 852.534 1186.4 863.209 1193.34 872.38C1196.32 852.043 1211.67 825.213 1234.96 828.234C1261.74 831.693 1251.22 868.809 1246.49 887.951C1259.75 878.859 1278.25 865.213 1293.92 873.818C1300.15 877.238 1302.67 883.901 1301.67 890.78C1300.65 897.913 1296.08 903.363 1290.88 908.051C1303.11 904.93 1321.47 901.726 1324.98 914.459C1328.89 928.676 1307.54 932.13 1298.18 930.58Z" fill="#8EAC37"/>
<path d="M392.576 877.841L368.784 877.374L389.567 892.212C385.784 906.979 379.634 923.02 371.238 939.149H103.088L118.417 925.204L90.1005 923.487C87.9839 915.224 87.563 905.958 88.4089 896.599L105.251 891.366L89.4589 888.445C91.1255 878.445 94.113 868.687 97.9214 860.241L112.959 864.562L99.9297 856.054C106.68 842.933 115.455 834.045 123.963 834.558C133.455 835.137 141.651 844.316 147.467 858.837C147.934 843.379 149.942 829.124 153.192 816.937L171.438 817.004L155.73 808.562C162.501 788.849 172.905 776.174 185.426 775.212C193.134 774.612 200.705 778.554 207.68 785.949L199.326 793.37L211.088 789.916C216.188 796.374 220.867 804.683 224.901 814.466C228.242 805.666 231.917 797.337 235.838 789.604L265.622 798.158L242.767 776.974C250.071 764.633 257.959 754.274 265.955 746.566L286.03 752.337L272.546 740.816C283.088 732.62 293.58 729.212 302.959 731.908C320.58 736.962 330.092 762.383 330.138 796.887L313.538 796.112L330.067 802.858C329.626 817.674 327.555 833.937 323.697 850.845C331.83 842.424 340.051 835.783 347.888 831.22L355.755 838.304L350.742 829.616C361.905 823.774 372.13 822.416 380.013 826.674C392.555 833.424 396.517 852.87 392.576 877.841Z" fill="#8EAC37"/>
<path d="M145.863 897.642L186.338 939.146H177.005L141.076 902.3C139.78 900.987 139.801 898.871 141.138 897.575C142.455 896.283 144.567 896.308 145.863 897.642Z" fill="#1F664D"/>
<path d="M199.372 864.254L213.001 939.15H206.213L192.801 865.454C192.467 863.629 193.667 861.891 195.492 861.558C197.322 861.221 199.038 862.429 199.372 864.254Z" fill="#1F664D"/>
<path d="M266.8 851.066L254.079 939.15H247.309L260.184 850.108C260.454 848.279 262.146 846.987 263.971 847.279C265.8 847.521 267.067 849.241 266.8 851.066Z" fill="#1F664D"/>
<path d="M338.155 893.991L272.771 939.145H261.009L334.342 888.487C335.859 887.441 337.951 887.82 339.001 889.358C340.046 890.87 339.667 892.941 338.155 893.991Z" fill="#1F664D"/>
<path d="M1315.89 466.921C1316.99 463.48 1317.59 459.812 1317.59 456.003C1317.59 437.444 1303.43 422.198 1285.33 420.467C1281.4 397.21 1261.18 379.49 1236.8 379.49C1227 379.49 1217.87 382.369 1210.19 387.311C1206.89 380.056 1199.59 375 1191.1 375C1185.63 375 1180.66 377.114 1176.92 380.549C1170.62 377.02 1163.36 375 1155.63 375C1131.53 375 1111.99 394.539 1111.99 418.642C1111.99 424.07 1112.99 429.261 1114.8 434.055C1113.87 433.994 1112.93 433.955 1111.99 433.955C1087.69 433.955 1068 453.649 1068 477.944C1068 502.239 1087.69 521.934 1111.99 521.934C1112.07 521.934 1112.14 521.927 1112.22 521.927C1112.07 523.492 1111.99 525.077 1111.99 526.683C1111.99 553.6 1133.81 575.419 1160.73 575.419C1181.77 575.419 1199.7 562.078 1206.52 543.392C1215.31 554.122 1228.67 560.971 1243.62 560.971C1263.33 560.971 1280.26 549.07 1287.63 532.066C1290.99 533.121 1294.58 533.691 1298.3 533.691C1318.02 533.691 1334 517.706 1334 497.986C1334 484.666 1326.7 473.057 1315.89 466.921Z" fill="#AAC85A"/>
<path d="M1242.05 510.978C1185.11 523.897 1172.51 496.171 1130.95 484.686C1107.29 478.149 1091.34 494.663 1081.99 510.105C1084.78 512.709 1087.89 514.94 1091.25 516.739C1102.43 522.734 1110.71 532.764 1115.37 544.563C1122.48 562.574 1140.06 575.42 1160.73 575.42C1171.98 575.42 1182.34 571.61 1190.58 565.208C1201.33 556.865 1215.71 554.329 1228.64 558.582C1233.35 560.132 1238.39 560.972 1243.62 560.972C1257.2 560.972 1269.45 555.328 1278.17 546.261C1284.87 539.289 1293.7 534.705 1303.28 533.346C1315.21 531.655 1325.93 523.961 1331.04 512.22C1307.8 508.621 1300.57 497.702 1242.05 510.978Z" fill="#8EAC37"/>
<path d="M1190.93 571.525V779.408H1213.18L1215.8 654.654C1216.31 633.921 1220.78 613.475 1228.95 594.411L1266.73 506.303C1263.9 506.709 1260.91 507.192 1257.73 507.766C1257.73 507.766 1212.18 601.445 1212.18 569.719V514.272C1204.2 514.03 1197.29 512.736 1190.93 510.783V531.312C1190.93 534.187 1187.98 536.116 1185.35 534.971C1170.08 528.334 1156.87 509.588 1149.67 491.535C1147.2 490.418 1144.65 489.334 1141.97 488.311C1147.05 502.125 1156.31 523.842 1177.73 542.249C1186.22 549.548 1190.93 560.325 1190.93 571.525Z" fill="#746663"/>
<path d="M428.535 719.046L217.535 719.046C217.535 701.546 238.535 699.046 259.535 701.546C214.035 666.546 231.035 643.546 290.035 684.046C308.535 629.046 331.535 632.546 328.035 684.046C361.535 651.546 392.035 661.046 360.035 693.046C408.656 683.492 428.535 693.046 428.535 719.046Z" fill="#6EAA50"/>
</g>
<defs>
<clipPath id="clip0_245_393">
<rect width="1366" height="1024" fill="white"/>
</clipPath>
</defs>
</svg>
