<?xml version="1.0" encoding="UTF-8" standalone="no"?>
<!DOCTYPE svg PUBLIC "-//W3C//DTD SVG 1.1//EN" "http://www.w3.org/Graphics/SVG/1.1/DTD/svg11.dtd">
<svg width="100%" height="100%" viewBox="0 0 85 85" version="1.1" xmlns="http://www.w3.org/2000/svg" xmlns:xlink="http://www.w3.org/1999/xlink" xml:space="preserve" xmlns:serif="http://www.serif.com/" style="fill-rule:evenodd;clip-rule:evenodd;stroke-linejoin:round;stroke-miterlimit:2;">
    <g transform="matrix(1,0,0,1,-406.58,-1459.67)">
        <g transform="matrix(0.715111,0,0,0.715111,126.671,1064.39)">
            <g transform="matrix(1,0,0,1,479.598,621.594)">
                <path d="M0,-61.227C-0.442,-60.895 -0.912,-60.575 -1.365,-60.248C9.593,-49.377 16.384,-34.313 16.384,-17.657C16.384,-14.164 16.068,-10.75 15.495,-7.42C20.171,-5.338 24.799,-2.868 29.344,0C29.86,-3.151 30.142,-6.381 30.142,-9.678C30.142,-31.803 17.987,-51.079 0,-61.227" style="fill:rgb(243,176,0);fill-rule:nonzero;"/>
            </g>
            <g transform="matrix(1,0,0,1,435.996,633.142)">
                <path d="M0,30.78C-6.377,30.78 -12.519,29.774 -18.287,27.932C-8.886,34.237 2.41,37.934 14.582,37.934C39.511,37.934 60.822,22.51 69.532,0.692C65.028,-2.368 60.431,-4.982 55.784,-7.154C46.995,15.057 25.342,30.78 0,30.78" style="fill:rgb(243,176,0);fill-rule:nonzero;"/>
            </g>
            <g transform="matrix(0.248097,0.968735,0.968735,-0.248097,496.31,616.184)">
                <path d="M8.374,-6.82C11.63,-2.859 15.302,0.947 19.385,4.551C15.998,7.026 12.317,9.16 8.374,10.894C4.469,7.203 0.928,3.332 -2.249,-0.68C1.545,-2.379 5.093,-4.441 8.374,-6.82" style="fill:rgb(233,173,0);fill-rule:nonzero;"/>
            </g>
            <g transform="matrix(1,0,0,1,479.598,558.696)">
                <path d="M0,1.671C-1.732,0.694 -3.531,-0.175 -5.364,-0.979C-3.978,0.171 -2.645,1.382 -1.365,2.65C-0.912,2.323 -0.442,2.003 0,1.671" style="fill:rgb(232,172,0);fill-rule:nonzero;"/>
            </g>
            <g transform="matrix(0.317814,-0.948153,-0.948153,-0.317814,447.056,539.397)">
                <path d="M-11.547,-20.061C-10.572,-21.067 -9.579,-22 -8.581,-22.894C-8.887,-17.797 -9.846,-12.659 -11.547,-7.585C-15.19,3.285 -21.695,12.388 -29.931,19.189C-28.064,4.117 -21.883,-9.426 -11.547,-20.061" style="fill:rgb(255,189,0);fill-rule:nonzero;"/>
            </g>
            <g transform="matrix(1,0,0,1,433.791,623.266)">
                <path d="M0,-47.959C-8.642,-47.959 -17.404,-49.361 -26.086,-52.088C-36.17,-41.48 -42.371,-27.145 -42.371,-11.35C-42.371,-2.291 -40.328,6.287 -36.689,13.961C-31.049,5.756 -22.355,-3.254 -9.219,-9.559C12.676,-20.072 37.622,-19.637 61.302,-9.092C61.875,-12.422 62.19,-15.836 62.19,-19.328C62.19,-35.984 55.399,-51.049 44.441,-61.92C41.275,-59.647 37.778,-57.514 33.858,-55.631C23.135,-50.484 11.679,-47.959 0,-47.959" style="fill:rgb(255,189,0);fill-rule:nonzero;"/>
            </g>
            <g transform="matrix(1,0,0,1,491.78,653.41)">
                <path d="M0,-27.422C-20.949,-37.217 -42.917,-37.934 -61.97,-28.791C-75.37,-22.358 -83.189,-12.471 -87.548,-4.75C-83.733,0.057 -79.177,4.238 -74.071,7.664C-68.303,9.506 -62.161,10.512 -55.784,10.512C-30.442,10.512 -8.789,-5.211 0,-27.422" style="fill:rgb(255,189,0);fill-rule:nonzero;"/>
            </g>
            <g transform="matrix(1,0,0,1,424.572,638.146)">
                <path d="M0,-24.439C-13.137,-18.134 -21.83,-9.125 -27.471,-0.919C-25.53,3.174 -23.127,7.002 -20.34,10.514C-15.981,2.793 -8.162,-7.093 5.238,-13.527C24.291,-22.669 46.259,-21.953 67.208,-12.158C68.699,-15.925 69.816,-19.875 70.521,-23.972C46.841,-34.517 21.895,-34.953 0,-24.439" style="fill:rgb(255,197,114);fill-rule:nonzero;"/>
            </g>
            <g transform="matrix(1,0,0,1,462.407,573.395)">
                <path d="M0,-16.674C-13.368,-10.254 -28.174,-8.697 -43.058,-11.717C-47.336,-9.055 -51.244,-5.856 -54.702,-2.217C-46.021,0.51 -37.258,1.912 -28.616,1.912C-16.937,1.912 -5.481,-0.613 5.242,-5.76C9.162,-7.643 12.659,-9.776 15.825,-12.049C14.546,-13.317 13.213,-14.528 11.826,-15.678C9.186,-16.83 6.455,-17.822 3.629,-18.586C2.464,-17.924 1.264,-17.279 0,-16.674" style="fill:rgb(255,196,114);fill-rule:nonzero;"/>
            </g>
        </g>
    </g>
</svg>
