<?xml version="1.0" encoding="UTF-8" standalone="no"?>
<!DOCTYPE svg PUBLIC "-//W3C//DTD SVG 1.1//EN" "http://www.w3.org/Graphics/SVG/1.1/DTD/svg11.dtd">
<svg width="100%" height="100%" viewBox="0 0 162 129" version="1.1" xmlns="http://www.w3.org/2000/svg" xmlns:xlink="http://www.w3.org/1999/xlink" xml:space="preserve" xmlns:serif="http://www.serif.com/" style="fill-rule:evenodd;clip-rule:evenodd;stroke-linejoin:round;stroke-miterlimit:2;">
    <g transform="matrix(1,0,0,1,-368.16,-308.182)">
        <g transform="matrix(1.71914,0,0,1.71914,330.249,49.934)">
            <path d="M115.6,158.653L115.6,158.65C115.426,158.408 115.178,158.227 114.873,158.093L103.64,152.016L22.747,210.4L24.976,222.973C25.009,223.306 25.103,223.598 25.277,223.839C28.243,227.945 53.42,220.219 78.359,202.222C103.298,184.221 118.562,162.761 115.6,158.653Z" style="fill:rgb(68,151,195);fill-rule:nonzero;"/>
            <path d="M105.826,177.174C103.318,175.062 99.172,171.771 95.952,169.239C96.81,168.254 97.61,167.289 98.347,166.351L108.522,173.861C107.69,174.933 106.788,176.041 105.826,177.174Z" style="fill:rgb(120,180,212);fill-rule:nonzero;"/>
            <path d="M62.21,212.533C62.961,212.112 63.716,211.681 64.475,211.24C63.716,211.681 62.961,212.112 62.21,212.533Z" style="fill:white;fill-rule:nonzero;"/>
            <path d="M50.06,218.648C49.027,215.068 47.565,210.244 46.368,206.336C50.197,204.489 54.312,202.238 58.578,199.639C60.279,203.031 62.551,207.532 64.475,211.24C63.716,211.681 62.961,212.112 62.21,212.533C57.973,214.906 53.884,216.946 50.06,218.648Z" style="fill:rgb(120,180,212);fill-rule:nonzero;"/>
            <path d="M70.474,207.574C68.288,204.364 65.503,199.782 63.55,196.493C65.487,195.223 67.441,193.89 69.408,192.495L77.359,202.93C75.058,204.566 72.757,206.115 70.474,207.574Z" style="fill:rgb(120,180,212);fill-rule:nonzero;"/>
            <path d="M103.64,152.016C107.779,157.748 93.021,175.461 70.68,191.584C48.344,207.703 26.884,216.129 22.747,210.4C18.612,204.672 33.369,186.956 55.706,170.833C78.043,154.714 99.504,146.286 103.64,152.016Z" style="fill:rgb(243,156,16);fill-rule:nonzero;"/>
            <path d="M68.981,189.226C43.85,207.363 26.836,211.094 25.107,208.698C23.374,206.3 32.277,191.329 57.405,173.189C82.538,155.053 99.551,151.322 101.281,153.717C103.013,156.114 94.108,171.088 68.981,189.226Z" style="fill:rgb(47,128,178);fill-rule:nonzero;"/>
            <path d="M67.988,187.849C47.166,202.879 33.066,205.973 31.636,203.984C30.2,202 37.576,189.592 58.398,174.563C79.221,159.538 93.319,156.446 94.755,158.432C96.188,160.415 88.811,172.825 67.988,187.849Z" style="fill:rgb(243,156,16);fill-rule:nonzero;"/>
            <path d="M67.151,186.694C49.958,199.105 38.313,201.658 37.131,200.019C35.946,198.377 42.039,188.133 59.234,175.722C76.429,163.313 88.07,160.758 89.257,162.397C90.439,164.04 84.349,174.283 67.151,186.694Z" style="fill:rgb(47,128,178);fill-rule:nonzero;"/>
            <path d="M66.167,185.33C53.254,194.651 44.503,196.568 43.615,195.337C42.726,194.106 47.302,186.411 60.219,177.087C73.133,167.767 81.884,165.848 82.77,167.079C83.662,168.31 79.082,176.006 66.167,185.33Z" style="fill:rgb(243,156,16);fill-rule:nonzero;"/>
            <path d="M66.167,185.33C53.254,194.651 44.503,196.568 43.615,195.337C42.726,194.106 47.302,186.411 60.219,177.087C73.133,167.767 81.884,165.848 82.77,167.079C83.662,168.31 79.082,176.006 66.167,185.33Z" style="fill:rgb(243,156,16);fill-rule:nonzero;"/>
            <path d="M82.77,167.079C82.768,167.076 82.765,167.072 82.763,167.069C82.765,167.072 82.768,167.076 82.77,167.079ZM82.761,167.068C82.761,167.066 82.76,167.065 82.759,167.064C82.76,167.065 82.761,167.066 82.761,167.068Z" style="fill:rgb(105,164,199);fill-rule:nonzero;"/>
            <path d="M45.586,195.613C50.211,192.711 55.23,188.859 60.18,184.238C65.599,179.18 70.13,173.969 73.44,169.211C77.288,167.462 80.114,166.748 81.616,166.748C82.211,166.748 82.598,166.86 82.759,167.064C82.76,167.065 82.761,167.066 82.761,167.068C82.762,167.068 82.762,167.069 82.763,167.069C82.765,167.072 82.768,167.076 82.77,167.079C82.841,167.178 82.878,167.318 82.878,167.497C82.875,169.553 78.048,176.753 66.167,185.33C56.365,192.404 48.974,195.208 45.586,195.613Z" style="fill:rgb(246,184,83);fill-rule:nonzero;"/>
        </g>
    </g>
</svg>
