<?xml version="1.0" encoding="UTF-8" standalone="no"?>
<!DOCTYPE svg PUBLIC "-//W3C//DTD SVG 1.1//EN" "http://www.w3.org/Graphics/SVG/1.1/DTD/svg11.dtd">
<svg width="100%" height="100%" viewBox="0 0 114 117" version="1.1" xmlns="http://www.w3.org/2000/svg" xmlns:xlink="http://www.w3.org/1999/xlink" xml:space="preserve" xmlns:serif="http://www.serif.com/" style="fill-rule:evenodd;clip-rule:evenodd;stroke-linecap:round;stroke-linejoin:round;stroke-miterlimit:10;">
    <g transform="matrix(1,0,0,1,-1029.88,-1013.43)">
        <g transform="matrix(1.16023,0,0,1.16023,806.076,622.045)">
            <g transform="matrix(1,0,0,1,215.159,414.998)">
                <path d="M0,-3.546C-2.794,-10.53 -4.485,-18.61 -3.744,-26.448L-19.464,-26.448L-19.464,11.364L-19.418,11.364C-18.468,17.778 1.896,22.902 26.892,22.902C27.682,22.902 28.467,22.897 29.248,22.888C16.03,17.567 3.628,9.757 0,-3.546" style="fill:rgb(236,145,170);fill-rule:nonzero;"/>
            </g>
            <g transform="matrix(1,0,0,1,211.415,437.886)">
                <path d="M0,-49.336C-0.741,-41.498 0.95,-33.418 3.744,-26.434C7.372,-13.131 19.774,-5.32 32.992,0C56.9,-0.311 76.026,-5.313 76.946,-11.523L76.992,-11.523L76.992,-49.336L0,-49.336Z" style="fill:rgb(255,158,185);fill-rule:nonzero;"/>
            </g>
            <g transform="matrix(1,0,0,1,195.318,427.566)">
                <path d="M0,-9.019C1.09,-11.207 4.154,-11.747 6.463,-10.9C8.771,-10.053 10.538,-8.218 12.356,-6.573C14.174,-4.927 16.3,-3.351 18.759,-3.241C22.218,-3.087 25.472,-5.882 28.85,-5.126C32.892,-4.222 34.698,1.241 38.788,1.895C44.002,2.728 47.409,-4.805 52.688,-4.638C57.152,-4.497 60.083,1.142 64.546,0.952C69.187,0.754 71.325,-5.444 75.798,-6.689C78.092,-7.328 80.516,-6.519 82.753,-5.706C84.991,-4.895 87.398,-4.06 89.705,-4.651C92.013,-5.241 93.9,-7.941 92.731,-9.999" style="fill:none;fill-rule:nonzero;stroke:rgb(247,189,205);stroke-width:4.84px;"/>
            </g>
            <g transform="matrix(1,0,0,1,288.406,428.37)">
                <path d="M0,-39.82C-0.234,-36.138 0.138,-29.508 0.076,-25.819C0,-21.274 0.312,-19.383 0,-14.472C-2.343,-14.065 -4.689,-17.269 -5.801,-19.371C-6.913,-21.472 -7.802,-23.921 -9.871,-25.091C-11.324,-25.912 -13.213,-25.9 -14.656,-25.061C-16.099,-24.221 -17.043,-22.587 -17.049,-20.917C-17.054,-19.196 -16.149,-17.612 -15.809,-15.924C-15.114,-12.479 -17.112,-8.682 -20.345,-7.303C-23.577,-5.924 -27.7,-7.111 -29.706,-9.997C-32.181,-13.556 -31.527,-18.928 -34.781,-21.793C-36.271,-23.104 -38.437,-23.6 -40.349,-23.068C-42.261,-22.537 -43.86,-20.994 -44.459,-19.101C-45.139,-16.953 -44.565,-14.619 -43.821,-12.491C-43.077,-10.364 -42.151,-8.234 -42.128,-5.98C-42.105,-3.727 -43.278,-1.263 -45.44,-0.628C-47.578,0 -49.919,-1.442 -50.919,-3.433C-51.919,-5.424 -51.837,-7.789 -51.417,-9.976C-50.996,-12.165 -50.262,-14.294 -50.019,-16.508C-49.777,-18.722 -50.099,-21.13 -51.548,-22.822C-52.997,-24.514 -55.633,-25.498 -57.559,-24.379C-59.983,-22.969 -60.115,-19.589 -61.362,-17.077C-62.952,-13.874 -66.853,-12.007 -70.346,-12.778C-73.838,-13.549 -76.59,-16.885 -76.684,-20.461C-76.714,-21.644 -76.485,-22.827 -76.566,-24.007C-76.647,-25.189 -77.126,-26.446 -78.167,-27.009C-79.696,-27.836 -81.58,-26.803 -82.79,-25.557C-84.001,-24.31 -85.053,-22.752 -86.702,-22.206C-88.976,-21.454 -91.501,-23.074 -92.537,-25.233C-93.572,-27.392 -92.711,-39.82 -92.711,-39.82L0,-39.82Z" style="fill:rgb(97,63,23);fill-rule:nonzero;"/>
            </g>
            <g transform="matrix(1.00245,0,0,1,288.406,388.508)">
                <path d="M0,0.042C0,-6.59 -20.754,-11.965 -46.355,-11.965C-53.702,-11.965 -60.645,-11.521 -66.817,-10.732C-66.843,-9.718 -66.775,-8.71 -66.579,-7.731C-63.492,4.619 -53.7,9.815 -42.639,12.007C-18.777,11.516 0,6.349 0,0.042" style="fill:rgb(117,75,28);fill-rule:nonzero;"/>
            </g>
            <g transform="matrix(1,0,0,1,221.827,397.555)">
                <path d="M0,-16.779C-0.196,-17.758 -0.264,-18.765 -0.238,-19.78C-15.576,-17.822 -26.132,-13.734 -26.132,-9.006C-26.132,-2.375 -5.378,3.001 20.224,3.001C21.476,3.001 22.713,2.985 23.94,2.959C12.879,0.768 3.087,-4.428 0,-16.779" style="fill:rgb(117,76,28);fill-rule:nonzero;"/>
            </g>
            <g transform="matrix(0.748914,0.662668,0.662668,-0.748914,242.169,371.202)">
                <path d="M0.966,-0.848C2.596,-1.172 4.223,-1.555 5.85,-1.924C4.32,-0.104 2.625,1.938 0.966,3.987C-0.286,3.782 -1.545,3.513 -2.839,3.454C-1.57,2.017 -0.302,0.588 0.966,-0.848" style="fill:rgb(168,227,255);fill-rule:nonzero;"/>
            </g>
            <g transform="matrix(-0.937753,0.347304,0.347304,0.937753,247.207,367.983)">
                <path d="M1.872,-8.978C2.625,-6.942 3.381,-4.904 4.137,-2.864C3.476,-1.752 2.644,-0.769 1.872,0.238C1.176,-1.417 0.469,-3.056 -0.217,-4.593C0.379,-6.065 1.04,-7.55 1.872,-8.978" style="fill:rgb(125,195,229);fill-rule:nonzero;"/>
            </g>
            <g transform="matrix(-0.842404,0.538847,0.538847,0.842404,247.411,362.115)">
                <path d="M2.145,-6.069C2.512,-5.493 2.885,-4.915 3.253,-4.337C2.745,-2.766 2.414,-1.173 2.145,0.391C1.027,-1.128 -0.041,-2.529 -0.987,-3.689C0.057,-4.482 1.101,-5.276 2.145,-6.069" style="fill:rgb(168,227,255);fill-rule:nonzero;"/>
            </g>
            <g transform="matrix(0.689182,0.724588,0.724588,-0.689182,241.302,377.618)">
                <path d="M1.942,-0.431C3.321,-0.585 4.625,-0.46 5.888,-0.27C4.839,0.758 3.465,2.115 1.942,3.636C0.289,3.863 -1.364,4.104 -3.017,4.287C-1.363,2.712 0.29,1.141 1.942,-0.431" style="fill:rgb(125,195,229);fill-rule:nonzero;"/>
            </g>
            <g transform="matrix(-0.897338,0.441345,0.441345,0.897338,246.271,384.102)">
                <path d="M1.429,-6.029C2.24,-4.379 3.059,-2.725 3.864,-1.079C3.072,-0.639 2.222,-0.12 1.429,0.319C1.429,0.319 0.924,-0.687 0.096,-2.312C0.655,-3.46 1.164,-4.668 1.429,-6.029" style="fill:rgb(168,227,255);fill-rule:nonzero;"/>
            </g>
            <g transform="matrix(1,0,0,1,245.271,355.044)">
                <path d="M0,-17.715C0,-17.715 -5.063,-0.106 -0.816,-0.053C3.43,0 0,-17.715 0,-17.715" style="fill:rgb(255,233,134);fill-rule:nonzero;"/>
            </g>
            <g transform="matrix(0.141171,0.989985,0.989985,-0.141171,240,349.316)">
                <path d="M4.858,3.593C4.513,3.124 -1.646,4.513 -4.183,5.613C-1.889,5.797 4.252,4.722 4.858,4.153C4.913,4.1 4.966,4.051 4.929,3.814C4.907,3.671 4.873,3.612 4.858,3.593" style="fill:white;fill-rule:nonzero;"/>
            </g>
            <g transform="matrix(0.0795308,-0.996832,-0.996832,-0.0795308,247.065,355.885)">
                <path d="M-2.645,2.864L3.102,2.864" style="fill:none;fill-rule:nonzero;stroke:rgb(199,236,255);stroke-width:1.99px;stroke-linecap:butt;stroke-linejoin:miter;"/>
            </g>
        </g>
    </g>
</svg>
