<?xml version="1.0" encoding="UTF-8" standalone="no"?>
<!DOCTYPE svg PUBLIC "-//W3C//DTD SVG 1.1//EN" "http://www.w3.org/Graphics/SVG/1.1/DTD/svg11.dtd">
<svg width="100%" height="100%" viewBox="0 0 98 129" version="1.1" xmlns="http://www.w3.org/2000/svg" xmlns:xlink="http://www.w3.org/1999/xlink" xml:space="preserve" xmlns:serif="http://www.serif.com/" style="fill-rule:evenodd;clip-rule:evenodd;stroke-linejoin:round;stroke-miterlimit:2;">
    <g transform="matrix(1,0,0,1,-1038.17,-1292.62)">
        <g transform="matrix(1,0,0,1,-1895.57,-1019.73)">
            <g transform="matrix(-0.624645,-0.00552212,-0.00552212,0.624645,2945.77,2318.62)">
                <rect x="-20.295" y="3.382" width="25.024" height="25.004" style="fill:rgb(133,66,40);"/>
            </g>
            <g transform="matrix(0.443504,0.439904,0.439904,-0.443504,2949.38,2318.54)">
                <path d="M-24.074,-9.908L-5.009,-9.908L12.954,-28.311L12.23,-46.821L-24.074,-9.908Z" style="fill:rgb(99,49,30);fill-rule:nonzero;"/>
            </g>
            <g transform="matrix(0.456622,-0.426272,-0.426272,-0.456622,2936.54,2350.94)">
                <path d="M4.091,9.843L22.626,9.843L40.771,-7.376L41.902,-25.772L4.091,9.843Z" style="fill:rgb(89,44,27);fill-rule:nonzero;"/>
            </g>
            <g transform="matrix(-0.0748636,8.45483,8.45483,0.0748636,2962.62,2324.42)">
                <path d="M-0.411,-0.5L1.484,-0.5L2.411,0.5L-1.411,0.494L-0.411,-0.5Z" style="fill:url(#_Linear1);fill-rule:nonzero;"/>
            </g>
            <g transform="matrix(-0.624645,-0.00552212,-0.00552212,0.624645,2945.77,2319.11)">
                <rect x="-20.295" y="3.382" width="25.025" height="25.003" style="fill:rgb(133,66,40);"/>
            </g>
            <g transform="matrix(29.1647,0.256786,0.256786,-29.1647,2935.85,2315.24)">
                <path d="M0.241,-0.187L0.776,-0.187L1.064,0.102L-0.052,0.099L0.241,-0.187Z" style="fill:url(#_Linear2);fill-rule:nonzero;"/>
            </g>
            <g transform="matrix(-0.624645,-0.00552411,-0.00552411,0.624645,2945.62,2350.95)">
                <rect x="-20.213" y="3.369" width="24.942" height="25.003" style="fill:rgb(133,66,40);"/>
            </g>
            <g transform="matrix(0.442773,0.44064,0.44064,-0.442773,2949.27,2350.9)">
                <path d="M-24.11,-9.922L-5.077,-9.922L12.916,-28.295L12.255,-46.774L-24.11,-9.922Z" style="fill:rgb(99,49,30);fill-rule:nonzero;"/>
            </g>
            <g transform="matrix(0.455904,-0.42704,-0.42704,-0.455904,2936.42,2383.26)">
                <path d="M4.093,9.847L22.596,9.847L40.652,-7.345L41.719,-25.712L4.093,9.847Z" style="fill:rgb(89,44,27);fill-rule:nonzero;"/>
            </g>
            <g transform="matrix(-0.0744102,8.42669,8.42669,0.0744102,2962.4,2356.76)">
                <path d="M-0.414,-0.5L1.487,-0.5L2.418,0.5L-1.417,0.494L-0.414,-0.5Z" style="fill:url(#_Linear3);fill-rule:nonzero;"/>
            </g>
            <g transform="matrix(-0.624645,-0.00552411,-0.00552411,0.624645,2945.61,2351.44)">
                <rect x="-20.213" y="3.369" width="24.942" height="25.003" style="fill:rgb(133,66,40);"/>
            </g>
            <g transform="matrix(29.0676,0.257124,0.257124,-29.0676,2935.72,2347.57)">
                <path d="M0.241,-0.187L0.776,-0.187L1.064,0.103L-0.053,0.099L0.241,-0.187Z" style="fill:url(#_Linear4);fill-rule:nonzero;"/>
            </g>
            <g transform="matrix(-0.624645,-0.00552612,-0.00552612,0.624645,2945.49,2381.98)">
                <rect x="-20.132" y="3.355" width="24.859" height="25.003" style="fill:rgb(133,66,40);"/>
            </g>
            <g transform="matrix(0.442028,0.441387,0.441387,-0.442028,2949.18,2381.96)">
                <path d="M-24.147,-9.936L-5.146,-9.936L12.877,-28.278L12.28,-46.728L-24.147,-9.936Z" style="fill:rgb(99,49,30);fill-rule:nonzero;"/>
            </g>
            <g transform="matrix(0.455203,-0.427787,-0.427787,-0.455203,2936.33,2414.28)">
                <path d="M4.094,9.849L22.565,9.849L40.532,-7.315L41.536,-25.651L4.094,9.849Z" style="fill:rgb(89,44,27);fill-rule:nonzero;"/>
            </g>
            <g transform="matrix(-0.0741611,8.39848,8.39848,0.0741611,2962.2,2387.8)">
                <path d="M-0.417,-0.5L1.491,-0.5L2.424,0.5L-1.424,0.494L-0.417,-0.5Z" style="fill:url(#_Linear5);fill-rule:nonzero;"/>
            </g>
            <g transform="matrix(-0.624645,-0.00552612,-0.00552612,0.624645,2945.48,2382.47)">
                <rect x="-20.132" y="3.355" width="24.859" height="25.003" style="fill:rgb(133,66,40);"/>
            </g>
            <g transform="matrix(28.9705,0.256359,0.256359,-28.9705,2935.62,2378.6)">
                <path d="M0.241,-0.188L0.776,-0.188L1.064,0.103L-0.053,0.099L0.241,-0.188Z" style="fill:url(#_Linear6);fill-rule:nonzero;"/>
            </g>
            <g transform="matrix(-0.624645,-0.00552612,-0.00552612,0.624645,2945.25,2414.3)">
                <rect x="-20.132" y="3.355" width="24.859" height="25.003" style="fill:rgb(133,66,40);"/>
            </g>
            <g transform="matrix(0.442007,0.441408,0.441408,-0.442007,2948.95,2414.28)">
                <path d="M-24.148,-9.937L-5.148,-9.937L12.877,-28.277L12.281,-46.727L-24.148,-9.937Z" style="fill:rgb(99,49,30);fill-rule:nonzero;"/>
            </g>
            <g transform="matrix(0.455203,-0.427787,-0.427787,-0.455203,2936.1,2446.6)">
                <path d="M4.094,9.849L22.565,9.849L40.531,-7.315L41.536,-25.651L4.094,9.849Z" style="fill:rgb(89,44,27);fill-rule:nonzero;"/>
            </g>
            <g transform="matrix(-0.0740549,8.39849,8.39849,0.0740549,2961.97,2420.12)">
                <path d="M-0.417,-0.5L1.491,-0.5L2.424,0.5L-1.424,0.494L-0.417,-0.5Z" style="fill:url(#_Linear7);fill-rule:nonzero;"/>
            </g>
            <g transform="matrix(-0.624645,-0.00552612,-0.00552612,0.624645,2945.25,2414.79)">
                <rect x="-20.132" y="3.355" width="24.859" height="25.003" style="fill:rgb(133,66,40);"/>
            </g>
            <g transform="matrix(28.9705,0.25598,0.25598,-28.9705,2935.38,2410.92)">
                <path d="M0.241,-0.188L0.776,-0.188L1.064,0.103L-0.053,0.099L0.241,-0.188Z" style="fill:url(#_Linear8);fill-rule:nonzero;"/>
            </g>
            <g transform="matrix(-0.624645,-0.00552212,-0.00552212,0.624645,2977.66,2318.79)">
                <rect x="-20.295" y="3.382" width="25.025" height="25.003" style="fill:rgb(133,66,40);"/>
            </g>
            <g transform="matrix(0.443504,0.439904,0.439904,-0.443504,2981.27,2318.71)">
                <path d="M-24.074,-9.908L-5.009,-9.908L12.954,-28.311L12.23,-46.821L-24.074,-9.908Z" style="fill:rgb(99,49,30);fill-rule:nonzero;"/>
            </g>
            <g transform="matrix(0.456622,-0.426272,-0.426272,-0.456622,2968.42,2351.11)">
                <path d="M4.091,9.843L22.626,9.843L40.771,-7.376L41.902,-25.772L4.091,9.843Z" style="fill:rgb(89,44,27);fill-rule:nonzero;"/>
            </g>
            <g transform="matrix(-0.0748635,8.45482,8.45482,0.0748635,2994.5,2324.59)">
                <path d="M-0.411,-0.5L1.484,-0.5L2.411,0.5L-1.411,0.494L-0.411,-0.5Z" style="fill:url(#_Linear9);fill-rule:nonzero;"/>
            </g>
            <g transform="matrix(-0.624645,-0.00552212,-0.00552212,0.624645,2977.65,2319.28)">
                <rect x="-20.295" y="3.382" width="25.025" height="25.003" style="fill:rgb(133,66,40);"/>
            </g>
            <g transform="matrix(41.4102,0.366172,0.366172,-41.4102,2960.12,2315.35)">
                <path d="M0.354,-0.131L0.731,-0.131L0.933,0.072L0.147,0.069L0.354,-0.131Z" style="fill:url(#_Linear10);fill-rule:nonzero;"/>
            </g>
            <g transform="matrix(-0.624645,-0.00552411,-0.00552411,0.624645,2977.5,2351.12)">
                <rect x="-20.213" y="3.369" width="24.942" height="25.003" style="fill:rgb(133,66,40);"/>
            </g>
            <g transform="matrix(0.442753,0.44066,0.44066,-0.442753,2981.15,2351.07)">
                <path d="M-24.111,-9.922L-5.079,-9.922L12.916,-28.293L12.256,-46.773L-24.111,-9.922Z" style="fill:rgb(99,49,30);fill-rule:nonzero;"/>
            </g>
            <g transform="matrix(0.455904,-0.42704,-0.42704,-0.455904,2968.31,2383.43)">
                <path d="M4.093,9.847L22.596,9.847L40.652,-7.345L41.719,-25.712L4.093,9.847Z" style="fill:rgb(89,44,27);fill-rule:nonzero;"/>
            </g>
            <g transform="matrix(-0.0746145,8.4267,8.4267,0.0746145,2994.28,2356.93)">
                <path d="M-0.414,-0.5L1.488,-0.5L2.417,0.5L-1.418,0.494L-0.414,-0.5Z" style="fill:url(#_Linear11);fill-rule:nonzero;"/>
            </g>
            <g transform="matrix(-0.624645,-0.00552411,-0.00552411,0.624645,2977.5,2351.61)">
                <rect x="-20.213" y="3.369" width="24.942" height="25.003" style="fill:rgb(133,66,40);"/>
            </g>
            <g transform="matrix(29.0676,0.257125,0.257125,-29.0676,2967.6,2347.74)">
                <path d="M0.241,-0.187L0.776,-0.187L1.064,0.103L-0.053,0.099L0.241,-0.187Z" style="fill:url(#_Linear12);fill-rule:nonzero;"/>
            </g>
            <g transform="matrix(-0.624645,-0.00552612,-0.00552612,0.624645,2977.37,2382.15)">
                <rect x="-20.132" y="3.355" width="24.859" height="25.003" style="fill:rgb(133,66,40);"/>
            </g>
            <g transform="matrix(0.442028,0.441387,0.441387,-0.442028,2981.06,2382.13)">
                <path d="M-24.147,-9.936L-5.146,-9.936L12.877,-28.278L12.28,-46.728L-24.147,-9.936Z" style="fill:rgb(99,49,30);fill-rule:nonzero;"/>
            </g>
            <g transform="matrix(0.455203,-0.427787,-0.427787,-0.455203,2968.21,2414.45)">
                <path d="M4.094,9.849L22.565,9.849L40.532,-7.315L41.536,-25.651L4.094,9.849Z" style="fill:rgb(89,44,27);fill-rule:nonzero;"/>
            </g>
            <g transform="matrix(-0.0740549,8.39848,8.39848,0.0740549,2994.08,2387.97)">
                <path d="M-0.417,-0.5L1.491,-0.5L2.424,0.5L-1.424,0.494L-0.417,-0.5Z" style="fill:url(#_Linear13);fill-rule:nonzero;"/>
            </g>
            <g transform="matrix(-0.624645,-0.00552612,-0.00552612,0.624645,2977.37,2382.64)">
                <rect x="-20.132" y="3.355" width="24.859" height="25.003" style="fill:rgb(133,66,40);"/>
            </g>
            <g transform="matrix(28.9705,0.257464,0.257464,-28.9705,2967.5,2378.77)">
                <path d="M0.241,-0.187L0.776,-0.187L1.064,0.103L-0.053,0.099L0.241,-0.187Z" style="fill:url(#_Linear14);fill-rule:nonzero;"/>
            </g>
            <g transform="matrix(-0.624645,-0.00552612,-0.00552612,0.624645,2977.13,2414.47)">
                <rect x="-20.132" y="3.355" width="24.859" height="25.003" style="fill:rgb(133,66,40);"/>
            </g>
            <g transform="matrix(0.442028,0.441387,0.441387,-0.442028,2980.83,2414.45)">
                <path d="M-24.147,-9.936L-5.146,-9.936L12.877,-28.278L12.28,-46.728L-24.147,-9.936Z" style="fill:rgb(99,49,30);fill-rule:nonzero;"/>
            </g>
            <g transform="matrix(0.455203,-0.427787,-0.427787,-0.455203,2967.98,2446.77)">
                <path d="M4.094,9.849L22.565,9.849L40.531,-7.315L41.536,-25.651L4.094,9.849Z" style="fill:rgb(89,44,27);fill-rule:nonzero;"/>
            </g>
            <g transform="matrix(-0.0743647,8.39848,8.39848,0.0743647,2993.85,2420.29)">
                <path d="M-0.417,-0.5L1.491,-0.5L2.424,0.5L-1.424,0.493L-0.417,-0.5Z" style="fill:url(#_Linear15);fill-rule:nonzero;"/>
            </g>
            <g transform="matrix(-0.624645,-0.00552612,-0.00552612,0.624645,2977.13,2414.96)">
                <rect x="-20.132" y="3.355" width="24.859" height="25.003" style="fill:rgb(133,66,40);"/>
            </g>
            <g transform="matrix(28.9704,0.256359,0.256359,-28.9704,2967.26,2411.09)">
                <path d="M0.241,-0.188L0.776,-0.188L1.064,0.103L-0.053,0.099L0.241,-0.188Z" style="fill:url(#_Linear16);fill-rule:nonzero;"/>
            </g>
            <g transform="matrix(-0.624645,-0.00552212,-0.00552212,0.624645,3009.81,2319.02)">
                <rect x="-20.295" y="3.382" width="25.025" height="25.003" style="fill:rgb(133,66,40);"/>
            </g>
            <g transform="matrix(0.443504,0.439904,0.439904,-0.443504,3013.42,2318.94)">
                <path d="M-24.074,-9.908L-5.009,-9.908L12.954,-28.311L12.23,-46.821L-24.074,-9.908Z" style="fill:rgb(99,49,30);fill-rule:nonzero;"/>
            </g>
            <g transform="matrix(0.456622,-0.426272,-0.426272,-0.456622,3000.58,2351.34)">
                <path d="M4.091,9.843L22.626,9.843L40.771,-7.376L41.902,-25.772L4.091,9.843Z" style="fill:rgb(89,44,27);fill-rule:nonzero;"/>
            </g>
            <g transform="matrix(-0.0749704,8.45482,8.45482,0.0749704,3026.66,2324.82)">
                <path d="M-0.411,-0.5L1.484,-0.5L2.411,0.5L-1.411,0.494L-0.411,-0.5Z" style="fill:url(#_Linear17);fill-rule:nonzero;"/>
            </g>
            <g transform="matrix(-0.624645,-0.00552212,-0.00552212,0.624645,3009.81,2319.51)">
                <rect x="-20.295" y="3.382" width="25.025" height="25.003" style="fill:rgb(133,66,40);"/>
            </g>
            <g transform="matrix(29.1647,0.25789,0.25789,-29.1647,2999.89,2315.64)">
                <path d="M0.241,-0.187L0.776,-0.187L1.064,0.102L-0.052,0.099L0.241,-0.187Z" style="fill:url(#_Linear18);fill-rule:nonzero;"/>
            </g>
            <g transform="matrix(-0.624645,-0.00552411,-0.00552411,0.624645,3009.66,2351.35)">
                <rect x="-20.213" y="3.369" width="24.942" height="25.003" style="fill:rgb(133,66,40);"/>
            </g>
            <g transform="matrix(0.442773,0.44064,0.44064,-0.442773,3013.31,2351.3)">
                <path d="M-24.11,-9.922L-5.077,-9.922L12.916,-28.295L12.255,-46.774L-24.11,-9.922Z" style="fill:rgb(99,49,30);fill-rule:nonzero;"/>
            </g>
            <g transform="matrix(0.455904,-0.42704,-0.42704,-0.455904,3000.46,2383.66)">
                <path d="M4.093,9.847L22.596,9.847L40.652,-7.345L41.719,-25.712L4.093,9.847Z" style="fill:rgb(89,44,27);fill-rule:nonzero;"/>
            </g>
            <g transform="matrix(-0.0747204,8.42662,8.42662,0.0747204,3026.44,2357.16)">
                <path d="M-0.414,-0.5L1.488,-0.5L2.418,0.5L-1.418,0.493L-0.414,-0.5Z" style="fill:url(#_Linear19);fill-rule:nonzero;"/>
            </g>
            <g transform="matrix(-0.624645,-0.00552411,-0.00552411,0.624645,3009.65,2351.84)">
                <rect x="-20.213" y="3.369" width="24.942" height="25.003" style="fill:rgb(133,66,40);"/>
            </g>
            <g transform="matrix(29.0675,0.257124,0.257124,-29.0675,2999.76,2347.97)">
                <path d="M0.241,-0.187L0.776,-0.187L1.064,0.103L-0.053,0.099L0.241,-0.187Z" style="fill:url(#_Linear20);fill-rule:nonzero;"/>
            </g>
            <g transform="matrix(-0.624645,-0.00552612,-0.00552612,0.624645,3009.53,2382.38)">
                <rect x="-20.132" y="3.355" width="24.859" height="25.003" style="fill:rgb(133,66,40);"/>
            </g>
            <g transform="matrix(0.442028,0.441387,0.441387,-0.442028,3013.22,2382.36)">
                <path d="M-24.147,-9.936L-5.146,-9.936L12.877,-28.278L12.28,-46.728L-24.147,-9.936Z" style="fill:rgb(99,49,30);fill-rule:nonzero;"/>
            </g>
            <g transform="matrix(0.455203,-0.427787,-0.427787,-0.455203,3000.37,2414.68)">
                <path d="M4.094,9.849L22.565,9.849L40.531,-7.315L41.536,-25.651L4.094,9.849Z" style="fill:rgb(89,44,27);fill-rule:nonzero;"/>
            </g>
            <g transform="matrix(-0.0740549,8.39849,8.39849,0.0740549,3026.24,2388.2)">
                <path d="M-0.417,-0.5L1.491,-0.5L2.424,0.5L-1.424,0.494L-0.417,-0.5Z" style="fill:url(#_Linear21);fill-rule:nonzero;"/>
            </g>
            <g transform="matrix(-0.624645,-0.00552612,-0.00552612,0.624645,3009.52,2382.87)">
                <rect x="-20.132" y="3.355" width="24.859" height="25.003" style="fill:rgb(133,66,40);"/>
            </g>
            <g transform="matrix(28.9704,0.257463,0.257463,-28.9704,2999.66,2379)">
                <path d="M0.241,-0.187L0.776,-0.187L1.064,0.103L-0.053,0.099L0.241,-0.187Z" style="fill:url(#_Linear22);fill-rule:nonzero;"/>
            </g>
            <g transform="matrix(-0.624645,-0.00552612,-0.00552612,0.624645,3009.29,2414.7)">
                <rect x="-20.132" y="3.355" width="24.859" height="25.003" style="fill:rgb(133,66,40);"/>
            </g>
            <g transform="matrix(0.442028,0.441387,0.441387,-0.442028,3012.99,2414.68)">
                <path d="M-24.147,-9.936L-5.146,-9.936L12.877,-28.278L12.28,-46.728L-24.147,-9.936Z" style="fill:rgb(99,49,30);fill-rule:nonzero;"/>
            </g>
            <g transform="matrix(0.455203,-0.427787,-0.427787,-0.455203,3000.14,2447)">
                <path d="M4.094,9.849L22.565,9.849L40.532,-7.315L41.536,-25.651L4.094,9.849Z" style="fill:rgb(89,44,27);fill-rule:nonzero;"/>
            </g>
            <g transform="matrix(-0.0743647,8.39849,8.39849,0.0743647,3026.01,2420.52)">
                <path d="M-0.417,-0.5L1.491,-0.5L2.424,0.5L-1.424,0.493L-0.417,-0.5Z" style="fill:url(#_Linear23);fill-rule:nonzero;"/>
            </g>
            <g transform="matrix(-0.624645,-0.00552612,-0.00552612,0.624645,3009.29,2415.19)">
                <rect x="-20.132" y="3.355" width="24.859" height="25.003" style="fill:rgb(133,66,40);"/>
            </g>
            <g transform="matrix(28.9705,0.25636,0.25636,-28.9705,2999.42,2411.32)">
                <path d="M0.241,-0.188L0.776,-0.188L1.064,0.103L-0.053,0.099L0.241,-0.188Z" style="fill:url(#_Linear24);fill-rule:nonzero;"/>
            </g>
        </g>
    </g>
    <defs>
        <linearGradient id="_Linear1" x1="0" y1="0" x2="1" y2="0" gradientUnits="userSpaceOnUse" gradientTransform="matrix(1.89494e-05,1,1,-1.89494e-05,0.499966,-0.499976)"><stop offset="0" style="stop-color:rgb(184,118,86);stop-opacity:1"/><stop offset="1" style="stop-color:rgb(148,79,50);stop-opacity:1"/></linearGradient>
        <linearGradient id="_Linear2" x1="0" y1="0" x2="1" y2="0" gradientUnits="userSpaceOnUse" gradientTransform="matrix(0.968069,0.250685,0.250685,-0.968069,0.0169857,-0.13335)"><stop offset="0" style="stop-color:rgb(148,79,50);stop-opacity:1"/><stop offset="1" style="stop-color:rgb(184,118,86);stop-opacity:1"/></linearGradient>
        <linearGradient id="_Linear3" x1="0" y1="0" x2="1" y2="0" gradientUnits="userSpaceOnUse" gradientTransform="matrix(4.31869e-05,1,1,-4.31869e-05,0.49994,-0.499961)"><stop offset="0" style="stop-color:rgb(184,118,86);stop-opacity:1"/><stop offset="1" style="stop-color:rgb(148,79,50);stop-opacity:1"/></linearGradient>
        <linearGradient id="_Linear4" x1="0" y1="0" x2="1" y2="0" gradientUnits="userSpaceOnUse" gradientTransform="matrix(0.968058,0.250725,0.250725,-0.968058,0.0169886,-0.133352)"><stop offset="0" style="stop-color:rgb(148,79,50);stop-opacity:1"/><stop offset="1" style="stop-color:rgb(184,118,86);stop-opacity:1"/></linearGradient>
        <linearGradient id="_Linear5" x1="0" y1="0" x2="1" y2="0" gradientUnits="userSpaceOnUse" gradientTransform="matrix(4.31965e-05,1,1,-4.31965e-05,0.49997,-0.499991)"><stop offset="0" style="stop-color:rgb(184,118,86);stop-opacity:1"/><stop offset="1" style="stop-color:rgb(148,79,50);stop-opacity:1"/></linearGradient>
        <linearGradient id="_Linear6" x1="0" y1="0" x2="1" y2="0" gradientUnits="userSpaceOnUse" gradientTransform="matrix(0.968058,0.250728,0.250728,-0.968058,0.0169896,-0.133358)"><stop offset="0" style="stop-color:rgb(148,79,50);stop-opacity:1"/><stop offset="1" style="stop-color:rgb(184,118,86);stop-opacity:1"/></linearGradient>
        <linearGradient id="_Linear7" x1="0" y1="0" x2="1" y2="0" gradientUnits="userSpaceOnUse" gradientTransform="matrix(5.58079e-05,1,1,-5.58079e-05,0.499907,-0.499935)"><stop offset="0" style="stop-color:rgb(184,118,86);stop-opacity:1"/><stop offset="1" style="stop-color:rgb(148,79,50);stop-opacity:1"/></linearGradient>
        <linearGradient id="_Linear8" x1="0" y1="0" x2="1" y2="0" gradientUnits="userSpaceOnUse" gradientTransform="matrix(0.968061,0.250715,0.250715,-0.968061,0.0169864,-0.133339)"><stop offset="0" style="stop-color:rgb(148,79,50);stop-opacity:1"/><stop offset="1" style="stop-color:rgb(184,118,86);stop-opacity:1"/></linearGradient>
        <linearGradient id="_Linear9" x1="0" y1="0" x2="1" y2="0" gradientUnits="userSpaceOnUse" gradientTransform="matrix(1.89288e-05,1,1,-1.89288e-05,0.500025,-0.500034)"><stop offset="0" style="stop-color:rgb(184,118,86);stop-opacity:1"/><stop offset="1" style="stop-color:rgb(148,79,50);stop-opacity:1"/></linearGradient>
        <linearGradient id="_Linear10" x1="0" y1="0" x2="1" y2="0" gradientUnits="userSpaceOnUse" gradientTransform="matrix(0.968063,0.250709,0.250709,-0.968063,0.0178352,-0.140006)"><stop offset="0" style="stop-color:rgb(148,79,50);stop-opacity:1"/><stop offset="1" style="stop-color:rgb(184,118,86);stop-opacity:1"/></linearGradient>
        <linearGradient id="_Linear11" x1="0" y1="0" x2="1" y2="0" gradientUnits="userSpaceOnUse" gradientTransform="matrix(1.8933e-05,1,1,-1.8933e-05,0.500003,-0.500012)"><stop offset="0" style="stop-color:rgb(184,118,86);stop-opacity:1"/><stop offset="1" style="stop-color:rgb(148,79,50);stop-opacity:1"/></linearGradient>
        <linearGradient id="_Linear12" x1="0" y1="0" x2="1" y2="0" gradientUnits="userSpaceOnUse" gradientTransform="matrix(0.968058,0.250725,0.250725,-0.968058,0.0169881,-0.133348)"><stop offset="0" style="stop-color:rgb(148,79,50);stop-opacity:1"/><stop offset="1" style="stop-color:rgb(184,118,86);stop-opacity:1"/></linearGradient>
        <linearGradient id="_Linear13" x1="0" y1="0" x2="1" y2="0" gradientUnits="userSpaceOnUse" gradientTransform="matrix(5.58224e-05,1,1,-5.58224e-05,0.499904,-0.499932)"><stop offset="0" style="stop-color:rgb(184,118,86);stop-opacity:1"/><stop offset="1" style="stop-color:rgb(148,79,50);stop-opacity:1"/></linearGradient>
        <linearGradient id="_Linear14" x1="0" y1="0" x2="1" y2="0" gradientUnits="userSpaceOnUse" gradientTransform="matrix(0.968048,0.250765,0.250765,-0.968048,0.0169909,-0.133348)"><stop offset="0" style="stop-color:rgb(148,79,50);stop-opacity:1"/><stop offset="1" style="stop-color:rgb(184,118,86);stop-opacity:1"/></linearGradient>
        <linearGradient id="_Linear15" x1="0" y1="0" x2="1" y2="0" gradientUnits="userSpaceOnUse" gradientTransform="matrix(1.89291e-05,1,1,-1.89291e-05,0.499983,-0.499992)"><stop offset="0" style="stop-color:rgb(184,118,86);stop-opacity:1"/><stop offset="1" style="stop-color:rgb(148,79,50);stop-opacity:1"/></linearGradient>
        <linearGradient id="_Linear16" x1="0" y1="0" x2="1" y2="0" gradientUnits="userSpaceOnUse" gradientTransform="matrix(0.968058,0.250728,0.250728,-0.968058,0.0169896,-0.133358)"><stop offset="0" style="stop-color:rgb(148,79,50);stop-opacity:1"/><stop offset="1" style="stop-color:rgb(184,118,86);stop-opacity:1"/></linearGradient>
        <linearGradient id="_Linear17" x1="0" y1="0" x2="1" y2="0" gradientUnits="userSpaceOnUse" gradientTransform="matrix(6.30588e-06,1,1,-6.30588e-06,0.499998,-0.500001)"><stop offset="0" style="stop-color:rgb(184,118,86);stop-opacity:1"/><stop offset="1" style="stop-color:rgb(148,79,50);stop-opacity:1"/></linearGradient>
        <linearGradient id="_Linear18" x1="0" y1="0" x2="1" y2="0" gradientUnits="userSpaceOnUse" gradientTransform="matrix(0.968059,0.250722,0.250722,-0.968059,0.016989,-0.133357)"><stop offset="0" style="stop-color:rgb(148,79,50);stop-opacity:1"/><stop offset="1" style="stop-color:rgb(184,118,86);stop-opacity:1"/></linearGradient>
        <linearGradient id="_Linear19" x1="0" y1="0" x2="1" y2="0" gradientUnits="userSpaceOnUse" gradientTransform="matrix(6.2864e-06,1,1,-6.2864e-06,0.5,-0.500004)"><stop offset="0" style="stop-color:rgb(184,118,86);stop-opacity:1"/><stop offset="1" style="stop-color:rgb(148,79,50);stop-opacity:1"/></linearGradient>
        <linearGradient id="_Linear20" x1="0" y1="0" x2="1" y2="0" gradientUnits="userSpaceOnUse" gradientTransform="matrix(0.968058,0.250725,0.250725,-0.968058,0.0169875,-0.133343)"><stop offset="0" style="stop-color:rgb(148,79,50);stop-opacity:1"/><stop offset="1" style="stop-color:rgb(184,118,86);stop-opacity:1"/></linearGradient>
        <linearGradient id="_Linear21" x1="0" y1="0" x2="1" y2="0" gradientUnits="userSpaceOnUse" gradientTransform="matrix(5.58079e-05,1,1,-5.58079e-05,0.4999,-0.499928)"><stop offset="0" style="stop-color:rgb(184,118,86);stop-opacity:1"/><stop offset="1" style="stop-color:rgb(148,79,50);stop-opacity:1"/></linearGradient>
        <linearGradient id="_Linear22" x1="0" y1="0" x2="1" y2="0" gradientUnits="userSpaceOnUse" gradientTransform="matrix(0.968048,0.250765,0.250765,-0.968048,0.0169909,-0.133348)"><stop offset="0" style="stop-color:rgb(148,79,50);stop-opacity:1"/><stop offset="1" style="stop-color:rgb(184,118,86);stop-opacity:1"/></linearGradient>
        <linearGradient id="_Linear23" x1="0" y1="0" x2="1" y2="0" gradientUnits="userSpaceOnUse" gradientTransform="matrix(1.89363e-05,1,1,-1.89363e-05,0.500004,-0.500014)"><stop offset="0" style="stop-color:rgb(184,118,86);stop-opacity:1"/><stop offset="1" style="stop-color:rgb(148,79,50);stop-opacity:1"/></linearGradient>
        <linearGradient id="_Linear24" x1="0" y1="0" x2="1" y2="0" gradientUnits="userSpaceOnUse" gradientTransform="matrix(0.968058,0.250728,0.250728,-0.968058,0.0169898,-0.133359)"><stop offset="0" style="stop-color:rgb(148,79,50);stop-opacity:1"/><stop offset="1" style="stop-color:rgb(184,118,86);stop-opacity:1"/></linearGradient>
    </defs>
</svg>
