<?xml version="1.0" encoding="UTF-8" standalone="no"?>
<!DOCTYPE svg PUBLIC "-//W3C//DTD SVG 1.1//EN" "http://www.w3.org/Graphics/SVG/1.1/DTD/svg11.dtd">
<svg width="100%" height="100%" viewBox="0 0 79 130" version="1.1" xmlns="http://www.w3.org/2000/svg" xmlns:xlink="http://www.w3.org/1999/xlink" xml:space="preserve" xmlns:serif="http://www.serif.com/" style="fill-rule:evenodd;clip-rule:evenodd;stroke-linejoin:round;stroke-miterlimit:2;">
    <g transform="matrix(1,0,0,1,-1753.94,-638.714)">
        <g transform="matrix(0.29272,0,0,0.29272,1217.88,579.399)">
            <g transform="matrix(1.94108,0,0,2.19499,658.715,-235.517)">
                <path d="M738.114,386.928C696.835,406.188 649.129,406.188 607.85,386.928C605.534,385.847 604.085,383.484 604.085,380.929L604.085,219.47L741.879,219.47L741.879,380.929C741.879,383.484 740.43,385.847 738.114,386.928Z" style="fill:rgb(151,47,173);fill-rule:nonzero;"/>
            </g>
            <g transform="matrix(1.94108,0,0,2.19499,658.715,-235.517)">
                <path d="M738.114,386.928C740.43,385.848 741.878,383.485 741.878,380.93L741.879,219.47L725.761,219.47L725.761,264.569C725.761,282.753 727.615,345.525 701.244,372.318C688.22,385.551 662.688,398.463 648.247,399.37C678.461,404.283 709.799,400.139 738.114,386.928Z" style="fill:rgb(115,35,135);fill-rule:nonzero;"/>
            </g>
            <g transform="matrix(1.94108,0,0,2.19499,658.715,-235.517)">
                <path d="M741.879,219.47C741.879,230.436 711.033,239.326 672.982,239.326C634.931,239.326 604.085,230.436 604.085,219.47C604.085,208.504 634.931,199.614 672.982,199.614C711.033,199.614 741.879,208.504 741.879,219.47Z" style="fill:rgb(153,175,194);fill-rule:nonzero;"/>
            </g>
            <g transform="matrix(1.94108,0,0,2.19499,658.715,-235.517)">
                <path d="M725.561,206.645C724.508,217.346 694.1,225.929 656.715,225.929C635.632,225.929 616.773,223.197 604.135,218.898C604.117,219.089 604.085,219.278 604.085,219.47C604.085,230.436 634.931,239.326 672.982,239.326C711.033,239.326 741.879,230.436 741.879,219.47C741.879,214.58 735.733,210.105 725.561,206.645Z" style="fill:rgb(131,158,179);fill-rule:nonzero;"/>
            </g>
            <g transform="matrix(1.94108,0,0,2.19499,658.715,-235.517)">
                <path d="M672.982,204.765C641.267,204.765 619.964,212.368 619.964,219.47C619.964,226.571 641.267,234.175 672.982,234.175C704.697,234.175 726,226.571 726,219.47C726,212.368 704.697,204.765 672.982,204.765ZM672.982,235.79C642.347,235.79 618.349,228.621 618.349,219.47C618.349,210.319 642.347,203.151 672.982,203.151C703.616,203.151 727.615,210.319 727.615,219.47C727.615,228.621 703.616,235.79 672.982,235.79Z" style="fill:rgb(102,127,145);fill-rule:nonzero;"/>
            </g>
            <g transform="matrix(1.94108,0,0,2.19499,658.715,-235.517)">
                <path d="M722.173,212.256C721.759,212.621 721.316,212.981 720.832,213.336C724.18,215.29 726,217.4 726,219.47C726,226.571 704.697,234.175 672.982,234.175C646.811,234.175 627.743,228.996 621.872,223.196C621.042,223.055 620.224,222.909 619.417,222.759C624.379,230.282 646.13,235.79 672.982,235.79C703.616,235.79 727.615,228.621 727.615,219.47C727.615,216.864 725.663,214.42 722.173,212.256Z" style="fill:rgb(79,99,112);fill-rule:nonzero;"/>
            </g>
            <g transform="matrix(1.94108,0,0,2.19499,658.715,-235.517)">
                <path d="M628.622,209.835C633.518,208.979 640.461,207.566 648.677,206.429C650.921,206.098 653.277,205.812 655.732,205.573C655.784,205.567 655.832,205.561 655.883,205.556C655.935,205.55 655.986,205.547 656.038,205.542C656.282,205.518 656.529,205.497 656.775,205.474C672.563,203.938 686.797,204.874 691.705,204.101C685.888,203.486 679.591,203.151 672.982,203.151C654.51,203.151 638.462,205.759 628.622,209.835Z" style="fill:rgb(130,157,173);fill-rule:nonzero;"/>
            </g>
            <g transform="matrix(1.94108,0,0,2.19499,658.715,-235.517)">
                <path d="M630.506,222.332C632.364,222.374 632.407,220.9 632.455,219.082C632.503,217.263 632.537,215.789 630.68,215.747C628.822,215.705 625.775,217.112 625.727,218.93C625.679,220.749 628.648,222.291 630.506,222.332ZM643.227,224.595C646.436,224.667 646.506,222.309 646.583,219.399C646.66,216.49 646.714,214.131 643.504,214.059C640.295,213.986 635.037,216.228 634.961,219.138C634.884,222.047 640.017,224.523 643.227,224.595ZM642.987,211.674C651.608,211.868 651.539,215.289 651.428,219.508C651.317,223.727 651.205,227.147 642.584,226.953C633.964,226.759 620.098,223.025 620.21,218.806C620.321,214.587 634.366,211.481 642.987,211.674Z" style="fill:rgb(131,158,179);fill-rule:nonzero;"/>
            </g>
            <g transform="matrix(1.94108,0,0,2.19499,658.715,-235.517)">
                <path d="M630.869,214.424C632.727,214.466 632.693,215.94 632.645,217.759C632.624,218.546 632.595,219.259 632.428,219.822C632.44,219.583 632.448,219.337 632.455,219.081C632.503,217.263 632.537,215.789 630.679,215.747C629.127,215.712 626.768,216.695 625.998,218.077C625.959,217.922 625.913,217.768 625.917,217.607C625.965,215.789 629.011,214.382 630.869,214.424Z" style="fill:rgb(79,99,112);fill-rule:nonzero;"/>
            </g>
            <g transform="matrix(1.94108,0,0,2.19499,658.715,-235.517)">
                <path d="M643.694,212.736C646.904,212.808 646.85,215.167 646.773,218.076C646.744,219.195 646.711,220.227 646.504,221.076C646.546,220.547 646.567,219.989 646.583,219.399C646.66,216.49 646.714,214.131 643.504,214.058C640.681,213.995 636.28,215.724 635.209,218.121C635.198,218.018 635.148,217.919 635.151,217.815C635.227,214.905 640.485,212.663 643.694,212.736Z" style="fill:rgb(79,99,112);fill-rule:nonzero;"/>
            </g>
            <g transform="matrix(1.94108,0,0,2.19499,658.715,-235.517)">
                <path d="M642.774,225.63C649.003,225.77 650.783,224.019 651.337,221.448C651.062,224.721 649.832,227.116 642.584,226.953C633.964,226.759 620.099,223.025 620.21,218.806C620.218,218.496 620.322,218.195 620.473,217.898C621.237,221.943 634.438,225.443 642.774,225.63Z" style="fill:rgb(79,99,112);fill-rule:nonzero;"/>
            </g>
            <g transform="matrix(1.94108,0,0,2.19499,658.715,-235.517)">
                <path d="M652.364,332.348C647.132,314.485 654.269,296.672 668.304,292.561C682.34,288.451 697.958,299.599 703.19,317.462C708.421,335.325 694.496,329.958 680.461,334.069C666.425,338.179 657.595,350.21 652.364,332.348Z" style="fill:rgb(226,226,226);fill-rule:nonzero;"/>
            </g>
            <g transform="matrix(1.94108,0,0,2.19499,658.715,-235.517)">
                <path d="M643.413,307.753C645.09,313.478 642.542,319.264 637.722,320.676C632.902,322.087 627.635,318.59 625.959,312.865C624.282,307.139 626.83,301.354 631.65,299.942C636.47,298.53 641.737,302.027 643.413,307.753Z" style="fill:rgb(226,226,226);fill-rule:nonzero;"/>
            </g>
            <g transform="matrix(1.94108,0,0,2.19499,658.715,-235.517)">
                <path d="M658.482,280.67C660.159,286.396 657.611,292.181 652.791,293.593C647.971,295.005 642.704,291.508 641.028,285.782C639.351,280.057 641.899,274.271 646.719,272.859C651.539,271.448 656.805,274.945 658.482,280.67Z" style="fill:rgb(226,226,226);fill-rule:nonzero;"/>
            </g>
            <g transform="matrix(1.94108,0,0,2.19499,658.715,-235.517)">
                <path d="M697.458,291.925C699.135,297.65 704.401,301.147 709.221,299.735C714.041,298.324 716.589,292.538 714.913,286.813C713.236,281.087 707.969,277.59 703.149,279.002C698.329,280.413 695.781,286.199 697.458,291.925Z" style="fill:rgb(226,226,226);fill-rule:nonzero;"/>
            </g>
            <g transform="matrix(1.94108,0,0,2.19499,658.715,-235.517)">
                <path d="M668.741,277.666C670.418,283.391 675.685,286.888 680.505,285.476C685.325,284.065 687.873,278.279 686.196,272.554C684.519,266.828 679.252,263.331 674.432,264.743C669.612,266.154 667.064,271.94 668.741,277.666Z" style="fill:rgb(226,226,226);fill-rule:nonzero;"/>
            </g>
        </g>
    </g>
</svg>
