<?xml version="1.0" encoding="UTF-8" standalone="no"?>
<!DOCTYPE svg PUBLIC "-//W3C//DTD SVG 1.1//EN" "http://www.w3.org/Graphics/SVG/1.1/DTD/svg11.dtd">
<svg width="100%" height="100%" viewBox="0 0 835 736" version="1.1" xmlns="http://www.w3.org/2000/svg" xmlns:xlink="http://www.w3.org/1999/xlink" xml:space="preserve" xmlns:serif="http://www.serif.com/" style="fill-rule:evenodd;clip-rule:evenodd;stroke-linejoin:round;stroke-miterlimit:2;">
    <g transform="matrix(1,0,0,1,-1218.82,-688.076)">
        <g transform="matrix(-4.16667,0,0,4.16667,2173.74,512.734)">
            <path d="M38.586,56.77C64.955,35.875 105.25,38.032 151.516,58.43C181.265,71.547 218.235,57.046 226.64,52.041L226.64,116.693C218.235,111.69 181.265,97.191 151.516,110.306C105.25,130.703 64.955,130.042 38.586,109.147C38.586,109.147 28.803,98.891 28.803,82.639C28.803,67.368 38.586,56.77 38.586,56.77Z" style="fill:rgb(148,212,200);fill-rule:nonzero;"/>
        </g>
        <g transform="matrix(-4.16667,0,0,4.16667,2173.74,512.734)">
            <path d="M58.587,112.171L93.583,112.171C103.212,126.585 107.593,144.716 106.555,164.25C105.167,190.4 105.007,210.906 94.551,214.779C67.864,224.661 46.927,213.231 51.96,207.035C82.282,169.716 65.536,126.44 58.587,112.171Z" style="fill:rgb(148,212,200);fill-rule:nonzero;"/>
        </g>
        <g transform="matrix(-4.16667,0,0,4.16667,2173.74,512.734)">
            <path d="M97.333,213.177C92.092,212.174 80.719,217.214 71.599,214.469C62.082,211.605 61.922,208.474 62.386,207.838C62.85,207.202 72.95,197.016 72.95,197.016C72.95,197.016 80.463,188.255 81.498,170.873C82.562,152.988 71.391,136.834 82.56,132.198C90.958,128.713 98.39,128.685 101.887,128.941C99.794,122.947 97.024,117.322 93.583,112.171L58.587,112.171C58.8,112.608 59.022,113.072 59.251,113.563C66.518,129.085 81.351,170.857 51.96,207.035C46.927,213.231 67.865,224.662 94.551,214.779C95.573,214.4 96.497,213.863 97.333,213.177Z" style="fill:rgb(94,204,187);fill-rule:nonzero;"/>
        </g>
        <g transform="matrix(-4.16667,0,0,4.16667,2173.74,512.734)">
            <path d="M143.281,93.575C172.279,90.697 207.15,84.281 226.64,82.135L226.64,116.693C218.235,111.69 181.265,97.191 151.516,110.306C105.25,130.703 64.955,130.042 38.586,109.147C38.586,109.147 28.803,98.891 28.803,82.639C28.803,78.605 29.784,66.664 38.704,56.734C57.194,129.597 109.15,96.963 143.281,93.575Z" style="fill:rgb(126,204,187);fill-rule:nonzero;"/>
        </g>
        <g transform="matrix(-4.16667,0,0,4.16667,2173.74,512.734)">
            <path d="M105.753,152.123C103.092,152.685 100.289,150.65 99.658,143.105C99.027,135.564 101.246,133.496 103.679,134.008C105.107,134.312 106.609,136.676 105.514,139.555C104.416,142.431 104.828,143.03 106.125,144.833C107.422,146.63 109,151.435 105.753,152.123Z" style="fill:rgb(223,143,80);fill-rule:nonzero;"/>
        </g>
        <g transform="matrix(-4.16667,0,0,4.16667,2173.74,512.734)">
            <path d="M103.679,134.008C101.647,133.806 101.863,152.82 105.52,152.323C106.864,152.138 108.971,150.259 107.383,146.28C105.8,142.3 105.938,141.101 106.193,139.782C106.85,136.369 106.103,134.25 103.679,134.008Z" style="fill:rgb(253,193,107);fill-rule:nonzero;"/>
        </g>
        <g transform="matrix(-4.16667,0,0,4.16667,2173.74,512.734)">
            <path d="M105.974,177.421C103.267,177.701 100.695,175.386 100.854,167.819C101.016,160.251 103.438,158.423 105.802,159.191C107.192,159.64 108.438,162.15 107.047,164.898C105.655,167.645 106.003,168.281 107.105,170.209C108.207,172.134 109.272,177.078 105.974,177.421Z" style="fill:rgb(223,143,80);fill-rule:nonzero;"/>
        </g>
        <g transform="matrix(-4.16667,0,0,4.16667,2173.74,512.734)">
            <path d="M105.802,159.191C103.804,158.777 102.032,177.709 105.72,177.595C107.076,177.552 109.365,175.904 108.206,171.783C107.046,167.658 107.308,166.479 107.699,165.193C108.708,161.869 108.188,159.685 105.802,159.191Z" style="fill:rgb(253,193,107);fill-rule:nonzero;"/>
        </g>
        <g transform="matrix(-4.23955,0,0,4.16667,2182.53,512.734)">
            <path d="M55.916,84.712C55.916,95.225 70.393,103.748 88.252,103.748C106.112,103.748 120.588,95.225 120.588,84.712C120.588,74.197 106.112,65.675 88.252,65.675C70.393,65.675 55.916,74.197 55.916,84.712Z" style="fill:rgb(209,220,215);fill-opacity:0.52;fill-rule:nonzero;"/>
        </g>
        <g transform="matrix(-4.16667,0,0,4.16667,2173.74,512.734)">
            <path d="M226.64,52.041L226.64,116.693C219.819,112.634 194.177,102.316 168.852,105.587C160.439,89.072 165.981,72.115 170.16,63.293C195.052,66.053 219.937,56.035 226.64,52.041Z" style="fill:rgb(109,198,173);fill-rule:nonzero;"/>
        </g>
        <g transform="matrix(-4.16667,0,0,4.16667,2173.74,512.734)">
            <path d="M167.507,69.79C167.837,68.834 168.177,67.917 168.523,67.047C173.62,67.537 178.783,67.461 183.862,67.062C196.511,66.062 210.559,62.664 221.636,56.227C223.251,55.287 224.705,57.785 223.095,58.723C213.164,64.494 201.215,67.519 189.97,69.234C182.528,70.37 174.988,70.578 167.507,69.79Z" style="fill:rgb(124,203,187);fill-rule:nonzero;"/>
        </g>
        <g transform="matrix(-4.16667,0,0,4.16667,2173.74,512.734)">
            <path d="M225.557,116.085C225.349,115.974 225.133,115.859 224.904,115.741C224.784,115.679 224.662,115.617 224.536,115.554C224.303,115.435 224.06,115.316 223.809,115.192C223.677,115.131 223.549,115.066 223.413,115.001C223.103,114.853 222.777,114.703 222.442,114.548C222.353,114.507 222.271,114.467 222.179,114.426C221.754,114.233 221.305,114.037 220.841,113.835C220.698,113.775 220.548,113.712 220.402,113.652C220.067,113.509 219.729,113.367 219.376,113.222C219.182,113.142 218.985,113.064 218.786,112.984C218.458,112.851 218.122,112.72 217.78,112.587C217.571,112.504 217.358,112.421 217.142,112.339C216.768,112.195 216.385,112.052 215.995,111.91C215.801,111.84 215.615,111.769 215.418,111.696C214.846,111.49 214.261,111.283 213.657,111.078C213.477,111.014 213.287,110.953 213.1,110.889C212.662,110.741 212.218,110.593 211.764,110.446C211.505,110.361 211.24,110.28 210.974,110.195C210.575,110.069 210.174,109.944 209.766,109.82C209.482,109.732 209.198,109.648 208.911,109.562C208.489,109.436 208.06,109.312 207.628,109.191C207.353,109.115 207.081,109.033 206.803,108.958C206.196,108.79 205.581,108.626 204.96,108.465C204.705,108.399 204.45,108.334 204.192,108.269C203.626,108.126 203.056,107.987 202.478,107.849C202.174,107.777 201.865,107.709 201.558,107.638C201.099,107.534 200.638,107.43 200.174,107.332C199.835,107.258 199.498,107.186 199.156,107.117C198.697,107.023 198.232,106.931 197.766,106.841C197.431,106.775 197.095,106.71 196.755,106.647C196.205,106.546 195.645,106.453 195.084,106.359C194.83,106.316 194.579,106.269 194.321,106.228C193.538,106.102 192.744,105.986 191.948,105.876C191.624,105.833 191.296,105.793 190.971,105.751C190.458,105.687 189.942,105.623 189.423,105.563C189.059,105.523 188.693,105.486 188.326,105.45C187.829,105.398 187.329,105.351 186.826,105.307C186.46,105.277 186.093,105.244 185.726,105.218C185.177,105.177 184.625,105.144 184.074,105.111C183.755,105.092 183.436,105.072 183.117,105.056C182.278,105.017 181.437,104.99 180.592,104.974C180.297,104.968 180.003,104.971 179.707,104.968C179.121,104.964 178.535,104.959 177.944,104.968C177.581,104.971 177.216,104.983 176.852,104.992C176.319,105.003 175.785,105.023 175.251,105.046C174.88,105.062 174.51,105.081 174.137,105.101C173.578,105.134 173.017,105.177 172.457,105.222C172.12,105.25 171.785,105.27 171.45,105.302C170.584,105.384 169.719,105.478 168.852,105.587C165.94,99.94 165.554,99.359 164.515,90.88C201.645,95.016 208.843,90.673 226.64,82.135L226.64,116.693C226.4,116.55 226.13,116.399 225.845,116.242C225.753,116.19 225.651,116.137 225.557,116.085Z" style="fill:rgb(99,181,159);fill-rule:nonzero;"/>
        </g>
        <g transform="matrix(-4.16667,0,0,4.16667,2173.74,512.734)">
            <rect x="226.662" y="52.002" width="2.519" height="64.672" style="fill:rgb(78,148,131);fill-rule:nonzero;"/>
        </g>
    </g>
</svg>
