<?xml version="1.0" encoding="UTF-8" standalone="no"?>
<!DOCTYPE svg PUBLIC "-//W3C//DTD SVG 1.1//EN" "http://www.w3.org/Graphics/SVG/1.1/DTD/svg11.dtd">
<svg width="100%" height="100%" viewBox="0 0 158 145" version="1.1" xmlns="http://www.w3.org/2000/svg" xmlns:xlink="http://www.w3.org/1999/xlink" xml:space="preserve" xmlns:serif="http://www.serif.com/" style="fill-rule:evenodd;clip-rule:evenodd;stroke-linejoin:round;stroke-miterlimit:2;">
    <g transform="matrix(1,0,0,1,-582.51,-1008.77)">
        <g transform="matrix(1,0,0,1,-1507.13,257.771)">
            <g transform="matrix(0.751339,0,0,0.751339,482.169,189.807)">
                <g transform="matrix(1,0,0,0.989608,22.5755,-11.4817)">
                    <circle cx="2300.25" cy="935.44" r="25.85" style="fill:rgb(241,252,255);"/>
                </g>
                <g transform="matrix(1,0,0,0.989608,22.5755,-11.4817)">
                    <path d="M2320.11,951.98C2315.36,957.668 2308.22,961.29 2300.25,961.29C2285.98,961.29 2274.4,949.707 2274.4,935.44C2274.4,926.621 2278.82,918.827 2285.57,914.161C2282.24,918.56 2280.26,924.059 2280.26,930.022C2280.26,944.438 2291.84,956.143 2306.11,956.143C2311.26,956.143 2316.07,954.614 2320.11,951.98Z" style="fill:rgb(228,244,255);"/>
                </g>
            </g>
            <g transform="matrix(0.637944,0,0,0.637944,716.615,194.302)">
                <g transform="matrix(1,0,0,1,30.306,-24.5544)">
                    <path d="M2363.46,980.47L2363.46,1055.05C2363.46,1075.64 2346.75,1092.35 2326.17,1092.35L2167.67,1092.35C2147.09,1092.35 2130.38,1075.64 2130.38,1055.05L2130.38,980.47C2130.38,959.888 2147.09,943.178 2167.67,943.178L2326.17,943.178C2346.75,943.178 2363.46,959.888 2363.46,980.47Z" style="fill:rgb(255,171,202);"/>
                </g>
                <g transform="matrix(1,0,0,1,30.6887,-24.6978)">
                    <path d="M2349.54,1084.11C2343.14,1089.26 2335.01,1092.35 2326.17,1092.35L2167.67,1092.35C2147.09,1092.35 2130.38,1075.64 2130.38,1055.05L2130.38,980.47C2130.38,971.675 2133.43,963.587 2138.53,957.208C2138.47,958.121 2138.44,959.043 2138.44,959.971L2138.44,1042.83C2138.44,1065.69 2157.01,1084.25 2179.87,1084.25L2346.04,1084.25C2347.22,1084.25 2348.39,1084.2 2349.54,1084.11Z" style="fill:rgb(255,135,184);"/>
                </g>
                <g transform="matrix(1,0,0,1,-261.165,0.50164)">
                    <ellipse cx="2546" cy="989.091" rx="75.957" ry="41.916" style="fill:rgb(255,135,184);"/>
                </g>
                <g transform="matrix(1,0,0,1,-261.018,0.367419)">
                    <path d="M2471.03,982.328C2476.89,962.405 2508.25,947.176 2546,947.176C2587.92,947.176 2621.95,965.958 2621.95,989.091C2621.95,995.755 2619.13,1002.06 2614.11,1007.65C2614.76,1005.45 2615.09,1003.19 2615.09,1000.89C2615.09,977.757 2581.06,958.975 2539.14,958.975C2509.29,958.975 2483.44,968.495 2471.03,982.328Z" style="fill:rgb(255,74,148);"/>
                </g>
            </g>
            <g transform="matrix(1,0,0,1,-207.327,-137.662)">
                <g transform="matrix(1,0,0,0.989608,22.5755,-11.4817)">
                    <circle cx="2300.25" cy="935.44" r="25.85" style="fill:rgb(241,252,255);"/>
                </g>
                <g transform="matrix(1,0,0,0.989608,22.5755,-11.4817)">
                    <path d="M2320.11,951.98C2315.36,957.668 2308.22,961.29 2300.25,961.29C2285.98,961.29 2274.4,949.707 2274.4,935.44C2274.4,926.621 2278.82,918.827 2285.57,914.161C2282.24,918.56 2280.26,924.059 2280.26,930.022C2280.26,944.438 2291.84,956.143 2306.11,956.143C2311.26,956.143 2316.07,954.614 2320.11,951.98Z" style="fill:rgb(228,244,255);"/>
                </g>
            </g>
            <g transform="matrix(0.520417,0,0,0.520417,987.972,398.267)">
                <g transform="matrix(1,0,0,0.989608,22.5755,-11.4817)">
                    <circle cx="2300.25" cy="935.44" r="25.85" style="fill:rgb(241,252,255);"/>
                </g>
                <g transform="matrix(1,0,0,0.989608,22.5755,-11.4817)">
                    <path d="M2320.11,951.98C2315.36,957.668 2308.22,961.29 2300.25,961.29C2285.98,961.29 2274.4,949.707 2274.4,935.44C2274.4,926.621 2278.82,918.827 2285.57,914.161C2282.24,918.56 2280.26,924.059 2280.26,930.022C2280.26,944.438 2291.84,956.143 2306.11,956.143C2311.26,956.143 2316.07,954.614 2320.11,951.98Z" style="fill:rgb(228,244,255);"/>
                </g>
            </g>
        </g>
    </g>
</svg>
