<?xml version="1.0" encoding="UTF-8" standalone="no"?>
<!DOCTYPE svg PUBLIC "-//W3C//DTD SVG 1.1//EN" "http://www.w3.org/Graphics/SVG/1.1/DTD/svg11.dtd">
<svg width="100%" height="100%" viewBox="0 0 550 631" version="1.1" xmlns="http://www.w3.org/2000/svg" xmlns:xlink="http://www.w3.org/1999/xlink" xml:space="preserve" xmlns:serif="http://www.serif.com/" style="fill-rule:evenodd;clip-rule:evenodd;stroke-linejoin:round;stroke-miterlimit:2;">
    <g transform="matrix(1,0,0,1,-53.9945,-21.7069)">
        <g transform="matrix(1,0,0,1,-15.2789,4.43357)">
            <g transform="matrix(1,0,0,1,-104.818,-600.208)">
                <path d="M264.251,780.656C263.164,828.85 260.015,905.793 258.927,953.987C258.604,968.303 260.428,954.343 266.035,967.594C269.975,976.905 276.605,984.923 283.82,992.168C290.157,998.532 297.139,1004.49 305.397,1008.27C314.617,1012.48 324.949,1013.76 335.112,1014.55C363.203,1016.73 392.976,1015.22 417.083,1001.09C419.962,999.404 422.846,997.433 424.408,994.547C425.465,992.594 463.325,950.113 460.968,949.455C422.306,938.647 419.792,920.731 417.285,886.809C416.203,872.176 416.665,857.472 415.766,842.827C414.534,822.747 410.733,802.816 404.479,783.633C399.859,769.467 393.756,755.468 383.84,744.131C361.029,718.05 291.693,690.028 272.25,732.395C265.256,747.633 264.621,764.245 264.251,780.656Z" style="fill:rgb(191,148,109);fill-rule:nonzero;"/>
                <path d="M415.872,852.036C415.638,847.767 415.312,843.503 414.894,839.25C408.782,835.978 402.337,833.266 395.899,830.668C385.299,826.392 374.487,822.317 363.16,820.785C354.749,819.646 334.951,818.282 330.92,828.378C327.267,837.527 339.659,851.396 344.856,858.001C359.255,876.304 378.41,890.805 399.828,899.916C405.637,902.387 413.1,904.458 419.194,906.104C419.085,904.552 416.771,868.458 415.872,852.036Z" style="fill:rgb(175,137,103);fill-rule:nonzero;"/>
                <path d="M532.37,1204.07C531.474,1209.06 531.986,1214.51 534.854,1218.7C537.723,1222.88 543.277,1225.4 548.086,1223.78C546.874,1226.8 550.607,1229.38 553.729,1230.28C565.976,1233.81 579.454,1232.92 591.125,1227.79C595.581,1225.83 599.837,1223.23 603.063,1219.59C612.137,1209.34 610.437,1191.98 600.554,1182.51C589.719,1172.13 574.643,1172.67 561.718,1178.02C548.646,1183.44 535.231,1188.13 532.37,1204.07Z" style="fill:rgb(163,127,95);fill-rule:nonzero;"/>
                <path d="M561.165,1206.28C552.214,1208.1 544.333,1215.01 541.708,1223.76C541.675,1223.87 545.503,1224.48 545.926,1224.47C547.456,1224.45 547.929,1224.32 548.47,1223.01C549.397,1220.76 550.204,1218.52 551.395,1216.38C553.704,1212.24 556.915,1208.5 561.165,1206.28Z" style="fill:rgb(146,115,87);fill-rule:nonzero;"/>
                <path d="M508.679,1092.33C514.2,1108.52 524.709,1122.44 535.005,1136.09C545.3,1149.75 555.721,1163.76 561.017,1180.02C564.41,1190.44 566.887,1203.17 576.965,1207.47C585.137,1210.95 602.765,1216.36 608.264,1209.39C613.764,1202.41 621.762,1075.3 616.311,1025.57C615.657,1019.6 614.846,1013.49 612,1008.21C607.669,1000.17 599.012,995.085 590.044,993.35C581.076,991.615 571.785,992.858 562.897,994.967C550.454,997.921 538.201,1002.69 528.319,1010.81C507.81,1027.67 500.367,1067.96 508.679,1092.33Z" style="fill:rgb(163,127,95);fill-rule:nonzero;"/>
                <path d="M357.166,643.082C358.759,638.94 359.88,639.083 362.849,635.785C365.818,632.486 370.113,630.118 374.54,630.435C382.017,630.971 386.863,638.411 389.962,645.237C395.095,656.542 398.811,668.49 400.995,680.712C401.689,684.599 402.224,688.64 401.224,692.459C399.053,700.748 390.47,705.562 382.339,708.263C376.489,710.206 370.264,711.564 364.173,710.612C351.677,708.658 346.804,701.382 348.283,690.215C350.257,675.309 351.663,657.392 357.166,643.082Z" style="fill:rgb(191,148,109);fill-rule:nonzero;"/>
                <path d="M418.458,1196.9C425.922,1206.38 433.903,1216.24 445.091,1220.75C456.28,1225.25 471.55,1222.01 476.146,1210.86C478.488,1205.18 477.668,1198.75 476.81,1192.66C475.68,1184.65 474.551,1176.64 473.421,1168.63C470.419,1147.33 467.347,1125.78 459.141,1105.91C450.935,1086.03 436.901,1067.7 417.31,1058.84C393.423,1048.03 327.542,1057.28 340.529,1095.93C346.187,1112.78 365.351,1129.51 376.163,1143.23C390.261,1161.12 404.359,1179.01 418.458,1196.9Z" style="fill:rgb(163,127,95);fill-rule:nonzero;"/>
                <path d="M405.542,1223.5C406.332,1228.51 408.602,1233.49 412.683,1236.5C416.765,1239.51 422.838,1240.07 426.852,1236.97C426.694,1240.21 431.066,1241.43 434.312,1241.25C447.042,1240.58 459.481,1235.32 468.827,1226.65C472.395,1223.34 475.563,1219.48 477.417,1214.98C482.63,1202.33 475.334,1186.48 462.894,1180.78C449.255,1174.52 435.189,1179.97 424.733,1189.27C414.158,1198.67 403.021,1207.5 405.542,1223.5Z" style="fill:rgb(163,127,95);fill-rule:nonzero;"/>
                <path d="M433.47,1216.14C425.613,1220.8 420.431,1229.91 420.818,1239.04C420.823,1239.15 424.64,1238.47 425.037,1238.33C426.474,1237.8 426.88,1237.53 426.961,1236.11C427.1,1233.69 427.127,1231.3 427.552,1228.89C428.376,1224.22 430.185,1219.64 433.47,1216.14Z" style="fill:rgb(146,115,87);fill-rule:nonzero;"/>
                <path d="M373.63,859.814C413.914,876.959 461.144,880.644 504.136,869.998C531.853,863.134 558.06,850.247 577.427,831.224C596.791,812.2 608.883,786.807 608.116,761.085C607.752,748.855 616.371,690.082 568.135,671.888C560.106,668.859 552.068,665.249 543.384,663.752C488.286,654.263 433.375,678.111 377.527,682.955C336.929,686.477 287.385,683.774 273.166,726.604C262.496,758.746 294.081,800.553 317.19,822.698C333.216,838.055 352.414,850.784 373.63,859.814Z" style="fill:rgb(191,148,109);fill-rule:nonzero;"/>
                <path d="M281.928,1066.7C287.792,1082.18 294.585,1097.55 304.823,1110.87C329.2,1142.56 370.336,1159.05 411.011,1166.94C473.892,1179.15 540.442,1174.04 600.4,1152.41C630.136,1141.68 659.689,1125.67 675.259,1099.48C684.306,1084.27 687.938,1066.71 689.474,1049.33C690.772,1034.63 690.623,1019.57 685.978,1005.48C675.34,973.234 642.326,951.124 607.689,942.51C573.053,933.896 536.537,936.498 500.825,939.133C465.113,941.769 428.583,944.312 393.977,935.592C371.024,929.808 349.742,919.252 327.117,912.42C312.484,908.001 283.17,899.961 268.983,909.157C256.975,916.94 259.156,937.245 258.978,949.24C258.381,989.313 267.696,1029.11 281.928,1066.7Z" style="fill:rgb(191,148,109);fill-rule:nonzero;"/>
                <path d="M669.366,1073.55C653.796,1099.73 624.243,1115.74 594.507,1126.47C534.549,1148.11 467.999,1153.21 405.118,1141.01C364.443,1133.11 323.307,1116.63 298.93,1084.93C288.691,1071.62 294.477,1097.55 304.715,1110.87C329.092,1142.56 370.228,1159.05 410.903,1166.94C473.784,1179.15 540.334,1174.04 600.292,1152.41C630.028,1141.68 659.581,1125.67 675.151,1099.48C684.197,1084.27 678.413,1058.33 669.366,1073.55Z" style="fill:rgb(175,137,103);fill-rule:nonzero;"/>
                <path d="M310.055,1220.11C309.159,1225.1 309.671,1230.55 312.539,1234.73C315.408,1238.92 320.963,1241.44 325.771,1239.82C324.559,1242.84 328.292,1245.41 331.414,1246.32C343.661,1249.85 357.139,1248.96 368.81,1243.83C373.266,1241.87 377.522,1239.27 380.749,1235.63C389.822,1225.38 388.122,1208.02 378.239,1198.55C367.404,1188.17 352.328,1188.71 339.403,1194.06C326.331,1199.48 312.916,1204.17 310.055,1220.11Z" style="fill:rgb(191,148,109);fill-rule:nonzero;"/>
                <path d="M338.85,1222.31C329.899,1224.14 322.019,1231.05 319.393,1239.8C319.36,1239.91 323.188,1240.52 323.611,1240.51C325.141,1240.49 325.614,1240.36 326.155,1239.05C327.082,1236.8 327.889,1234.56 329.08,1232.42C331.389,1228.28 334.601,1224.54 338.85,1222.31Z" style="fill:rgb(175,137,103);fill-rule:nonzero;"/>
                <path d="M608.794,1220.11C607.898,1225.1 608.411,1230.55 611.279,1234.73C614.147,1238.92 619.702,1241.44 624.511,1239.82C623.298,1242.84 627.032,1245.41 630.154,1246.32C642.401,1249.85 655.878,1248.96 667.549,1243.83C672.005,1241.87 676.262,1239.27 679.488,1235.63C688.561,1225.38 686.862,1208.02 676.979,1198.55C666.144,1188.17 651.067,1188.71 638.143,1194.06C625.071,1199.48 611.656,1204.17 608.794,1220.11Z" style="fill:rgb(191,148,109);fill-rule:nonzero;"/>
                <path d="M637.59,1222.31C628.639,1224.14 620.758,1231.05 618.133,1239.8C618.099,1239.91 621.928,1240.52 622.351,1240.51C623.88,1240.49 624.354,1240.36 624.895,1239.05C625.822,1236.8 626.628,1234.56 627.819,1232.42C630.128,1228.28 633.34,1224.54 637.59,1222.31Z" style="fill:rgb(175,137,103);fill-rule:nonzero;"/>
                <path d="M694.311,908.616C705.111,886.051 705.623,860.09 705.281,835.076C707.741,832.872 711.246,836.271 712.628,839.271C724.631,865.314 725.278,895.137 722.775,923.703C721.17,942.007 718.253,960.562 709.993,976.974C701.733,993.387 687.38,1007.54 669.493,1011.74C651.606,1015.94 630.53,1008.07 622.829,991.392C613.059,970.229 627.953,954.084 646.622,950.44C667.63,946.339 685.27,927.508 694.311,908.616Z" style="fill:rgb(191,148,109);fill-rule:nonzero;"/>
                <path d="M568.135,671.888C560.676,669.074 553.208,665.76 545.222,664.105C530.091,674.465 515.567,694.54 513.549,708.947C512.344,717.545 515.883,727.342 523.749,731.02C531.246,734.525 539.217,731.691 547.368,728.856C553.352,726.776 559.432,724.695 565.492,725.122C571.128,725.52 576.346,728.083 581.741,729.765C587.137,731.446 593.376,732.146 598.135,729.101C602.193,726.504 604.275,721.762 605.732,717.161C601.588,699.152 591.575,680.729 568.135,671.888Z" style="fill:rgb(35,31,32);fill-rule:nonzero;"/>
                <path d="M219.792,700.153C216.678,699.839 213.348,699.68 210.61,701.198C204.438,704.624 192.984,725.909 195.091,732.647C202.473,756.256 228.758,765.474 247.506,781.609C254.9,787.973 263.771,793.765 273.52,793.424C282.747,793.102 291.129,787.093 296.092,779.308C301.055,771.522 303.001,762.171 303.638,752.961C304.941,734.103 297.665,723.958 280.771,717.289C261.114,709.529 240.954,702.285 219.792,700.153Z" style="fill:rgb(191,148,109);fill-rule:nonzero;"/>
                <path d="M202.276,703.325C186.745,717.594 172.519,736.536 174.232,757.558C175.206,769.5 181.265,780.41 188.002,790.319C190.229,793.595 192.644,796.901 196.042,798.936C199.44,800.97 204.083,801.429 207.227,799.019C210.152,796.775 211.032,792.793 211.449,789.13C212.313,781.559 213.685,773.873 212.742,766.311C209.678,741.731 220.098,718.391 225.674,700.469C225.674,700.469 209.231,696.937 202.276,703.325Z" style="fill:rgb(148,113,81);fill-rule:nonzero;"/>
                <path d="M368.242,637.499C372.653,637.245 378.865,638.538 382.835,640.478C392.871,645.381 400.71,651.791 410.375,657.174C410.981,657.512 417.009,661.542 421.781,657.801C431.529,650.159 420.321,629.529 415.222,624.262C410.972,619.87 404.767,617.726 398.659,617.503C392.552,617.281 386.503,618.826 380.77,620.941C375.217,622.99 369.792,625.631 365.363,629.558C361.412,633.061 358.088,637.813 357.166,643.082C358.899,639.72 363.995,637.743 368.242,637.499Z" style="fill:rgb(148,113,81);fill-rule:nonzero;"/>
                <path d="M411.258,755.834C405.175,766.369 387.728,767.682 372.287,758.768C356.846,749.853 349.26,734.086 355.342,723.551C361.424,713.017 378.872,711.703 394.313,720.618C409.753,729.533 417.34,745.299 411.258,755.834Z" style="fill:white;fill-rule:nonzero;"/>
                <path d="M392.202,719.915C399.882,726.294 402.122,736.263 397.205,742.182C392.288,748.101 382.077,747.728 374.397,741.349C366.718,734.969 364.479,725 369.395,719.081C374.312,713.163 384.522,713.536 392.202,719.915Z" style="fill:rgb(35,31,32);fill-rule:nonzero;"/>
                <path d="M533.448,721.801C532.731,721.801 532.014,721.711 531.327,721.531C526.16,720.169 523.024,714.487 523.078,709.144C523.133,703.799 525.705,698.807 528.668,694.359C530.946,690.939 542.461,675.924 550.205,675.924C552.322,675.924 554.158,677.048 555.446,679.836C556.304,681.696 555.724,683.923 554.713,685.703C550.86,692.484 541.265,695.697 540.058,703.402C539.263,708.476 542.549,714.161 539.857,718.535C538.537,720.679 535.987,721.801 533.448,721.801Z" style="fill:rgb(99,94,90);fill-rule:nonzero;"/>
                <path d="M409.291,1162.88C414.535,1161.84 419.701,1159.32 422.709,1155.07C426.389,1149.88 426.251,1143.12 425.033,1137.05C422.652,1125.2 416.615,1114.09 407.855,1105.46C402.744,1100.42 395.686,1095.97 388.385,1097.48C383.41,1098.5 379.333,1102.22 377.042,1106.56C374.75,1110.9 374.029,1115.81 373.813,1120.63C373.451,1128.7 374.45,1136.9 377.728,1144.29C383.475,1157.24 394.156,1165.88 409.291,1162.88Z" style="fill:rgb(175,137,103);fill-rule:nonzero;"/>
                <path d="M330.973,1199.22C334.92,1210.61 339.225,1222.55 348.32,1230.47C357.416,1238.39 372.902,1240.34 380.898,1231.31C384.975,1226.71 386.308,1220.37 387.492,1214.34C389.05,1206.4 390.609,1198.46 392.167,1190.52C396.31,1169.42 400.471,1148.05 399.232,1126.58C397.993,1105.12 390.745,1083.19 375.139,1068.4C356.113,1050.37 290.841,1037.51 290.441,1078.28C290.267,1096.05 302.886,1118.14 308.604,1134.65C316.061,1156.17 323.517,1177.7 330.973,1199.22Z" style="fill:rgb(191,148,109);fill-rule:nonzero;"/>
                <path d="M568.921,1134.74C565.972,1127.91 566.367,1120.49 566.861,1113.34C567.493,1104.19 568.431,1094.51 574.535,1087.41C575.75,1085.99 577.292,1084.64 579.299,1084.37C582.27,1083.97 585.042,1086.01 587.331,1087.9C601.617,1099.73 616.704,1113.14 619.445,1130.04C619.965,1133.24 619.953,1136.68 618.087,1139.32C616.896,1141.02 615.048,1142.24 613.132,1143.27C599.539,1150.58 576.016,1151.17 568.921,1134.74Z" style="fill:rgb(175,137,103);fill-rule:nonzero;"/>
                <path d="M585.104,1108.37C590.625,1124.55 601.134,1138.48 611.43,1152.13C621.725,1165.79 632.146,1179.8 637.441,1196.06C640.834,1206.48 643.312,1219.21 653.39,1223.5C661.562,1226.99 679.189,1232.4 684.689,1225.42C690.188,1218.45 698.187,1091.34 692.735,1041.6C692.082,1035.64 691.271,1029.53 688.425,1024.25C684.094,1016.21 675.437,1011.12 666.469,1009.39C657.5,1007.65 648.21,1008.9 639.322,1011.01C626.878,1013.96 614.625,1018.73 604.744,1026.85C584.234,1043.7 576.792,1084 585.104,1108.37Z" style="fill:rgb(191,148,109);fill-rule:nonzero;"/>
                <path d="M581.869,826.596C581.869,826.596 559.132,839.305 523.078,832.195C487.025,825.085 477.347,813.792 474.657,815.466C471.969,817.139 491.518,832.195 513.318,839.305C535.122,846.414 561.841,844.243 561.841,844.243C561.841,844.243 568.483,839.235 571.647,836.547C578.248,830.938 581.869,826.596 581.869,826.596Z" style="fill:rgb(35,31,32);fill-rule:nonzero;"/>
                <path d="M540.281,864.339C544.133,873.018 546.091,882.417 547.469,891.812C548.509,898.891 549.323,906.279 553.103,912.353C556.883,918.429 564.697,922.707 571.3,919.951C574.775,918.5 577.339,915.346 578.76,911.858C580.182,908.371 580.577,904.553 580.695,900.788C581.172,885.538 577.299,870.336 570.803,856.53C567.178,848.826 562.038,840.329 553.673,838.738C548.85,837.821 542.716,839.198 542.716,839.198C542.716,839.198 532.843,836.187 527.092,836.247C523.598,836.283 518.5,838.164 521.739,841.998C524.744,845.556 529.48,847.821 532.576,851.621C535.716,855.475 538.265,859.8 540.281,864.339Z" style="fill:rgb(244,92,77);fill-rule:nonzero;"/>
                <path d="M552.721,877.328C549.974,874.578 549.305,870.458 548.249,866.718C546.086,859.059 541.723,852.035 535.817,846.701C533.342,844.466 532.155,839.425 535.552,839.425C536.051,839.425 536.65,839.534 537.358,839.777C541.556,841.218 545.266,847.195 547.187,850.87C550.538,857.285 552.718,864.309 553.586,871.495C553.828,873.496 553.917,875.705 552.721,877.328Z" style="fill:rgb(247,138,122);fill-rule:nonzero;"/>
                <path d="M556.122,899.663C555.131,899.663 554.273,898.617 553.78,897.661C552.308,894.802 551.452,891.628 551.285,888.416C551.144,885.709 552.224,884.541 553.518,884.541C554.973,884.541 556.697,886.018 557.255,888.448C557.894,891.227 558.124,894.099 557.935,896.942C557.865,898 557.573,899.269 556.563,899.593C556.414,899.641 556.267,899.663 556.122,899.663Z" style="fill:rgb(247,138,122);fill-rule:nonzero;"/>
            </g>
        </g>
    </g>
</svg>
