<?xml version="1.0" encoding="UTF-8" standalone="no"?>
<!DOCTYPE svg PUBLIC "-//W3C//DTD SVG 1.1//EN" "http://www.w3.org/Graphics/SVG/1.1/DTD/svg11.dtd">
<svg width="100%" height="100%" viewBox="0 0 488 690" version="1.1" xmlns="http://www.w3.org/2000/svg" xmlns:xlink="http://www.w3.org/1999/xlink" xml:space="preserve" xmlns:serif="http://www.serif.com/" style="fill-rule:evenodd;clip-rule:evenodd;stroke-linejoin:round;stroke-miterlimit:2;">
    <g transform="matrix(1,0,0,1,-2705.97,-80.5553)">
        <g transform="matrix(1,0,0,1,-15.2789,4.43357)">
            <path d="M2777.34,717.843C2770.33,723.122 2763.07,729.323 2761.16,737.892C2759.78,744.092 2762.22,751.577 2768.09,753.992C2768.17,758.536 2771.89,762.383 2776.14,763.991C2786.29,767.832 2797.16,761.331 2806.06,755.122C2818.29,746.594 2830.51,738.067 2842.74,729.539C2848.55,725.483 2855.02,720.187 2854.7,713.104C2854.54,709.529 2852.58,706.271 2850.26,703.544C2842.86,694.841 2827.15,687.46 2815.75,692.173C2802.38,697.705 2788.87,709.168 2777.34,717.843Z" style="fill:rgb(191,148,109);fill-rule:nonzero;"/>
            <path d="M2768.09,753.992C2768.09,753.992 2767.14,750.354 2770.33,745.245C2773.53,740.135 2779.65,736.418 2779.65,736.418C2779.65,736.418 2772.4,738.025 2768.91,740.719C2765.42,743.413 2763.75,750.622 2763.75,750.622C2763.75,750.622 2764.08,752.212 2765.43,753.17C2766.78,754.128 2768.09,753.992 2768.09,753.992Z" style="fill:rgb(175,137,103);fill-rule:nonzero;"/>
            <path d="M3128.19,647.794C3145.8,638.538 3161.49,626.03 3176.43,612.89C3183.36,606.791 3190.31,600.348 3194.5,592.117C3197.39,586.428 3201.2,578.673 3207.41,580.147C3210.39,583.366 3208.52,588.54 3206.41,592.388C3182.27,636.348 3143.57,672.149 3097.86,692.798C3088.44,697.058 3078.44,700.744 3068.09,700.61C3065.98,700.583 3063.81,700.379 3061.93,699.428C3058.33,697.608 3056.52,693.445 3055.89,689.456C3053.54,674.423 3062.93,662.296 3077.16,662.23C3094.84,662.147 3112.7,655.933 3128.19,647.794Z" style="fill:rgb(163,127,95);fill-rule:nonzero;"/>
            <path d="M3096.6,527.089C3102.05,526.178 3107.83,525.974 3112.91,528.167C3123.7,532.834 3127.42,546.307 3127.67,558.066C3128.14,580.689 3120.81,602.699 3112.76,623.847C3104.23,646.268 3094.78,668.341 3084.46,689.994C3080.95,697.348 3076.63,705.31 3068.95,708.02C3060.96,710.839 3051.79,706.641 3046.51,700.017C3041.22,693.393 3039.05,684.851 3037.54,676.513C3028.31,625.698 3032.52,537.813 3096.6,527.089Z" style="fill:rgb(191,148,109);fill-rule:nonzero;"/>
            <path d="M2760.48,542.843C2754.97,543.31 2749.32,544.546 2744.95,547.927C2735.65,555.125 2735.38,569.099 2738.06,580.552C2743.21,602.587 2755.76,622.094 2768.8,640.588C2782.62,660.194 2797.24,679.238 2812.61,697.656C2817.83,703.912 2823.99,710.554 2832.11,711.276C2840.55,712.027 2848.38,705.688 2851.87,697.961C2855.34,690.234 2855.33,681.422 2854.73,672.969C2851.07,621.452 2825.22,537.352 2760.48,542.843Z" style="fill:rgb(191,148,109);fill-rule:nonzero;"/>
            <path d="M2790.23,592.691C2787.36,615.174 2785.64,638.153 2791.32,660.248C2797,682.342 2811,703.715 2833.42,715.239C2846.21,721.816 2860.98,724.869 2875.67,726.786C2903.25,730.387 2931.3,730.279 2959.14,729.064C2991.18,727.666 3023.69,724.694 3053.26,713.926C3060.81,711.178 3068.29,707.823 3073.8,702.561C3081.43,695.267 3084.37,685.195 3086.18,675.45C3092.44,641.753 3088.15,607.151 3080.08,573.713C3067.42,521.296 3045.21,470.144 3010.11,426.093C2997.71,410.533 2982.95,395.373 2962.95,387.916C2950.14,383.14 2935.95,381.849 2922.02,382.061C2894.08,382.488 2853.62,389.99 2838.95,413.436C2818.93,445.453 2811.01,487.591 2802.76,522.983C2797.39,546.038 2793.21,569.305 2790.23,592.691Z" style="fill:rgb(191,148,109);fill-rule:nonzero;"/>
            <path d="M2835.5,384.552C2834.66,403.36 2834,422.384 2836.9,440.938C2842.49,476.681 2861.91,509.093 2888.37,526.869C2914.83,544.644 2947.83,547.436 2975.85,534.271C2988.91,528.134 3000.94,518.642 3010.27,506.085C3036.64,470.591 3037.77,417.178 3031,369.96C3028.53,352.708 3025.16,335.457 3018.81,319.664C2999.09,270.631 2953.05,243.107 2908.12,237.742C2894.8,236.152 2880.87,236.303 2868.78,243.043C2830.53,264.375 2837.34,343.088 2835.5,384.552Z" style="fill:rgb(191,148,109);fill-rule:nonzero;"/>
            <path d="M2869.76,440.543C2897.94,466.859 2936.97,486.331 2974.46,477.31C3014.98,467.56 3042.85,421.623 3032.79,381.183C3026.03,354.015 3004.82,331.892 2979.7,319.529C2954.58,307.165 2925.9,303.661 2897.92,304.506C2880.06,305.046 2861.45,307.573 2846.76,317.75C2804.58,346.977 2842.08,414.704 2869.76,440.543Z" style="fill:rgb(175,137,103);fill-rule:nonzero;"/>
            <path d="M2751.61,174.669C2748.56,175.684 2745.35,176.917 2743.46,179.512C2741.9,181.655 2741.47,184.4 2741.16,187.033C2739.66,199.385 2739.43,211.889 2740.48,224.287C2740.57,225.355 2740.68,226.467 2741.25,227.379C2742.35,229.158 2744.71,229.571 2746.78,229.863C2771.44,233.331 2795.06,243.977 2813.99,260.162C2818.72,264.204 2824.39,268.913 2830.38,267.257C2833.69,266.342 2836.16,263.641 2838.4,261.041C2846.82,251.286 2854.95,241.057 2860.22,229.297C2865.49,217.538 2867.71,203.983 2863.97,191.649C2861.34,182.958 2855.39,174.973 2847.43,170.483C2839.65,166.095 2828.55,167.158 2819.77,166.453C2796.8,164.61 2773.47,167.392 2751.61,174.669Z" style="fill:rgb(191,148,109);fill-rule:nonzero;"/>
            <path d="M2957.94,91.716C2966.94,85.206 2977.99,80.11 2988.9,82.215C3002.13,84.769 3011.45,97.069 3024.24,101.335C3011.17,130.824 3008.5,163.727 3006.43,195.919C3005.83,205.131 3005.06,214.946 2999.46,222.283C2992.29,231.673 2978.66,234.299 2967.27,231.169C2955.88,228.039 2946.38,220.192 2938.16,211.712C2929.89,203.194 2922.38,193.596 2918.44,182.401C2912.53,165.646 2918.65,148.628 2925.25,132.993C2932.15,116.627 2943.53,102.135 2957.94,91.716Z" style="fill:rgb(191,148,109);fill-rule:nonzero;"/>
            <path d="M3055.77,284.414C3047.94,262.891 3036.37,243.038 3024.16,223.856C3012.15,204.996 2999.43,186.633 2986.06,168.824C2979.21,159.707 2972.1,150.635 2963.31,143.684C2945.11,129.295 2920.57,124.102 2899.43,130.599C2871.03,139.325 2810.29,147.643 2808.97,256.757C2808.34,309.518 2814.09,366.922 2849.61,405.057C2880.29,438.003 2926.66,451.416 2968.51,444.032C2991.33,440.006 3013.23,430.118 3030.55,414.185C3047.87,398.253 3060.39,376.123 3064.12,351.724C3067.54,329.36 3063.59,305.936 3055.77,284.414Z" style="fill:rgb(191,148,109);fill-rule:nonzero;"/>
            <path d="M3011.19,145.636C3016.16,149.659 3021.09,154.067 3027.12,156.219C3032.85,158.267 3039.48,154.61 3041.67,151.151C3049.91,138.153 3051.46,122.391 3045.57,108.176C3042.56,100.908 3036.77,95.111 3030.4,90.497C3021.56,84.097 3011.34,79.61 3000.65,77.431C2990.84,75.432 2980.33,75.436 2971.16,79.466C2965.24,82.07 2951.33,91.999 2949.55,98.55C2949.35,99.269 2961.78,90.212 2977.67,103.178C2996.19,118.305 2996.59,133.825 3011.19,145.636Z" style="fill:rgb(148,113,81);fill-rule:nonzero;"/>
            <path d="M2758.44,168.711C2745.11,173.959 2716.52,186.056 2721.92,227.964C2723.43,239.677 2726.91,251.095 2732.39,261.552C2736.61,269.588 2741.89,277.395 2749.48,282.363C2757.08,287.331 2767.41,288.92 2775.26,284.367C2788.12,272.141 2754.7,249.362 2762.91,215.198C2766.72,199.356 2777.12,177.31 2789.48,166.688C2789.48,166.688 2776.14,161.749 2758.44,168.711Z" style="fill:rgb(148,113,81);fill-rule:nonzero;"/>
            <path d="M2952.07,412.28C2949.91,415.74 2947.14,418.901 2943.63,420.979C2938.58,423.968 2932.5,424.48 2926.65,424.92C2933.34,425.881 2940.32,425.834 2946.71,423.611C2953.1,421.388 2958.45,416.596 2961.42,410.517C2965.11,402.982 2966.29,392.653 2965.14,382.938C2964.8,380.118 2962.23,378.258 2960.82,375.794C2960.09,374.523 2958.97,373.343 2957.52,373.106C2952.54,372.292 2955.54,378.362 2956.15,380.342C2957.24,383.922 2957.8,387.663 2957.83,391.406C2957.89,398.715 2955.94,406.067 2952.07,412.28Z" style="fill:rgb(175,137,103);fill-rule:nonzero;"/>
            <path d="M2983.82,403.825C2987.5,405.586 2991.53,406.768 2995.61,406.639C3001.47,406.453 3006.88,403.619 3012.05,400.852C3006.92,405.256 3001.01,408.959 2994.42,410.512C2987.83,412.066 2980.75,410.892 2974.98,407.357C2967.83,402.977 2961.28,394.897 2957.04,386.079C2955.81,383.519 2956.99,380.568 2956.86,377.73C2956.79,376.266 2957.1,374.67 2958.2,373.694C2961.96,370.336 2962.69,377.067 2963.24,379.063C2964.24,382.671 2965.78,386.126 2967.76,389.302C2971.63,395.503 2977.21,400.663 2983.82,403.825Z" style="fill:rgb(175,137,103);fill-rule:nonzero;"/>
            <path d="M2893.75,342.55C2883.43,350.765 2880.54,360.036 2887.87,367.691C2893.68,373.763 2911.06,371.363 2919.29,373.08C2928.77,375.055 2936.82,381.185 2945.96,384.387C2955.09,387.59 2967.29,386.617 2971.79,378.051C2973.09,375.594 2973.57,372.797 2974.59,370.216C2978.14,361.274 2987.34,356.232 2995.02,350.436C3002.69,344.641 3009.88,335.293 3006.77,326.193C3003.5,316.631 2991.24,313.97 2981.14,314.422C2956.48,315.531 2904.85,333.716 2893.75,342.55Z" style="fill:rgb(35,31,32);fill-rule:nonzero;"/>
            <path d="M2899.1,361.885C2898.67,361.885 2898.24,361.841 2897.82,361.747C2883.88,358.681 2903.3,344.797 2906.92,342.556C2909.29,341.088 2933.51,329.347 2939.15,329.347C2939.77,329.347 2940.17,329.492 2940.28,329.811C2940.87,331.505 2939.98,333.426 2938.63,334.603C2937.27,335.78 2935.53,336.388 2933.86,337.045C2924.3,340.805 2915.7,346.979 2909.08,354.836C2907.58,356.615 2906.16,358.498 2904.32,359.915C2902.82,361.065 2900.97,361.885 2899.1,361.885Z" style="fill:rgb(99,94,90);fill-rule:nonzero;"/>
            <path d="M2829.39,591.231C2833.72,605.779 2837.16,620.575 2840.59,635.361C2846.02,658.788 2849.6,695.467 2855.03,718.894C2856.46,725.066 2859.89,718.257 2864.05,723.033C2868.22,727.809 2875.85,730.203 2881.03,726.552C2885.95,723.082 2886.58,716.134 2886.53,710.112C2886.06,650.441 2865.09,592.495 2836.46,540.135C2834.8,537.1 2829.38,526.289 2824.74,526.744C2820.04,527.205 2819.76,541.568 2819.72,545.362C2819.54,561.077 2824.97,576.363 2829.39,591.231Z" style="fill:rgb(175,137,103);fill-rule:nonzero;"/>
            <path d="M2929.89,729.877C2929.89,729.877 2916.17,729.986 2910.76,729.689C2905.48,729.399 2908.92,726.622 2908.1,721.181C2900.44,670.889 2894.38,620.349 2889.92,569.672C2889.35,563.222 2886.17,542.634 2896.01,552.825C2902.64,559.692 2906.93,573.893 2910.51,582.745C2918.94,603.59 2924.61,625.623 2927.34,648.012C2930.33,672.502 2932.62,706.356 2929.89,729.877Z" style="fill:rgb(175,137,103);fill-rule:nonzero;"/>
            <path d="M2827.34,504.949C2822.19,513.218 2821.65,523.548 2822.55,533.248C2824.17,550.688 2829.9,567.442 2835.31,584.1C2849.82,628.726 2862.34,674 2872.82,719.74C2873.59,723.127 2874.44,726.675 2876.75,729.269C2878.88,731.665 2882,732.925 2885.05,733.902C2890.14,735.529 2895.41,736.595 2900.73,737.076C2901.7,737.164 2902.73,737.223 2903.61,736.801C2905.26,736.012 2917.46,730.567 2917.47,728.74C2917.8,694.996 2916.44,666.615 2917.19,633.515C2917.95,600.414 2914.1,566.806 2901.76,536.084C2897.49,525.457 2891.9,514.837 2882.65,508.079C2874.49,502.113 2863.04,499.015 2853.66,495.458C2843.79,491.717 2832.99,495.877 2827.34,504.949Z" style="fill:rgb(191,148,109);fill-rule:nonzero;"/>
            <path d="M2858.74,716.437C2854.25,719.19 2849.79,722.48 2847.5,727.222C2844.91,732.577 2845.66,739.384 2849.35,744.046C2853.05,748.708 2859.51,750.994 2865.31,749.696C2864.17,754.966 2868.93,759.924 2874.08,761.514C2881.63,763.844 2890.51,760.847 2895.11,754.419C2897.8,758.193 2903.42,759.086 2907.63,757.159C2911.84,755.232 2914.69,751.053 2916.05,746.623C2917.4,742.192 2917.45,737.48 2917.39,732.848C2917.29,725.068 2916.4,716.231 2910.21,711.518C2907.18,709.212 2903.32,708.305 2899.54,707.85C2885.67,706.183 2870.57,709.179 2858.74,716.437Z" style="fill:rgb(191,148,109);fill-rule:nonzero;"/>
            <path d="M2865.31,749.696C2865.31,749.696 2864.75,747.6 2866.37,742.893C2867.99,738.186 2874.13,731.274 2874.13,731.274C2874.13,731.274 2866.76,733.567 2863.71,738.593C2860.05,744.63 2859.23,749.807 2859.23,749.807C2859.23,749.807 2859.77,750.475 2862.02,750.609C2864.27,750.744 2865.31,749.696 2865.31,749.696Z" style="fill:rgb(175,137,103);fill-rule:nonzero;"/>
            <path d="M2894.99,754.554C2894.99,754.554 2893.98,752.631 2894.53,747.684C2895.09,742.736 2899.56,734.647 2899.56,734.647C2899.56,734.647 2894.62,737.291 2891.97,744.253C2889.46,750.85 2889.47,759.527 2889.47,759.527C2889.47,759.527 2890.77,758.909 2892.43,757.385C2894.54,755.442 2894.99,754.554 2894.99,754.554Z" style="fill:rgb(175,137,103);fill-rule:nonzero;"/>
            <path d="M3049.45,585.839C3045.87,600.588 3043.37,615.572 3040.53,630.482C3032.83,670.854 3032.83,690.703 3032.83,716.4C3032.83,722.737 3025.48,714.254 3021.56,719.236C3017.64,724.218 3010.14,726.999 3004.78,723.616C2999.69,720.401 2998.71,713.494 2998.45,707.478C2995.88,647.861 3013.87,588.921 3039.79,535.17C3041.29,532.054 3046.16,520.98 3050.82,521.199C3055.53,521.419 3056.54,535.749 3056.78,539.536C3057.76,555.222 3053.12,570.765 3049.45,585.839Z" style="fill:rgb(175,137,103);fill-rule:nonzero;"/>
            <path d="M2956.16,729.428C2956.16,729.428 2969.87,728.837 2975.25,728.265C2980.51,727.707 2976.93,725.108 2977.48,719.632C2982.56,669.015 2986.04,618.232 2987.91,567.393C2988.15,560.923 2990.27,540.199 2980.97,550.879C2974.7,558.075 2971.14,572.476 2968.01,581.499C2960.65,602.747 2956.11,625.041 2954.53,647.54C2952.79,672.149 2952.23,706.077 2956.16,729.428Z" style="fill:rgb(175,137,103);fill-rule:nonzero;"/>
            <path d="M3047.11,499.565C3052.67,507.56 3053.74,517.848 3053.34,527.581C3052.61,545.083 3047.74,562.107 3043.18,579.019C3030.96,624.327 3020.77,670.18 3012.64,716.395C3012.04,719.817 3011.37,723.403 3009.2,726.111C3007.19,728.613 3004.14,730.03 3001.14,731.162C2996.14,733.046 2990.93,734.38 2985.64,735.13C2984.68,735.268 2983.66,735.38 2982.75,735.003C2981.07,734.299 2968.61,729.484 2968.5,727.66C2966.45,693.976 2966.37,665.562 2963.92,632.543C2961.48,599.524 2963.61,565.763 2974.37,534.453C2978.1,523.622 2983.14,512.731 2992.03,505.51C2999.88,499.135 3011.15,495.459 3020.34,491.428C3030.01,487.188 3041,490.793 3047.11,499.565Z" style="fill:rgb(191,148,109);fill-rule:nonzero;"/>
            <path d="M3026.53,712.378C3031.15,714.899 3035.77,717.957 3038.31,722.576C3041.17,727.792 3040.76,734.629 3037.31,739.473C3033.86,744.317 3027.53,746.93 3021.66,745.929C3023.07,751.134 3018.57,756.328 3013.51,758.178C3006.08,760.89 2997.06,758.35 2992.14,752.166C2989.65,756.071 2984.08,757.25 2979.78,755.54C2975.47,753.83 2972.41,749.802 2970.83,745.446C2969.26,741.091 2968.97,736.387 2968.79,731.758C2968.49,723.983 2968.93,715.112 2974.87,710.09C2977.78,707.632 2981.59,706.529 2985.35,705.882C2999.11,703.509 3014.34,705.733 3026.53,712.378Z" style="fill:rgb(191,148,109);fill-rule:nonzero;"/>
            <path d="M2992.27,752.293C2992.27,752.293 2993.18,750.322 2992.37,745.409C2991.57,740.496 2986.69,732.646 2986.69,732.646C2986.69,732.646 2991.76,735.033 2994.76,741.852C2997.61,748.312 2998.03,756.979 2998.03,756.979C2998.03,756.979 2996.71,756.427 2994.97,754.99C2992.76,753.158 2992.27,752.293 2992.27,752.293Z" style="fill:rgb(175,137,103);fill-rule:nonzero;"/>
            <path d="M3021.66,745.929C3021.66,745.929 3022.13,741.776 3020.29,737.18C3018.45,732.583 3012.98,727.682 3012.98,727.682C3012.98,727.682 3021.42,731.321 3023.76,734.334C3027.53,739.192 3028.53,745.529 3028.53,745.529C3028.53,745.529 3028.28,745.937 3025.45,746.081C3022.63,746.225 3021.66,745.929 3021.66,745.929Z" style="fill:rgb(175,137,103);fill-rule:nonzero;"/>
            <path d="M3110.1,716.263C3117.01,721.679 3124.14,728.021 3125.88,736.625C3127.14,742.852 3124.56,750.287 3118.64,752.586C3118.47,757.128 3114.68,760.901 3110.4,762.425C3100.17,766.065 3089.43,759.352 3080.65,752.969C3068.6,744.203 3056.54,735.436 3044.49,726.669C3038.75,722.5 3032.39,717.077 3032.85,710.003C3033.08,706.431 3035.11,703.212 3037.48,700.531C3045.05,691.976 3060.9,684.905 3072.2,689.841C3085.46,695.636 3098.75,707.363 3110.1,716.263Z" style="fill:rgb(191,148,109);fill-rule:nonzero;"/>
            <path d="M3118.64,752.586C3118.64,752.586 3119.66,748.968 3116.57,743.797C3113.47,738.625 3107.42,734.789 3107.42,734.789C3107.42,734.789 3114.65,736.538 3118.08,739.3C3121.52,742.062 3123.05,749.302 3123.05,749.302C3123.05,749.302 3122.69,750.886 3121.32,751.817C3119.94,752.748 3118.64,752.586 3118.64,752.586Z" style="fill:rgb(175,137,103);fill-rule:nonzero;"/>
            <path d="M2838.2,275.375C2838.2,275.375 2837.5,256.201 2854.58,249.991C2872.59,243.44 2882.01,255.723 2882.01,255.723C2882.01,255.723 2865.83,232.426 2848.44,236.91C2823.98,243.214 2838.2,275.375 2838.2,275.375Z" style="fill:rgb(35,31,32);fill-rule:nonzero;"/>
            <path d="M2997.68,221.321C2997.68,221.321 2982.89,209.103 2967.58,218.882C2951.42,229.197 2955.44,244.142 2955.44,244.142C2955.44,244.142 2946.79,217.131 2960.93,206.051C2980.81,190.47 2997.68,221.321 2997.68,221.321Z" style="fill:rgb(35,31,32);fill-rule:nonzero;"/>
        </g>
    </g>
</svg>
