<?xml version="1.0" encoding="UTF-8" standalone="no"?>
<!DOCTYPE svg PUBLIC "-//W3C//DTD SVG 1.1//EN" "http://www.w3.org/Graphics/SVG/1.1/DTD/svg11.dtd">
<svg width="100%" height="100%" viewBox="0 0 145 151" version="1.1" xmlns="http://www.w3.org/2000/svg" xmlns:xlink="http://www.w3.org/1999/xlink" xml:space="preserve" xmlns:serif="http://www.serif.com/" style="fill-rule:evenodd;clip-rule:evenodd;stroke-linejoin:round;stroke-miterlimit:2;">
    <g transform="matrix(1,0,0,1,-33.119,-39.6931)">
        <g transform="matrix(1,0,0,1,5.55102,6.9018)">
            <path d="M64.496,65.074C64.496,65.074 62.704,62.153 60.526,58.624C60.603,54.931 60.307,52.816 59.465,52.565L57.504,53.742C55.136,49.929 53.032,46.58 52.841,46.41C52.602,46.197 56.835,40.823 54.244,40.009C51.922,39.28 42.736,43.091 42.736,43.091C41.189,43.992 41.724,49.829 42.736,55.806C42.734,55.832 38.841,118.644 38.789,136.25C38.775,141.035 37.701,146.077 40.698,146.973C43.695,147.868 46.851,146.165 47.747,143.167C47.747,143.167 54.809,121.031 55.474,113.362C57.211,93.343 59.217,76.812 60.092,66.062C62.65,65.479 64.496,65.074 64.496,65.074Z" style="fill:rgb(22,91,159);fill-rule:nonzero;"/>
        </g>
        <g transform="matrix(1,0,0,1,5.55102,6.9018)">
            <path d="M50.956,48.066C51.772,49.224 61.202,53.57 65.098,59.903C62.633,60.639 50.845,145.882 42.176,142.477C36.787,140.36 44.116,49.398 44.436,43.517C47.211,42.416 50.251,43.009 52.031,42.618C51.722,43.22 51.365,43.826 51.191,44.119C50.654,45.028 49.678,46.681 50.956,48.066ZM47.409,145.79C76.967,94.877 71.513,58.49 71.061,58.086C70.822,57.874 56.835,40.823 54.244,40.009C51.922,39.28 42.736,43.091 42.736,43.091C42.685,43.121 42.542,43.159 42.411,43.287C39.886,45.766 36.654,141.027 36.654,141.027C38.277,146.548 46.134,147.987 47.409,145.79Z" style="fill:rgb(147,191,235);fill-rule:nonzero;"/>
        </g>
        <g transform="matrix(1,0,0,1,5.55102,6.9018)">
            <path d="M34.533,165.993L55.567,165.993L55.567,155.882L28.785,155.882L34.533,165.993Z" style="fill-rule:nonzero;"/>
        </g>
        <g transform="matrix(1,0,0,1,5.55102,6.9018)">
            <path d="M45.185,146.548C45.185,146.548 35.65,160.443 34.533,165.993C34.533,165.993 28.785,163.766 27.568,157.389L36.654,141.027L45.185,146.548Z" style="fill-rule:nonzero;"/>
        </g>
        <g transform="matrix(1,0,0,1,5.55102,6.9018)">
            <path d="M39.092,155.215L37.505,157.884L29.973,153.407L31.504,150.832L32.906,148.472L40.438,152.949L39.092,155.215Z" style="fill:url(#_Linear1);"/>
        </g>
        <g transform="matrix(1,0,0,1,5.55102,6.9018)">
            <path d="M41.658,153.119L38.6,158.265L38.597,158.27L38.596,158.27L38.552,158.345C38.495,158.44 38.427,158.525 38.353,158.601C37.299,159.99 35.409,160.434 33.934,159.558L30.094,157.275C28.619,156.399 28.106,154.526 28.821,152.936C28.854,152.836 28.895,152.735 28.952,152.639L32.058,147.414C32.452,146.751 33.287,146.521 33.923,146.898L41.219,151.235C41.855,151.612 42.052,152.457 41.658,153.119Z" style="fill:rgb(30,121,212);fill-rule:nonzero;"/>
        </g>
        <g transform="matrix(1,0,0,1,5.55102,6.9018)">
            <path d="M32.906,148.472L40.438,152.949L39.092,155.215L31.504,150.832L32.906,148.472Z" style="fill-rule:nonzero;"/>
        </g>
        <g transform="matrix(1,0,0,1,5.55102,6.9018)">
            <path d="M39.092,155.215L37.505,157.884L29.973,153.407L31.504,150.832L39.092,155.215Z" style="fill-rule:nonzero;"/>
        </g>
        <g transform="matrix(1,0,0,1,5.55102,6.9018)">
            <path d="M55.224,50.759C58.413,54.838 61.244,59.095 64.242,63.601C64.525,64.027 64.813,64.457 65.098,64.885L81.015,59.903C79.329,57.338 77.741,54.825 76.242,52.448C71.425,44.81 65.784,37.241 62.686,36.267C58.831,37.373 52.072,39.43 46.228,41.75C46.234,41.748 46.251,41.741 46.251,41.741C46.678,41.859 48.968,42.757 55.224,50.759Z" style="fill:rgb(147,191,235);fill-rule:nonzero;"/>
        </g>
        <g transform="matrix(1,0,0,1,5.55102,6.9018)">
            <path d="M76.242,52.448C77.741,54.825 79.329,57.338 81.015,59.903L83.501,59.125C81.676,56.366 79.969,53.66 78.361,51.112C72.864,42.396 69.682,36.683 65.706,35.432C65.706,35.432 64.612,35.69 64.251,35.79C63.857,35.899 62.685,36.267 62.685,36.267L62.686,36.267C65.784,37.241 71.425,44.81 76.242,52.448Z" style="fill:rgb(190,217,243);fill-rule:nonzero;"/>
        </g>
        <g transform="matrix(1,0,0,1,5.55102,6.9018)">
            <path d="M64.242,63.601C61.244,59.095 58.413,54.838 55.224,50.759C48.968,42.757 46.678,41.859 46.251,41.741C46.251,41.741 46.234,41.748 46.228,41.75C46.103,41.794 44.782,42.267 44.366,42.427C43.924,42.596 42.736,43.091 42.736,43.091C42.736,43.091 46.393,43.852 53.25,52.302C56.452,56.248 59.186,60.523 62.156,64.989C62.306,65.214 62.456,65.44 62.607,65.665L65.098,64.885C64.813,64.457 64.525,64.027 64.242,63.601Z" style="fill:rgb(190,217,243);fill-rule:nonzero;"/>
        </g>
        <g transform="matrix(1,0,0,1,5.55102,6.9018)">
            <path d="M135.346,65.074C135.346,65.074 137.137,62.153 139.316,58.624C139.239,54.931 139.535,52.816 140.377,52.565L142.338,53.742C144.706,49.929 146.81,46.58 147.001,46.41C147.239,46.197 143.007,40.823 145.598,40.009C147.92,39.28 157.106,43.091 157.106,43.091C158.653,43.992 158.118,49.829 157.106,55.806C157.108,55.832 161,118.644 161.053,136.25C161.067,141.035 162.141,146.077 159.144,146.973C156.146,147.868 152.99,146.165 152.095,143.167C152.095,143.167 145.033,121.031 144.368,113.362C142.631,93.343 140.624,76.812 139.75,66.062C137.192,65.479 135.346,65.074 135.346,65.074Z" style="fill:rgb(22,91,159);fill-rule:nonzero;"/>
        </g>
        <g transform="matrix(1,0,0,1,5.55102,6.9018)">
            <path d="M148.651,44.119C148.477,43.826 148.12,43.22 147.811,42.618C149.59,43.009 152.631,42.416 155.406,43.517C155.726,49.398 163.055,140.36 157.666,142.477C148.997,145.882 137.209,60.639 134.744,59.903C138.64,53.57 148.07,49.224 148.886,48.066C150.164,46.681 149.188,45.028 148.651,44.119ZM163.188,141.027C163.188,141.027 159.956,45.766 157.431,43.287C157.3,43.159 157.157,43.121 157.106,43.091C157.106,43.091 147.92,39.28 145.598,40.009C143.007,40.823 129.02,57.874 128.781,58.086C128.328,58.49 122.875,94.877 152.433,145.79C153.708,147.987 161.565,146.548 163.188,141.027Z" style="fill:rgb(147,191,235);fill-rule:nonzero;"/>
        </g>
        <g transform="matrix(1,0,0,1,5.55102,6.9018)">
            <path d="M165.309,165.993L144.275,165.993L144.275,155.882L171.057,155.882L165.309,165.993Z" style="fill-rule:nonzero;"/>
        </g>
        <g transform="matrix(1,0,0,1,5.55102,6.9018)">
            <path d="M154.657,146.548C154.657,146.548 164.192,160.443 165.309,165.993C165.309,165.993 171.057,163.766 172.274,157.389L163.188,141.027L154.657,146.548Z" style="fill-rule:nonzero;"/>
        </g>
        <g transform="matrix(1,0,0,1,5.55102,6.9018)">
            <path d="M159.404,152.949L166.935,148.472L168.338,150.832L169.868,153.407L162.337,157.884L160.75,155.215L159.404,152.949Z" style="fill:url(#_Linear2);"/>
        </g>
        <g transform="matrix(1,0,0,1,5.55102,6.9018)">
            <path d="M158.623,151.235L165.919,146.898C166.555,146.521 167.39,146.751 167.783,147.414L170.889,152.639C170.947,152.735 170.988,152.836 171.021,152.936C171.736,154.526 171.222,156.399 169.748,157.275L165.908,159.558C164.433,160.434 162.543,159.99 161.489,158.601C161.415,158.525 161.347,158.44 161.29,158.345L161.242,158.265L158.184,153.119C157.79,152.457 157.987,151.612 158.623,151.235Z" style="fill:rgb(30,121,212);fill-rule:nonzero;"/>
        </g>
        <g transform="matrix(1,0,0,1,5.55102,6.9018)">
            <path d="M166.935,148.472L159.404,152.949L160.75,155.215L168.338,150.832L166.935,148.472Z" style="fill-rule:nonzero;"/>
        </g>
        <g transform="matrix(1,0,0,1,5.55102,6.9018)">
            <path d="M160.75,155.215L162.337,157.884L169.868,153.407L168.338,150.832L160.75,155.215Z" style="fill-rule:nonzero;"/>
        </g>
        <g transform="matrix(1,0,0,1,5.55102,6.9018)">
            <path d="M144.618,50.759C141.429,54.838 138.597,59.095 135.6,63.601C135.316,64.027 135.029,64.457 134.744,64.885L118.827,59.903C120.513,57.338 122.101,54.825 123.6,52.448C128.417,44.81 134.058,37.241 137.156,36.267C141.011,37.373 147.77,39.43 153.614,41.75C153.608,41.748 153.591,41.741 153.591,41.741C153.164,41.859 150.874,42.757 144.618,50.759Z" style="fill:rgb(147,191,235);fill-rule:nonzero;"/>
        </g>
        <g transform="matrix(1,0,0,1,5.55102,6.9018)">
            <path d="M123.6,52.448C122.101,54.825 120.513,57.338 118.827,59.903L116.341,59.125C118.166,56.366 119.873,53.66 121.48,51.112C126.978,42.396 130.16,36.683 134.136,35.432C134.136,35.432 135.23,35.69 135.591,35.79C135.985,35.899 137.157,36.267 137.157,36.267L137.156,36.267C134.058,37.241 128.417,44.81 123.6,52.448Z" style="fill:rgb(190,217,243);fill-rule:nonzero;"/>
        </g>
        <g transform="matrix(1,0,0,1,5.55102,6.9018)">
            <path d="M135.6,63.601C138.597,59.095 141.429,54.838 144.618,50.759C150.874,42.757 153.164,41.859 153.591,41.741C153.591,41.741 153.608,41.748 153.614,41.75C153.739,41.794 155.06,42.267 155.476,42.427C155.918,42.596 157.106,43.091 157.106,43.091C157.106,43.091 153.448,43.852 146.592,52.302C143.39,56.248 140.656,60.523 137.686,64.989C137.536,65.214 137.385,65.44 137.235,65.665L134.744,64.885C135.029,64.457 135.316,64.027 135.6,63.601Z" style="fill:rgb(190,217,243);fill-rule:nonzero;"/>
        </g>
        <g transform="matrix(1,0,0,1,5.55102,6.9018)">
            <path d="M117.015,50.54L110.902,50.487C110.902,50.487 111.046,41.475 110.902,40.993C110.902,40.993 117.158,40.504 118.555,41.883C118.555,41.883 117.994,48.124 117.015,50.54Z" style="fill:rgb(147,191,235);fill-rule:nonzero;"/>
        </g>
        <g transform="matrix(1,0,0,1,5.55102,6.9018)">
            <path d="M83.155,50.52L90.212,50.487C90.212,50.487 90.069,41.475 90.212,40.993C90.212,40.993 85.98,39.371 82.559,41.399L83.155,50.52Z" style="fill:rgb(147,191,235);fill-rule:nonzero;"/>
        </g>
        <g transform="matrix(1,0,0,1,5.55102,6.9018)">
            <path d="M91.673,33.253C89.305,33.787 82.559,41.399 82.559,41.399C82.559,41.399 85.9,41.169 90.22,40.979L94.83,32.899C93.62,32.967 92.455,33.076 91.673,33.253Z" style="fill:rgb(147,191,235);fill-rule:nonzero;"/>
        </g>
        <g transform="matrix(1,0,0,1,5.55102,6.9018)">
            <path d="M99.921,32.795C99.921,32.795 97.283,32.761 94.83,32.899L90.22,40.979C93.243,40.847 96.745,40.734 99.921,40.734C103.362,40.734 107.439,40.963 110.902,41.216L105.012,32.899C102.558,32.761 99.921,32.795 99.921,32.795Z" style="fill:rgb(75,148,221);fill-rule:nonzero;"/>
        </g>
        <g transform="matrix(1,0,0,1,5.55102,6.9018)">
            <path d="M108.169,33.253C107.387,33.076 106.221,32.967 105.012,32.899L110.902,41.216C115.203,41.53 118.555,41.883 118.555,41.883C118.555,41.883 110.537,33.787 108.169,33.253Z" style="fill:rgb(147,191,235);fill-rule:nonzero;"/>
        </g>
        <g transform="matrix(1,0,0,1,5.55102,6.9018)">
            <path d="M152.582,158.131L152.582,97.092C152.582,68.358 129.287,45.064 100.553,45.064C71.818,45.064 48.524,68.358 48.524,97.092L48.525,135.053L48.525,158.133L152.582,158.131Z" style="fill:rgb(30,110,212);fill-rule:nonzero;"/>
        </g>
        <g transform="matrix(0.931313,0,0,1,8.88398,6.9018)">
            <path d="M152.582,158.131L152.582,97.092C152.582,68.358 129.287,45.064 100.553,45.064C71.818,45.064 48.524,68.358 48.524,97.092L48.525,135.053L48.525,158.133L152.582,158.131Z" style="fill:rgb(30,121,212);fill-rule:nonzero;"/>
        </g>
        <g transform="matrix(1,0,0,1,5.55102,6.9018)">
            <path d="M72.117,183.345C72.482,183.361 72.847,183.373 73.216,183.373L127.89,183.373C128.259,183.373 128.625,183.361 128.989,183.345C139.597,182.88 148.464,175.724 151.478,165.993L49.629,165.993C52.642,175.724 61.509,182.88 72.117,183.345Z" style="fill:rgb(147,176,235);fill-rule:nonzero;"/>
        </g>
        <g transform="matrix(0.930176,0,0,1,9.0163,6.9018)">
            <path d="M72.117,183.345C72.482,183.361 72.847,183.373 73.216,183.373L127.89,183.373C128.259,183.373 128.625,183.361 128.989,183.345C139.597,182.88 148.464,175.724 151.478,165.993L49.629,165.993C52.642,175.724 61.509,182.88 72.117,183.345Z" style="fill:rgb(147,191,235);fill-rule:nonzero;"/>
        </g>
        <g transform="matrix(1,0,0,1,5.55102,6.9018)">
            <path d="M48.524,158.133L48.524,158.685L48.524,158.133Z" style="fill:rgb(247,192,3);fill-rule:nonzero;"/>
        </g>
        <g transform="matrix(1,0,0,1,5.55102,6.9018)">
            <path d="M48.524,158.133L48.524,158.685C48.525,161.23 48.913,163.683 49.629,165.993L151.478,165.993C152.194,163.682 152.582,161.228 152.582,158.682L152.582,158.133L48.524,158.133Z" style="fill:rgb(75,131,221);fill-rule:nonzero;"/>
        </g>
        <g transform="matrix(0.931987,0,0,1,8.85127,6.9018)">
            <path d="M48.524,158.133L48.524,158.685C48.525,161.23 48.913,163.683 49.629,165.993L151.478,165.993C152.194,163.682 152.582,161.228 152.582,158.682L152.582,158.133L48.524,158.133Z" style="fill:rgb(75,148,221);fill-rule:nonzero;"/>
        </g>
        <g transform="matrix(1,0,0,1,5.55102,6.9018)">
            <path d="M137.588,134.6C137.588,138.906 134.097,142.397 129.791,142.397L71.315,142.397C67.009,142.397 63.518,138.906 63.518,134.6L63.518,98.346C63.518,94.04 67.009,90.549 71.315,90.549L129.791,90.549C134.097,90.549 137.588,94.04 137.588,98.346L137.588,134.6Z" style="fill:rgb(147,171,235);fill-rule:nonzero;"/>
        </g>
        <g transform="matrix(0.933563,0,0,1,9.77099,6.9018)">
            <path d="M137.588,134.6C137.588,138.906 134.097,142.397 129.791,142.397L71.315,142.397C67.009,142.397 63.518,138.906 63.518,134.6L63.518,98.346C63.518,94.04 67.009,90.549 71.315,90.549L129.791,90.549C134.097,90.549 137.588,94.04 137.588,98.346L137.588,134.6Z" style="fill:rgb(147,191,235);fill-rule:nonzero;"/>
        </g>
        <g transform="matrix(1,0,0,1,5.55102,6.9018)">
            <rect x="63.518" y="108.611" width="74.07" height="4.938" style="fill-rule:nonzero;"/>
        </g>
        <g transform="matrix(1,0,0,1,5.55102,6.9018)">
            <path d="M121.846,120.216C121.278,120.216 120.818,119.756 120.818,119.188C120.818,118.62 121.278,118.16 121.846,118.16C122.414,118.16 122.874,118.62 122.874,119.188C122.874,119.756 122.414,120.216 121.846,120.216ZM123.031,112.872C122.803,111.558 121.931,111.412 121.846,111.436C121.761,111.412 120.888,111.558 120.661,112.872C120.38,114.489 119.7,119.366 119.7,119.366C119.7,120.552 120.661,121.512 121.846,121.512C123.031,121.512 123.992,120.552 123.992,119.366C123.992,119.366 123.311,114.489 123.031,112.872Z" style="fill-rule:nonzero;"/>
        </g>
        <g transform="matrix(0.593501,0,0,1,85.5573,-12.7419)">
            <path d="M121.846,120.216C121.278,120.216 120.818,119.756 120.818,119.188C120.818,118.62 121.278,118.16 121.846,118.16C122.414,118.16 122.874,118.62 122.874,119.188C122.874,119.756 122.414,120.216 121.846,120.216ZM123.031,112.872C122.803,111.558 121.931,111.412 121.846,111.436C121.761,111.412 120.888,111.558 120.661,112.872C120.38,114.489 119.7,119.366 119.7,119.366C119.7,120.552 120.661,121.512 121.846,121.512C123.031,121.512 123.992,120.552 123.992,119.366C123.992,119.366 123.311,114.489 123.031,112.872Z" style="fill-rule:nonzero;"/>
        </g>
    </g>
    <defs>
        <linearGradient id="_Linear1" x1="0" y1="0" x2="1" y2="0" gradientUnits="userSpaceOnUse" gradientTransform="matrix(-3.86196,5.31574,-5.31574,-3.86196,37.2008,150.432)"><stop offset="0" style="stop-color:rgb(168,168,168);stop-opacity:1"/><stop offset="1" style="stop-color:rgb(216,216,216);stop-opacity:1"/></linearGradient>
        <linearGradient id="_Linear2" x1="0" y1="0" x2="1" y2="0" gradientUnits="userSpaceOnUse" gradientTransform="matrix(3.86196,-5.31574,-5.31574,-3.86196,162.642,150.432)"><stop offset="0" style="stop-color:rgb(168,168,168);stop-opacity:1"/><stop offset="1" style="stop-color:rgb(216,216,216);stop-opacity:1"/></linearGradient>
    </defs>
</svg>
