<?xml version="1.0" encoding="UTF-8" standalone="no"?>
<!DOCTYPE svg PUBLIC "-//W3C//DTD SVG 1.1//EN" "http://www.w3.org/Graphics/SVG/1.1/DTD/svg11.dtd">
<svg width="100%" height="100%" viewBox="0 0 3056 1075" version="1.1" xmlns="http://www.w3.org/2000/svg" xmlns:xlink="http://www.w3.org/1999/xlink" xml:space="preserve" xmlns:serif="http://www.serif.com/" style="fill-rule:evenodd;clip-rule:evenodd;stroke-linejoin:round;stroke-miterlimit:2;">
    <g transform="matrix(1,0,0,1,-476.074,-374.641)">
        <g transform="matrix(0.628331,-0.777946,0.777946,0.628331,-791.982,954.483)">
            <path d="M1655.86,2368.74C1655.86,2368.74 1754.3,2486 1816.38,2559.96C1936.75,2703.34 2155.01,2960.43 2135.27,3106.77C2107.75,3310.79 2137.01,3419.85 2303.08,3510.33C2447.11,3588.81 2701.05,3475.02 2692.47,3223.19C2939.02,3275.25 3095.05,3044.85 3042.72,2889.42C2982.35,2710.18 2880.01,2662.47 2674.32,2654.25C2526.77,2648.34 2430.78,2532.71 2310.4,2389.32C2248.31,2315.37 1802.71,1784.7 1802.71,1784.7C1802.71,1784.7 1704.27,1667.44 1642.18,1593.48C1521.81,1450.1 1424.55,1335.53 1444.29,1189.19C1471.81,985.177 1442.55,876.112 1276.47,785.628C1132.45,707.158 878.512,820.941 887.086,1072.78C640.544,1020.71 484.498,1251.11 536.841,1406.55C597.202,1585.78 699.548,1633.49 905.245,1641.72C1052.79,1647.62 1148.78,1763.25 1269.16,1906.64C1331.24,1980.59 1655.86,2368.74 1655.86,2368.74Z" style="fill:rgb(253,242,232);fill-rule:nonzero;"/>
        </g>
        <g transform="matrix(0.628331,-0.777946,0.777946,0.628331,-792.458,953.983)">
            <path d="M827.372,1065.44C790.444,1082.91 756.93,1107.97 728.317,1140.13C660.059,1216.86 634.078,1320.25 662.125,1403.54C729.078,1602.35 849.635,1644.35 1048.68,1652.31C1186.29,1657.82 1278.55,1767.73 1395.37,1906.88L1398.08,1910.12C1459.44,1983.2 1781.51,2368.3 1784.76,2372.19L1784.78,2372.22L1951.24,2570.51C2065.41,2706.46 2277.93,2959.51 2259.69,3094.71C2233.06,3292.13 2253.55,3418.14 2437.76,3518.51C2444.96,3522.44 2452.42,3525.93 2460.09,3528.99C2404.61,3540.68 2348.4,3535.03 2303.08,3510.33C2137.01,3419.85 2107.75,3310.79 2135.27,3106.77C2155.01,2960.43 1936.75,2703.34 1816.38,2559.96C1754.3,2486 1655.86,2368.74 1655.86,2368.74C1655.86,2368.74 1331.24,1980.59 1269.16,1906.64C1148.78,1763.25 1052.79,1647.62 905.245,1641.72C699.548,1633.49 597.202,1585.78 536.841,1406.55C488.862,1264.07 615.971,1058.61 827.372,1065.44Z" style="fill:rgb(253,225,208);fill-rule:nonzero;"/>
        </g>
        <g transform="matrix(1,0,0,1,1.96241,11.4418)">
            <path d="M558.884,484.937C558.884,484.937 449.444,576.012 479.664,740.872C502.977,868.049 602.812,941.643 651.508,956.372C762.744,990.015 849.365,952.523 849.365,952.523C849.365,952.523 661.771,957.145 586.286,804.579C507.671,645.684 558.884,484.937 558.884,484.937Z" style="fill:rgb(253,225,208);"/>
        </g>
        <path d="M3518.56,612.181C3518.56,612.181 3542.59,706.521 3476.77,809.083C3404.11,922.297 3258.63,955.155 3245.15,960.618C3231.67,966.082 3394.84,865.104 3437.31,804.084C3499.8,714.303 3518.56,612.181 3518.56,612.181Z" style="fill:rgb(253,225,208);"/>
    </g>
</svg>
