<?xml version="1.0" encoding="UTF-8" standalone="no"?>
<!DOCTYPE svg PUBLIC "-//W3C//DTD SVG 1.1//EN" "http://www.w3.org/Graphics/SVG/1.1/DTD/svg11.dtd">
<svg width="100%" height="100%" viewBox="0 0 3125 2084" version="1.1" xmlns="http://www.w3.org/2000/svg" xmlns:xlink="http://www.w3.org/1999/xlink" xml:space="preserve" xmlns:serif="http://www.serif.com/" style="fill-rule:evenodd;clip-rule:evenodd;stroke-linejoin:round;stroke-miterlimit:2;">
    <g id="BACKGROUND" transform="matrix(4.16667,0,0,4.16667,0,0)">
        <rect x="0" y="0" width="750" height="500" style="fill:rgb(231,243,250);"/>
    </g>
    <g id="OBJECTS" transform="matrix(4.16667,0,0,4.16667,0,0)">
        <g transform="matrix(1,0,0,1,679.09,269.24)">
            <path d="M0,-195.87L0,-115.05L-43.49,-115.05L-43.49,-142.81L-86,-142.81L-86,-124.24L-104.939,-124.24L-104.939,-115.05L-126.63,-115.05L-126.63,-141.2L-156.26,-141.2L-156.26,-115.05L-164.82,-115.05L-164.82,-195.87L-199.189,-195.87L-199.189,-141.011L-213.59,-141.011L-213.59,-115.05L-242,-115.05L-242,-195.87L-284.52,-195.87L-284.52,-128.93L-294.34,-128.93L-294.34,-139.86L-317.11,-139.86L-317.11,-195.87L-348.719,-195.87L-348.719,-115.05L-392.199,-115.05L-392.199,-142.81L-434.72,-142.81L-434.72,-124.24L-453.659,-124.24L-453.659,-115.05L-475.349,-115.05L-475.349,-141.2L-504.969,-141.2L-504.969,-115.05L-513.529,-115.05L-513.529,-195.87L-547.899,-195.87L-547.899,-141.011L-562.31,-141.011L-562.31,-115.05L-590.719,-115.05L-590.719,-195.87L-633.23,-195.87L-633.23,-128.93L-643.869,-128.93L-643.869,-139.86L-664.619,-139.86L-664.619,-115.05L-678.26,-115.05L-678.26,0L70.08,0L70.08,-115.05L53.78,-115.05L53.78,-136.89L31.601,-136.89L31.601,-195.87L0,-195.87Z" style="fill:rgb(186,222,227);fill-rule:nonzero;"/>
        </g>
        <g transform="matrix(1,0,0,1,434.972,6.8353)">
            <path d="M0,34.881L91.364,34.881C91.364,34.881 77.413,14.951 61.594,28.383C61.594,28.383 54.611,0 25.371,28.759C25.371,28.759 14.18,14.848 0,34.881" style="fill:white;fill-rule:nonzero;"/>
        </g>
        <g transform="matrix(1,0,0,1,197.073,15.8695)">
            <path d="M0,22.465L58.843,22.465C58.843,22.465 49.858,9.629 39.67,18.28C39.67,18.28 35.172,0 16.34,18.522C16.34,18.522 9.132,9.563 0,22.465" style="fill:white;fill-rule:nonzero;"/>
        </g>
        <g transform="matrix(1,0,0,1,329.92,186.88)">
            <path d="M0,13.165C4.075,15.803 6.781,21.044 5.286,25.625L-98.592,25.625C-98.208,21.148 -94.318,17.574 -90.031,16.237C-85.739,14.9 -81.113,15.365 -76.672,16.038C-80.643,14.104 -84.198,11.322 -87.031,7.929C-88.242,6.483 -89.349,4.866 -89.697,3.014C-90.049,1.161 -89.479,-0.971 -87.917,-2.019C-86.042,-3.275 -83.534,-2.643 -81.411,-1.893C-74.49,0.561 -67.871,3.854 -61.74,7.893C-61.085,2.688 -59.287,-2.367 -56.518,-6.822C-55.524,-8.417 -54.372,-9.966 -52.8,-10.996C-51.228,-12.026 -49.163,-12.46 -47.441,-11.71C-44.871,-10.594 -43.963,-7.441 -43.633,-4.662C-43.131,-0.46 -43.235,3.809 -43.945,7.978C-40.453,3.741 -35.908,0.375 -30.83,-1.721C-29.036,-2.462 -27.098,-3.059 -25.173,-2.796C-23.244,-2.539 -21.351,-1.224 -20.954,0.678C-20.601,2.363 -21.451,4.048 -22.386,5.494C-23.895,7.834 -25.697,9.98 -27.739,11.873C-23.357,10.825 -18.866,10.233 -14.362,10.106C-9.393,9.966 -4.174,10.468 0,13.165" style="fill:rgb(135,175,185);fill-rule:nonzero;"/>
        </g>
        <g transform="matrix(1,0,0,1,189.018,142.424)">
            <path d="M0,68.592C3.424,68.592 6.311,65.871 6.329,62.447L6.329,62.382C6.329,55.041 -0.115,48.677 -9.528,45.549C-14.918,43.757 -18.776,39.056 -19.335,33.404C-19.348,33.274 -19.361,33.144 -19.375,33.013C-21.475,13.944 -37.806,0 -56.965,0.989C-64.786,1.392 -71.943,4.298 -77.655,8.92C-85.935,15.62 -96.243,19.222 -106.895,19.196L-107.101,19.196C-139.292,19.196 -165.389,37.425 -165.389,59.912C-165.389,62.892 -164.918,65.794 -164.048,68.592L0,68.592Z" style="fill:rgb(135,175,185);fill-rule:nonzero;"/>
        </g>
        <g transform="matrix(1,0,0,1,52.396,81.3049)">
            <path d="M0,-16.28C0,-29.975 11.103,-41.078 24.798,-41.078C25.814,-41.078 26.813,-41.009 27.798,-40.891C27.798,-40.907 27.795,-40.924 27.795,-40.941C27.795,-45.646 31.61,-49.46 36.315,-49.46C38.367,-49.46 40.25,-48.734 41.72,-47.526C44.701,-53.277 50.697,-57.213 57.622,-57.213C61.787,-57.213 65.61,-55.779 68.652,-53.394C72.368,-56.628 77.219,-58.591 82.532,-58.591C93.617,-58.591 102.705,-50.063 103.607,-39.211C104.28,-39.265 104.959,-39.301 105.646,-39.301C119.534,-39.301 130.793,-28.042 130.793,-14.154C130.793,-4.832 125.717,3.299 118.183,7.641C118.522,8.897 118.72,10.212 118.72,11.575C118.72,19.878 111.99,26.609 103.687,26.609C100.388,26.609 97.347,25.533 94.868,23.732C85.889,36.07 69.231,42.311 52.521,38.193C36.807,34.32 25.391,22.356 22.242,8.387C9.747,7.107 0,-3.448 0,-16.28" style="fill:rgb(179,216,67);fill-rule:nonzero;"/>
        </g>
        <g transform="matrix(1,0,0,1,97.0996,102.489)">
            <path d="M0,-33.96C12.774,-17.425 26.976,-16.851 41.652,-22.937C69.899,-34.648 73.479,-13.543 73.479,-13.543C73.819,-12.287 74.017,-10.972 74.017,-9.608C74.017,-1.306 67.286,5.425 58.983,5.425C58.776,5.425 58.571,5.421 58.367,5.413C52.514,5.173 46.838,7.135 42.109,10.592C32.853,17.359 20.35,20.098 7.817,17.009C-3.956,14.108 -13.315,6.665 -18.594,-2.76C-21.736,-8.368 -26.616,-12.731 -32.197,-15.922C-39.668,-20.194 -44.704,-28.241 -44.704,-37.464C-41.152,-54.058 -12.774,-50.494 0,-33.96" style="fill:rgb(142,172,55);fill-rule:nonzero;"/>
        </g>
        <g transform="matrix(0,-1,-1,0,180.514,140.262)">
            <path d="M-70.892,60.543L57.315,60.543C57.678,64.053 58.707,67.508 60.543,70.892L-70.892,70.892L-70.892,60.543Z" style="fill:rgb(116,102,99);fill-rule:nonzero;"/>
        </g>
        <g transform="matrix(1,0,0,1,94.6714,114.741)">
            <path d="M0,-49.011C0.502,-44.607 1.323,-40.249 2.346,-35.953C3.379,-31.66 4.649,-27.428 6.249,-23.343C7.037,-21.297 7.935,-19.299 8.915,-17.355C9.888,-15.407 10.981,-13.529 12.195,-11.752C14.587,-8.178 17.575,-5.046 21.068,-2.861L19.181,0C15.313,-2.782 12.311,-6.444 10.023,-10.377C8.861,-12.339 7.85,-14.372 6.973,-16.45C6.089,-18.525 5.302,-20.633 4.633,-22.771C3.271,-27.041 2.268,-31.396 1.506,-35.78C0.756,-40.165 0.218,-44.582 0,-49.011" style="fill:rgb(116,102,99);fill-rule:nonzero;"/>
        </g>
        <g transform="matrix(1,0,0,1,149.52,77.8114)">
            <path d="M0,14.819C-3.306,15.667 -6.585,16.837 -9.734,18.177C-12.891,19.522 -15.932,21.101 -18.797,22.898C-21.652,24.711 -24.319,26.767 -26.643,29.096C-27.804,30.26 -28.858,31.505 -29.827,32.791C-30.779,34.091 -31.601,35.458 -32.322,36.858L-33.06,38.289L-34.82,38.257C-38.656,38.025 -42.104,36.663 -45.13,34.947C-48.17,33.218 -50.859,31.101 -53.331,28.819C-58.257,24.229 -62.368,18.992 -65.96,13.469C-69.535,7.933 -72.592,2.081 -74.962,-4.06C-76.14,-7.133 -77.144,-10.281 -77.845,-13.517C-78.535,-16.749 -78.963,-20.088 -78.638,-23.47L-76.816,-23.322C-76.968,-20.238 -76.425,-17.098 -75.62,-14.053C-74.804,-11 -73.695,-8.015 -72.418,-5.106C-69.851,0.71 -66.617,6.24 -62.925,11.4C-59.223,16.546 -55.034,21.361 -50.288,25.374C-47.914,27.368 -45.388,29.151 -42.732,30.494C-40.087,31.841 -37.284,32.719 -34.628,32.741L-37.125,34.14C-36.088,32.532 -34.946,31.013 -33.691,29.615C-32.42,28.234 -31.077,26.943 -29.651,25.772C-26.799,23.431 -23.697,21.511 -20.489,19.894C-17.271,18.295 -13.953,16.975 -10.571,15.915C-7.182,14.856 -3.771,14.005 -0.248,13.465L0,14.819Z" style="fill:rgb(116,102,99);fill-rule:nonzero;"/>
        </g>
        <g transform="matrix(1,0,0,1,124.481,115.702)">
            <path d="M0,-12.147C0,-22.366 -8.284,-30.65 -18.503,-30.65C-19.261,-30.65 -20.007,-30.599 -20.741,-30.51C-20.741,-30.522 -20.739,-30.535 -20.739,-30.547C-20.739,-34.058 -23.585,-36.904 -27.097,-36.904C-28.627,-36.904 -30.032,-36.362 -31.129,-35.46C-33.354,-39.752 -37.827,-42.689 -42.994,-42.689C-46.102,-42.689 -48.955,-41.619 -51.225,-39.839C-53.997,-42.252 -57.617,-43.717 -61.581,-43.717C-69.852,-43.717 -76.632,-37.354 -77.306,-29.257C-77.808,-29.297 -78.314,-29.323 -78.828,-29.323C-89.19,-29.323 -97.59,-20.923 -97.59,-10.561C-97.59,-3.605 -93.803,2.461 -88.181,5.702C-88.435,6.639 -88.583,7.62 -88.583,8.637C-88.583,14.832 -83.561,19.854 -77.365,19.854C-74.904,19.854 -72.635,19.052 -70.785,17.707C-64.085,26.914 -51.656,31.57 -39.188,28.498C-27.463,25.608 -18.945,16.681 -16.595,6.258C-7.273,5.303 0,-2.572 0,-12.147" style="fill:rgb(170,200,90);fill-rule:nonzero;"/>
        </g>
        <g transform="matrix(1,0,0,1,91.126,131.506)">
            <path d="M0,-25.337C-9.531,-13 -20.127,-12.572 -31.079,-17.112C-52.155,-25.851 -54.826,-10.103 -54.826,-10.103C-55.08,-9.166 -55.227,-8.185 -55.227,-7.168C-55.227,-0.973 -50.205,4.049 -44.01,4.049C-43.856,4.049 -43.702,4.046 -43.55,4.04C-39.183,3.862 -34.948,5.325 -31.419,7.905C-24.513,12.955 -15.184,14.997 -5.833,12.693C2.952,10.528 9.935,4.975 13.874,-2.057C16.218,-6.242 19.86,-9.498 24.023,-11.879C29.598,-15.066 33.355,-21.07 33.355,-27.952C30.706,-40.334 9.532,-37.674 0,-25.337" style="fill:rgb(142,172,55);fill-rule:nonzero;"/>
        </g>
        <g transform="matrix(1,0,0,1,110.688,211.155)">
            <path d="M0,-115.571L-1.359,-115.461C-0.837,-104.842 -12.091,-85.21 -23.73,-77.147C-24.584,-76.555 -25.638,-77.539 -25.118,-78.439C-20.378,-86.645 -18.181,-98.299 -17.75,-107.074C-18.751,-98.295 -27.387,-76.291 -28.905,-79.352L-28.905,-96.635C-31.431,-95.266 -34.008,-94.498 -36.627,-94.227L-36.627,-82.742C-36.897,-78.219 -52.372,-87.075 -58.49,-88.013L-58.675,-87.002C-52.903,-85.522 -46.462,-82.321 -41.431,-78.106C-38.402,-75.569 -36.627,-71.841 -36.627,-67.889L-36.627,0L-28.905,0L-28.905,-60.256C-28.905,-64.968 -26.608,-69.358 -22.793,-72.125C-10.304,-81.182 1.135,-103.792 0,-115.571" style="fill:rgb(138,106,96);fill-rule:nonzero;"/>
        </g>
        <g transform="matrix(1,0,0,1,693.099,147.679)">
            <path d="M0,67.228C3.98,65.596 6.62,62.764 6.62,59.538C6.62,54.539 1.166,51.488 -4.686,50.639C-7.845,50.181 -10.564,48.262 -12.016,45.419C-13.867,41.794 -17.189,38.83 -21.349,37.063C-26.229,34.99 -30.061,30.937 -31.609,25.865C-36.183,10.892 -50.103,0 -66.572,0C-81.633,0 -94.563,9.106 -100.165,22.113C-102.508,27.553 -107.217,31.729 -112.966,33.155C-121.887,35.368 -128.831,42.969 -129.951,52.335C-130.359,55.744 -132.548,58.618 -135.651,60.087C-138.978,61.662 -141.171,64.267 -141.246,67.228L0,67.228Z" style="fill:rgb(135,175,185);fill-rule:nonzero;"/>
        </g>
        <g transform="matrix(1,0,0,1,661.297,73.5085)">
            <path d="M0,-7.967C0.531,-9.621 0.821,-11.384 0.821,-13.215C0.821,-22.135 -5.985,-29.463 -14.687,-30.295C-16.574,-41.473 -26.295,-49.99 -38.011,-49.99C-42.724,-49.99 -47.111,-48.606 -50.8,-46.231C-52.388,-49.718 -55.895,-52.148 -59.977,-52.148C-62.608,-52.148 -64.996,-51.132 -66.793,-49.481C-69.82,-51.177 -73.309,-52.148 -77.025,-52.148C-88.61,-52.148 -98.001,-42.757 -98.001,-31.172C-98.001,-28.563 -97.521,-26.068 -96.651,-23.764C-97.099,-23.793 -97.548,-23.812 -98.001,-23.812C-109.678,-23.812 -119.144,-14.346 -119.144,-2.669C-119.144,9.008 -109.678,18.474 -98.001,18.474C-97.964,18.474 -97.927,18.471 -97.889,18.471C-97.962,19.223 -98.001,19.985 -98.001,20.757C-98.001,33.694 -87.514,44.181 -74.576,44.181C-64.46,44.181 -55.843,37.769 -52.564,28.788C-48.339,33.945 -41.921,37.237 -34.733,37.237C-25.259,37.237 -17.124,31.517 -13.583,23.344C-11.964,23.851 -10.24,24.125 -8.454,24.125C1.023,24.125 8.706,16.442 8.706,6.964C8.706,0.562 5.197,-5.018 0,-7.967" style="fill:rgb(170,200,90);fill-rule:nonzero;"/>
        </g>
        <g transform="matrix(1,0,0,1,625.807,101.911)">
            <path d="M0,-15.194C-27.365,-8.985 -33.421,-22.311 -53.398,-27.831C-64.769,-30.973 -72.434,-23.036 -76.93,-15.614C-75.589,-14.362 -74.095,-13.29 -72.481,-12.425C-67.107,-9.544 -63.125,-4.723 -60.886,0.948C-57.467,9.605 -49.021,15.779 -39.086,15.779C-33.679,15.779 -28.7,13.948 -24.736,10.871C-19.57,6.861 -12.658,5.642 -6.446,7.686C-4.18,8.431 -1.759,8.835 0.757,8.835C7.281,8.835 13.171,6.122 17.362,1.764C20.584,-1.587 24.826,-3.79 29.429,-4.443C35.166,-5.256 40.319,-8.954 42.775,-14.597C31.604,-16.327 28.126,-21.575 0,-15.194" style="fill:rgb(142,172,55);fill-rule:nonzero;"/>
        </g>
        <g transform="matrix(1,0,0,1,601.24,175.739)">
            <path d="M0,-59.921L0,39.996L10.691,39.996L11.951,-19.966C12.198,-29.931 14.344,-39.758 18.272,-48.921L36.431,-91.269C35.072,-91.074 33.635,-90.842 32.104,-90.566C32.104,-90.566 10.211,-45.54 10.211,-60.789L10.211,-87.439C6.377,-87.555 3.054,-88.177 0,-89.116L0,-79.249C0,-77.867 -1.418,-76.94 -2.685,-77.49C-10.023,-80.68 -16.371,-89.69 -19.832,-98.367C-21.021,-98.904 -22.248,-99.425 -23.536,-99.917C-21.091,-93.277 -16.643,-82.839 -6.347,-73.992C-2.264,-70.484 0,-65.304 0,-59.921" style="fill:rgb(116,102,99);fill-rule:nonzero;"/>
        </g>
        <g transform="matrix(1,0,0,1,718,117.054)">
            <path d="M0,-1.641C1.271,-3.758 1.975,-6.082 1.975,-8.523C1.975,-18.337 -9.387,-26.292 -23.402,-26.292C-28.885,-26.292 -33.956,-25.071 -38.105,-23.002C-40.96,-33.844 -51.999,-41.928 -65.192,-41.928C-80.553,-41.928 -93.005,-30.975 -93.005,-17.464C-93.005,-14.157 -92.254,-11.004 -90.901,-8.127C-97.803,-5.384 -102.608,0.721 -102.608,7.818C-102.608,17.478 -93.71,25.309 -82.733,25.309C-79.17,25.309 -75.828,24.48 -72.937,23.034C-69.174,33.009 -57.453,40.287 -43.568,40.287C-29.976,40.287 -18.458,33.312 -14.449,23.66C-11.524,24.995 -8.07,25.77 -4.366,25.77C6.147,25.77 14.671,19.55 14.671,11.879C14.671,5.304 8.408,-0.2 0,-1.641" style="fill:rgb(179,216,67);fill-rule:nonzero;"/>
        </g>
        <g transform="matrix(1,0,0,1,689.928,142.657)">
            <path d="M0,-11.623C-18.768,-7.676 -23.46,-9.774 -51.27,-21.366C-63.124,-26.307 -70.138,-24.376 -74.286,-20.536C-74.447,-19.639 -74.536,-18.722 -74.536,-17.785C-74.536,-7.688 -65.23,-0.487 -55.039,-0.285C-49.146,-0.168 -43.394,1.834 -39.13,5.903C-33.512,11.266 -25.013,14.684 -15.496,14.684C-6.576,14.684 1.45,11.68 7.048,6.887C11.792,2.824 17.691,0.251 23.937,0.18C32.874,0.077 41.188,-4.687 42.553,-11.774C35.122,-19.514 16.052,-14.998 0,-11.623" style="fill:rgb(142,172,55);fill-rule:nonzero;"/>
        </g>
        <g transform="matrix(1,0,0,1,699.299,210.535)">
            <path d="M0,-81.456C-3.826,-76.528 -21.676,-53.194 -21.744,-66.554L-21.744,-77.716C-24.818,-77.586 -27.68,-77.792 -30.717,-78.37L-30.717,-65.294C-37.362,-70.118 -45.856,-78.811 -51.067,-85.272C-52.258,-85.76 -53.51,-86.277 -54.809,-86.816C-54.214,-85.755 -53.61,-84.699 -52.994,-83.649C-49.108,-77.09 -43.084,-68.259 -36.625,-62.246C-32.855,-58.738 -30.717,-53.823 -30.717,-48.674L-30.717,5.072C-28.822,5.36 -26.869,5.072 -24.867,5.072C-23.812,5.072 -22.771,5.148 -21.744,5.14L-21.744,-41.918C-21.744,-48.903 -18.729,-55.623 -13.297,-60.015C-6.318,-65.656 -0.141,-75.434 3.348,-82.1C2.233,-81.894 1.117,-81.679 0,-81.456" style="fill:rgb(138,106,96);fill-rule:nonzero;"/>
        </g>
        <g transform="matrix(1,0,0,1,480.502,172.305)">
            <path d="M0,38.73L-2.47,38.49L-0.235,39.959C-0.284,40.216 -0.366,40.478 -0.48,40.746L-51.967,40.746C-53.206,38.621 -54.185,36.272 -54.73,33.759C-55.533,30.061 -55.861,26.499 -55.769,23.353L-51.076,21.692L-55.561,20.496C-54.954,15.606 -53.168,12.182 -50.453,11.591C-48.749,11.22 -46.902,12.023 -45.133,13.716L-46.531,15.071L-44.68,14.17C-43.461,15.448 -42.275,17.136 -41.205,19.147C-41.014,15.771 -40.533,12.613 -39.817,9.816L-36.354,9.439L-39.512,8.696C-37.644,2.234 -34.497,-2.016 -30.924,-2.016C-29.018,-2.016 -27.237,-0.814 -25.707,1.289L-28.849,2.72L-24.779,2.72C-23.697,4.599 -22.774,6.959 -22.069,9.663L-27.494,12.406L-21.452,12.406C-21.136,14.061 -20.895,15.82 -20.742,17.649C-19.458,16.033 -18.137,14.727 -16.836,13.793L-14.82,15.071L-15.984,13.236C-14.279,12.225 -12.646,11.892 -11.237,12.417C-8.942,13.269 -7.675,16.208 -7.468,20.261L-10.865,20.998L-7.446,21.971C-7.489,24.429 -7.883,27.204 -8.626,30.126C-6.758,27.717 -4.726,26.439 -2.917,26.843C-1.295,27.204 -0.623,29.493 -0.065,32.317L-2.47,33.054L0.055,33.054C0.312,34.841 0.224,36.769 0,38.73" style="fill:rgb(135,175,185);fill-rule:nonzero;"/>
        </g>
        <g transform="matrix(1,0,0,1,449.201,212.559)">
            <path d="M0,-22.391L1.639,0.492L0.611,0.492L-1.022,-22.315C-1.044,-22.599 -0.831,-22.845 -0.547,-22.867C-0.263,-22.883 -0.022,-22.67 0,-22.391" style="fill:rgb(41,127,99);fill-rule:nonzero;"/>
        </g>
        <g transform="matrix(1,0,0,1,460.694,212.329)">
            <path d="M0,-8.991L-2.928,0.721L-3.999,0.721L-0.983,-9.286C-0.901,-9.559 -0.612,-9.712 -0.345,-9.63C-0.071,-9.548 0.082,-9.259 0,-8.991" style="fill:rgb(41,127,99);fill-rule:nonzero;"/>
        </g>
        <g transform="matrix(1,0,0,1,445.705,200.34)">
            <path d="M0,12.711L-1.345,12.711L-11.335,0.906C-11.521,0.688 -11.494,0.365 -11.275,0.185C-11.063,0 -10.74,0.027 -10.555,0.245L0,12.711Z" style="fill:rgb(41,127,99);fill-rule:nonzero;"/>
        </g>
        <g transform="matrix(1,0,0,1,469.959,212.002)">
            <path d="M0,0.934L-0.24,1.049L-2.601,1.049L-0.448,0.011C-0.191,-0.115 0.114,-0.005 0.24,0.251C0.36,0.502 0.257,0.809 0,0.934" style="fill:rgb(41,127,99);fill-rule:nonzero;"/>
        </g>
        <g transform="matrix(-1,0,0,1.59262,750,41.1305)">
            <rect x="0" y="107.099" width="750" height="181.202" style="fill:rgb(170,200,90);"/>
        </g>
        <g transform="matrix(-1,0,0,1,750,-26.639)">
            <rect x="0.826" y="238.628" width="748.348" height="49.383" style="fill:rgb(237,219,196);"/>
        </g>
        <g transform="matrix(-1,0,0,1,750.037,393.109)">
            <rect x="0" y="97.794" width="750" height="9.1" style="fill:rgb(142,172,55);"/>
        </g>
        <g transform="matrix(1,0,0,1,311.17,327.099)">
            <path d="M0,70.9L-4.52,70.46L-0.43,73.15C-0.52,73.62 -0.67,74.1 -0.88,74.59L-95.13,74.59C-97.4,70.7 -99.19,66.4 -100.19,61.8C-101.66,55.03 -102.26,48.51 -102.09,42.75L-93.5,39.71L-101.71,37.52C-100.6,28.57 -97.33,22.3 -92.36,21.22C-89.24,20.54 -85.86,22.01 -82.62,25.11L-85.18,27.59L-81.79,25.94C-79.56,28.28 -77.39,31.37 -75.43,35.05C-75.08,28.87 -74.2,23.09 -72.89,17.97L-66.55,17.28L-72.33,15.92C-68.91,4.09 -63.15,-3.69 -56.61,-3.69C-53.12,-3.69 -49.86,-1.49 -47.06,2.36L-52.81,4.98L-45.36,4.98C-43.38,8.42 -41.69,12.74 -40.4,17.69L-50.33,22.71L-39.27,22.71C-38.69,25.74 -38.25,28.96 -37.97,32.31C-35.62,29.35 -33.2,26.96 -30.82,25.25L-27.13,27.59L-29.26,24.23C-26.14,22.379 -23.15,21.77 -20.57,22.73C-16.37,24.29 -14.05,29.67 -13.67,37.09L-19.89,38.44L-13.63,40.22C-13.71,44.72 -14.43,49.8 -15.79,55.15C-12.37,50.74 -8.65,48.4 -5.34,49.14C-2.37,49.8 -1.14,53.99 -0.12,59.16L-4.52,60.51L0.1,60.51C0.57,63.78 0.41,67.31 0,70.9" style="fill:rgb(110,170,80);fill-rule:nonzero;"/>
        </g>
        <g transform="matrix(1,0,0,1,253.871,400.791)">
            <path d="M0,-40.992L3,0.899L1.12,0.899L-1.87,-40.851C-1.91,-41.372 -1.52,-41.822 -1,-41.862C-0.48,-41.891 -0.04,-41.502 0,-40.992" style="fill:rgb(41,127,99);fill-rule:nonzero;"/>
        </g>
        <g transform="matrix(1,0,0,1,274.91,400.369)">
            <path d="M0,-16.46L-5.36,1.32L-7.32,1.32L-1.8,-17C-1.65,-17.5 -1.12,-17.78 -0.63,-17.63C-0.13,-17.481 0.15,-16.95 0,-16.46" style="fill:rgb(41,127,99);fill-rule:nonzero;"/>
        </g>
        <g transform="matrix(1,0,0,1,247.47,378.418)">
            <path d="M0,23.271L-2.46,23.271L-20.75,1.661C-21.09,1.26 -21.04,0.67 -20.64,0.34C-20.25,0 -19.66,0.05 -19.32,0.451L0,23.271Z" style="fill:rgb(41,127,99);fill-rule:nonzero;"/>
        </g>
        <g transform="matrix(1,0,0,1,291.871,399.769)">
            <path d="M0,1.709L-0.44,1.92L-4.76,1.92L-0.82,0.02C-0.35,-0.211 0.21,-0.011 0.44,0.459C0.66,0.92 0.47,1.48 0,1.709" style="fill:rgb(41,127,99);fill-rule:nonzero;"/>
        </g>
        <g transform="matrix(1,0,0,1,86.0029,236.808)">
            <path d="M0,43.601L-3.723,43.234L-0.292,45.495C-0.507,46.613 -0.795,47.707 -1.17,48.738L-62.423,48.738C-63.945,45.506 -65.235,41.716 -66.134,37.586C-67.096,33.168 -67.488,28.918 -67.376,25.16L-61.776,23.178L-67.128,21.748C-66.405,15.909 -64.268,11.819 -61.029,11.112C-58.992,10.668 -56.791,11.627 -54.67,13.648L-56.348,15.27L-54.135,14.191C-52.677,15.717 -51.267,17.735 -49.985,20.139C-49.757,16.105 -49.182,12.334 -48.327,8.995L-44.193,8.543L-47.959,7.657C-45.735,-0.06 -41.972,-5.137 -37.702,-5.137C-35.434,-5.137 -33.305,-3.699 -31.471,-1.191L-35.226,0.523L-30.369,0.523C-29.075,2.76 -27.972,5.58 -27.129,8.811L-33.608,12.086L-26.395,12.086C-26.019,14.063 -25.728,16.161 -25.547,18.345C-24.014,16.416 -22.432,14.859 -20.882,13.744L-18.47,15.27L-19.86,13.077C-17.831,11.867 -15.877,11.476 -14.192,12.102C-11.456,13.121 -9.938,16.624 -9.694,21.469L-13.752,22.352L-9.662,23.506C-9.722,26.442 -10.186,29.761 -11.072,33.252C-8.843,30.372 -6.419,28.846 -4.254,29.33C-2.321,29.757 -0.931,32.314 -0.264,35.681L-3.723,36.747L-0.084,36.747C0.231,38.876 0.271,41.257 0,43.601" style="fill:rgb(110,170,80);fill-rule:nonzero;"/>
        </g>
        <g transform="matrix(1,0,0,1,45.8604,284.959)">
            <path d="M0,-35.425L0.922,0.587L-0.276,0.587L-0.348,-2.157C-4.298,-4.242 -7.222,-7.728 -8.584,-11.986L-11.56,-21.277C-11.66,-21.592 -11.488,-21.928 -11.172,-22.028C-10.861,-22.128 -10.525,-21.956 -10.425,-21.64L-7.449,-12.35C-6.251,-8.603 -3.755,-5.504 -0.384,-3.535L-1.194,-35.397C-1.207,-35.729 -0.943,-36 -0.611,-36.012L-0.595,-36.012C-0.272,-36.012 -0.008,-35.753 0,-35.425" style="fill:rgb(41,127,99);fill-rule:nonzero;"/>
        </g>
        <g transform="matrix(1,0,0,1,71.9629,270.94)">
            <path d="M0,0.961L-6.966,7.88C-10.074,10.967 -14.167,12.713 -18.534,12.828L-19.013,14.606L-20.251,14.606L-12.782,-13.139C-12.698,-13.458 -12.366,-13.645 -12.051,-13.561C-11.731,-13.474 -11.54,-13.146 -11.627,-12.827L-18.21,11.622C-14.284,11.431 -10.617,9.816 -7.809,7.028L-0.847,0.11C-0.611,-0.125 -0.231,-0.121 0,0.11C0.236,0.347 0.232,0.726 0,0.961" style="fill:rgb(41,127,99);fill-rule:nonzero;"/>
        </g>
        <g transform="matrix(1,0,0,1,600.973,296.149)">
            <path d="M0,20.957L-5.71,20.845L-0.722,24.406C-1.63,27.95 -3.106,31.8 -5.121,35.671L-69.477,35.671L-65.798,32.324L-72.594,31.912C-73.102,29.929 -73.203,27.705 -73,25.459L-68.958,24.203L-72.748,23.502C-72.348,21.102 -71.631,18.76 -70.717,16.733L-67.108,17.77L-70.235,15.728C-68.615,12.579 -66.509,10.446 -64.467,10.569C-62.189,10.708 -60.222,12.911 -58.826,16.396C-58.714,12.686 -58.232,9.265 -57.452,6.34L-53.073,6.356L-56.843,4.33C-55.218,-0.401 -52.721,-3.443 -49.716,-3.674C-47.866,-3.818 -46.049,-2.872 -44.375,-1.097L-46.38,0.684L-43.557,-0.145C-42.333,1.405 -41.21,3.399 -40.242,5.747C-39.44,3.635 -38.558,1.636 -37.617,-0.22L-30.469,1.833L-35.954,-3.251C-34.201,-6.213 -32.308,-8.699 -30.389,-10.549L-25.571,-9.164L-28.807,-11.929C-26.277,-13.896 -23.759,-14.714 -21.508,-14.067C-17.279,-12.854 -14.996,-6.753 -14.985,1.528L-18.969,1.342L-15.002,2.961C-15.108,6.517 -15.605,10.42 -16.531,14.478C-14.579,12.457 -12.606,10.863 -10.725,9.768L-8.837,11.468L-10.04,9.383C-7.361,7.981 -4.907,7.655 -3.015,8.677C-0.005,10.297 0.946,14.964 0,20.957" style="fill:rgb(142,172,55);fill-rule:nonzero;"/>
        </g>
        <g transform="matrix(1,0,0,1,541.762,331.493)">
            <path d="M0,-9.635L9.714,0.326L7.474,0.326L-1.149,-8.517C-1.46,-8.832 -1.455,-9.34 -1.134,-9.651C-0.818,-9.961 -0.311,-9.955 0,-9.635" style="fill:rgb(31,102,77);fill-rule:nonzero;"/>
        </g>
        <g transform="matrix(1,0,0,1,554.604,331.092)">
            <path d="M0,-17.247L3.271,0.728L1.642,0.728L-1.577,-16.959C-1.657,-17.397 -1.369,-17.814 -0.931,-17.894C-0.492,-17.975 -0.08,-17.685 0,-17.247" style="fill:rgb(31,102,77);fill-rule:nonzero;"/>
        </g>
        <g transform="matrix(1,0,0,1,570.787,330.841)">
            <path d="M0,-20.161L-3.053,0.979L-4.678,0.979L-1.588,-20.391C-1.523,-20.83 -1.117,-21.14 -0.679,-21.07C-0.24,-21.012 0.064,-20.599 0,-20.161" style="fill:rgb(31,102,77);fill-rule:nonzero;"/>
        </g>
        <g transform="matrix(1,0,0,1,587.912,330.247)">
            <path d="M0,-9.265L-15.692,1.572L-18.515,1.572L-0.915,-10.586C-0.551,-10.837 -0.049,-10.746 0.203,-10.377C0.454,-10.014 0.363,-9.517 0,-9.265" style="fill:rgb(31,102,77);fill-rule:nonzero;"/>
        </g>
        <g transform="matrix(1,0,0,1,203.969,280.089)">
            <path d="M0,24.32C-0.069,24.308 -0.122,24.284 -0.166,24.256C-15.041,24.664 -29.923,24.967 -44.805,25.166C-44.914,25.259 -45.068,25.288 -45.226,25.174C-45.23,25.17 -45.23,25.17 -45.234,25.166C-45.424,25.158 -45.542,25.037 -45.578,24.886C-48.322,22.588 -48.63,18.305 -47.221,15.14C-44.943,10.029 -40.102,13.218 -36.395,14.61C-37.54,11.72 -38.086,8.653 -37.815,5.532C-37.661,3.739 -37.143,1.229 -35.168,0.574C-33.039,-0.134 -30.89,1.95 -29.68,3.443C-27.936,5.589 -26.827,8.151 -25.163,10.352C-24.447,5.471 -20.764,-0.968 -15.174,-0.243C-8.747,0.587 -11.272,9.495 -12.406,14.089C-9.224,11.907 -4.784,8.632 -1.024,10.697C0.473,11.518 1.077,13.117 0.837,14.768C0.591,16.48 -0.506,17.788 -1.753,18.913C1.182,18.164 5.589,17.395 6.431,20.451C7.37,23.863 2.246,24.692 0,24.32" style="fill:rgb(142,172,55);fill-rule:nonzero;"/>
        </g>
        <g transform="matrix(1,0,0,1,714.981,267.803)">
            <path d="M0,24.32C-0.068,24.308 -0.121,24.284 -0.166,24.256C-15.04,24.664 -29.923,24.967 -44.805,25.166C-44.914,25.259 -45.067,25.288 -45.226,25.174C-45.229,25.17 -45.229,25.17 -45.233,25.166C-45.424,25.158 -45.541,25.037 -45.578,24.886C-48.322,22.588 -48.63,18.305 -47.221,15.14C-44.942,10.029 -40.102,13.218 -36.395,14.61C-37.54,11.72 -38.086,8.653 -37.814,5.532C-37.661,3.739 -37.143,1.229 -35.168,0.574C-33.039,-0.134 -30.89,1.95 -29.68,3.444C-27.936,5.589 -26.826,8.151 -25.162,10.352C-24.446,5.471 -20.763,-0.968 -15.174,-0.243C-8.746,0.587 -11.271,9.495 -12.405,14.089C-9.224,11.907 -4.784,8.632 -1.023,10.697C0.474,11.518 1.077,13.117 0.838,14.768C0.591,16.48 -0.506,17.788 -1.752,18.913C1.182,18.164 5.59,17.395 6.432,20.451C7.37,23.863 2.246,24.692 0,24.32" style="fill:rgb(142,172,55);fill-rule:nonzero;"/>
        </g>
        <g transform="matrix(-1,0,0,1,869.942,221.37)">
            <rect x="432.32" y="95.054" width="5.302" height="88.522" style="fill:rgb(71,40,79);"/>
        </g>
        <g transform="matrix(-1,0,0,1,869.943,245.162)">
            <rect x="427.404" y="125.407" width="15.135" height="4.024" style="fill:rgb(71,40,79);"/>
        </g>
        <g transform="matrix(-1,0,0,1,620.484,221.37)">
            <rect x="307.591" y="95.054" width="5.302" height="88.522" style="fill:rgb(71,40,79);"/>
        </g>
        <g transform="matrix(-1,0,0,1,620.485,245.162)">
            <rect x="302.675" y="125.407" width="15.135" height="4.024" style="fill:rgb(71,40,79);"/>
        </g>
        <g transform="matrix(1,0,0,1,450.655,362.434)">
            <path d="M0,8.134L-156.533,8.134C-157.313,8.134 -157.946,7.501 -157.946,6.72L-157.946,1.414C-157.946,0.633 -157.313,0 -156.533,0L0,0C0.78,0 1.413,0.633 1.413,1.414L1.413,6.72C1.413,7.501 0.78,8.134 0,8.134" style="fill:rgb(207,118,48);fill-rule:nonzero;"/>
        </g>
        <g transform="matrix(1,0,0,1,450.655,322.435)">
            <path d="M0,12.537L-156.533,12.537C-157.313,12.537 -157.946,11.904 -157.946,11.123L-157.946,1.413C-157.946,0.633 -157.313,0 -156.533,0L0,0C0.78,0 1.413,0.633 1.413,1.413L1.413,11.123C1.413,11.904 0.78,12.537 0,12.537" style="fill:rgb(224,144,72);fill-rule:nonzero;"/>
        </g>
        <g transform="matrix(1,0,0,1,450.655,337.732)">
            <path d="M0,12.537L-156.533,12.537C-157.313,12.537 -157.946,11.904 -157.946,11.123L-157.946,1.413C-157.946,0.633 -157.313,0 -156.533,0L0,0C0.78,0 1.413,0.633 1.413,1.413L1.413,11.123C1.413,11.904 0.78,12.537 0,12.537" style="fill:rgb(224,144,72);fill-rule:nonzero;"/>
        </g>
        <g transform="matrix(0.339302,0,0,0.372452,317.466,397.993)">
            <path d="M0,24.32C-0.069,24.308 -0.122,24.284 -0.166,24.256C-15.041,24.664 -29.923,24.967 -44.805,25.166C-44.914,25.259 -45.068,25.288 -45.226,25.174C-45.23,25.17 -45.23,25.17 -45.234,25.166C-45.424,25.158 -45.542,25.037 -45.578,24.886C-48.322,22.588 -48.63,18.305 -47.221,15.14C-44.943,10.029 -40.102,13.218 -36.395,14.61C-37.54,11.72 -38.086,8.653 -37.815,5.532C-37.661,3.739 -37.143,1.229 -35.168,0.574C-33.039,-0.134 -30.89,1.95 -29.68,3.443C-27.936,5.589 -26.827,8.151 -25.163,10.352C-24.447,5.471 -20.764,-0.968 -15.174,-0.243C-8.747,0.587 -11.272,9.495 -12.406,14.089C-9.224,11.907 -4.784,8.632 -1.024,10.697C0.473,11.518 1.077,13.117 0.837,14.768C0.591,16.48 -0.506,17.788 -1.753,18.913C1.182,18.164 5.589,17.395 6.431,20.451C7.37,23.863 2.246,24.692 0,24.32" style="fill:rgb(142,172,55);fill-rule:nonzero;"/>
        </g>
        <g transform="matrix(0.270747,0,0,0.309821,440.68,399.357)">
            <path d="M0,24.32C-0.069,24.308 -0.122,24.284 -0.166,24.256C-15.041,24.664 -29.923,24.967 -44.805,25.166C-44.914,25.259 -45.068,25.288 -45.226,25.174C-45.23,25.17 -45.23,25.17 -45.234,25.166C-45.424,25.158 -45.542,25.037 -45.578,24.886C-48.322,22.588 -48.63,18.305 -47.221,15.14C-44.943,10.029 -40.102,13.218 -36.395,14.61C-37.54,11.72 -38.086,8.653 -37.815,5.532C-37.661,3.739 -37.143,1.229 -35.168,0.574C-33.039,-0.134 -30.89,1.95 -29.68,3.443C-27.936,5.589 -26.827,8.151 -25.163,10.352C-24.447,5.471 -20.764,-0.968 -15.174,-0.243C-8.747,0.587 -11.272,9.495 -12.406,14.089C-9.224,11.907 -4.784,8.632 -1.024,10.697C0.473,11.518 1.077,13.117 0.837,14.768C0.591,16.48 -0.506,17.788 -1.753,18.913C1.182,18.164 5.589,17.395 6.431,20.451C7.37,23.863 2.246,24.692 0,24.32" style="fill:rgb(142,172,55);fill-rule:nonzero;"/>
        </g>
    </g>
</svg>
