<?xml version="1.0" encoding="UTF-8" standalone="no"?>
<!DOCTYPE svg PUBLIC "-//W3C//DTD SVG 1.1//EN" "http://www.w3.org/Graphics/SVG/1.1/DTD/svg11.dtd">
<svg width="100%" height="100%" viewBox="0 0 139 86" version="1.1" xmlns="http://www.w3.org/2000/svg" xmlns:xlink="http://www.w3.org/1999/xlink" xml:space="preserve" xmlns:serif="http://www.serif.com/" style="fill-rule:evenodd;clip-rule:evenodd;stroke-linejoin:round;stroke-miterlimit:2;">
    <g transform="matrix(1,0,0,1,-379.833,-493.77)">
        <g transform="matrix(0.656158,0,0,0.656158,327.023,130.031)">
            <g transform="matrix(1,0,0,1,237.686,630.852)">
                <path d="M0,-46.455C7.349,-44.295 14.686,-42.1 21.433,-38.355C25.148,-36.293 28.698,-33.994 31.265,-30.498C35.355,-24.924 35.004,-19.582 30.225,-14.531C26.071,-10.142 20.861,-7.402 15.375,-5.105C5.709,-0.992 -4.439,1.352 -14.767,2.969C-23.731,4.373 -32.762,5.002 -41.826,5.557C-50.072,6.061 -58.27,5.797 -66.435,5.268C-82.015,4.258 -97.462,2.104 -112.274,-3.201C-119.517,-5.795 -126.526,-8.861 -132.02,-14.543C-137.119,-19.816 -137.085,-26.512 -132.007,-31.828C-126.648,-37.437 -119.765,-40.439 -112.701,-43C-102.111,-46.84 -91.107,-48.969 -79.933,-50.318C-68.524,-51.695 -57.075,-52.516 -45.599,-52.113C-35.675,-51.766 -25.756,-51.135 -15.916,-49.5C-10.58,-48.615 -5.316,-47.41 0,-46.455" style="fill:rgb(121,227,238);"/>
            </g>
            <g transform="matrix(1,0,0,1,85.4644,641.715)">
                <path d="M0,-13.385C0.08,-14.41 0.228,-15.436 0.229,-16.461C0.248,-26.088 0.231,-35.713 0.251,-45.34C0.254,-46.688 0.399,-48.035 0.479,-49.381C1.7,-49.139 1.468,-48.065 1.59,-47.281C2.243,-43.096 4.238,-39.68 7.144,-36.637C13.807,-29.655 22.309,-25.842 31.105,-22.565C43.907,-17.793 57.229,-15.231 70.752,-13.637C78.124,-12.77 85.523,-12.356 92.949,-12.076C98.941,-11.854 104.905,-12.047 110.872,-12.219C125.437,-12.641 139.834,-14.479 154.011,-17.91C156.807,-18.588 159.58,-19.346 162.342,-20.149C163.326,-20.436 164.331,-20.819 165.382,-20.381C166.258,-19.67 166.149,-18.68 166.068,-17.739C164.895,-4.153 161.263,8.726 154.859,20.787C153.179,23.951 151.202,26.949 149.396,30.047C149.182,30.416 148.851,30.629 148.46,30.767C137.365,33.293 126.118,34.582 114.771,35.369C107.092,35.902 99.412,35.996 91.767,35.672C69.047,34.705 46.713,31.564 25.674,22.207C19.205,19.33 13.059,15.888 7.913,10.984C2.773,6.086 -0.77,0.338 -0.315,-7.18C-0.19,-9.246 -0.403,-11.33 0,-13.385" style="fill:rgb(92,123,146);"/>
            </g>
            <g transform="matrix(1,0,0,1,250.975,563.202)">
                <path d="M0,58.38C-5.316,59.692 -10.619,61.069 -15.954,62.304C-22.76,63.878 -29.666,64.825 -36.607,65.624C-44.682,66.554 -52.77,66.823 -60.882,67.124C-69.488,67.443 -78.062,67.109 -86.593,66.437C-101.572,65.259 -116.362,62.718 -130.699,58.048C-137.984,55.675 -145.12,52.788 -151.489,48.513C-157.405,44.54 -162.849,39.937 -164.476,32.359C-164.707,31.284 -164.214,30.089 -165.032,29.132C-163.841,21.491 -159.157,16.226 -153.171,11.921C-143.52,4.98 -132.542,0.985 -121.189,-2.056C-107.782,-5.643 -94.121,-7.587 -80.257,-8.401C-68.997,-9.063 -57.757,-9.001 -46.53,-8.233C-40.109,-7.794 -33.683,-7.136 -27.35,-5.856C-25.495,-5.186 -24.134,-3.852 -22.821,-2.462C-20.535,-0.044 -17.898,2.052 -15.979,4.808C-15.563,5.405 -14.563,6.146 -15.879,6.903C-16.865,7.093 -17.781,6.745 -18.713,6.544C-30.928,3.917 -43.253,2.31 -55.76,1.853C-60.629,1.673 -65.502,1.319 -70.366,1.501C-89.34,2.204 -108.175,3.948 -126.312,10.103C-131.926,12.007 -137.35,14.347 -142.281,17.724C-144.148,19.001 -145.808,20.484 -147.301,22.155C-151.508,26.87 -151.496,32.878 -147.239,37.55C-143.103,42.089 -137.823,44.9 -132.262,47.255C-120.665,52.165 -108.437,54.55 -96.039,56.175C-85.096,57.61 -74.083,58.413 -63.054,58.118C-44.554,57.624 -26.206,55.825 -8.417,50.269C-6.431,49.648 -4.478,48.942 -2.528,48.216C-1.67,47.896 -0.794,47.282 0.192,47.913C1.277,51.083 0.474,54.359 0.732,57.575C0.681,58.017 0.6,58.435 0,58.38" style="fill:rgb(98,132,156);"/>
            </g>
            <g transform="matrix(1,0,0,1,250.975,642.742)">
                <path d="M0,-21.16C0.161,-21.318 0.322,-21.476 0.483,-21.635C1.658,-22.984 3.395,-23.226 4.929,-23.828C12.705,-26.883 20.254,-30.338 26.497,-36.064C30.308,-39.562 33.074,-43.666 33.5,-49.025C33.557,-49.738 33.296,-50.726 34.483,-50.889C34.95,-49.023 34.998,-47.127 34.995,-45.213C34.977,-34.949 34.997,-24.687 35.003,-14.424C37.073,-2.162 32.366,7.006 22.305,13.877C12.321,20.697 1.253,24.942 -10.327,28.022C-12.267,28.537 -14.174,29.729 -16.317,28.76C-16.062,26.572 -14.463,25.059 -13.421,23.307C-6.835,12.227 -2.637,0.348 -0.938,-12.426C-0.552,-15.33 0.042,-18.211 0,-21.16" style="fill:rgb(97,130,154);"/>
            </g>
            <g transform="matrix(1,0,0,1,239.914,634.918)">
                <path d="M0,43.211C-6.441,45.059 -13.039,46.15 -19.653,47.076C-32.632,48.895 -45.698,49.799 -58.797,49.432C-82.886,48.754 -106.605,45.809 -129.146,36.592C-136.861,33.438 -144.163,29.557 -150.388,23.865C-155.058,19.598 -158.436,14.633 -159.405,8.252C-159.655,2.67 -158.021,-2.283 -154.45,-6.588C-153.614,-4.264 -154.065,-1.853 -154.097,0.502C-154.199,7.928 -150.521,13.397 -145.193,17.959C-132.489,28.836 -117.022,33.404 -101.168,37.104C-91.865,39.275 -82.404,40.391 -72.937,41.289C-62.998,42.231 -52.972,42.291 -43.02,41.748C-31.145,41.1 -19.26,40.065 -7.648,37.156C-7.042,37.006 -6.376,37.088 -5.739,37.061C-3.434,38.746 -1.07,40.375 0,43.211" style="fill:rgb(82,109,135);"/>
            </g>
            <g transform="matrix(1,0,0,1,285.458,586.599)">
                <path d="M0,5.254C-0.592,7.934 -0.714,10.695 -1.975,13.252C-4.85,19.084 -9.703,22.947 -15.05,26.117C-21.004,29.647 -27.328,32.516 -34,34.508C-35.073,32.092 -34.233,29.553 -34.467,27.084C-34.549,26.225 -34.47,25.35 -34.464,24.483C-33.154,22.84 -31.11,22.418 -29.391,21.467C-25.313,19.209 -21.466,16.697 -18.658,12.859C-15.656,8.758 -15.637,4.065 -18.655,-0.008C-22.61,-5.348 -28.281,-8.26 -34.144,-10.867C-38.524,-12.816 -43.085,-14.273 -47.695,-15.578C-48.509,-15.807 -49.479,-15.851 -49.839,-16.867C-53.24,-21.576 -57.638,-25.316 -61.833,-29.254C-51.592,-27.81 -41.622,-25.273 -31.908,-21.738C-24.088,-18.894 -16.573,-15.439 -10.032,-10.176C-5.011,-6.137 -1.034,-1.391 0,5.254" style="fill:rgb(111,145,166);"/>
            </g>
            <g transform="matrix(1,0,0,1,239.914,628.318)">
                <path d="M0,49.811C-1.913,47.762 -3.826,45.711 -5.739,43.661C-5.578,43.502 -5.417,43.344 -5.257,43.184C8.694,40.188 22.02,35.584 33.734,27.219C38.75,23.637 43.038,19.25 45.031,13.127C45.456,11.823 45.62,10.518 45.648,9.147C45.71,6.096 45.282,3.02 46.064,0C49.021,3.45 50.712,7.424 51.039,11.965C51.255,21.428 45.882,27.756 38.959,33.071C28.539,41.071 16.414,45.413 3.933,48.911C2.639,49.272 1.312,49.514 0,49.811" style="fill:rgb(83,117,143);"/>
            </g>
            <g transform="matrix(1,0,0,1,209.474,635.135)">
                <path d="M0,32.086C-3.649,31.9 -6.511,30.272 -7.968,26.74C-8.524,25.391 -9.283,24.895 -10.627,24.912C-20.289,25.049 -29.946,25.287 -39.59,25.899C-40.843,25.979 -41.708,26.57 -42.49,27.666C-45.336,31.647 -50.982,32.436 -54.809,29.535C-58.78,26.522 -59.53,20.865 -56.324,16.99C-55.468,15.955 -55.215,15.19 -55.619,13.869C-56.975,9.432 -54.771,4.916 -50.604,3.231C-46.295,1.484 -41.48,3.188 -39.463,7.445C-38.743,8.965 -37.824,9.395 -36.354,9.418C-28.687,9.531 -21.025,9.541 -13.365,9.072C-12.123,8.998 -11.643,8.496 -11.192,7.365C-9.068,2.035 -3.311,-0.35 1.81,1.856C6.892,4.045 9.117,9.938 6.662,15.102C6.085,16.313 6.199,16.979 6.991,18.018C9.157,20.861 9.466,24.055 7.844,27.256C6.268,30.361 3.591,31.9 0,32.086" style="fill:rgb(254,254,254);"/>
            </g>
            <g transform="matrix(0.992975,0,0,1,235.268,616.187)">
                <path d="M-132.003,-14.525C-132.008,-14.531 -132.014,-14.537 -132.02,-14.543C-137.119,-19.816 -137.085,-26.512 -132.007,-31.828C-126.648,-37.437 -119.765,-40.439 -112.701,-43C-102.111,-46.84 -91.107,-48.969 -79.933,-50.318C-68.524,-51.695 -57.075,-52.516 -45.599,-52.113C-35.675,-51.766 -25.756,-51.135 -15.916,-49.5C-10.58,-48.615 -5.316,-47.41 0,-46.455C7.349,-44.295 14.686,-42.1 21.433,-38.355C25.148,-36.293 28.698,-33.994 31.265,-30.498C34.96,-25.462 35.03,-20.615 31.485,-16.001C29.042,-18.783 25.937,-20.754 22.707,-22.547C15.96,-26.292 8.623,-28.487 1.274,-30.647C-4.042,-31.602 -9.306,-32.807 -14.642,-33.692C-24.482,-35.327 -34.401,-35.958 -44.325,-36.305C-55.801,-36.708 -67.25,-35.887 -78.659,-34.51C-89.833,-33.161 -100.837,-31.032 -111.427,-27.192C-118.491,-24.631 -125.374,-21.629 -130.733,-16.02C-131.199,-15.532 -131.622,-15.033 -132.003,-14.525Z" style="fill:rgb(61,86,108);"/>
            </g>
        </g>
    </g>
</svg>
