<?xml version="1.0" encoding="UTF-8" standalone="no"?>
<!DOCTYPE svg PUBLIC "-//W3C//DTD SVG 1.1//EN" "http://www.w3.org/Graphics/SVG/1.1/DTD/svg11.dtd">
<svg width="100%" height="100%" viewBox="0 0 317 113" version="1.1" xmlns="http://www.w3.org/2000/svg" xmlns:xlink="http://www.w3.org/1999/xlink" xml:space="preserve" xmlns:serif="http://www.serif.com/" style="fill-rule:evenodd;clip-rule:evenodd;stroke-linejoin:round;stroke-miterlimit:2;">
    <g transform="matrix(1,0,0,1,-290.56,-783.448)">
        <g transform="matrix(0.135395,0,0,0.135395,266.202,726.984)">
            <path d="M1349.25,417.031C703.431,417.031 179.902,519.679 179.902,646.281C179.902,649.474 180.237,652.672 180.906,655.826L179.902,655.826C179.902,655.826 186.55,1051.19 355.561,1103.41L355.598,1103.41C508.938,1189.45 895.983,1250.54 1349.25,1250.54C1519.15,1250.54 1679.73,1241.96 1822.19,1226.7C2092.11,1197.8 2296.95,1144.89 2376.8,1080.97C2502.21,988.536 2516.73,723.785 2518.41,666.74L2518.41,666.666C2518.63,659.688 2518.63,646.281 2518.63,646.281C2518.63,519.679 1995.07,417.031 1349.25,417.031Z" style="fill:rgb(198,204,91);fill-rule:nonzero;"/>
            <path d="M2094.18,588.896L2094.07,588.859C1667.7,466.645 834.077,545.449 626.441,605.687C574.414,620.803 533.561,637.512 501.586,654.741C442.906,686.291 414.027,719.416 400.135,747.023C401.638,747.479 403.141,747.929 404.656,748.408C411.009,750.299 417.545,752.159 424.229,754.018C425.899,754.501 427.57,754.941 429.243,755.388C437.635,757.693 446.25,759.955 455.162,762.149C457.579,762.781 459.99,763.376 462.441,763.972C464.633,764.485 466.789,765.007 469.018,765.527C475.293,767.052 481.717,768.539 488.252,769.983C491.559,770.765 494.862,771.471 498.206,772.215C503.034,773.293 507.937,774.328 512.875,775.369C516.365,776.076 519.895,776.819 523.422,777.526C531.928,779.268 540.617,780.979 549.455,782.646C553.134,783.352 556.847,784.059 560.559,784.728C564.792,785.546 569.065,786.326 573.409,787.07C577.568,787.808 581.802,788.552 586.035,789.296L587.113,789.481C591.271,790.226 595.468,790.932 599.667,791.602C607.353,792.896 615.189,794.198 623.061,795.425C627.147,796.095 631.27,796.721 635.392,797.354C637.21,797.613 639.032,797.91 640.889,798.171C645.456,798.878 650.023,799.547 654.629,800.216C687.607,805.081 722.182,809.574 758.203,813.696C768.491,814.886 778.892,816.033 789.4,817.148C794.674,817.743 799.949,818.301 805.257,818.822C816.141,819.932 827.133,821.047 838.235,822.088C848.818,823.056 859.516,824.06 870.321,824.982L871.921,825.169C893.905,827.378 914.401,835.525 931.584,848.184C937.26,852.293 942.58,856.894 947.479,861.94C947.392,861.934 947.306,861.928 947.219,861.922C957.654,872.825 966.167,885.739 972.043,900.224L1055.79,1107.86C1066.3,1133.89 1089.54,1152.61 1117.21,1157.44C1270.07,1184.21 1424.82,1184.66 1581.54,1157.36C1609.13,1152.54 1632.31,1133.78 1642.78,1107.79L1723.71,907.158L1726.19,901.005C1732.17,886.186 1740.9,873.003 1751.67,861.934C1751.79,861.812 1751.92,861.706 1752.04,861.584C1750.44,861.698 1748.88,861.827 1747.29,861.94C1767.23,841.438 1794.23,828.293 1823.71,825.77C1832.07,825.063 1840.35,824.319 1848.56,823.576C1851.38,823.315 1854.2,823.056 1856.99,822.795C1862.49,822.274 1867.98,821.754 1873.4,821.239C1883.62,820.272 1893.72,819.23 1903.74,818.19C1908.42,817.706 1913.07,817.223 1917.67,816.702C1956,812.581 1992.8,808.05 2027.9,803.147C2032.02,802.59 2036.1,802.001 2040.15,801.406C2043.53,800.923 2046.84,800.418 2050.19,799.922C2054.31,799.313 2058.47,798.712 2062.55,798.097C2066.59,797.508 2070.6,796.876 2074.61,796.243C2087.2,794.272 2099.5,792.271 2111.53,790.226C2115.99,789.481 2120.37,788.701 2124.75,787.926C2135.74,785.992 2146.48,784.021 2156.98,781.982C2165.16,780.421 2173.14,778.827 2181.01,777.229C2182.05,777.006 2183.05,776.819 2184.06,776.634C2187.73,775.853 2191.41,775.071 2195.01,774.291C2199.1,773.442 2203.18,772.549 2207.2,771.656C2211.21,770.802 2215.18,769.872 2219.12,768.985C2223.09,768.093 2226.95,767.201 2230.81,766.271C2234.64,765.379 2238.46,764.455 2242.22,763.525C2245.82,762.633 2249.38,761.777 2252.87,760.848C2259.07,759.292 2265.13,757.73 2271.03,756.131C2274.12,755.319 2277.16,754.464 2280.13,753.609C2285.48,752.121 2290.72,750.64 2295.81,749.115C2298.48,748.334 2301.08,747.554 2303.68,746.735C2304.57,746.476 2305.42,746.221 2306.24,745.961C2310.58,744.622 2314.82,743.283 2318.98,741.907L2319.39,741.759C2320.95,741.281 2322.47,740.761 2323.99,740.24C2325.51,739.757 2327.04,739.236 2328.52,738.716C2329.31,738.458 2330.1,738.18 2330.89,737.907C2296.08,670.382 2210.28,622.157 2094.18,588.896Z" style="fill:rgb(238,213,196);fill-rule:nonzero;"/>
            <path d="M2514.02,666.747C2500.06,697.675 2454.78,726.834 2384.46,753.002C2393.2,764.194 2396.86,777.055 2394.4,800.997C2384.26,900.447 2322.17,989.169 2243.37,1050.63C2164.52,1112.13 2069.9,1149.68 1975.01,1181.21C1924.62,1197.95 1873.62,1213.22 1822.19,1226.7C2092.11,1197.8 2296.95,1144.89 2376.8,1080.97C2502.21,988.536 2516.73,723.785 2518.41,666.74L2518.41,666.666C2518.63,659.688 2518.63,646.281 2518.63,646.281C2518.63,653.154 2517.07,659.948 2514.02,666.672L2514.02,666.747Z" style="fill:rgb(185,191,75);fill-rule:nonzero;"/>
            <path d="M1349.25,417.031C703.431,417.031 179.902,519.679 179.902,646.281C179.902,649.474 180.237,652.672 180.906,655.826C200.584,750.25 516.596,830.521 947.219,861.922C947.306,861.928 947.392,861.934 947.479,861.94C942.58,856.894 937.26,852.293 931.584,848.184C914.571,835.869 894.356,827.976 872.721,825.808C861.356,824.803 844.961,823.13 833.854,822.088C822.75,821.053 811.759,819.938 800.879,818.822C795.566,818.301 790.293,817.743 785.018,817.148C774.51,816.039 764.11,814.886 753.825,813.696C717.8,809.574 683.226,805.081 650.247,800.216C645.643,799.547 641.037,798.878 636.506,798.171C634.65,797.91 632.831,797.619 631.012,797.358C626.888,796.727 622.766,796.095 618.682,795.425C610.808,794.198 602.973,792.903 595.285,791.602C593.928,791.384 592.58,791.14 591.223,790.915C493.428,773.152 400.135,747.023 400.135,747.023C414.027,719.416 442.906,686.291 501.586,654.741C533.561,637.512 574.414,620.803 626.441,605.687C834.077,545.449 1667.7,466.645 2094.07,588.859L2094.18,588.896C2210.28,622.157 2296.08,670.382 2330.89,737.907C2330.1,738.18 2329.31,738.458 2328.52,738.716C2327.04,739.236 2325.51,739.757 2323.99,740.24C2322.47,740.761 2320.95,741.281 2319.39,741.759L2318.98,741.907C2314.82,743.283 2310.58,744.622 2306.24,745.961C2305.42,746.221 2304.57,746.476 2303.68,746.735C2301.08,747.554 2298.48,748.334 2295.81,749.115C2290.72,750.64 2285.48,752.121 2280.13,753.609C2277.16,754.464 2274.12,755.319 2271.03,756.131C2265.13,757.73 2259.07,759.292 2252.87,760.848C2249.38,761.777 2245.82,762.633 2242.22,763.525C2238.46,764.455 2234.64,765.379 2230.81,766.271C2226.95,767.201 2223.09,768.093 2219.12,768.985C2215.18,769.872 2211.21,770.802 2207.2,771.656C2203.18,772.549 2199.1,773.442 2195.01,774.291C2191.41,775.071 2187.73,775.853 2184.06,776.634C2183.05,776.819 2182.05,777.006 2181.01,777.229C2173.14,778.827 2165.16,780.421 2156.98,781.982C2146.48,784.021 2135.74,785.992 2124.75,787.926C2120.37,788.701 2115.99,789.481 2111.53,790.226C2099.5,792.271 2087.2,794.272 2074.61,796.243C2070.6,796.876 2066.59,797.508 2062.55,798.097C2058.47,798.712 2054.31,799.313 2050.19,799.922C2046.84,800.418 2043.53,800.923 2040.15,801.406C2036.1,802.001 2032.02,802.59 2027.9,803.147C1992.8,808.05 1956,812.581 1917.67,816.702C1913.07,817.223 1908.42,817.706 1903.74,818.19C1893.72,819.23 1883.62,820.272 1873.4,821.239C1867.98,821.754 1862.49,822.274 1856.99,822.795C1854.2,823.056 1851.38,823.315 1848.56,823.576C1840.35,824.319 1832.07,825.063 1823.71,825.77C1794.23,828.293 1767.23,841.438 1747.29,861.94C1748.88,861.827 1750.44,861.698 1752.04,861.584C1957.66,846.782 2136.22,821.013 2269.14,787.852C2312.71,776.985 2351.35,765.323 2384.46,753.002C2454.78,726.834 2500.06,697.675 2514.02,666.747L2514.02,666.672C2517.07,659.948 2518.63,653.154 2518.63,646.281C2518.63,519.679 1995.07,417.031 1349.25,417.031Z" style="fill:rgb(221,229,113);fill-rule:nonzero;"/>
            <path d="M2094.18,588.896C2112.08,595.658 2129.28,603.863 2144.14,615.751C2167.98,634.803 2184.87,665.625 2178.78,695.522C2171.84,729.536 2139.05,751.191 2108.22,767.194C2088.3,777.553 2069.35,789.544 2050.19,799.922C2054.31,799.313 2058.47,798.712 2062.55,798.097C2066.59,797.508 2070.6,796.876 2074.61,796.243C2087.2,794.272 2099.5,792.271 2111.53,790.226C2115.99,789.481 2120.37,788.701 2124.75,787.926C2135.74,785.992 2146.48,784.021 2156.98,781.982C2165.16,780.421 2173.14,778.827 2181.01,777.229C2182.05,777.006 2183.05,776.819 2184.06,776.634C2187.73,775.853 2191.41,775.071 2195.01,774.291C2199.1,773.442 2203.18,772.549 2207.2,771.656C2211.21,770.802 2215.18,769.872 2219.12,768.985C2223.09,768.093 2226.95,767.201 2230.81,766.271C2234.64,765.379 2238.46,764.455 2242.22,763.525C2245.82,762.633 2249.38,761.777 2252.87,760.848C2259.07,759.292 2265.13,757.73 2271.03,756.131C2274.12,755.319 2277.16,754.464 2280.13,753.609C2285.48,752.121 2290.72,750.64 2295.81,749.115C2298.48,748.334 2301.08,747.554 2303.68,746.735C2304.57,746.476 2305.42,746.221 2306.24,745.961C2310.58,744.622 2314.82,743.283 2318.98,741.907L2319.39,741.759C2320.95,741.281 2322.47,740.761 2323.99,740.24C2325.51,739.757 2327.04,739.236 2328.52,738.716C2329.31,738.458 2330.1,738.18 2330.89,737.907C2296.08,670.382 2210.28,622.157 2094.18,588.896Z" style="fill:rgb(234,197,175);fill-rule:nonzero;"/>
            <path d="M1055.79,1107.86C1066.3,1133.89 1089.54,1152.61 1117.21,1157.44C1270.07,1184.21 1424.82,1184.66 1581.54,1157.36C1609.13,1152.54 1632.31,1133.78 1642.78,1107.79L1723.71,907.158C1714.68,915.429 1706.15,924.245 1698.19,933.574C1674.35,961.501 1655.3,993.736 1627.63,1017.87C1579.13,1060.17 1506.04,1077.82 1441.83,1082.61C1328.41,1091.07 1212.17,1053.49 1125.16,980.219C1073.02,936.283 1031.13,880.354 974.903,841.804C926.291,808.453 867.985,789.476 809.047,787.771C776.031,786.842 743.09,791.148 710.111,790.628C679.476,790.108 649.098,785.428 619.091,779.268C591.979,773.695 564.534,766.748 541.175,751.897C517.778,737.042 498.764,712.976 496.313,685.384C495.386,675.021 497.316,664.323 501.586,654.741C442.906,686.291 414.027,719.416 400.135,747.023C401.638,747.479 403.141,747.929 404.656,748.408C411.009,750.299 417.545,752.159 424.229,754.018C425.899,754.501 427.57,754.941 429.243,755.388C437.635,757.693 446.25,759.955 455.162,762.149C457.579,762.781 459.99,763.376 462.441,763.972C464.633,764.485 466.789,765.007 469.018,765.527C475.293,767.052 481.717,768.539 488.252,769.983C491.559,770.765 494.862,771.471 498.206,772.215C503.034,773.293 507.937,774.328 512.875,775.369C516.365,776.076 519.895,776.819 523.422,777.526C531.928,779.268 540.617,780.979 549.455,782.646C553.134,783.352 556.847,784.059 560.559,784.728C564.792,785.546 569.065,786.326 573.409,787.07C577.568,787.808 581.802,788.552 586.035,789.296L587.113,789.481C591.271,790.226 595.468,790.932 599.667,791.602C607.353,792.896 615.189,794.198 623.061,795.425C627.147,796.095 631.27,796.721 635.392,797.354C637.21,797.613 639.032,797.91 640.889,798.171C645.456,798.878 650.023,799.547 654.629,800.216C687.607,805.081 722.182,809.574 758.203,813.696C768.491,814.886 778.892,816.033 789.4,817.148C794.674,817.743 799.949,818.301 805.257,818.822C816.141,819.932 827.133,821.047 838.235,822.088C848.818,823.056 859.516,824.06 870.321,824.982L871.921,825.169C893.905,827.378 914.401,835.525 931.584,848.184C937.26,852.293 942.58,856.894 947.479,861.94C947.392,861.934 947.306,861.928 947.219,861.922C957.654,872.825 966.167,885.739 972.043,900.224L1055.79,1107.86Z" style="fill:rgb(234,197,175);fill-rule:nonzero;"/>
            <path d="M249.535,658.312C249.832,659.241 250.167,660.134 250.539,661.063L250.722,661.504L251.428,663.028C252.246,664.85 253.247,666.629 254.326,668.451C254.697,669.009 255.069,669.604 255.475,670.199C259.935,676.88 266.247,683.456 274.304,689.914C274.974,690.435 275.644,690.993 276.347,691.513C277.128,692.107 277.908,692.703 278.723,693.298C279.393,693.813 280.099,694.333 280.803,694.816C283.291,696.602 285.891,698.349 288.64,700.091C290.124,701.058 291.648,702.024 293.208,702.954C297.813,705.737 302.789,708.52 308.063,711.271C309.883,712.201 311.739,713.125 313.632,714.092C318.312,716.397 323.251,718.696 328.414,720.965C329.601,721.522 330.828,722.037 332.053,722.558C333.875,723.376 335.73,724.156 337.587,724.9C338.814,725.422 340.038,725.941 341.3,726.426C348.765,729.469 356.639,732.475 364.919,735.412C366.295,735.933 367.705,736.41 369.081,736.894C376.1,739.348 383.376,741.796 390.953,744.176C393.367,744.957 395.855,745.694 398.344,746.476C398.935,746.655 399.54,746.844 400.135,747.023C414.027,719.416 442.906,686.291 501.586,654.741C533.561,637.512 574.414,620.803 626.441,605.687C834.077,545.449 1667.7,466.645 2094.07,588.859L2094.18,588.896C2210.28,622.157 2296.08,670.382 2330.89,737.907C2331.58,737.666 2332.28,737.436 2332.98,737.191C2337.4,735.672 2341.71,734.11 2345.86,732.549C2347.28,732.034 2348.65,731.514 2350.02,730.993C2353.55,729.654 2356.97,728.315 2360.28,726.983C2362.06,726.276 2363.8,725.532 2365.55,724.826C2366.96,724.231 2368.37,723.636 2369.71,723.047C2370.97,722.526 2372.2,722.006 2373.42,721.448C2375.87,720.37 2378.29,719.291 2380.59,718.22C2381.78,717.661 2382.93,717.141 2384.08,716.583C2396.71,710.603 2407.77,704.479 2417.13,698.238C2417.99,697.68 2418.84,697.122 2419.66,696.527C2427.53,691.142 2434.18,685.612 2439.49,680.041L2441.05,678.33C2442.16,677.14 2443.2,675.92 2444.13,674.729L2445.32,673.204C2447.4,670.459 2449.18,667.67 2450.59,664.888C2450.93,664.292 2451.22,663.697 2451.48,663.103L2452.23,661.473C2453.01,659.613 2453.68,657.723 2454.16,655.826C2455.01,652.672 2455.42,649.474 2455.42,646.281C2455.42,536.581 1960.16,447.673 1349.25,447.673C738.337,447.673 243.11,536.581 243.11,646.281C243.11,649.474 243.521,652.672 244.412,655.826L248.791,655.826C249.015,656.639 249.274,657.493 249.535,658.312Z" style="fill:rgb(185,191,75);fill-rule:nonzero;"/>
        </g>
    </g>
</svg>
