<?xml version="1.0" encoding="UTF-8" standalone="no"?>
<!DOCTYPE svg PUBLIC "-//W3C//DTD SVG 1.1//EN" "http://www.w3.org/Graphics/SVG/1.1/DTD/svg11.dtd">
<svg width="100%" height="100%" viewBox="0 0 224 98" version="1.1" xmlns="http://www.w3.org/2000/svg" xmlns:xlink="http://www.w3.org/1999/xlink" xml:space="preserve" xmlns:serif="http://www.serif.com/" style="fill-rule:evenodd;clip-rule:evenodd;stroke-linejoin:round;stroke-miterlimit:2;">
    <g transform="matrix(1,0,0,1,-337.188,-1262.72)">
        <g transform="matrix(0.50736,0,0,0.50736,165.317,1167.94)">
            <g transform="matrix(1,0,0,1,679.406,215.235)">
                <path d="M0,6.324C8.897,6.518 17.495,7.532 25.684,9.219C28.045,6.308 27.54,3.468 27.54,3.468C7.1,-2.895 -14.101,-0.413 -20.776,0.626L-13.901,6.687C-9.352,6.351 -4.713,6.221 0,6.324" style="fill:rgb(56,45,55);fill-rule:nonzero;"/>
            </g>
            <g transform="matrix(1,0,0,1,758.292,327.515)">
                <path d="M0,-77.269C-0.728,-77.941 -1.465,-78.606 -2.221,-79.258C-15.207,-90.448 -32.91,-98.88 -53.202,-103.061C-61.391,-104.747 -69.988,-105.762 -78.886,-105.956C-83.599,-106.059 -88.237,-105.929 -92.787,-105.592L-99.662,-111.654L-101.271,-113.073C-118.396,-111.707 -134.192,-107.319 -147.544,-100.68C-147.541,-100.674 -147.536,-100.669 -147.533,-100.663C-146.966,-99.525 -147.431,-98.141 -148.57,-97.575C-148.715,-97.502 -163.162,-90.268 -170.177,-81.848C-170.646,-81.288 -171.322,-81.005 -171.999,-81.02C-172.503,-81.031 -173.007,-81.206 -173.421,-81.553C-173.458,-81.583 -173.485,-81.621 -173.52,-81.653C-183.231,-71.094 -188.987,-58.544 -189.282,-44.976C-190.265,0.218 -153.307,21.5 -119.105,30.259C-105.413,33.766 -92.162,35.269 -81.966,35.491C-67.618,35.804 -53.93,34.007 -41.485,30.513C-40.211,30.155 -38.944,29.785 -37.696,29.392C-48.654,32.385 -60.659,33.912 -73.213,33.638C-123.681,32.54 -163.965,2.8 -163.19,-32.787C-162.417,-68.374 -120.878,-96.334 -70.409,-95.235C-19.942,-94.137 20.344,-64.397 19.569,-28.81C19.48,-24.709 18.844,-20.711 17.72,-16.846C19.588,-22.023 20.637,-27.441 20.758,-33.03C21.118,-49.559 13.329,-64.933 0,-77.269" style="fill:rgb(142,46,101);fill-rule:nonzero;"/>
            </g>
            <g transform="matrix(1,0,0,1,720.596,310.668)">
                <path d="M0,46.238C28.02,38.586 49.218,21.334 55.416,0C47.927,20.762 27.237,37.656 0,46.238" style="fill:rgb(142,46,101);fill-rule:nonzero;"/>
            </g>
            <g transform="matrix(1,0,0,1,704.253,250.043)">
                <path d="M0,92.521C-72.302,49.374 -11.044,-7.287 -11.044,-7.287C-11.044,-7.287 -7.77,11.676 13.79,23.597C35.352,35.517 42.496,30.346 50.896,40.567C59.294,50.787 49.352,80.484 0,92.521M-16.37,-17.763C-66.839,-18.862 -108.378,9.097 -109.151,44.685C-109.926,80.272 -69.642,110.011 -19.174,111.11C-6.62,111.383 5.385,109.857 16.343,106.863C43.58,98.282 64.27,81.388 71.759,60.625C72.883,56.76 73.52,52.763 73.608,48.662C74.383,13.074 34.097,-16.666 -16.37,-17.763" style="fill:rgb(186,79,135);fill-rule:nonzero;"/>
            </g>
            <g transform="matrix(1,0,0,1,693.209,342.564)">
                <path d="M0,-99.808C0,-99.808 -61.258,-43.148 11.044,0C11.044,0 -47.108,-39.065 0,-99.808" style="fill:rgb(142,46,101);fill-rule:nonzero;"/>
            </g>
            <g transform="matrix(1,0,0,1,586.293,225.171)">
                <path d="M0,21.323C0.677,21.338 1.354,21.055 1.822,20.496C8.837,12.076 23.284,4.841 23.429,4.768C24.568,4.203 25.033,2.819 24.466,1.68C24.463,1.674 24.458,1.669 24.455,1.663C23.882,0.536 22.51,0.079 21.378,0.641L21.255,0.702C20.645,0.145 19.733,-0.015 18.948,0.376C18.714,0.493 16.257,1.725 12.979,3.715C13.315,4.14 13.541,4.436 13.638,4.564L3.35,12.354C3.333,12.332 3.031,11.938 2.483,11.256C0.942,12.607 -0.502,14.035 -1.735,15.515C-2.305,16.198 -2.352,17.136 -1.934,17.864C-2.467,18.778 -2.308,19.95 -1.521,20.69C-1.486,20.723 -1.459,20.76 -1.422,20.791C-1.008,21.137 -0.504,21.312 0,21.323" style="fill:rgb(56,45,55);fill-rule:nonzero;"/>
            </g>
            <g transform="matrix(1,0,0,1,364.256,361.822)">
                <path d="M0,-7.885C-8.071,-13.427 -12.78,-20.081 -12.583,-25.542C-14.014,-20.549 -14.542,-11.905 -9.284,1.334C-8.642,1.812 -7.985,2.288 -7.306,2.754C5.22,11.349 21.793,16.512 39.366,17.286C40.137,17.32 40.909,17.345 41.679,17.364C55.208,17.657 68.72,15.303 81.574,10.465C80.25,7.919 77.414,2.314 76.103,-1.443C52.648,6.871 22.906,7.838 0,-7.885" style="fill:rgb(56,45,55);fill-rule:nonzero;"/>
            </g>
            <g transform="matrix(1,0,0,1,545.509,361.381)">
                <path d="M0,-15.612C-6.042,-9.254 -14.44,-7.665 -26.936,-10.444C-34.522,-12.133 -42.945,-15.315 -51.9,-19.224L-54.161,-17.817L-54.09,-17.705L-56.961,-15.881L-56.279,-14.807C-55.5,-15.295 -54.473,-15.063 -53.979,-14.286C-53.483,-13.505 -53.714,-12.471 -54.495,-11.974L-57.3,-10.195C-58.082,-9.698 -59.115,-9.929 -59.611,-10.711C-60.104,-11.486 -59.877,-12.517 -59.105,-13.013C-59.105,-13.014 -59.106,-13.014 -59.106,-13.014L-59.787,-14.086L-64.82,-10.89C-56.826,-7.205 -49.096,-3.867 -41.719,-1.315C-19.517,3.612 -6.242,-7.777 0,-15.612" style="fill:rgb(148,76,115);fill-rule:nonzero;"/>
            </g>
            <g transform="matrix(1,0,0,1,465.377,342.225)">
                <path d="M0,0.828C-0.539,0.028 -1.502,-0.31 -2.39,-0.1C-1.521,0.314 -0.654,0.726 0.209,1.138L0,0.828Z" style="fill:rgb(148,76,115);fill-rule:nonzero;"/>
            </g>
            <g transform="matrix(1,0,0,1,599.931,182.534)">
                <path d="M0,47.201C-0.097,47.073 -0.322,46.778 -0.658,46.352C-6.334,39.141 -45.201,-7.79 -83.764,7.235C-90.341,13.555 -90.632,23.88 -89.771,31.267C-89.713,30.112 -89.536,29.024 -89.215,28.014C-88.036,24.321 -84.722,21.456 -79.079,19.258C-66.096,14.2 -50.745,18.45 -33.456,31.892C-22.17,40.666 -13.776,50.635 -11.154,53.893C-10.606,54.575 -10.305,54.97 -10.288,54.991L0,47.201Z" style="fill:rgb(148,76,115);fill-rule:nonzero;"/>
            </g>
            <g transform="matrix(1,0,0,1,516.167,366.908)">
                <path d="M0,-177.139C-9.372,-173.488 -15.343,-167.814 -17.745,-160.278C-19.597,-154.468 -19.126,-148.05 -17.088,-141.177C-13.104,-127.75 -3.129,-112.593 7.228,-96.858C16.736,-82.412 26.568,-67.473 31.775,-53.915C35.971,-42.992 36.618,-34.482 33.696,-27.669C32.896,-25.803 31.827,-24.064 30.491,-22.438C30.118,-21.984 29.734,-21.553 29.342,-21.139C23.1,-13.304 9.825,-1.915 -12.377,-6.842C-8.27,-5.42 -4.271,-4.238 -0.398,-3.376C14.765,0 26.584,-1.931 35.509,-9.27C37.269,-10.718 38.917,-12.37 40.455,-14.239C60.789,-38.951 38.06,-73.484 18.006,-103.952C8.6,-118.244 -1.025,-132.877 -4.587,-144.217C-5.613,-147.482 -6.138,-150.475 -6.008,-153.107C-6.868,-160.493 -6.577,-170.819 0,-177.139" style="fill:rgb(56,45,55);fill-rule:nonzero;"/>
            </g>
            <g transform="matrix(1,0,0,1,351.673,325.488)">
                <path d="M0,10.792C0.016,10.428 0.047,10.072 0.105,9.72C0.363,8.126 1.1,6.572 2.266,5.086C5.373,1.13 11.56,-2.34 20.117,-4.808C47.104,-12.587 79.623,1.608 109.103,15.585L111.194,14.175C112.227,13.478 113.631,13.751 114.327,14.784L116.503,18.01L117.328,17.486C119.096,16.364 121.37,16.73 122.724,18.24L132.169,12.243C128.387,10.481 124.538,8.647 120.636,6.786C87.561,-8.993 50.07,-26.875 16.543,-17.207C2.367,-13.118 -5.164,-7.165 -9.055,-1.336C-11.146,1.801 -12.186,4.903 -12.632,7.657C-14.313,18.037 -8.521,28.875 3.299,37.667C-1.959,24.429 -1.431,15.785 0,10.792" style="fill:rgb(148,76,115);fill-rule:nonzero;"/>
            </g>
            <g transform="matrix(1,0,0,1,476.323,368.431)">
                <path d="M0,-9.146C0.698,-8.113 0.425,-6.71 -0.608,-6.015L-7.933,-1.074C-8.943,-0.394 -10.303,-0.644 -11.015,-1.622C-11.617,-1.321 -12.25,-1.015 -12.906,-0.707L-11.689,1.098C-10.992,2.129 -9.589,2.403 -8.556,1.707L2.203,-5.549C3.235,-6.248 3.509,-7.65 2.813,-8.684L0.88,-11.549L-0.87,-10.437L0,-9.146Z" style="fill:rgb(161,163,166);fill-rule:nonzero;"/>
            </g>
            <g transform="matrix(1,0,0,1,462.867,350.498)">
                <path d="M0,-10.835L-2.092,-9.424L-10.76,-3.579C-11.791,-2.882 -12.065,-1.478 -11.366,-0.446L-10.596,0.697C-9.982,0.306 -9.38,-0.079 -8.793,-0.454C-9.151,-1.409 -8.83,-2.52 -7.946,-3.115L-0.623,-8.054C-0.391,-8.211 -0.138,-8.312 0.12,-8.373C1.008,-8.583 1.971,-8.246 2.51,-7.445L2.719,-7.136L3.56,-5.889L5.309,-7L3.133,-10.226C2.437,-11.258 1.032,-11.532 0,-10.835" style="fill:rgb(161,163,166);fill-rule:nonzero;"/>
            </g>
            <g transform="matrix(1,0,0,1,470.974,356.786)">
                <path d="M0,6.14C-2.834,-1.373 -10.697,-10.707 -10.697,-10.707C-11.784,-10.01 -14.151,-8.497 -16.899,-6.742C-17.486,-6.367 -18.089,-5.983 -18.702,-5.591C-24.48,-1.902 -31.032,2.277 -31.032,2.277C-30.922,2.679 -30.78,3.122 -30.615,3.593C-29.304,7.35 -26.468,12.955 -25.144,15.501C-24.708,16.338 -24.435,16.847 -24.435,16.847C-21.14,16.604 -13.442,13.7 -7.557,10.937C-6.9,10.629 -6.268,10.323 -5.665,10.022C-2.204,8.296 0.231,6.756 0,6.14" style="fill:rgb(148,76,115);fill-rule:nonzero;"/>
            </g>
            <g transform="matrix(1,0,0,1,497.849,338.406)">
                <path d="M0,1.151L3.492,0.321C2.659,0 1.619,0.255 0,1.151" style="fill:rgb(161,163,166);fill-rule:nonzero;"/>
            </g>
            <g transform="matrix(1,0,0,1,503.504,338.59)">
                <path d="M0,-2.186C0.707,-2.635 1.292,-3.075 1.788,-3.507C-2.503,-7.16 -7.605,-3.998 -9.643,-2.727L-10.946,-1.915C-11.974,-0.228 -13.209,1.028 -14.151,1.832L-12.156,4.974L-9.896,3.566L-6.886,1.692C-6.438,1.413 -6.034,1.176 -5.655,0.966C-4.036,0.071 -2.996,-0.185 -2.163,0.136C-1.752,0.294 -1.385,0.58 -1.03,1.02C-1.011,1.045 -0.985,1.063 -0.965,1.086C-1.494,-0.078 -1.111,-1.481 0,-2.186" style="fill:rgb(111,112,115);fill-rule:nonzero;"/>
            </g>
            <g transform="matrix(1,0,0,1,486.402,348.815)">
                <path d="M0,-0.449C0,-0.449 0.001,-0.449 0.001,-0.448C-0.771,0.049 -0.998,1.079 -0.505,1.855C-0.009,2.636 1.024,2.867 1.807,2.371L4.611,0.591C5.393,0.094 5.623,-0.94 5.128,-1.721C4.634,-2.498 3.606,-2.729 2.827,-2.241L2.827,-2.242L2.146,-3.316L-0.681,-1.521L0,-0.449Z" style="fill:rgb(111,112,115);fill-rule:nonzero;"/>
            </g>
            <g transform="matrix(1,0,0,1,488.548,324.285)">
                <path d="M0,21.214L2.871,19.39L2.8,19.278L0.805,16.137C1.747,15.333 2.982,14.077 4.01,12.389C4.967,10.817 5.739,8.877 5.896,6.561C6.029,4.605 8.667,1.019 11.897,0.262C14.251,-0.289 16.335,0.963 18.1,3.981C19.146,5.778 19.833,8.114 16.744,10.798C16.248,11.23 15.663,11.67 14.956,12.119C13.845,12.824 13.462,14.227 13.991,15.391C14.041,15.5 14.088,15.61 14.153,15.714C14.925,16.929 16.535,17.288 17.748,16.516C26.768,10.789 24.144,4.006 22.597,1.355C19.678,-3.64 15.344,-5.896 10.711,-4.81C5.166,-3.51 0.984,2.038 0.699,6.206C0.518,8.882 -1.104,10.828 -2.239,11.88L-4.706,13.445L-14.151,19.443C-13.998,19.614 -13.848,19.79 -13.721,19.99L-9.596,26.487C-9.469,26.688 -9.373,26.898 -9.283,27.11L-7.859,26.205L-2.826,23.009L0,21.214Z" style="fill:rgb(161,163,166);fill-rule:nonzero;"/>
            </g>
            <g transform="matrix(1,0,0,1,474.827,357.16)">
                <path d="M0,-12.884C-0.127,-13.084 -0.277,-13.26 -0.431,-13.431C-1.784,-14.942 -4.059,-15.308 -5.826,-14.185L-6.651,-13.661L-8.4,-12.551L-8.562,-12.448C-10.53,-11.197 -11.112,-8.591 -9.863,-6.623L-5.736,-0.126C-4.486,1.844 -1.879,2.424 0.091,1.174L0.626,0.834L2.376,-0.278L2.823,-0.562C4.592,-1.685 5.229,-3.9 4.437,-5.765C4.348,-5.976 4.252,-6.187 4.125,-6.387L0,-12.884Z" style="fill:rgb(111,112,115);fill-rule:nonzero;"/>
            </g>
        </g>
    </g>
</svg>
