<?xml version="1.0" encoding="UTF-8" standalone="no"?>
<!DOCTYPE svg PUBLIC "-//W3C//DTD SVG 1.1//EN" "http://www.w3.org/Graphics/SVG/1.1/DTD/svg11.dtd">
<svg width="100%" height="100%" viewBox="0 0 478 420" version="1.1" xmlns="http://www.w3.org/2000/svg" xmlns:xlink="http://www.w3.org/1999/xlink" xml:space="preserve" xmlns:serif="http://www.serif.com/" style="fill-rule:evenodd;clip-rule:evenodd;stroke-linejoin:round;stroke-miterlimit:2;">
    <g transform="matrix(1,0,0,1,-211.729,-189.187)">
        <g transform="matrix(4.16667,0,0,4.16667,0,0)">
            <path d="M71.696,145.373L144.425,145.373C155.542,145.373 164.555,136.361 164.555,125.243C164.555,115.429 157.528,107.266 148.234,105.484C150.44,102.497 151.76,98.816 151.76,94.817C151.76,84.879 143.703,76.822 133.765,76.822L131.437,76.822C133.449,73.755 134.63,70.158 134.63,66.293C134.63,55.171 125.02,46.155 113.165,46.155L105.334,46.155C104.802,46.155 104.277,46.179 103.755,46.215C107.501,46.649 110.403,49.64 110.403,53.272C110.403,57.203 107.006,60.389 102.817,60.389L91.839,60.389C90.572,60.389 89.35,60.57 88.2,60.905C87.434,61.129 86.7,61.421 86.006,61.775C85.313,62.128 84.66,62.542 84.056,63.01C81.336,65.116 79.603,68.302 79.603,71.868L79.603,71.875C79.604,72.305 79.634,72.728 79.683,73.146L79.725,73.405C79.774,73.749 79.837,74.089 79.918,74.423L79.969,74.611C80.064,74.976 80.178,75.332 80.309,75.682L80.341,75.763C80.489,76.149 80.658,76.524 80.849,76.89L80.849,76.891C71.551,77.591 64.22,85.34 64.22,94.817C64.22,98.825 65.547,102.513 67.762,105.503C58.529,107.334 51.566,115.473 51.566,125.243C51.566,136.361 60.579,145.373 71.696,145.373Z" style="fill:rgb(238,246,247);fill-rule:nonzero;"/>
        </g>
        <g transform="matrix(4.16667,0,0,4.16667,0,0)">
            <path d="M113.165,46.155L105.334,46.155C104.802,46.155 104.277,46.179 103.755,46.215C107.501,46.649 110.403,49.64 110.403,53.272C110.403,57.203 107.006,60.389 102.817,60.389L91.839,60.389C85.081,60.389 79.603,65.528 79.603,71.868C79.603,78.208 85.081,83.348 91.839,83.348L93.924,83.348C97.23,85.298 101.14,86.43 105.334,86.43L113.165,86.43C125.02,86.43 134.63,77.414 134.63,66.293C134.63,55.171 125.02,46.155 113.165,46.155Z" style="fill:rgb(173,79,68);fill-rule:nonzero;"/>
        </g>
        <g transform="matrix(4.16667,0,0,4.16667,0,0)">
            <path d="M91.839,61.139C85.505,61.139 80.353,65.952 80.353,71.868C80.353,77.785 85.505,82.598 91.839,82.598L93.924,82.598C94.058,82.598 94.189,82.634 94.305,82.702C97.609,84.65 101.422,85.681 105.333,85.681L113.164,85.681C124.587,85.681 133.88,76.983 133.88,66.293C133.88,55.602 124.587,46.905 113.164,46.905L107.706,46.905C109.805,48.343 111.153,50.677 111.153,53.272C111.153,57.61 107.414,61.139 102.817,61.139L91.839,61.139ZM113.164,87.181L105.333,87.181C101.224,87.181 97.214,86.115 93.721,84.098L91.839,84.098C84.678,84.098 78.853,78.611 78.853,71.868C78.853,65.125 84.678,59.639 91.839,59.639L102.817,59.639C106.586,59.639 109.653,56.783 109.653,53.272C109.653,50.069 107.08,47.355 103.669,46.96C103.283,46.915 102.996,46.584 103.004,46.197C103.014,45.81 103.317,45.493 103.704,45.467C104.243,45.43 104.785,45.405 105.333,45.405L113.164,45.405C125.415,45.405 135.38,54.775 135.38,66.293C135.38,77.81 125.415,87.181 113.164,87.181Z" style="fill-rule:nonzero;"/>
        </g>
        <g transform="matrix(4.16667,0,0,4.16667,0,0)">
            <path d="M133.765,112.812L82.216,112.812C72.277,112.812 64.22,104.755 64.22,94.817C64.22,84.879 72.277,76.822 82.216,76.822L133.765,76.822C143.703,76.822 151.76,84.879 151.76,94.817C151.76,104.755 143.703,112.812 133.765,112.812Z" style="fill:rgb(173,79,68);fill-rule:nonzero;"/>
        </g>
        <g transform="matrix(4.16667,0,0,4.16667,0,0)">
            <path d="M82.216,77.572C72.707,77.572 64.971,85.308 64.971,94.817C64.971,104.326 72.707,112.062 82.216,112.062L133.765,112.062C143.274,112.062 151.01,104.326 151.01,94.817C151.01,85.308 143.274,77.572 133.765,77.572L82.216,77.572ZM133.765,113.562L82.216,113.562C71.88,113.562 63.471,105.153 63.471,94.817C63.471,84.481 71.88,76.072 82.216,76.072L133.765,76.072C144.101,76.072 152.51,84.481 152.51,94.817C152.51,105.153 144.101,113.562 133.765,113.562Z" style="fill-rule:nonzero;"/>
        </g>
        <g transform="matrix(4.16667,0,0,4.16667,0,0)">
            <path d="M144.425,145.373L71.696,145.373C60.579,145.373 51.566,136.361 51.566,125.243C51.566,114.126 60.579,105.113 71.696,105.113L144.425,105.113C155.542,105.113 164.555,114.126 164.555,125.243C164.555,136.361 155.542,145.373 144.425,145.373Z" style="fill:rgb(173,79,68);fill-rule:nonzero;"/>
        </g>
        <g transform="matrix(4.16667,0,0,4.16667,0,0)">
            <path d="M71.696,105.863C61.01,105.863 52.316,114.557 52.316,125.243C52.316,135.93 61.01,144.623 71.696,144.623L144.424,144.623C155.111,144.623 163.805,135.93 163.805,125.243C163.805,114.557 155.111,105.863 144.424,105.863L71.696,105.863ZM144.424,146.124L71.696,146.124C60.183,146.124 50.815,136.757 50.815,125.243C50.815,113.73 60.183,104.363 71.696,104.363L144.424,104.363C155.938,104.363 165.305,113.73 165.305,125.243C165.305,136.757 155.938,146.124 144.424,146.124Z" style="fill-rule:nonzero;"/>
        </g>
        <g transform="matrix(4.16667,0,0,4.16667,0,0)">
            <rect x="76.418" y="101.779" width="64.764" height="7.012" style="fill:rgb(173,79,68);fill-rule:nonzero;"/>
        </g>
        <g transform="matrix(4.16667,0,0,4.16667,0,0)">
            <g transform="matrix(0.999396,0,0,1,0.075586,0)">
                <rect x="86.635" y="72.438" width="38.597" height="5.754" style="fill:rgb(173,79,68);fill-rule:nonzero;"/>
            </g>
        </g>
        <g transform="matrix(4.16667,0,0,4.16667,0,0)">
            <path d="M144.424,144.623L71.696,144.623C61.01,144.623 52.316,135.93 52.316,125.243C52.316,123.335 53.576,110.992 65.632,106.885C56.164,121.027 63.258,132.98 71.928,132.98L144.193,132.98C152.862,132.98 160.236,127.461 163.012,119.748C163.528,121.491 163.805,123.335 163.805,125.243C163.805,135.93 155.111,144.623 144.424,144.623Z" style="fill:rgb(165,71,61);fill-rule:nonzero;"/>
        </g>
        <g transform="matrix(4.16667,0,0,4.16667,0,0)">
            <path d="M144.193,145.206L71.928,145.206C60.881,145.206 51.926,136.251 51.926,125.204C51.926,123.071 52.267,121.019 52.885,119.091C52.956,119.312 53.031,119.531 53.109,119.748C52.593,121.491 52.316,123.335 52.316,125.243C52.316,135.93 61.01,144.623 71.696,144.623L144.424,144.623C155.111,144.623 163.805,135.93 163.805,125.243C163.805,123.335 163.528,121.491 163.012,119.748C163.09,119.531 163.164,119.312 163.235,119.091C163.854,121.019 164.195,123.071 164.195,125.204C164.195,136.251 155.24,145.206 144.193,145.206Z" style="fill-rule:nonzero;"/>
        </g>
        <g transform="matrix(4.16667,0,0,4.16667,0,0)">
            <path d="M109.849,60.389L106.368,60.389C109.194,59.128 111.153,56.412 111.153,53.272C111.153,50.677 109.805,48.343 107.706,46.905L113.23,46.905C115.722,48.07 117.435,50.482 117.435,53.272C117.435,57.203 114.039,60.389 109.849,60.389Z" style="fill:rgb(165,71,61);fill-rule:nonzero;"/>
        </g>
        <g transform="matrix(4.16667,0,0,4.16667,0,0)">
            <path d="M106.368,60.389L102.817,60.389C107.006,60.389 110.403,57.203 110.403,53.272C110.403,49.64 107.501,46.649 103.755,46.215C104.277,46.179 104.802,46.155 105.334,46.155L112.366,46.155C111.834,46.155 111.309,46.179 110.787,46.215C111.655,46.316 112.478,46.554 113.23,46.905L107.706,46.905C109.805,48.343 111.153,50.677 111.153,53.272C111.153,56.412 109.194,59.128 106.368,60.389Z" style="fill-rule:nonzero;"/>
        </g>
        <g transform="matrix(4.16667,0,0,4.16667,0,0)">
            <path d="M81.281,76.095C80.684,74.797 80.353,73.368 80.353,71.868C80.353,65.952 85.505,61.139 91.839,61.139L94.512,61.139C89.906,62.787 86.635,66.969 86.635,71.868C86.635,72.059 86.64,72.249 86.651,72.438L86.635,72.438L86.635,76.072L82.216,76.072C81.902,76.072 81.591,76.079 81.281,76.095Z" style="fill:rgb(165,71,61);fill-rule:nonzero;"/>
        </g>
        <g transform="matrix(4.16667,0,0,4.16667,0,0)">
            <g transform="matrix(1.75187,0,0,1.82724,-74.8166,-34.4954)">
                <path d="M81.567,76.138C80.625,74.892 79.978,73.101 79.829,71.608C79.381,67.123 82.903,61.723 88.925,61.362L92.167,61.342C87.561,62.99 85.92,66.574 85.695,69.083C85.416,72.195 86.33,76.007 86.33,76.007L83.553,75.986C83.239,75.986 81.877,76.122 81.567,76.138Z" style="fill:rgb(165,71,61);fill-rule:nonzero;"/>
            </g>
        </g>
    </g>
</svg>
