<?xml version="1.0" encoding="UTF-8" standalone="no"?>
<!DOCTYPE svg PUBLIC "-//W3C//DTD SVG 1.1//EN" "http://www.w3.org/Graphics/SVG/1.1/DTD/svg11.dtd">
<svg width="100%" height="100%" viewBox="0 0 882 763" version="1.1" xmlns="http://www.w3.org/2000/svg" xmlns:xlink="http://www.w3.org/1999/xlink" xml:space="preserve" xmlns:serif="http://www.serif.com/" style="fill-rule:evenodd;clip-rule:evenodd;stroke-linejoin:round;stroke-miterlimit:2;">
    <g transform="matrix(1,0,0,1,-632.347,-447.788)">
        <g id="Shirt">
            <g transform="matrix(1,0,0,0.912009,-108.404,-167.248)">
                <path d="M1047.16,1464.86C1047.07,1464.86 1046.98,1464.86 1046.89,1464.86C1024.53,1464.86 1003.16,1460.08 983.543,1451.39C995.481,1390.98 1029.15,1343.09 1078.51,1318.48C1077.33,1319.11 1078.51,1318.48 1078.51,1318.48C1073.29,1342.88 1056.58,1402.03 1047.16,1464.86Z" style="fill:rgb(122,203,255);"/>
            </g>
            <g transform="matrix(1,0,0,0.912009,-108.404,-167.248)">
                <path d="M1077.97,1318.75C1078.15,1318.66 1078.33,1318.57 1078.51,1318.48C1073.29,1342.88 1056.58,1402.03 1047.16,1464.86C1047.07,1464.86 1046.98,1464.86 1046.89,1464.86C1031.24,1464.86 1016.07,1462.52 1001.65,1458.13C1018.23,1460.08 1035.11,1458.59 1039.43,1455.71C1044.66,1452.24 1064.64,1344.82 1077.97,1318.75Z" style="fill:rgb(88,184,246);"/>
            </g>
            <g transform="matrix(1,0,0,0.912009,102.156,-167.851)">
                <path d="M1046.53,1464.86C1038.36,1418.25 1010.87,1317.2 1010.88,1317.18C1063.39,1340.46 1097.22,1388.71 1109.79,1451.59C1090.3,1460.15 1069.08,1464.86 1046.89,1464.86C1046.77,1464.86 1046.65,1464.86 1046.53,1464.86Z" style="fill:rgb(122,203,255);"/>
            </g>
            <g transform="matrix(1,0,0,0.912009,102.156,-167.851)">
                <path d="M1011.45,1319.31C1011.08,1317.92 1010.88,1317.18 1010.88,1317.18C1063.39,1340.46 1097.22,1388.71 1109.79,1451.59C1090.3,1460.15 1069.08,1464.86 1046.89,1464.86C1046.77,1464.86 1046.65,1464.86 1046.53,1464.86C1046.4,1464.11 1046.27,1463.35 1046.12,1462.57C1064.56,1460.04 1083.75,1452.95 1099.39,1446.08C1099.23,1420.53 1060.67,1346.21 1011.45,1319.31Z" style="fill:rgb(88,184,246);"/>
            </g>
            <g transform="matrix(1,0,0,1,13.9503,-7.1882)">
                <path d="M1134.83,1175.79C1111.65,1200.73 1073.06,1217.07 1029.39,1217.07C986.191,1217.07 947.946,1201.07 924.693,1176.57C934.117,1119 948.483,1067.71 956.156,1042.41C976.929,1031.58 1002.18,1025.23 1029.39,1025.23C1055.08,1025.23 1079.02,1030.89 1099.09,1040.62C1114.45,1079.54 1126.65,1133.2 1134.83,1175.79Z" style="fill:rgb(100,49,194);"/>
            </g>
            <g transform="matrix(1,0,0,1,13.9503,-7.1882)">
                <path d="M1075.48,1031.61C1083.8,1034.01 1091.7,1037.04 1099.09,1040.62C1101.82,1047.53 1104.44,1054.9 1106.97,1062.6C1113.69,1083.1 1119.67,1105.87 1124.82,1128.19C1128.62,1144.67 1131.97,1160.91 1134.83,1175.79C1134.62,1176.01 1134.42,1176.23 1134.21,1176.45C1124.77,1186.43 1112.84,1195.01 1099.11,1201.67C1100.75,1194.22 1102.03,1185.98 1102.89,1176.85C1106.92,1133.89 1091.44,1091.31 1075.21,1083.84C1058.97,1076.38 1032.39,1078.72 1032.39,1078.72C1032.39,1078.72 1053.24,1074.76 1064.14,1059.98C1071.98,1049.35 1073.42,1033.28 1073.24,1030.99C1073.99,1031.19 1074.73,1031.4 1075.48,1031.61Z" style="fill:rgb(100,0,194);"/>
            </g>
            <g transform="matrix(1,0,0,0.842816,11.0018,154.269)">
                <path d="M1077.18,1032.02C1077.22,1032.95 1077.25,1033.89 1077.25,1034.84C1077.25,1064.52 1056.3,1088.61 1030.5,1088.61C1004.7,1088.61 983.754,1064.52 983.754,1034.84C983.754,1034.33 983.76,1033.82 983.772,1033.32C998.757,1027.87 1015.16,1024.87 1032.34,1024.87C1048.11,1024.87 1063.22,1027.39 1077.18,1032.02Z" style="fill:rgb(122,203,255);"/>
            </g>
            <g transform="matrix(1,0,0,0.842816,11.0018,154.269)">
                <path d="M1069.45,1029.71C1072.06,1030.41 1074.64,1031.18 1077.18,1032.02C1077.22,1032.95 1077.25,1033.89 1077.25,1034.84C1077.25,1064.52 1056.3,1088.61 1030.5,1088.61C1013.87,1088.61 999.254,1078.6 990.967,1063.53C1000.69,1072.94 1014.62,1081.81 1028.65,1081.81C1054.13,1081.81 1073.64,1057.52 1069.45,1029.71Z" style="fill:rgb(88,184,246);"/>
            </g>
        </g>
        <g transform="matrix(-0.988866,0.15572,0.157027,0.997162,1969.38,-185.788)">
            <path d="M1277.66,572.612C1277.66,572.612 1306.02,547.793 1336.46,549.135C1366.89,550.476 1407.49,565.246 1425.63,591.724C1443.77,618.201 1453.73,650.631 1453.43,709.344C1453.14,768.056 1445.15,798.494 1447.63,854.208C1450.12,909.922 1454.23,963.547 1466.71,988.462C1483.71,1022.42 1515.83,1031.14 1515.83,1031.14C1515.83,1031.14 1486.27,1036.6 1452.48,1021.97C1435.01,1014.41 1405.31,983.11 1405.31,983.11C1405.31,983.11 1415.48,999.925 1428.14,1014.27C1445.73,1034.21 1457.58,1034.55 1457.58,1034.55C1457.58,1034.55 1408.31,1039.3 1372.67,1001.31C1343.94,970.685 1335.49,945.339 1328.38,919.907C1321.11,893.916 1304.85,841.242 1296.38,766.783C1287.9,692.325 1256.48,627.836 1256.48,627.836L1277.66,572.612Z" style="fill:rgb(144,73,45);"/>
        </g>
        <path d="M813.005,694.504C809.263,719.159 806.47,749.379 807.842,780.692C811.152,856.259 803.349,911.314 800.241,938.364C797.2,964.832 792.913,991.484 769.23,1026.43C757.933,1043.1 743.099,1052.93 743.099,1052.93C743.099,1052.93 768.492,1018.89 771.176,935.778C772.394,898.061 755.371,821.979 755.333,804.706C755.295,787.433 752.481,746.113 770.499,713.859C783.711,690.207 803.428,691.912 813.005,694.504Z" style="fill:rgb(90,46,21);"/>
        <path d="M1277.66,572.612C1277.66,572.612 1306.02,547.793 1336.46,549.135C1366.89,550.476 1407.49,565.246 1425.63,591.724C1443.77,618.201 1453.73,650.631 1453.43,709.344C1453.14,768.056 1445.15,798.494 1447.63,854.208C1450.12,909.922 1447.03,961.068 1464.46,994.812C1481.89,1028.56 1513.88,1037.27 1513.88,1037.27C1513.88,1037.27 1466.04,1045.98 1426.75,1010.03C1387.47,974.081 1385.83,956.055 1385.83,956.055C1385.83,956.055 1386.87,986.386 1416,1017.63C1434.13,1037.08 1443.26,1037.29 1443.26,1037.29C1443.26,1037.29 1410.91,1031.93 1374.32,994.835C1334.15,954.11 1338.05,951.61 1332.65,932.279C1327.25,912.948 1304.85,841.242 1296.38,766.783C1287.9,692.325 1256.48,627.836 1256.48,627.836L1277.66,572.612Z" style="fill:rgb(144,73,45);"/>
        <path d="M1451.49,1039.38C1439.37,1039.43 1401.21,1036.5 1370.28,1000.51C1333,957.134 1324.99,932.362 1319.59,913.031C1314.19,893.7 1304.85,841.242 1296.38,766.783C1292.95,736.682 1285.78,708.211 1278.44,684.971L1299.83,682.938C1299.83,682.938 1319.84,678.784 1336.19,719.27C1352.54,759.756 1351.91,793.46 1352.22,802.411C1352.54,811.362 1343.19,879.074 1343.98,890.268C1347.79,944.694 1377.17,986.982 1377.17,986.982C1377.17,986.982 1377.68,921.996 1381.93,921.935C1386.19,921.875 1389.11,951.587 1413.93,980.837C1441.01,1012.75 1458.09,1017.38 1458.09,1017.38C1458.09,1017.38 1424.35,946.47 1427.66,868.004C1429.19,831.829 1432.87,771.52 1440.03,732.921C1447.19,694.322 1438.72,650.385 1436.25,635.219C1434.99,627.519 1430.24,608.105 1422.59,587.644C1423.66,588.972 1424.68,590.331 1425.63,591.724C1443.77,618.201 1453.73,650.631 1453.43,709.344C1453.14,768.056 1445.15,798.494 1447.63,854.208C1450.12,909.922 1447.03,961.068 1464.46,994.812C1481.89,1028.56 1513.88,1037.27 1513.88,1037.27C1513.88,1037.27 1466.04,1045.98 1426.75,1010.03C1396.04,981.92 1388.33,964.769 1386.43,958.626C1388.55,966.653 1396.92,992.183 1422.54,1016.62C1439.19,1032.51 1447.43,1037.84 1451.49,1039.38Z" style="fill:rgb(102,46,21);"/>
        <g id="Hals" transform="matrix(1,0,0,1,-1.42585,2.19374)">
            <path d="M1012.06,1036.89C1010.05,1034 1012.06,1005.43 1012.06,1005.43L1074.17,1005.43C1074.17,1005.43 1075.3,1033.7 1073.2,1037.81C1068.19,1047.63 1056.52,1055.23 1043.22,1055.23C1029.76,1055.23 1017.64,1044.93 1012.06,1036.89Z" style="fill:rgb(248,175,124);"/>
        </g>
        <g id="ohr_links">
            <g transform="matrix(1.43941,0,0,1.22714,-628.829,-257.294)">
                <path d="M1318.71,847.945C1351.45,845.684 1366.39,868.193 1367.05,900.624C1367.67,931.088 1343.87,958.371 1318.71,958.371C1293.55,958.371 1273.12,933.631 1273.12,903.158C1273.12,872.685 1293.59,849.68 1318.71,847.945Z" style="fill:rgb(251,173,124);"/>
            </g>
            <path d="M1243.35,901.74C1243.35,901.74 1251.57,872.952 1254.92,852.72C1258.26,832.487 1260.13,814.92 1260.13,814.92C1260.13,814.92 1272.23,808.196 1285.65,809.681C1299.08,811.166 1307.87,816.763 1312.61,833.641C1317.35,850.519 1313.99,867.16 1309.18,872.381C1305.35,876.53 1310.44,864.878 1307.04,847.935C1303.03,828.002 1294.1,825.335 1294.1,825.335C1294.1,825.335 1277.56,850.756 1271.14,860.644C1264.72,870.532 1243.35,901.74 1243.35,901.74Z" style="fill:rgb(234,88,65);"/>
        </g>
        <g id="ohr_rechts">
            <g transform="matrix(1,0,0,1,-13.9966,-12.5598)">
                <path d="M801.976,801.685C868.153,797.278 882.822,848.295 882.822,876.523C882.822,904.75 893.218,921.902 844.541,928.22C808.088,932.951 765.219,901.587 764.421,855.076C763.936,826.853 776.425,803.386 801.976,801.685Z" style="fill:rgb(251,173,124);"/>
            </g>
            <path d="M808.182,817.667C808.182,817.667 784.908,827.539 790.152,862.988C794.376,891.54 830.104,915.976 839.254,914.709C852.62,912.86 850.621,907.104 854.283,908.063C857.945,909.022 846.642,863.435 846.642,863.435L808.182,817.667Z" style="fill:rgb(254,154,118);"/>
            <path d="M833.196,887.905C833.196,887.905 826.502,868.901 825.363,855.869C824.225,842.837 823.618,834.299 821,829.08C817.645,822.39 813.586,814.655 806.111,812.935C796.777,810.788 781.538,825.917 780.27,828.194C779.002,830.472 790.304,821.659 795.64,820.373C802.694,818.674 804.755,820.264 804.755,820.264C804.755,820.264 805.486,846.728 809.352,860.49C816.831,887.108 833.196,887.905 833.196,887.905Z" style="fill:rgb(232,89,62);"/>
        </g>
        <g id="kopf">
            <g transform="matrix(1.04153,0,0,1.39424,-240.554,-539.374)">
                <path d="M1232.1,766.09C1347.2,766.09 1438.96,853.151 1439.46,946.821C1440.02,1052.21 1392.92,1114.36 1233.84,1114.39C1060.2,1114.43 1019.39,1038.94 1020.25,955.245C1021.22,861.577 1117,766.09 1232.1,766.09Z" style="fill:rgb(243,176,120);"/>
            </g>
            <path d="M833.8,870.806C833.8,870.806 843.511,934.786 904.542,970.917C965.572,1007.05 1030.74,1003.91 1054.62,1002.97C1078.5,1002.03 1168.35,992.951 1211.77,931.492C1238.33,893.895 1251.45,845.008 1253.26,815.4C1255.07,785.903 1242.36,728.576 1225.1,683.756C1215.15,657.923 1180.62,604.075 1180.62,604.075C1180.62,604.075 1147.84,641.8 1096.02,658.527C1044.19,675.253 955.13,663.159 918.455,648.397C916.722,647.7 946.792,625.466 946.792,625.466C946.792,625.466 875.817,647.035 850.742,713.303C817.003,802.467 833.8,870.806 833.8,870.806Z" style="fill:rgb(252,203,162);"/>
        </g>
        <g id="nase">
            <g transform="matrix(0.889782,0,0,0.866134,110.562,103.077)">
                <ellipse cx="1039.36" cy="876.453" rx="25.14" ry="22.857" style="fill:rgb(252,203,162);"/>
            </g>
            <g transform="matrix(0.889782,0,0,0.866134,110.562,103.077)">
                <path d="M1064.03,880.908C1061.74,891.393 1051.56,899.31 1039.36,899.31C1025.49,899.31 1014.22,889.068 1014.22,876.453C1014.22,863.838 1025.49,853.596 1039.36,853.596C1046.43,853.596 1052.81,856.249 1057.38,860.518C1054.04,859.137 1050.1,858.339 1045.88,858.339C1033.84,858.339 1024.07,864.841 1024.07,872.85C1024.07,880.86 1033.84,887.362 1045.88,887.362C1053.44,887.362 1060.11,884.798 1064.03,880.908Z" style="fill:rgb(252,156,121);"/>
            </g>
            <g transform="matrix(0.889782,0,0,0.866134,110.562,103.077)">
                <path d="M1048.51,897.748C1045.67,898.756 1042.59,899.31 1039.36,899.31C1025.49,899.31 1014.22,889.068 1014.22,876.453C1014.22,872.8 1015.17,869.345 1016.85,866.281C1016.63,867.65 1016.52,869.051 1016.52,870.478C1016.52,885.667 1029.14,897.999 1044.69,897.999C1045.99,897.999 1047.26,897.913 1048.51,897.748Z" style="fill:rgb(218,96,68);"/>
            </g>
        </g>
        <g transform="matrix(1.07399,0,0,1.13463,-57.3665,-107.552)">
            <path d="M881.312,825.541C876.928,817.755 874.327,808.655 874.327,798.85C874.327,769.291 900.791,743.508 925.696,743.508C941.523,743.508 952.989,753.784 959.244,768.862C952.625,757.116 942.23,749.496 928.6,749.496C903.696,749.496 877.232,775.279 877.232,804.838C877.232,812.226 878.708,819.214 881.312,825.541Z" style="fill:rgb(250,154,117);"/>
        </g>
        <g transform="matrix(1.27659,0,0,1.04473,-357.426,-28.3506)">
            <path d="M1142.09,769.55C1146.82,748.336 1157.45,731.816 1175.17,731.577C1196.37,731.29 1223.96,765.785 1223.96,798.587C1223.96,831.389 1204.45,851.721 1179.3,851.721C1175.17,851.721 1171.32,851.154 1167.76,850.06C1170.7,850.599 1173.84,850.865 1177.18,850.865C1202.33,850.865 1219.33,833.681 1219.33,800.879C1219.33,768.077 1195.09,736.383 1173.89,736.669C1157.62,736.889 1147.33,750.842 1142.09,769.55Z" style="fill:rgb(250,154,117);"/>
        </g>
        <g id="auge_links">
            <g transform="matrix(1,0,0,1,-49.1206,-51.7731)">
                <path d="M980.656,805.246C1008.47,805.246 1030.12,826.073 1030.69,858.787C1031.19,887.271 1008.11,910.405 980.3,910.405C952.488,910.405 929.908,887.276 929.908,858.787C929.908,830.298 952.844,805.246 980.656,805.246Z"/>
            </g>
            <g transform="matrix(-0.998196,-0.0600373,-0.0600373,0.998196,2123.44,76.7232)">
                <path d="M1175,760.162C1175,760.162 1177.22,761.151 1179.95,760.526C1182.69,759.902 1186.54,759.058 1186.54,759.058C1186.54,759.058 1185.45,762.427 1182.19,763.489C1178.93,764.552 1175,760.162 1175,760.162Z"/>
            </g>
            <g transform="matrix(-1,0,0,1,2077.32,7.5322)">
                <path d="M1175,760.162C1175,760.162 1177.22,761.151 1179.95,760.526C1182.69,759.902 1186.54,759.058 1186.54,759.058C1186.54,759.058 1186.06,762.952 1182.8,764.014C1179.54,765.077 1175,760.162 1175,760.162Z"/>
            </g>
            <g transform="matrix(-0.982597,0.18575,0.18575,0.982597,1912.65,-194.378)">
                <path d="M1175,760.162C1175,760.162 1177.22,761.151 1179.95,760.526C1182.69,759.902 1186.54,759.058 1186.54,759.058C1186.54,759.058 1185.75,762.099 1182.49,763.162C1179.23,764.224 1175,760.162 1175,760.162Z"/>
            </g>
            <g transform="matrix(1,0,0,1,-47.0493,-49.1543)">
                <path d="M980.656,805.246C1008.47,805.246 1030.12,826.073 1030.69,858.787C1031.19,887.271 1008.11,910.405 980.3,910.405C952.488,910.405 929.908,887.276 929.908,858.787C929.908,830.298 952.844,805.246 980.656,805.246Z" style="fill:rgb(250,251,252);"/>
            </g>
            <g transform="matrix(1.21321,0,0,1.27188,-228.386,-254.181)">
                <ellipse cx="959.445" cy="839.302" rx="26.081" ry="27.098" style="fill:rgb(42,37,43);"/>
            </g>
            <g transform="matrix(1.04927,0,0,1.08057,-55.4582,-75.1484)">
                <ellipse cx="932.481" cy="810.426" rx="11.54" ry="11.723" style="fill:rgb(248,252,253);"/>
            </g>
        </g>
        <g id="auge_rechts">
            <g transform="matrix(1.09944,0,0,1.1658,-125.971,-165.124)">
                <ellipse cx="1159.6" cy="831.805" rx="47.251" ry="46.306"/>
            </g>
            <g transform="matrix(0.998196,-0.0600373,0.0600373,0.998196,-37.4762,76.707)">
                <path d="M1175,760.162C1175,760.162 1177.22,761.151 1179.95,760.526C1182.69,759.902 1186.54,759.058 1186.54,759.058C1186.54,759.058 1185.45,762.427 1182.19,763.489C1178.93,764.552 1175,760.162 1175,760.162Z"/>
            </g>
            <g transform="matrix(1,0,0,1,8.64377,7.51594)">
                <path d="M1175,760.162C1175,760.162 1177.22,761.151 1179.95,760.526C1182.69,759.902 1186.54,759.058 1186.54,759.058C1186.54,759.058 1186.06,762.952 1182.8,764.014C1179.54,765.077 1175,760.162 1175,760.162Z"/>
            </g>
            <g transform="matrix(0.982597,0.18575,-0.18575,0.982597,173.313,-194.394)">
                <path d="M1175,760.162C1175,760.162 1177.22,761.151 1179.95,760.526C1182.69,759.902 1186.54,759.058 1186.54,759.058C1186.54,759.058 1185.75,762.099 1182.49,763.162C1179.23,764.224 1175,760.162 1175,760.162Z"/>
            </g>
            <g transform="matrix(1.09944,0,0,1.1658,-127.407,-161.944)">
                <ellipse cx="1159.6" cy="831.805" rx="47.251" ry="46.306" style="fill:rgb(248,252,253);"/>
            </g>
            <g transform="matrix(1.11374,0,0,1.04303,-127.748,-66.279)">
                <ellipse cx="1144.85" cy="843.693" rx="28.654" ry="32.676" style="fill:rgb(42,37,43);"/>
            </g>
            <g transform="matrix(1.06357,0,0,1,-73.3285,-1.00437)">
                <ellipse cx="1148.69" cy="801.226" rx="10.377" ry="11.545" style="fill:rgb(250,251,253);"/>
            </g>
        </g>
        <g id="mund">
            <path d="M978.302,903.741C978.302,903.741 981.941,922.309 998.602,936.935C1015.26,951.562 1042.19,949.47 1050.69,948.389C1058.98,947.334 1091.12,939.206 1096.36,915.593C1101.6,891.981 1028.39,931.756 1028.39,931.756L978.302,903.741Z" style="fill:rgb(252,170,112);"/>
            <path d="M984.48,906.025C984.48,906.025 1010.9,916.931 1045.04,911.922C1081.02,906.644 1103.6,891.432 1103.48,891.676C1103.36,891.92 1100.48,937.707 1046.83,944.139C1007.07,948.907 984.48,906.025 984.48,906.025Z" style="fill:rgb(195,49,42);"/>
            <g transform="matrix(1,0,0,1.19529,0.295577,-193.865)">
                <path d="M999.803,937.107L999.803,923.917C1010.77,925.831 1026.68,927.341 1044.74,925.124C1066.35,922.472 1083.13,916.822 1093.06,912.776L1094.11,929.291C1086.47,939.233 1072.4,949.483 1046.54,952.077C1026.25,954.113 1010.43,945.768 999.803,937.107Z" style="fill:rgb(248,251,254);"/>
            </g>
        </g>
        <path d="M802.809,587.404L794.845,585.072C794.845,585.072 781.094,592.374 774.36,620.488C768.663,644.27 772.62,654.794 773.43,657.015C774.239,659.236 776.086,660.816 783.578,665.431C791.071,670.046 812.488,613.317 812.488,613.317L802.809,587.404Z" style="fill:rgb(194,7,6);"/>
        <path d="M813.515,588.935C813.515,588.935 798.034,583.962 794.57,585.153C791.604,586.172 780.884,592.324 774.36,620.488C770.196,638.463 775.312,641.613 777.498,642.512C783.992,645.184 788.781,644.328 796.274,648.943C803.766,653.559 812.488,613.317 812.488,613.317L813.515,588.935Z" style="fill:rgb(254,27,28);"/>
        <path d="M1269.52,574.55C1269.52,574.55 1275.81,570.377 1282.27,574.162C1288.73,577.947 1297.92,586.354 1304.61,605.933C1311.68,626.627 1311.63,637.063 1310.53,642.657C1309.42,648.251 1299.91,654.103 1296.91,655.3C1293.9,656.498 1266.48,646.523 1266.48,646.523L1269.52,574.55Z" style="fill:rgb(194,7,6);"/>
        <path d="M1269.52,574.55C1269.52,574.55 1275.81,570.377 1282.27,574.162C1288.73,577.947 1297.14,585.339 1303.75,604.946C1306.17,612.151 1309.1,619.359 1308,624.953C1306.89,630.547 1294.1,635.314 1291.1,636.512C1288.09,637.71 1266.48,646.523 1266.48,646.523L1269.52,574.55Z" style="fill:rgb(254,27,28);"/>
        <g id="haare">
            <path d="M911.208,478.997C941.813,465.613 1042.91,431.735 1109.86,456.758C1155.4,473.777 1209.5,495.02 1222.73,519.884C1227.28,512.876 1267.16,550.198 1246.52,561.751C1272.59,567.581 1286.56,607.129 1296.53,654.939C1312.15,729.824 1256.92,831.754 1256.92,831.754C1256.92,831.754 1259.06,677.614 1181.99,598.366C1164.68,615.173 1132.87,640.121 1086.22,653.811C1020.95,672.964 924.774,646.037 924.774,646.037C924.774,646.037 941.59,628.369 960.291,611.623C937.27,620.387 911.37,633.718 884.378,656.277C817.041,712.556 826.149,831.162 826.149,831.162C826.149,831.162 806.657,786.88 794.621,742.606C776.733,676.81 775.065,621.394 804.724,574.968C833.979,529.177 875.753,494.502 911.208,478.997Z" style="fill:rgb(144,73,45);"/>
            <path d="M1208.67,565.065C1208.64,565.064 1208.62,565.061 1208.6,565.056C1208.5,565.031 1208.52,565.034 1208.67,565.065ZM788.704,608.983C794.261,623.04 797.379,652.829 799.16,674.544C802.252,712.224 813.38,755.145 819.19,720.493C821.512,706.646 863.995,647.79 895.325,628.301C919.291,613.392 958.787,598.157 988.8,583.566C1033.61,561.782 1082.11,541.719 1089.71,543.469C1091.24,543.821 1053.22,558.593 1022.31,582.925C1022.14,583.058 977.564,620.659 977.564,620.659C977.564,620.659 1015.29,631.318 1072,623.127C1128,615.037 1186.34,569.028 1210.51,537.947C1217.7,528.693 1203.96,570.701 1194.89,583.484C1192.23,587.234 1228.37,635.26 1234.04,643.265C1241.27,653.457 1269.49,734.668 1274.94,729.379C1280.39,724.09 1279.43,652.33 1266.73,611.529C1255.5,575.469 1221.26,522.53 1222.08,520.908C1228.07,509.017 1258.58,553.14 1267.18,570.564C1278.82,594.141 1287.22,610.584 1296.61,658.512C1312.21,738.176 1256.92,831.754 1256.92,831.754C1256.92,831.754 1259.06,677.614 1181.99,598.366C1164.68,615.173 1132.87,640.121 1086.22,653.811C1020.95,672.964 924.774,646.037 924.774,646.037C924.774,646.037 941.59,628.369 960.291,611.623C937.27,620.387 911.37,633.718 884.378,656.277C817.041,712.556 826.149,831.162 826.149,831.162C826.149,831.162 808.232,792.269 792.149,742.843C777.707,698.462 777.357,647.644 788.704,608.983Z" style="fill:rgb(102,46,21);"/>
        </g>
        <g id="augenbrauen">
            <path d="M940.142,689.917C940.142,689.917 920.062,687.18 899.007,707.056C892.208,713.474 883.388,729.204 881.696,732.664C880.004,736.124 879.546,743.543 887.479,737.931C895.412,732.318 909.461,724.297 918.641,721.769C927.822,719.241 944.562,715.225 954.25,715.917C963.939,716.609 967.274,709.28 966.698,704.525C965.183,692.006 940.142,689.917 940.142,689.917Z" style="fill:rgb(100,49,24);"/>
            <g transform="matrix(0.719374,0,0,0.585729,260.607,289.571)">
                <path d="M940.142,689.917C940.142,689.917 922.24,688.139 901.185,708.015C894.386,714.433 883.53,731.186 881.838,734.645C880.147,738.105 874.248,748.594 887.479,737.931C895.133,731.762 909.606,724.887 918.596,721.479C927.875,717.962 942.266,714.964 951.939,713.987C962.113,712.959 968.422,708.885 967.755,704.148C965.811,690.331 940.142,689.917 940.142,689.917Z" style="fill:rgb(146,72,46);"/>
            </g>
            <g transform="matrix(-1,0,0,1,2083.97,-1.42017)">
                <path d="M938.94,691.187C938.94,691.187 921.374,689.513 900.318,709.39C893.52,715.807 887.312,732.335 885.621,735.795C883.929,739.254 885.427,743.107 893.36,737.495C901.293,731.882 910.049,727.01 918.651,723.054C927.302,719.076 943.265,717.373 954.84,717.468C964.553,717.547 967.105,709.013 966.698,704.525C965.732,693.853 938.94,691.187 938.94,691.187Z" style="fill:rgb(100,49,24);"/>
            </g>
            <g transform="matrix(-0.769096,0,0,0.61738,1867.72,266.411)">
                <path d="M942.683,692.259C942.683,692.259 922.608,689.877 905.922,706.639C899.282,713.309 892.231,727.858 890.54,731.318C888.848,734.777 882.775,746.023 893.36,737.495C901.021,731.323 908.448,725.969 917.05,722.013C925.701,718.035 933.866,713.328 951.163,712.806C960.874,712.512 964.441,711.435 964.097,706.939C963.158,694.645 942.683,692.259 942.683,692.259Z" style="fill:rgb(142,73,45);"/>
            </g>
        </g>
    </g>
</svg>
