<?xml version="1.0" encoding="UTF-8" standalone="no"?>
<!DOCTYPE svg PUBLIC "-//W3C//DTD SVG 1.1//EN" "http://www.w3.org/Graphics/SVG/1.1/DTD/svg11.dtd">
<svg width="100%" height="100%" viewBox="0 0 589 820" version="1.1" xmlns="http://www.w3.org/2000/svg" xmlns:xlink="http://www.w3.org/1999/xlink" xml:space="preserve" xmlns:serif="http://www.serif.com/" style="fill-rule:evenodd;clip-rule:evenodd;stroke-linejoin:round;stroke-miterlimit:2;">
    <g transform="matrix(1,0,0,1,-750.41,-390.089)">
        <g transform="matrix(1,0,0,0.912009,-108.404,-167.248)">
            <path d="M1047.16,1464.86C1047.07,1464.86 1046.98,1464.86 1046.89,1464.86C1024.53,1464.86 1003.16,1460.08 983.543,1451.39C995.481,1390.98 1029.15,1343.09 1078.51,1318.48C1077.33,1319.11 1078.51,1318.48 1078.51,1318.48C1073.29,1342.88 1056.58,1402.03 1047.16,1464.86Z" style="fill:rgb(122,203,255);"/>
        </g>
        <g transform="matrix(1,0,0,0.912009,-108.404,-167.248)">
            <path d="M1077.97,1318.75C1078.15,1318.66 1078.33,1318.57 1078.51,1318.48C1073.29,1342.88 1056.58,1402.03 1047.16,1464.86C1047.07,1464.86 1046.98,1464.86 1046.89,1464.86C1031.24,1464.86 1016.07,1462.52 1001.65,1458.13C1018.23,1460.08 1035.11,1458.59 1039.43,1455.71C1044.66,1452.24 1064.64,1344.82 1077.97,1318.75Z" style="fill:rgb(88,184,246);"/>
        </g>
        <g transform="matrix(1,0,0,0.912009,102.156,-167.851)">
            <path d="M1046.53,1464.86C1038.36,1418.25 1010.87,1317.2 1010.88,1317.18C1063.39,1340.46 1097.22,1388.71 1109.79,1451.59C1090.3,1460.15 1069.08,1464.86 1046.89,1464.86C1046.77,1464.86 1046.65,1464.86 1046.53,1464.86Z" style="fill:rgb(122,203,255);"/>
        </g>
        <g transform="matrix(1,0,0,0.912009,102.156,-167.851)">
            <path d="M1011.45,1319.31C1011.08,1317.92 1010.88,1317.18 1010.88,1317.18C1063.39,1340.46 1097.22,1388.71 1109.79,1451.59C1090.3,1460.15 1069.08,1464.86 1046.89,1464.86C1046.77,1464.86 1046.65,1464.86 1046.53,1464.86C1046.4,1464.11 1046.27,1463.35 1046.12,1462.57C1064.56,1460.04 1083.75,1452.95 1099.39,1446.08C1099.23,1420.53 1060.67,1346.21 1011.45,1319.31Z" style="fill:rgb(88,184,246);"/>
        </g>
        <g transform="matrix(1,0,0,1,13.9503,-7.1882)">
            <path d="M1134.83,1175.79C1111.65,1200.73 1073.06,1217.07 1029.39,1217.07C986.191,1217.07 947.946,1201.07 924.693,1176.57C934.117,1119 948.483,1067.71 956.156,1042.41C976.929,1031.58 1002.18,1025.23 1029.39,1025.23C1055.08,1025.23 1079.02,1030.89 1099.09,1040.62C1114.45,1079.54 1126.65,1133.2 1134.83,1175.79Z" style="fill:rgb(255,215,0);"/>
        </g>
        <g transform="matrix(1,0,0,1,13.9503,-7.1882)">
            <path d="M1075.48,1031.61C1083.8,1034.01 1091.7,1037.04 1099.09,1040.62C1101.82,1047.53 1104.44,1054.9 1106.97,1062.6C1113.69,1083.1 1119.67,1105.87 1124.82,1128.19C1128.62,1144.67 1131.97,1160.91 1134.83,1175.79C1134.62,1176.01 1134.42,1176.23 1134.21,1176.45C1124.77,1186.43 1112.84,1195.01 1099.11,1201.67C1100.75,1194.22 1102.03,1185.98 1102.89,1176.85C1106.92,1133.89 1091.44,1091.31 1075.21,1083.84C1058.97,1076.38 1032.39,1078.72 1032.39,1078.72C1032.39,1078.72 1053.24,1074.76 1064.14,1059.98C1071.98,1049.35 1073.42,1033.28 1073.24,1030.99C1073.99,1031.19 1074.73,1031.4 1075.48,1031.61Z" style="fill:rgb(240,205,34);"/>
        </g>
        <g transform="matrix(1,0,0,0.842816,11.0018,154.269)">
            <path d="M1077.18,1032.02C1077.22,1032.95 1077.25,1033.89 1077.25,1034.84C1077.25,1064.52 1056.3,1088.61 1030.5,1088.61C1004.7,1088.61 983.754,1064.52 983.754,1034.84C983.754,1034.33 983.76,1033.82 983.772,1033.32C998.757,1027.87 1015.16,1024.87 1032.34,1024.87C1048.11,1024.87 1063.22,1027.39 1077.18,1032.02Z" style="fill:rgb(122,203,255);"/>
        </g>
        <g transform="matrix(1,0,0,0.842816,11.0018,154.269)">
            <path d="M1069.45,1029.71C1072.06,1030.41 1074.64,1031.18 1077.18,1032.02C1077.22,1032.95 1077.25,1033.89 1077.25,1034.84C1077.25,1064.52 1056.3,1088.61 1030.5,1088.61C1013.87,1088.61 999.254,1078.6 990.967,1063.53C1000.69,1072.94 1014.62,1081.81 1028.65,1081.81C1054.13,1081.81 1073.64,1057.52 1069.45,1029.71Z" style="fill:rgb(88,184,246);"/>
        </g>
        <g id="Hals" transform="matrix(1,0,0,1,-1.42585,2.19374)">
            <path d="M1012.06,1036.89C1010.05,1034 1012.06,1005.43 1012.06,1005.43L1074.17,1005.43C1074.17,1005.43 1075.3,1033.7 1073.2,1037.81C1068.19,1047.63 1056.52,1055.23 1043.22,1055.23C1029.76,1055.23 1017.64,1044.93 1012.06,1036.89Z" style="fill:rgb(248,175,124);"/>
        </g>
        <g id="ohr_links">
            <g transform="matrix(1.43941,0,0,1.22714,-628.829,-257.294)">
                <path d="M1318.71,847.945C1351.45,845.684 1366.39,868.193 1367.05,900.624C1367.67,931.088 1343.87,958.371 1318.71,958.371C1293.55,958.371 1273.12,933.631 1273.12,903.158C1273.12,872.685 1293.59,849.68 1318.71,847.945Z" style="fill:rgb(251,173,124);"/>
            </g>
            <path d="M1243.35,901.74C1243.35,901.74 1251.57,872.952 1254.92,852.72C1258.26,832.487 1260.13,814.92 1260.13,814.92C1260.13,814.92 1272.23,808.196 1285.65,809.681C1299.08,811.166 1307.87,816.763 1312.61,833.641C1317.35,850.519 1313.99,867.16 1309.18,872.381C1305.35,876.53 1310.44,864.878 1307.04,847.935C1303.03,828.002 1294.1,825.335 1294.1,825.335C1294.1,825.335 1277.56,850.756 1271.14,860.644C1264.72,870.532 1243.35,901.74 1243.35,901.74Z" style="fill:rgb(234,88,65);"/>
        </g>
        <g id="ohr_rechts">
            <g transform="matrix(1,0,0,1,-13.9966,-12.5598)">
                <path d="M801.976,801.685C868.153,797.278 882.822,848.295 882.822,876.523C882.822,904.75 893.218,921.902 844.541,928.22C808.088,932.951 765.219,901.587 764.421,855.076C763.936,826.853 776.425,803.386 801.976,801.685Z" style="fill:rgb(251,173,124);"/>
            </g>
            <path d="M808.182,817.667C808.182,817.667 784.908,827.539 790.152,862.988C794.376,891.54 830.104,915.976 839.254,914.709C852.62,912.86 850.621,907.104 854.283,908.063C857.945,909.022 846.642,863.435 846.642,863.435L808.182,817.667Z" style="fill:rgb(254,154,118);"/>
            <path d="M833.196,887.905C833.196,887.905 826.502,868.901 825.363,855.869C824.225,842.837 823.618,834.299 821,829.08C817.645,822.39 813.586,814.655 806.111,812.935C796.777,810.788 781.538,825.917 780.27,828.194C779.002,830.472 790.304,821.659 795.64,820.373C802.694,818.674 804.755,820.264 804.755,820.264C804.755,820.264 805.486,846.728 809.352,860.49C816.831,887.108 833.196,887.905 833.196,887.905Z" style="fill:rgb(232,89,62);"/>
        </g>
        <g id="kopf">
            <g transform="matrix(1.04153,0,0,1.39424,-240.554,-539.374)">
                <path d="M1232.1,766.09C1347.2,766.09 1438.96,853.151 1439.46,946.821C1440.02,1052.21 1392.92,1114.36 1233.84,1114.39C1060.2,1114.43 1019.39,1038.94 1020.25,955.245C1021.22,861.577 1117,766.09 1232.1,766.09Z" style="fill:rgb(243,176,120);"/>
            </g>
            <path d="M833.8,870.806C833.8,870.806 843.511,934.786 904.542,970.917C965.572,1007.05 1030.74,1003.91 1054.62,1002.97C1078.5,1002.03 1168.35,992.951 1211.77,931.492C1238.33,893.895 1251.45,845.008 1253.26,815.4C1255.07,785.903 1242.36,728.576 1225.1,683.756C1215.15,657.923 1180.62,604.075 1180.62,604.075C1180.62,604.075 1147.84,641.8 1096.02,658.527C1044.19,675.253 955.13,663.159 918.455,648.397C916.722,647.7 946.792,625.466 946.792,625.466C946.792,625.466 875.817,647.035 850.742,713.303C817.003,802.467 833.8,870.806 833.8,870.806Z" style="fill:rgb(252,203,162);"/>
        </g>
        <g id="nase">
            <g transform="matrix(0.889782,0,0,0.866134,110.562,103.077)">
                <ellipse cx="1039.36" cy="876.453" rx="25.14" ry="22.857" style="fill:rgb(252,203,162);"/>
            </g>
            <g transform="matrix(0.889782,0,0,0.866134,110.562,103.077)">
                <path d="M1064.03,880.908C1061.74,891.393 1051.56,899.31 1039.36,899.31C1025.49,899.31 1014.22,889.068 1014.22,876.453C1014.22,863.838 1025.49,853.596 1039.36,853.596C1046.43,853.596 1052.81,856.249 1057.38,860.518C1054.04,859.137 1050.1,858.339 1045.88,858.339C1033.84,858.339 1024.07,864.841 1024.07,872.85C1024.07,880.86 1033.84,887.362 1045.88,887.362C1053.44,887.362 1060.11,884.798 1064.03,880.908Z" style="fill:rgb(252,156,121);"/>
            </g>
            <g transform="matrix(0.889782,0,0,0.866134,110.562,103.077)">
                <path d="M1048.51,897.748C1045.67,898.756 1042.59,899.31 1039.36,899.31C1025.49,899.31 1014.22,889.068 1014.22,876.453C1014.22,872.8 1015.17,869.345 1016.85,866.281C1016.63,867.65 1016.52,869.051 1016.52,870.478C1016.52,885.667 1029.14,897.999 1044.69,897.999C1045.99,897.999 1047.26,897.913 1048.51,897.748Z" style="fill:rgb(218,96,68);"/>
            </g>
        </g>
        <g transform="matrix(1.07399,0,0,1.13463,-57.3665,-107.552)">
            <path d="M881.312,825.541C876.928,817.755 874.327,808.655 874.327,798.85C874.327,769.291 900.791,743.508 925.696,743.508C941.523,743.508 952.989,753.784 959.244,768.862C952.625,757.116 942.23,749.496 928.6,749.496C903.696,749.496 877.232,775.279 877.232,804.838C877.232,812.226 878.708,819.214 881.312,825.541Z" style="fill:rgb(250,154,117);"/>
        </g>
        <g transform="matrix(1.27659,0,0,1.04473,-357.426,-28.3506)">
            <path d="M1142.09,769.55C1146.82,748.336 1157.45,731.816 1175.17,731.577C1196.37,731.29 1223.96,765.785 1223.96,798.587C1223.96,831.389 1204.45,851.721 1179.3,851.721C1175.17,851.721 1171.32,851.154 1167.76,850.06C1170.7,850.599 1173.84,850.865 1177.18,850.865C1202.33,850.865 1219.33,833.681 1219.33,800.879C1219.33,768.077 1195.09,736.383 1173.89,736.669C1157.62,736.889 1147.33,750.842 1142.09,769.55Z" style="fill:rgb(250,154,117);"/>
        </g>
        <g id="auge_links">
            <g transform="matrix(1,0,0,1,-47.0493,-49.1543)">
                <path d="M980.656,805.246C1008.47,805.246 1030.12,826.073 1030.69,858.787C1031.19,887.271 1008.11,910.405 980.3,910.405C952.488,910.405 929.908,887.276 929.908,858.787C929.908,830.298 952.844,805.246 980.656,805.246Z" style="fill:rgb(250,251,252);"/>
            </g>
            <g transform="matrix(1.21321,0,0,1.27188,-228.386,-254.181)">
                <ellipse cx="959.445" cy="839.302" rx="26.081" ry="27.098" style="fill:rgb(42,37,43);"/>
            </g>
            <g transform="matrix(1.04927,0,0,1.08057,-55.4582,-75.1484)">
                <ellipse cx="932.481" cy="810.426" rx="11.54" ry="11.723" style="fill:rgb(248,252,253);"/>
            </g>
        </g>
        <g id="auge_rechts">
            <g transform="matrix(1.09944,0,0,1.1658,-127.407,-161.944)">
                <ellipse cx="1159.6" cy="831.805" rx="47.251" ry="46.306" style="fill:rgb(248,252,253);"/>
            </g>
            <g transform="matrix(1.11374,0,0,1.04303,-127.748,-66.279)">
                <ellipse cx="1144.85" cy="843.693" rx="28.654" ry="32.676" style="fill:rgb(42,37,43);"/>
            </g>
            <g transform="matrix(1.06357,0,0,1,-73.3285,-1.00437)">
                <ellipse cx="1148.69" cy="801.226" rx="10.377" ry="11.545" style="fill:rgb(250,251,253);"/>
            </g>
        </g>
        <g id="mund">
            <path d="M978.302,903.741C978.302,903.741 981.941,922.309 998.602,936.935C1015.26,951.562 1042.19,949.47 1050.69,948.389C1058.98,947.334 1091.12,939.206 1096.36,915.593C1101.6,891.981 1028.39,931.756 1028.39,931.756L978.302,903.741Z" style="fill:rgb(252,170,112);"/>
            <path d="M984.48,906.025C984.48,906.025 1010.9,916.931 1045.04,911.922C1081.02,906.644 1103.6,891.432 1103.48,891.676C1103.36,891.92 1100.48,937.707 1046.83,944.139C1007.07,948.907 984.48,906.025 984.48,906.025Z" style="fill:rgb(195,49,42);"/>
            <g transform="matrix(1,0,0,1.19529,0.295577,-193.865)">
                <path d="M999.803,937.107L999.803,923.917C1010.77,925.831 1026.68,927.341 1044.74,925.124C1066.35,922.472 1083.13,916.822 1093.06,912.776L1094.11,929.291C1086.47,939.233 1072.4,949.483 1046.54,952.077C1026.25,954.113 1010.43,945.768 999.803,937.107Z" style="fill:rgb(248,251,254);"/>
            </g>
        </g>
        <g id="haare">
            <path d="M903.754,491.486C868.222,480.283 835.463,470.163 835.463,470.163C835.463,470.163 874.841,436.464 932.239,430.032C966.865,426.151 993.117,425.914 1026.67,440.405C993.888,414.996 962.705,391.155 966.34,390.812C1022.2,385.549 1105.85,409.176 1160.25,455.746C1186.03,477.823 1205.39,507.265 1218.62,532.129C1223.17,525.122 1231.15,519.006 1248.3,513.328C1281.61,502.304 1302.07,530.387 1302.42,530.799C1302.01,530.738 1267.16,550.198 1246.52,561.751C1272.59,567.581 1313.77,583.242 1329.49,629.481C1353.8,700.994 1256.92,831.754 1256.92,831.754C1256.92,831.754 1259.06,677.614 1181.99,598.366C1164.68,615.173 1132.87,640.121 1086.22,653.811C1020.95,672.964 924.774,646.037 924.774,646.037C924.774,646.037 941.59,628.369 960.291,611.623C937.27,620.387 911.37,633.718 884.378,656.277C817.041,712.556 826.149,831.162 826.149,831.162C826.149,831.162 799.673,794.861 781.736,752.631C755.78,691.524 730.367,626.311 783.907,560.579C818.224,518.447 865.948,499.741 903.754,491.486Z" style="fill:rgb(144,73,45);"/>
            <path d="M831.665,621.244C834.537,615.757 836.079,613.321 834.316,616.505C833.421,618.122 832.537,619.702 831.665,621.244ZM1208.67,565.065C1208.64,565.064 1208.62,565.061 1208.6,565.056C1208.5,565.031 1208.52,565.034 1208.67,565.065ZM754.1,623.963C752.655,637.212 755.789,653.365 776.055,661.366C798.832,670.359 812.72,654.725 831.665,621.244C825.67,632.697 813.88,657.441 814.236,672.137C814.764,693.874 824.732,694.788 830.273,689.495C840.426,679.797 863.995,647.79 895.325,628.301C919.291,613.392 958.787,598.157 988.8,583.566C1033.61,561.782 1082.11,541.719 1089.71,543.469C1091.24,543.821 1053.22,558.593 1022.31,582.925C1022.14,583.058 977.564,620.659 977.564,620.659C977.564,620.659 1015.29,631.318 1072,623.127C1128,615.037 1191.72,569.743 1215.88,538.662C1223.08,529.408 1203.96,570.701 1194.89,583.484C1192.23,587.234 1224.44,639.321 1228.9,648.062C1229.16,648.576 1249.23,695.129 1268.61,687.717C1287.99,680.305 1291.16,646.521 1270.27,609.244C1251.23,575.274 1211.29,565.62 1208.67,565.065C1211.11,565.158 1237.3,549.934 1248.49,542.995C1259.8,535.975 1280.51,524.691 1280.51,524.691C1280.51,524.691 1274.4,516.887 1259.81,516.288C1245.2,515.689 1237.33,518.503 1237.33,518.503L1237.68,517.398C1240.77,516.013 1244.28,514.658 1248.3,513.328C1281.61,502.304 1302.07,530.387 1302.42,530.799C1302.01,530.738 1267.16,550.198 1246.52,561.751C1272.59,567.581 1313.77,583.242 1329.49,629.481C1353.8,700.994 1256.92,831.754 1256.92,831.754C1256.92,831.754 1259.06,677.614 1181.99,598.366C1164.68,615.173 1132.87,640.121 1086.22,653.811C1020.95,672.964 924.774,646.037 924.774,646.037C924.774,646.037 941.59,628.369 960.291,611.623C937.27,620.387 911.37,633.718 884.378,656.277C817.041,712.556 826.149,831.162 826.149,831.162C826.149,831.162 799.673,794.861 781.736,752.631C764.16,711.253 746.833,667.993 754.1,623.963Z" style="fill:rgb(102,46,21);"/>
        </g>
        <g id="augenbrauen">
            <path d="M940.142,689.917C940.142,689.917 920.062,687.18 899.007,707.056C892.208,713.474 883.388,729.204 881.696,732.664C880.004,736.124 879.546,743.543 887.479,737.931C895.412,732.318 909.461,724.297 918.641,721.769C927.822,719.241 944.562,715.225 954.25,715.917C963.939,716.609 967.274,709.28 966.698,704.525C965.183,692.006 940.142,689.917 940.142,689.917Z" style="fill:rgb(100,49,24);"/>
            <g transform="matrix(0.719374,0,0,0.585729,260.607,289.571)">
                <path d="M940.142,689.917C940.142,689.917 922.24,688.139 901.185,708.015C894.386,714.433 883.53,731.186 881.838,734.645C880.147,738.105 874.248,748.594 887.479,737.931C895.133,731.762 909.606,724.887 918.596,721.479C927.875,717.962 942.266,714.964 951.939,713.987C962.113,712.959 968.422,708.885 967.755,704.148C965.811,690.331 940.142,689.917 940.142,689.917Z" style="fill:rgb(146,72,46);"/>
            </g>
            <g transform="matrix(-1,0,0,1,2083.97,-1.42017)">
                <path d="M938.94,691.187C938.94,691.187 921.374,689.513 900.318,709.39C893.52,715.807 887.312,732.335 885.621,735.795C883.929,739.254 885.427,743.107 893.36,737.495C901.293,731.882 910.049,727.01 918.651,723.054C927.302,719.076 943.265,717.373 954.84,717.468C964.553,717.547 967.105,709.013 966.698,704.525C965.732,693.853 938.94,691.187 938.94,691.187Z" style="fill:rgb(100,49,24);"/>
            </g>
            <g transform="matrix(-0.769096,0,0,0.61738,1867.72,266.411)">
                <path d="M942.683,692.259C942.683,692.259 922.608,689.877 905.922,706.639C899.282,713.309 892.231,727.858 890.54,731.318C888.848,734.777 882.775,746.023 893.36,737.495C901.021,731.323 908.448,725.969 917.05,722.013C925.701,718.035 933.866,713.328 951.163,712.806C960.874,712.512 964.441,711.435 964.097,706.939C963.158,694.645 942.683,692.259 942.683,692.259Z" style="fill:rgb(142,73,45);"/>
            </g>
        </g>
    </g>
</svg>
