<svg width="407" height="580" viewBox="0 0 407 580" fill="none" xmlns="http://www.w3.org/2000/svg">
<path d="M406.625 131.542C406.625 88.9626 372.109 54.4459 329.529 54.4459C326.371 54.4459 323.263 54.6584 320.204 55.0292C320.204 54.9792 320.213 54.925 320.213 54.875C320.213 40.2459 308.354 28.3875 293.721 28.3875C287.346 28.3875 281.492 30.6459 276.921 34.4042C267.65 16.5208 249.013 4.28334 227.483 4.28334C214.533 4.28334 202.646 8.74167 193.188 16.1583C181.638 6.10416 166.554 0 150.038 0C115.575 0 87.3251 26.5125 84.5167 60.25C82.425 60.0834 80.3167 59.975 78.175 59.975C35 59.975 0 94.9751 0 138.15C0 167.133 15.7792 192.408 39.2042 205.913C38.1458 209.817 37.5292 213.904 37.5292 218.142C37.5292 243.954 58.4542 264.879 84.2709 264.879C94.5251 264.879 103.979 261.538 111.688 255.934C139.604 294.296 191.392 313.696 243.342 300.896C292.196 288.854 327.688 251.659 337.479 208.229C376.321 204.25 406.625 171.438 406.625 131.542Z" fill="#AAC85A"/>
<path d="M267.646 142.434C227.933 193.838 183.783 195.621 138.15 176.704C50.3332 140.292 39.204 205.909 39.204 205.909C38.1457 209.813 37.5332 213.9 37.5332 218.138C37.5332 243.95 58.4582 264.875 84.2708 264.875C84.9124 264.875 85.5541 264.863 86.1874 264.838C104.383 264.096 122.029 270.192 136.733 280.942C165.508 301.984 204.379 310.492 243.342 300.892C279.946 291.871 309.042 268.734 325.454 239.434C335.221 221.996 350.396 208.429 367.742 198.509C390.971 185.229 406.625 160.213 406.625 131.538C395.588 79.946 307.363 91.0293 267.646 142.434Z" fill="#8EAC37"/>
<path d="M349.155 98.3296L343.492 98.7879C345.667 143.034 298.775 224.834 250.28 258.43C246.721 260.896 242.33 256.796 244.496 253.046C264.246 218.855 273.4 170.296 275.196 133.734C271.025 170.313 235.042 261.996 228.717 249.242V177.23C218.192 182.934 207.455 186.134 196.542 187.263V235.117C195.417 253.963 130.938 217.063 105.446 213.155L104.675 217.367C128.725 223.534 155.563 236.871 176.525 254.434C189.146 265.005 196.542 280.538 196.542 297.005V579.876H228.717V328.809C228.717 309.176 238.288 290.884 254.184 279.355C306.221 241.617 353.884 147.409 349.155 98.3296Z" fill="#8A6A60"/>
</svg>
