<?xml version="1.0" encoding="UTF-8" standalone="no"?>
<!DOCTYPE svg PUBLIC "-//W3C//DTD SVG 1.1//EN" "http://www.w3.org/Graphics/SVG/1.1/DTD/svg11.dtd">
<svg width="100%" height="100%" viewBox="0 0 743 445" version="1.1" xmlns="http://www.w3.org/2000/svg" xmlns:xlink="http://www.w3.org/1999/xlink" xml:space="preserve" xmlns:serif="http://www.serif.com/" style="fill-rule:evenodd;clip-rule:evenodd;stroke-linejoin:round;stroke-miterlimit:2;">
    <g transform="matrix(1,0,0,1,-1490.87,-433.178)">
        <g transform="matrix(1,0,0,1,-15.2789,4.43357)">
            <g transform="matrix(1,0,0,1,1285.57,-1004.65)">
                <path d="M865.811,1753.88C881.509,1760.71 895.441,1773.57 899.513,1790.2C904.157,1809.16 895.064,1829.42 881.033,1842.99C867.003,1856.57 848.682,1864.67 830.585,1871.99C820.224,1876.18 808.564,1880.22 798.166,1876.12C797.35,1871.85 802.854,1869.51 807.083,1868.5C823.236,1864.66 838.31,1856.38 850.217,1844.81C856.352,1838.85 861.768,1831.82 864.108,1823.59C866.449,1815.36 865.26,1805.79 859.514,1799.45C852.298,1791.49 840.36,1790.49 829.628,1790.02C814.993,1789.38 800.358,1788.74 785.723,1788.11C778.586,1787.79 771.29,1787.45 764.659,1784.79C758.027,1782.14 752.07,1776.68 750.813,1769.65C749.195,1760.59 755.616,1751.98 762.952,1746.43C777.003,1735.8 797.663,1730.63 814.374,1737.47C831.171,1744.36 849.211,1746.67 865.811,1753.88Z" style="fill:rgb(191,148,109);fill-rule:nonzero;"/>
                <path d="M846.958,1754.32C848.088,1752.37 849.41,1750.47 851.254,1749.17C839.289,1742.7 825.037,1740.56 811.697,1743.23C798.356,1745.9 786.028,1753.36 777.476,1763.94C773.892,1768.38 770.837,1774.12 772.46,1779.58C773.768,1783.99 777.91,1787.08 782.306,1788.42C786.702,1789.76 791.388,1789.64 795.982,1789.59C812.912,1789.38 829.613,1791.41 846.448,1791.91C841.145,1788.8 841.043,1781.33 841.119,1775.69C841.219,1768.23 843.21,1760.78 846.958,1754.32Z" style="fill:rgb(175,137,103);fill-rule:nonzero;"/>
                <path d="M541.548,1465.49C546.131,1467.66 550.266,1471.24 552.007,1476C553.747,1480.76 552.574,1486.74 548.47,1489.71C551.626,1490.48 551.558,1495.01 550.48,1498.07C546.253,1510.09 537.706,1520.54 526.762,1527.06C522.584,1529.55 517.995,1531.5 513.159,1532.01C499.557,1533.45 486.416,1522 484.445,1508.46C482.285,1493.62 491.471,1481.67 503.327,1474.26C515.318,1466.77 526.917,1458.57 541.548,1465.49Z" style="fill:rgb(163,127,95);fill-rule:nonzero;"/>
                <path d="M526.637,1490.2C533.316,1483.98 543.508,1481.57 552.151,1484.51C552.261,1484.55 550.536,1488.02 550.285,1488.36C549.377,1489.59 549.001,1489.9 547.62,1489.58C545.251,1489.03 542.958,1488.38 540.529,1488.11C535.819,1487.59 530.913,1488.03 526.637,1490.2Z" style="fill:rgb(146,115,87);fill-rule:nonzero;"/>
                <path d="M464.99,1587.1C465.122,1566.55 466.194,1545.81 471.599,1525.98C475.757,1510.72 488.376,1485.99 494.989,1480.72C505.556,1472.32 539.019,1516.06 532.5,1519.45C516.995,1527.52 520.104,1541.52 520.791,1552.96C521.478,1564.4 528.771,1575.02 535.015,1584.63C541.258,1594.24 548.5,1603.25 553.656,1613.48C557.217,1620.55 559.559,1629.6 554.869,1635.97C552.604,1639.05 549.072,1640.91 545.592,1642.49C533.934,1647.79 521.406,1651.16 508.664,1652.44C495.66,1653.75 475.106,1652.61 471.381,1637.12C467.488,1620.94 464.884,1603.79 464.99,1587.1Z" style="fill:rgb(163,127,95);fill-rule:nonzero;"/>
                <path d="M742.875,1484.52C745.516,1479.5 748.72,1474.62 753.243,1471.19C757.766,1467.77 763.813,1465.97 769.247,1467.61C778.036,1470.26 781.957,1464.79 784.786,1473.52C790.639,1491.59 796.564,1525.06 802.417,1543.13C806.156,1554.67 809.917,1566.31 811.167,1578.38C813.176,1597.77 808.538,1617.45 800.292,1635.12C794.19,1648.19 784.818,1661.31 770.82,1664.8C763.3,1666.67 755.38,1665.5 747.778,1663.99C726.127,1659.68 704.18,1652.22 688.506,1636.67C680.722,1628.95 674.51,1618.43 675.903,1607.55C676.926,1599.58 681.848,1592.69 687.055,1586.56C698.346,1573.29 714.124,1563.7 720.575,1546.98C728.5,1526.44 732.591,1504.08 742.875,1484.52Z" style="fill:rgb(163,127,95);fill-rule:nonzero;"/>
                <path d="M436.45,1804.87C465.034,1806.99 493.748,1805.95 522.393,1804.92C589.962,1802.48 657.53,1800.04 725.099,1797.6C742.711,1796.96 760.528,1796.3 777.474,1791.46C794.422,1786.62 810.68,1777.12 820.144,1762.25C827.166,1751.22 829.991,1738.1 832.421,1725.25C838.861,1691.22 843.425,1656.84 846.086,1622.3C847.342,1606 845.779,1599.6 836.589,1586.08C826.362,1571.03 809.154,1554.14 791.276,1550.77C766.342,1546.07 714.989,1534.83 647.01,1546.96C612.596,1553.09 562.691,1569.51 533.4,1588.59C503.152,1608.29 474.496,1624.39 455.388,1649.29C433.414,1677.93 413.91,1709.6 405.176,1744.62C401.335,1760.02 402.039,1779.41 415.442,1787.91C422.011,1792.08 430.179,1792.57 437.951,1792.95L436.45,1804.87Z" style="fill:rgb(191,148,109);fill-rule:nonzero;"/>
                <path d="M506.704,1793.75C534.258,1778.19 547.948,1745.12 549.504,1713.52C550.238,1698.59 548.653,1683.32 542.824,1669.56C535.117,1651.36 519.901,1636.48 501.538,1629.17C503.609,1636.51 506.18,1643.77 507.025,1651.35C509.619,1674.58 495.442,1696.83 477.515,1711.84C459.587,1726.84 437.911,1736.54 418.205,1749.12C410.533,1754.02 402.949,1759.57 398.145,1767.3C382.753,1792.07 410.925,1810.66 433.726,1807.83C457.911,1804.83 484.884,1806.07 506.704,1793.75Z" style="fill:rgb(175,137,103);fill-rule:nonzero;"/>
                <path d="M648.867,1452.68C653.449,1454.85 657.585,1458.43 659.326,1463.19C661.066,1467.95 659.893,1473.93 655.789,1476.91C658.945,1477.67 658.877,1482.2 657.799,1485.27C653.572,1497.28 645.024,1507.73 634.081,1514.25C629.903,1516.74 625.315,1518.69 620.478,1519.21C606.875,1520.64 593.735,1509.19 591.764,1495.65C589.604,1480.81 598.79,1468.86 610.646,1461.45C622.638,1453.96 634.236,1445.76 648.867,1452.68Z" style="fill:rgb(191,148,109);fill-rule:nonzero;"/>
                <path d="M633.956,1477.39C640.635,1471.17 650.827,1468.76 659.47,1471.7C659.58,1471.74 657.854,1475.21 657.604,1475.55C656.695,1476.78 656.32,1477.09 654.938,1476.77C652.57,1476.22 650.277,1475.58 647.848,1475.3C643.138,1474.78 638.231,1475.22 633.956,1477.39Z" style="fill:rgb(175,137,103);fill-rule:nonzero;"/>
                <path d="M719.499,1444.24C721.725,1439.75 725.338,1435.72 730.08,1434.09C734.82,1432.45 740.716,1433.72 743.584,1437.83C744.396,1434.72 748.878,1434.87 751.89,1435.99C763.7,1440.39 773.878,1449.04 780.131,1459.98C782.519,1464.16 784.368,1468.73 784.786,1473.52C785.962,1487 774.395,1499.79 760.971,1501.5C746.255,1503.37 734.597,1494.06 727.482,1482.2C720.286,1470.21 712.39,1458.59 719.499,1444.24Z" style="fill:rgb(163,127,95);fill-rule:nonzero;"/>
                <path d="M743.67,1459.44C737.635,1452.72 735.44,1442.59 738.504,1434.1C738.543,1433.99 741.943,1435.76 742.275,1436.01C743.475,1436.93 743.778,1437.31 743.436,1438.67C742.848,1441 742.169,1443.26 741.857,1445.66C741.254,1450.31 741.604,1455.17 743.67,1459.44Z" style="fill:rgb(146,115,87);fill-rule:nonzero;"/>
                <path d="M247.39,1591.92C249.19,1582.46 253.126,1572.67 261.254,1567.51C271.121,1561.24 284.314,1563.45 294.917,1558.53C304.218,1584.9 322.117,1607.23 339.963,1628.76C345.07,1634.92 350.421,1641.57 351.255,1649.53C352.321,1659.71 345.295,1669.47 336.25,1674.28C327.205,1679.08 316.551,1679.79 306.319,1679.34C296.039,1678.88 285.594,1677.3 276.446,1672.59C262.754,1665.54 256.483,1651.17 251.341,1637.39C245.958,1622.96 244.508,1607.06 247.39,1591.92Z" style="fill:rgb(191,148,109);fill-rule:nonzero;"/>
                <path d="M402.404,1597.09C382.957,1601.08 364.469,1608.5 346.474,1616.55C328.783,1624.47 311.428,1633.05 294.466,1642.27C285.783,1646.99 277.103,1651.95 270.031,1658.61C255.393,1672.4 247.84,1692.79 250.742,1711.74C254.636,1737.2 254.099,1790.35 347.512,1805.26C392.682,1812.46 442.639,1814.78 479.832,1789.14C511.963,1766.98 529.322,1728.91 528.276,1692.09C527.705,1672.01 521.991,1651.97 510.514,1635.11C499.037,1618.25 481.64,1604.71 461.186,1598.43C442.439,1592.67 421.85,1593.1 402.404,1597.09Z" style="fill:rgb(191,148,109);fill-rule:nonzero;"/>
                <path d="M313.045,1594.22C318.574,1593.8 324.306,1593.65 329.383,1591.42C334.218,1589.3 336.223,1583.05 335.546,1579.56C333.004,1566.47 324.604,1555.61 312.433,1550.15C306.21,1547.36 299.108,1547.15 292.346,1548.03C282.967,1549.26 273.856,1552.51 265.82,1557.5C258.445,1562.07 251.819,1568.33 248.439,1576.33C246.255,1581.49 243.392,1596.03 246.167,1601.22C246.472,1601.79 248.92,1588.68 266.648,1587.41C287.329,1585.92 296.813,1595.47 313.045,1594.22Z" style="fill:rgb(148,113,81);fill-rule:nonzero;"/>
                <path d="M498.967,1702.18C501.662,1704.47 504.023,1707.24 505.362,1710.51C507.288,1715.22 506.958,1720.5 506.597,1725.58C508.267,1719.95 509.107,1713.97 508.008,1708.2C506.909,1702.44 503.475,1697.25 498.637,1693.93C492.641,1689.82 483.932,1687.5 475.454,1687.26C472.993,1687.19 471.073,1689.17 468.781,1690.07C467.599,1690.53 466.445,1691.34 466.06,1692.55C464.732,1696.72 470.317,1694.92 472.092,1694.65C475.301,1694.16 478.579,1694.16 481.793,1694.6C488.069,1695.47 494.129,1698.07 498.967,1702.18Z" style="fill:rgb(175,137,103);fill-rule:nonzero;"/>
                <path d="M495.727,1673.88C497.701,1670.95 499.224,1667.64 499.628,1664.12C500.209,1659.07 498.463,1654.07 496.743,1649.29C499.872,1654.25 502.3,1659.79 502.801,1665.63C503.301,1671.48 501.399,1677.4 497.64,1681.91C492.979,1687.49 485.223,1692.08 477.125,1694.6C474.774,1695.33 472.392,1693.95 469.942,1693.7C468.678,1693.58 467.348,1693.11 466.649,1692.05C464.245,1688.39 470.109,1688.62 471.89,1688.4C475.111,1688 478.269,1687.12 481.242,1685.82C487.05,1683.29 492.181,1679.14 495.727,1673.88Z" style="fill:rgb(175,137,103);fill-rule:nonzero;"/>
                <path d="M431.799,1743.38C437.541,1753.27 445.127,1756.92 452.618,1751.6C458.56,1747.38 458.697,1732.18 461.208,1725.34C464.099,1717.46 470.374,1711.32 474.274,1703.89C478.174,1696.47 478.882,1685.88 472.104,1680.94C470.159,1679.52 467.823,1678.75 465.736,1677.54C458.516,1673.38 455.354,1664.85 451.354,1657.53C447.352,1650.22 440.243,1642.87 432.045,1644.39C423.432,1645.99 419.6,1656.17 418.714,1664.88C416.552,1686.17 425.624,1732.75 431.799,1743.38Z" style="fill:rgb(35,31,32);fill-rule:nonzero;"/>
                <path d="M445.03,1746.09C440.399,1746.09 434.589,1734.68 433.467,1732.09C432.402,1729.63 423.867,1702.43 426.751,1701.87C426.932,1701.84 427.114,1701.82 427.294,1701.82C428.633,1701.82 429.913,1702.74 430.651,1703.89C431.489,1705.2 431.792,1706.77 432.144,1708.29C434.161,1716.96 438.37,1725.12 444.272,1731.79C445.608,1733.3 447.044,1734.75 448.026,1736.51C449.009,1738.27 449.492,1740.44 448.776,1742.32C447.749,1745.03 446.445,1746.09 445.03,1746.09Z" style="fill:rgb(99,94,90);fill-rule:nonzero;"/>
                <path d="M344.207,1739.21C359.437,1741.46 370.424,1752.5 368.747,1763.89C367.069,1775.28 353.363,1782.69 338.134,1780.45C322.904,1778.21 311.917,1767.16 313.594,1755.77C315.271,1744.38 328.977,1736.97 344.207,1739.21Z" style="fill:white;fill-rule:nonzero;"/>
                <path d="M329.579,1752.9C335.712,1753.8 339.952,1759.5 339.049,1765.64C338.146,1771.77 332.441,1776.01 326.308,1775.11C320.174,1774.21 315.935,1768.5 316.838,1762.37C317.741,1756.23 323.446,1751.99 329.579,1752.9Z" style="fill:rgb(35,31,32);fill-rule:nonzero;"/>
                <path d="M325.421,1771.51C326.894,1771.67 328.487,1771.13 329.362,1769.94C329.754,1769.4 329.994,1768.72 329.871,1768.07C329.675,1767.04 328.665,1766.38 327.687,1765.99C326.708,1765.61 325.632,1765.36 324.868,1764.63C323.904,1763.72 323.422,1762.24 321.845,1762.52C320.665,1762.74 319.577,1764.69 319.529,1765.79C319.406,1768.58 322.918,1771.23 325.421,1771.51Z" style="fill:white;fill-rule:nonzero;"/>
                <path d="M323.654,1640.43C338.56,1636.58 352.975,1642.5 355.851,1653.65C358.727,1664.79 348.974,1676.95 334.068,1680.79C319.162,1684.64 304.747,1678.72 301.871,1667.57C298.996,1656.43 308.748,1644.28 323.654,1640.43Z" style="fill:white;fill-rule:nonzero;"/>
                <path d="M315.487,1658.72C321.49,1657.17 327.612,1660.78 329.161,1666.79C330.709,1672.79 327.099,1678.91 321.096,1680.46C315.093,1682.01 308.971,1678.4 307.422,1672.39C305.873,1666.39 309.484,1660.27 315.487,1658.72Z" style="fill:rgb(35,31,32);fill-rule:nonzero;"/>
                <path d="M318.882,1677.49C320.303,1677.07 321.562,1675.95 321.904,1674.51C322.057,1673.87 322.015,1673.15 321.647,1672.59C321.066,1671.72 319.877,1671.5 318.827,1671.52C317.777,1671.55 316.687,1671.73 315.702,1671.37C314.459,1670.9 313.439,1669.72 312.097,1670.59C311.092,1671.25 310.847,1673.47 311.229,1674.5C312.202,1677.13 316.467,1678.2 318.882,1677.49Z" style="fill:white;fill-rule:nonzero;"/>
                <path d="M237.91,1798.79C233.547,1800.04 229.042,1801.34 225.481,1804.48C221.92,1807.61 219.541,1813.1 221.016,1817.92C222.8,1823.76 228.948,1825.94 234.309,1826.95C290.312,1837.52 346.353,1807.38 403.151,1807.62C401.118,1800.59 394.797,1796.49 388.749,1793.77C378.096,1788.99 366.767,1786.5 355.482,1784.25C338.38,1780.83 313.892,1771.19 297.64,1779.39C278.957,1788.82 257.758,1793.12 237.91,1798.79Z" style="fill:rgb(191,148,109);fill-rule:nonzero;"/>
                <path d="M562.163,1598.43C563.238,1607.52 566.717,1617.19 574.636,1621.79C577.254,1623.31 580.201,1624.18 583.165,1624.79C589.382,1626.08 596.572,1626.06 601.229,1621.75C604.901,1618.34 606.119,1613.04 606.33,1608.03C606.875,1595.15 601.722,1582.12 592.507,1573.09C590.422,1571.05 594.864,1566.88 592.222,1565.64C584.675,1562.1 562.271,1573.26 562.271,1573.26C561.301,1575.68 561.244,1590.65 562.163,1598.43Z" style="fill:rgb(175,137,103);fill-rule:nonzero;"/>
                <path d="M572.309,1574.29C572.44,1553.74 573.513,1533 578.918,1513.17C583.076,1497.91 595.695,1473.18 602.308,1467.92C612.875,1459.51 646.338,1503.25 639.819,1506.64C624.314,1514.71 627.422,1528.71 628.109,1540.15C628.796,1551.59 636.09,1562.21 642.333,1571.82C648.577,1581.43 655.819,1590.44 660.975,1600.67C664.535,1607.74 666.878,1616.79 662.188,1623.16C659.923,1626.24 656.391,1628.1 652.911,1629.68C641.253,1634.98 628.725,1638.35 615.983,1639.63C602.979,1640.94 582.425,1639.8 578.7,1624.31C574.807,1608.13 572.203,1590.98 572.309,1574.29Z" style="fill:rgb(191,148,109);fill-rule:nonzero;"/>
                <path d="M812.779,1587.86C822.727,1586.23 837.346,1587.2 837.346,1587.2C846.478,1596.39 854.711,1610.68 845.728,1618.17C837.352,1625.15 824.206,1624.76 812.524,1624.44C784.165,1623.67 755.741,1625.95 728.105,1631.19C725.659,1631.66 714.126,1642.06 711.776,1641.26C698.66,1636.85 737.004,1610.56 756.003,1602.84C773.954,1595.55 793.307,1591.05 812.779,1587.86Z" style="fill:rgb(175,137,103);fill-rule:nonzero;"/>
                <path d="M912.217,1540.33C915.913,1536.99 920.718,1534.59 925.692,1534.81C930.667,1535.03 935.648,1538.35 936.797,1543.19C938.68,1540.62 942.766,1542.39 945.137,1544.53C954.439,1552.9 960.686,1564.59 962.469,1576.98C963.15,1581.7 963.189,1586.6 961.827,1591.18C957.996,1604.06 942.648,1611.65 929.631,1608.33C915.359,1604.69 907.987,1591.84 905.743,1578.3C903.474,1564.59 900.42,1550.98 912.217,1540.33Z" style="fill:rgb(191,148,109);fill-rule:nonzero;"/>
                <path d="M928.997,1563.18C925.874,1554.77 927.54,1544.62 933.468,1537.89C933.544,1537.81 936.038,1540.68 936.251,1541.04C937.024,1542.32 937.167,1542.78 936.354,1543.91C934.961,1545.85 933.511,1547.69 932.349,1549.79C930.095,1553.86 928.646,1558.48 928.997,1563.18Z" style="fill:rgb(175,137,103);fill-rule:nonzero;"/>
                <path d="M905.552,1573.06C917.271,1568.91 931.79,1566.04 940.929,1574.46C947.797,1580.8 962.653,1595.52 955.405,1601.42C945.612,1609.38 936.623,1616.69 930.549,1623.79C910.715,1646.96 890.881,1670.14 871.047,1693.31C860.204,1705.98 830.856,1755.39 797.125,1776.92C791.563,1780.47 770.148,1782.26 763.792,1784.04C755.321,1786.4 746.247,1785.73 737.703,1783.65C711.873,1777.37 689.724,1757.61 680.549,1732.66C671.373,1707.71 675.44,1678.3 691.043,1656.78C699.857,1644.63 712.217,1635.18 726.064,1629.45C739.72,1623.79 790.494,1601.87 841.507,1591.85C859.208,1588.37 888.53,1579.08 905.552,1573.06Z" style="fill:rgb(191,148,109);fill-rule:nonzero;"/>
                <path d="M222.792,1805.17C218.684,1811.53 220.646,1820.45 225.653,1826.13C230.66,1831.8 238.024,1834.81 245.331,1836.79C265.952,1842.38 287.77,1841.23 309.003,1838.86C313.323,1838.38 317.721,1837.83 321.667,1836C325.612,1834.18 329.1,1830.85 330.027,1826.6C331.243,1821.03 327.698,1815.26 322.869,1812.23C318.041,1809.2 312.188,1808.34 306.51,1807.81C293.563,1806.6 280.494,1806.71 267.57,1808.14C261.57,1808.8 255.496,1809.75 249.533,1808.81C242.721,1807.73 240.809,1803.61 235.687,1800.45C231.169,1797.66 225.657,1800.74 222.792,1805.17Z" style="fill:rgb(148,113,81);fill-rule:nonzero;"/>
            </g>
        </g>
    </g>
</svg>
