<?xml version="1.0" encoding="UTF-8" standalone="no"?>
<!DOCTYPE svg PUBLIC "-//W3C//DTD SVG 1.1//EN" "http://www.w3.org/Graphics/SVG/1.1/DTD/svg11.dtd">
<svg width="100%" height="100%" viewBox="0 0 802 436" version="1.1" xmlns="http://www.w3.org/2000/svg" xmlns:xlink="http://www.w3.org/1999/xlink" xml:space="preserve" xmlns:serif="http://www.serif.com/" style="fill-rule:evenodd;clip-rule:evenodd;stroke-linejoin:round;stroke-miterlimit:2;">
    <g transform="matrix(1,0,0,1,-1699.6,-1442.45)">
        <g transform="matrix(1,0,0,1,-15.2789,4.43357)">
            <path d="M2467.85,1721.92C2496.55,1752.86 2515.65,1793.59 2516.52,1835.79C2516.61,1840.27 2515.78,1845.83 2511.54,1847.28C2508.2,1848.42 2504.49,1846.05 2502.86,1842.92C2501.23,1839.79 2501.13,1836.13 2500.95,1832.61C2499.12,1797.32 2483.38,1760.79 2452.83,1743.05C2429.31,1729.38 2400.77,1728.51 2374.49,1721.5C2364.29,1718.78 2354.14,1714.97 2346.07,1708.17C2334.06,1698.06 2327.78,1679.12 2338.33,1665.56C2346.79,1654.68 2360.58,1656.62 2372.37,1660.09C2407.97,1670.58 2442.82,1694.94 2467.85,1721.92Z" style="fill:rgb(191,148,109);fill-rule:nonzero;"/>
            <path d="M2389.82,1674C2388.21,1687.7 2388.26,1701.59 2389.96,1715.28C2390.29,1717.86 2390.71,1720.56 2392.25,1722.66C2394.94,1726.35 2400.04,1727.07 2404.56,1727.68C2414.95,1729.08 2425.21,1731.45 2435.16,1734.75C2431.33,1724.35 2428.12,1713.71 2425.55,1702.93C2423.93,1696.14 2422.48,1689.09 2418.54,1683.32C2415.38,1678.69 2410.78,1675.2 2405.87,1672.49C2399.63,1669.07 2391.06,1663.46 2389.82,1674Z" style="fill:rgb(175,137,103);fill-rule:nonzero;"/>
            <path d="M1882.43,1844.83C1879.35,1849.97 1877.65,1857.04 1881.49,1861.64C1884.07,1864.73 1888.57,1865.72 1892.51,1864.89C1896.45,1864.07 1899.89,1861.68 1902.85,1858.96C1899.84,1861.49 1900.53,1866.79 1903.59,1869.26C1906.65,1871.74 1911.14,1871.74 1914.8,1870.29C1918.46,1868.83 1921.47,1866.15 1924.4,1863.53C1921.88,1866.73 1925.82,1871.69 1929.89,1871.64C1933.97,1871.58 1937.33,1868.58 1940.25,1865.75C1945.98,1860.19 1951.74,1854.46 1955.45,1847.4C1957.6,1843.31 1959.03,1838.53 1957.83,1834.06C1955.88,1826.75 1947.82,1822.91 1940.39,1821.49C1919.62,1817.55 1893.7,1826.02 1882.43,1844.83Z" style="fill:rgb(163,127,95);fill-rule:nonzero;"/>
            <path d="M1965.65,1553.98C2023.07,1568.82 2069.14,1559.2 2113.45,1542.79C2191.65,1513.83 2304.38,1538.29 2340.64,1567.3C2376.89,1596.3 2416.45,1662.04 2396.75,1780.57C2393.27,1801.53 2336.23,1788.69 2315.54,1804.13C2291.25,1822.26 2263.76,1843.26 2233.48,1841.96C2208.18,1840.88 2184.15,1841.33 2160.93,1841.78C2109.02,1842.79 2061.1,1843.8 2011.82,1827.68C1982.47,1818.07 1953.45,1805.95 1929.2,1786.83C1904.95,1767.7 1885.69,1740.83 1880.78,1710.34C1876.28,1682.38 1884.16,1653.38 1898.53,1628.99C1912.91,1604.59 1933.42,1584.35 1955.35,1566.43L1965.65,1553.98Z" style="fill:rgb(191,148,109);fill-rule:nonzero;"/>
            <path d="M2321.57,1735.45C2297.28,1753.58 2268.64,1764.91 2239.51,1773.29C2107.96,1811.11 2075.35,1803.49 2012.09,1769.13C1984.95,1754.39 1959.49,1737.27 1935.23,1718.15C1913.15,1700.73 1895.21,1676.89 1888.47,1649.74C1880.83,1669.09 1877.49,1690.08 1880.79,1710.52C1885.69,1741.01 1904.95,1767.88 1929.21,1787.01C1953.46,1806.13 1982.47,1818.26 2011.83,1827.86C2083.16,1851.2 2151.63,1838.64 2233.48,1842.14C2263.77,1843.44 2291.25,1822.44 2315.55,1804.31C2336.24,1788.87 2393.28,1801.71 2396.76,1780.75C2400.78,1756.56 2341.29,1720.74 2321.57,1735.45Z" style="fill:rgb(175,137,103);fill-rule:nonzero;"/>
            <path d="M2058.1,1779.92C2073.25,1769.44 2085.5,1755.29 2096.23,1740.32C2105.47,1727.44 2113.8,1713.66 2118.35,1698.47C2125.48,1674.66 2122.68,1648.25 2111.83,1625.88C2100.98,1603.5 2082.38,1585.2 2060.4,1573.57C2050.55,1568.36 2036.77,1565.13 2029.56,1573.63C2026.46,1577.28 2025.5,1582.23 2024.55,1586.92C2018.73,1615.63 2009.03,1643.56 1995.82,1669.71C1989.53,1682.14 1982.43,1694.23 1977.62,1707.31C1972.81,1720.39 1970.38,1734.8 1973.82,1748.3C1977.66,1763.36 1992.04,1785.31 2005.81,1793.37C2020.73,1802.08 2045.8,1788.42 2058.1,1779.92Z" style="fill:rgb(175,137,103);fill-rule:nonzero;"/>
            <path d="M1829.31,1749.51C1840.78,1729.55 1857.97,1712.92 1878.3,1702.12C1891.21,1695.26 1906.12,1690.67 1920.42,1693.67C1940.07,1697.78 1954.78,1716.2 1958.15,1735.99C1959.44,1743.55 1959.29,1751.46 1956.83,1758.73C1952.11,1772.66 1939.66,1782.49 1926.91,1789.83C1904.09,1802.97 1869.03,1817.32 1841.84,1812.81C1811.38,1807.76 1818.08,1769.04 1829.31,1749.51Z" style="fill:rgb(146,115,87);fill-rule:nonzero;"/>
            <path d="M1728.91,1662.24C1726.61,1664.49 1724.27,1667 1723.71,1670.16C1723.24,1672.77 1724.06,1675.42 1724.93,1677.93C1729,1689.69 1734.27,1701.03 1740.64,1711.72C1741.19,1712.64 1741.77,1713.59 1742.68,1714.16C1744.45,1715.28 1746.75,1714.62 1748.74,1713.97C1772.44,1706.29 1798.33,1705.51 1822.43,1711.77C1828.45,1713.33 1835.62,1715.08 1840.28,1710.97C1842.86,1708.7 1843.89,1705.19 1844.77,1701.87C1848.06,1689.41 1850.89,1676.66 1850.48,1663.78C1850.06,1650.9 1846.12,1637.74 1837.36,1628.29C1831.19,1621.63 1822.34,1617.05 1813.22,1616.5C1804.3,1615.97 1794.79,1621.78 1786.59,1625C1765.13,1633.4 1745.38,1646.12 1728.91,1662.24Z" style="fill:rgb(191,148,109);fill-rule:nonzero;"/>
            <path d="M1873.61,1456.02C1882.09,1448.85 1892.73,1442.93 1903.76,1444.2C1917.16,1445.74 1927.38,1457.3 1940.46,1460.59C1929.66,1490.98 1929.5,1523.99 1929.87,1556.25C1929.98,1565.48 1929.95,1575.33 1924.92,1583.07C1918.48,1592.97 1905.09,1596.62 1893.5,1594.37C1881.9,1592.11 1871.84,1585.01 1862.99,1577.17C1854.1,1569.31 1845.89,1560.31 1841.1,1549.44C1833.95,1533.18 1838.75,1515.75 1844.15,1499.66C1849.79,1482.82 1860.04,1467.5 1873.61,1456.02Z" style="fill:rgb(191,148,109);fill-rule:nonzero;"/>
            <path d="M2013.47,1550.4C1992.39,1541.46 1969.98,1536.4 1947.61,1532.28C1925.62,1528.22 1903.52,1525.02 1881.37,1522.68C1870.03,1521.48 1858.54,1520.51 1847.47,1522.21C1824.54,1525.72 1804.02,1540.15 1794.37,1560.06C1781.41,1586.79 1746.12,1636.92 1825.1,1712.22C1863.29,1748.63 1909.23,1783.52 1961.35,1783.5C2006.37,1783.48 2047.78,1758.68 2070.88,1723.01C2083.48,1703.56 2091.16,1680.79 2091.3,1657.26C2091.43,1633.73 2083.76,1609.49 2068.44,1590.13C2054.4,1572.39 2034.56,1559.33 2013.47,1550.4Z" style="fill:rgb(191,148,109);fill-rule:nonzero;"/>
            <path d="M1930.8,1505.75C1936.07,1509.38 1941.32,1513.41 1947.49,1515.09C1953.36,1516.7 1959.7,1512.55 1961.62,1508.94C1968.84,1495.35 1969.2,1479.52 1962.25,1465.79C1958.69,1458.77 1952.48,1453.43 1945.77,1449.31C1936.48,1443.6 1925.95,1439.9 1915.12,1438.54C1905.19,1437.29 1894.71,1438.09 1885.87,1442.81C1880.17,1445.85 1867.05,1456.81 1865.77,1463.47C1865.63,1464.21 1877.34,1454.23 1894.16,1465.96C1913.78,1479.63 1915.35,1495.08 1930.8,1505.75Z" style="fill:rgb(148,113,81);fill-rule:nonzero;"/>
            <path d="M1732.45,1653.89C1722.75,1664.45 1702.35,1687.85 1725.56,1723.15C1732.05,1733.02 1740.18,1741.76 1749.69,1748.76C1757,1754.14 1765.17,1758.84 1774.17,1759.98C1783.17,1761.12 1793.16,1758.03 1798.22,1750.49C1804.42,1733.87 1764.4,1728.03 1756.82,1693.72C1753.31,1677.81 1753,1653.44 1759.46,1638.48C1759.46,1638.48 1745.3,1639.88 1732.45,1653.89Z" style="fill:rgb(148,113,81);fill-rule:nonzero;"/>
            <path d="M2036.43,1713.42C2037.49,1717.36 2037.92,1721.54 2037.05,1725.52C2035.8,1731.25 2032.03,1736.06 2028.37,1740.64C2033.63,1736.39 2038.35,1731.25 2041.08,1725.06C2043.8,1718.87 2043.94,1711.68 2041.52,1705.37C2038.51,1697.54 2031.76,1689.63 2023.86,1683.86C2021.57,1682.18 2018.45,1682.8 2015.68,1682.16C2014.26,1681.83 2012.63,1681.84 2011.47,1682.74C2007.48,1685.83 2013.97,1687.77 2015.83,1688.67C2019.2,1690.31 2022.32,1692.45 2025.08,1694.98C2030.47,1699.91 2034.53,1706.35 2036.43,1713.42Z" style="fill:rgb(163,127,95);fill-rule:nonzero;"/>
            <path d="M2051.88,1684.41C2055.67,1682.92 2059.28,1680.77 2061.96,1677.7C2065.82,1673.28 2067.43,1667.39 2068.93,1661.72C2068.66,1668.48 2067.34,1675.33 2063.99,1681.21C2060.64,1687.09 2054.96,1691.48 2048.44,1693.29C2040.36,1695.54 2029.99,1694.83 2020.64,1691.92C2017.93,1691.08 2016.57,1688.21 2014.41,1686.37C2013.29,1685.42 2012.33,1684.11 2012.36,1682.64C2012.47,1677.6 2017.89,1681.65 2019.73,1682.61C2023.05,1684.34 2026.63,1685.56 2030.3,1686.28C2037.48,1687.67 2045.06,1687.09 2051.88,1684.41Z" style="fill:rgb(163,127,95);fill-rule:nonzero;"/>
            <path d="M1945.66,1708.6C1944.64,1721.75 1949.46,1730.18 1960.06,1730.04C1968.46,1729.92 1978.54,1715.56 1985.41,1710.71C1993.31,1705.12 2003.29,1703.39 2011.85,1698.89C2020.42,1694.38 2028.02,1684.79 2024.82,1675.66C2023.9,1673.04 2022.18,1670.78 2020.99,1668.27C2016.85,1659.58 2019.44,1649.41 2020.42,1639.84C2021.41,1630.28 2019.46,1618.65 2010.68,1614.73C2001.45,1610.61 1991.15,1617.77 1984.61,1625.47C1968.62,1644.27 1946.75,1694.46 1945.66,1708.6Z" style="fill:rgb(35,31,32);fill-rule:nonzero;"/>
            <path d="M1958.27,1720.39C1951.58,1720.38 1953.93,1702.54 1954.63,1698.97C1955.22,1696 1964.52,1665.82 1967.83,1665.82C1967.9,1665.82 1967.97,1665.84 1968.03,1665.86C1969.68,1666.58 1970.48,1668.54 1970.41,1670.34C1970.35,1672.13 1969.61,1673.82 1968.95,1675.49C1965.19,1685.05 1963.86,1695.55 1965.1,1705.75C1965.38,1708.06 1965.79,1710.38 1965.57,1712.7C1965.35,1715.01 1964.4,1717.38 1962.48,1718.7C1960.79,1719.88 1959.4,1720.39 1958.27,1720.39Z" style="fill:rgb(99,94,90);fill-rule:nonzero;"/>
            <path d="M1867.62,1649.6C1867.62,1649.6 1876.35,1666.69 1863.5,1679.53C1849.93,1693.07 1836.21,1685.92 1836.21,1685.92C1836.21,1685.92 1860.71,1700.2 1874.59,1688.79C1894.1,1672.75 1867.62,1649.6 1867.62,1649.6Z" style="fill:rgb(35,31,32);fill-rule:nonzero;"/>
            <path d="M1904.31,1595.47C1904.31,1595.47 1922.22,1588.59 1921.24,1570.44C1920.19,1551.3 1905.2,1547.46 1905.2,1547.46C1905.2,1547.46 1932.97,1553.2 1935.68,1570.96C1939.48,1595.93 1904.31,1595.47 1904.31,1595.47Z" style="fill:rgb(35,31,32);fill-rule:nonzero;"/>
            <path d="M2004.07,1790.74C2020.25,1798.15 2036.23,1807.36 2047.08,1821.47C2052.75,1828.84 2056.96,1838.33 2054.59,1847.32C2052.22,1856.31 2040.8,1862.84 2033.1,1857.63C2031.3,1864.47 2025.43,1870.06 2018.52,1871.53C2011.61,1873.01 2003.97,1870.29 1999.54,1864.79C2001.06,1869.81 1994.92,1874.36 1989.72,1873.64C1984.53,1872.91 1980.44,1869.03 1976.45,1865.63C1943.22,1837.35 1896.64,1833.13 1854.15,1823.21C1845.74,1821.25 1837.17,1818.92 1830.18,1813.85C1817.88,1804.95 1815.59,1790.18 1825.75,1778.79C1833.3,1770.33 1841.04,1769.14 1851.67,1767.87C1884.89,1763.89 1917.27,1764.44 1949.98,1772.14C1968.57,1776.51 1986.71,1782.78 2004.07,1790.74Z" style="fill:rgb(191,148,109);fill-rule:nonzero;"/>
            <path d="M2179.71,1671.68C2173.74,1690.99 2177.24,1712.16 2184.7,1730.95C2195.45,1758.01 2214.39,1781.76 2238.38,1798.26C2222.76,1799.08 2210.78,1802.17 2193.95,1806.02C2190.37,1806.83 2170.78,1814.24 2166.25,1823.28C2158.57,1838.6 2166.65,1838.43 2171.39,1841.59C2176.14,1844.74 2200.88,1835.41 2206.57,1835.79C2216.49,1836.46 2226.45,1836.61 2236.39,1836.23C2253.82,1835.56 2271.88,1833.04 2286.49,1823.51C2295.28,1817.77 2302.37,1809.78 2308.66,1801.37C2315.16,1792.67 2321.05,1783.12 2323,1772.43C2326.45,1753.44 2316.68,1734.1 2302.98,1720.49C2289.28,1706.89 2271.94,1697.71 2255.59,1687.43C2244.98,1680.76 2233.64,1671.73 2233.11,1659.21C2232.88,1653.67 2234.89,1648.12 2234.01,1642.65C2231.66,1627.97 2211.59,1635.94 2203.74,1640.59C2192.25,1647.38 2183.63,1658.99 2179.71,1671.68Z" style="fill:rgb(175,137,103);fill-rule:nonzero;"/>
            <path d="M2248.69,1623.85C2230.92,1627 2213.56,1635.33 2202.36,1649.47C2188.41,1667.06 2185.7,1691.86 2191.79,1713.47C2197.88,1735.09 2211.85,1753.77 2228.22,1769.14C2243.96,1783.93 2262.01,1796.03 2280.24,1807.61C2249.34,1806.34 2218.17,1811.84 2189.57,1823.61C2184.45,1825.72 2179.25,1828.14 2175.56,1832.27C2171.88,1836.4 2170.07,1842.68 2172.59,1847.61C2175.58,1853.44 2182.96,1855.15 2189.44,1856.09C2181.73,1860.19 2189.1,1869.02 2194.22,1870C2210.74,1873.16 2226.97,1866.46 2243.31,1862.45C2267.11,1856.61 2291.17,1851.81 2315.39,1848.05C2333.31,1845.28 2351.88,1842.88 2367.45,1833.59C2389.76,1820.26 2402.42,1793.9 2403.04,1767.92C2403.67,1741.94 2393.48,1716.56 2378.56,1695.28C2363.48,1673.8 2343.19,1654.3 2324.22,1636.21C2306.2,1619.03 2271.51,1619.81 2248.69,1623.85Z" style="fill:rgb(191,148,109);fill-rule:nonzero;"/>
            <path d="M2189.44,1856.09C2189.44,1856.09 2190.21,1850.34 2196.04,1846.12C2201.86,1841.9 2208.67,1838.96 2208.4,1838.97C2208.14,1838.97 2197.33,1838.8 2192.11,1841.85C2182.49,1847.47 2181.49,1854.35 2181.49,1854.35L2189.44,1856.09Z" style="fill:rgb(175,137,103);fill-rule:nonzero;"/>
            <path d="M1999.54,1864.79C1999.54,1864.79 2000.02,1860.51 1998.31,1853.02C1996.6,1845.53 1993.88,1838.58 1993.88,1838.58C1993.88,1838.58 2000.74,1846.81 2002.78,1853.95C2004.82,1861.08 2006.09,1869.93 2006.09,1869.93C2006.09,1869.93 2004.49,1869.3 2002.58,1867.97C2000.67,1866.65 1999.27,1865.48 1999.27,1865.48L1999.54,1864.79Z" style="fill:rgb(175,137,103);fill-rule:nonzero;"/>
            <path d="M2036.96,1845.33C2032.32,1836.69 2023.08,1828.86 2023.08,1828.86C2023.08,1828.86 2027.49,1834.75 2029.5,1840.86C2031.52,1846.97 2033.1,1857.63 2033.1,1857.63C2033.1,1857.63 2035.34,1859.01 2036.83,1859.22C2038.33,1859.44 2041.36,1859.3 2041.36,1859.3C2041.36,1859.3 2041.6,1853.97 2036.96,1845.33Z" style="fill:rgb(175,137,103);fill-rule:nonzero;"/>
        </g>
    </g>
</svg>
