<?xml version="1.0" encoding="UTF-8" standalone="no"?>
<!DOCTYPE svg PUBLIC "-//W3C//DTD SVG 1.1//EN" "http://www.w3.org/Graphics/SVG/1.1/DTD/svg11.dtd">
<svg width="100%" height="100%" viewBox="0 0 521 758" version="1.1" xmlns="http://www.w3.org/2000/svg" xmlns:xlink="http://www.w3.org/1999/xlink" xml:space="preserve" xmlns:serif="http://www.serif.com/" style="fill-rule:evenodd;clip-rule:evenodd;stroke-linejoin:round;stroke-miterlimit:2;">
    <g transform="matrix(1,0,0,1,-633.566,-13.0795)">
        <g transform="matrix(1,0,0,1,-15.2789,4.43357)">
            <g transform="matrix(1,0,0,1,-466.324,-787.016)">
                <path d="M1149.21,1408.02C1131.15,1429.05 1119.47,1455.48 1116.06,1482.98C1114.04,1499.32 1115.07,1516.67 1123.17,1530.99C1131.28,1545.31 1147.7,1555.73 1163.94,1553.07C1166.14,1547.8 1158.72,1544.26 1153.7,1541.55C1140.53,1534.44 1137.78,1516.7 1139.23,1501.81C1141.81,1475.47 1154.47,1448.25 1178.23,1436.61C1191.21,1430.25 1206.15,1429.11 1219.56,1423.71C1232.97,1418.31 1245.72,1405.9 1243.72,1391.58C1242.18,1380.5 1232.37,1372.45 1222.41,1367.33C1197.37,1354.45 1163.95,1390.86 1149.21,1408.02Z" style="fill:rgb(191,148,109);fill-rule:nonzero;"/>
                <path d="M1184.83,1386.15C1184.77,1403.04 1182.37,1419.92 1177.71,1436.16C1193.02,1432.31 1208.34,1428.46 1223.66,1424.62C1224.56,1424.39 1225.5,1424.14 1226.14,1423.47C1226.67,1422.92 1226.91,1422.16 1227.12,1421.42C1231.49,1406.17 1228.67,1389.03 1219.66,1375.98C1214.83,1368.98 1204.44,1359.69 1195.02,1362.68C1185.78,1365.62 1184.86,1378.25 1184.83,1386.15Z" style="fill:rgb(175,137,103);fill-rule:nonzero;"/>
                <path d="M1364.82,1405.21C1374.97,1411.19 1384.09,1412.56 1394.53,1416.34C1427.83,1428.37 1463.29,1438.61 1496.37,1451.22C1504.83,1454.44 1513.37,1457.71 1522.34,1458.95C1525.31,1459.36 1528.44,1459.53 1531.21,1458.39C1533.98,1457.24 1536.28,1454.46 1535.98,1451.48C1540.4,1452.82 1544.96,1454.17 1549.57,1453.81C1554.18,1453.45 1558.93,1450.98 1560.64,1446.68C1562.46,1442.12 1560.46,1436.96 1558,1432.71C1547.11,1413.87 1527.5,1401.81 1507.71,1392.76C1476.67,1378.56 1443.17,1369.79 1409.16,1366.97C1386.26,1365.07 1358.12,1401.27 1364.82,1405.21Z" style="fill:rgb(163,127,95);fill-rule:nonzero;"/>
                <path d="M1456.93,1197.91C1470.05,1210.24 1488.18,1217.77 1506.09,1215.97C1523.38,1214.23 1539.19,1204.23 1556.56,1203.52C1573.55,1202.83 1590.6,1211.95 1599.46,1226.47C1600.61,1228.36 1601.79,1230.47 1603.85,1231.26C1608.03,1232.87 1611.8,1228.03 1613.19,1223.76C1617.94,1209.15 1621.87,1193.25 1612.95,1180.73C1602.95,1166.68 1582.36,1159.33 1567.21,1156.76C1554.98,1154.7 1541.67,1155.9 1531.01,1149.56C1523.06,1144.83 1508.7,1135.42 1495.42,1130.67C1481.05,1125.53 1462.5,1120.54 1447.53,1123.5C1432.53,1126.46 1430.85,1137.12 1431.93,1155.41C1432.79,1170 1446.81,1188.39 1456.93,1197.91Z" style="fill:rgb(163,127,95);fill-rule:nonzero;"/>
                <path d="M1623.33,1236.76C1620.21,1240.77 1615.82,1244.03 1610.79,1244.7C1605.76,1245.36 1600.18,1242.92 1598.16,1238.26C1596.73,1241.18 1592.32,1240.13 1589.56,1238.41C1578.74,1231.67 1570.39,1221.05 1566.4,1208.94C1564.87,1204.32 1563.96,1199.42 1564.52,1194.58C1566.07,1180.98 1580.11,1170.63 1593.76,1171.65C1608.72,1172.77 1618.4,1184.33 1623.07,1197.53C1627.78,1210.87 1633.27,1223.98 1623.33,1236.76Z" style="fill:rgb(163,127,95);fill-rule:nonzero;"/>
                <path d="M1602.43,1216.83C1607.06,1224.71 1607.19,1235.19 1602.44,1242.99C1602.38,1243.09 1599.37,1240.65 1599.09,1240.33C1598.09,1239.18 1597.86,1238.74 1598.48,1237.46C1599.53,1235.27 1600.66,1233.17 1601.45,1230.85C1602.99,1226.37 1603.62,1221.48 1602.43,1216.83Z" style="fill:rgb(143,113,86);fill-rule:nonzero;"/>
                <path d="M1301.7,946.978C1300.61,995.171 1297.46,1072.11 1296.37,1120.31C1296.05,1134.62 1297.87,1120.66 1303.48,1133.92C1307.42,1143.23 1314.05,1151.25 1321.27,1158.49C1327.6,1164.85 1334.59,1170.81 1342.84,1174.59C1352.06,1178.8 1362.4,1180.08 1372.56,1180.87C1400.65,1183.06 1430.42,1181.54 1454.53,1167.41C1457.41,1165.73 1460.29,1163.75 1461.85,1160.87C1462.91,1158.92 1454.57,1194.54 1473.59,1158.91C1492.5,1123.5 1457.24,1087.05 1454.73,1053.13C1453.65,1038.5 1454.11,1023.79 1453.21,1009.15C1451.98,989.069 1448.18,969.138 1441.93,949.956C1437.31,935.79 1431.2,921.79 1421.29,910.453C1398.48,884.372 1329.14,856.35 1309.7,898.716C1302.7,913.955 1302.07,930.567 1301.7,946.978Z" style="fill:rgb(191,148,109);fill-rule:nonzero;"/>
                <path d="M1453.17,1040.72C1452.94,1036.45 1452.61,1032.19 1452.19,1027.93C1446.08,1024.66 1439.64,1021.95 1433.2,1019.35C1422.6,1015.08 1411.79,1011 1400.46,1009.47C1392.05,1008.33 1372.25,1006.97 1368.22,1017.06C1368.22,1017.06 1380.72,1040.35 1385.69,1047.12C1404.46,1072.68 1415.71,1079.49 1437.13,1088.6C1442.94,1091.07 1463.13,1096.37 1469.23,1098.02C1469.12,1096.47 1454.07,1057.14 1453.17,1040.72Z" style="fill:rgb(175,137,103);fill-rule:nonzero;"/>
                <path d="M1445.28,805.189C1448.57,802.219 1449.51,802.854 1453.65,801.259C1457.79,799.664 1462.69,799.499 1466.49,801.787C1472.92,805.652 1473.87,814.48 1473.54,821.97C1472.99,834.374 1470.89,846.708 1467.3,858.593C1466.16,862.373 1464.8,866.217 1462.18,869.169C1456.49,875.574 1446.66,875.978 1438.19,874.702C1432.09,873.783 1425.93,872.174 1420.93,868.565C1410.67,861.162 1409.62,852.468 1416,843.183C1424.52,830.788 1433.89,815.453 1445.28,805.189Z" style="fill:rgb(191,148,109);fill-rule:nonzero;"/>
                <path d="M1361.76,1005.86C1389.9,1039.4 1430.33,1064.08 1473.49,1074.07C1501.3,1080.51 1530.51,1080.89 1556.39,1072.71C1582.27,1064.52 1604.56,1047.36 1615.53,1024.09C1620.74,1013.02 1655.06,964.529 1620.3,926.455C1614.51,920.116 1608.98,913.256 1601.92,907.988C1557.1,874.564 1497.34,870.945 1445.36,849.96C1407.57,834.705 1364.63,809.849 1332.55,841.588C1308.48,865.407 1317.69,916.988 1328.26,947.199C1335.59,968.151 1346.94,988.196 1361.76,1005.86Z" style="fill:rgb(191,148,109);fill-rule:nonzero;"/>
                <path d="M1620.3,926.455C1614.92,920.566 1609.77,914.229 1603.4,909.134C1585.22,911.516 1563.17,922.83 1554.85,934.76C1549.88,941.879 1548.59,952.216 1553.94,959.059C1562.77,970.367 1581.52,965.328 1593.82,972.714C1598.67,975.621 1602.16,980.271 1606.21,984.215C1610.25,988.157 1615.5,991.609 1621.12,991.05C1625.91,990.574 1629.92,987.291 1633.3,983.848C1637.77,965.917 1637.19,944.957 1620.3,926.455Z" style="fill:rgb(35,31,32);fill-rule:nonzero;"/>
                <path d="M1274.14,813.067C1271.01,812.941 1267.68,812.98 1265.04,814.661C1259.08,818.45 1248.92,840.383 1251.43,846.983C1260.21,870.107 1287,877.733 1306.68,892.716C1314.45,898.625 1323.65,903.875 1333.36,902.95C1342.55,902.075 1350.56,895.574 1355.04,887.505C1359.53,879.438 1360.91,869.985 1361,860.754C1361.17,841.852 1353.3,832.161 1336.03,826.517C1315.95,819.95 1295.39,813.927 1274.14,813.067Z" style="fill:rgb(191,148,109);fill-rule:nonzero;"/>
                <path d="M1256.84,817.284C1242.2,832.458 1229.13,852.218 1232.1,873.099C1233.79,884.962 1240.49,895.489 1247.81,904.977C1250.23,908.113 1252.84,911.269 1256.35,913.096C1259.87,914.923 1264.53,915.103 1267.52,912.508C1270.31,910.093 1270.95,906.066 1271.14,902.385C1271.55,894.775 1272.46,887.021 1271.07,879.529C1266.53,855.176 1275.54,831.254 1280.03,813.03C1280.03,813.03 1263.4,810.489 1256.84,817.284Z" style="fill:rgb(148,113,81);fill-rule:nonzero;"/>
                <path d="M1457.68,805.23C1461.73,807.002 1466.68,810.97 1469.34,814.498C1476.06,823.416 1480.15,832.682 1486.33,841.86C1486.71,842.436 1490.26,848.76 1496.21,847.586C1508.36,845.19 1507.72,821.722 1505.56,814.715C1503.76,808.875 1499.2,804.151 1493.86,801.186C1488.51,798.221 1482.42,796.858 1476.35,796.146C1470.47,795.456 1464.44,795.353 1458.71,796.847C1453.6,798.18 1448.49,800.91 1445.28,805.189C1448.35,802.978 1453.78,803.523 1457.68,805.23Z" style="fill:rgb(148,113,81);fill-rule:nonzero;"/>
                <path d="M1442.41,930.212C1432.22,936.848 1416.07,930.114 1406.34,915.17C1396.62,900.228 1397,882.735 1407.19,876.099C1417.39,869.463 1433.54,876.198 1443.26,891.141C1452.99,906.083 1452.61,923.577 1442.41,930.212Z" style="fill:white;fill-rule:nonzero;"/>
                <path d="M1441.7,889.558C1445.65,898.724 1443.13,908.626 1436.07,911.675C1429.01,914.724 1420.07,909.765 1416.12,900.598C1412.16,891.432 1414.68,881.53 1421.74,878.481C1428.81,875.432 1437.74,880.392 1441.7,889.558Z" style="fill:rgb(35,31,32);fill-rule:nonzero;"/>
                <path d="M1570.51,956.156C1568.53,956.155 1566.49,955.368 1564.99,954.033C1561,950.478 1560.78,943.992 1563.25,939.252C1565.72,934.514 1570.28,931.229 1574.93,928.605C1577.89,926.937 1590.08,921.065 1598.11,921.065C1602.45,921.065 1605.57,922.778 1605.38,927.791C1605.31,929.838 1603.78,931.56 1602.07,932.689C1595.57,936.988 1585.56,935.506 1580.99,941.827C1577.98,945.991 1578.34,952.547 1573.95,955.227C1572.91,955.864 1571.72,956.156 1570.51,956.156Z" style="fill:rgb(99,94,90);fill-rule:nonzero;"/>
                <path d="M1562.45,1070.6C1562.45,1070.6 1536.42,1071.62 1507.5,1048.95C1478.58,1026.28 1475.07,1011.82 1471.91,1012.1C1468.76,1012.37 1479.36,1034.65 1495.58,1050.87C1511.79,1067.08 1536.6,1077.25 1536.6,1077.25C1536.6,1077.25 1544.79,1075.8 1548.83,1074.83C1557.25,1072.83 1562.45,1070.6 1562.45,1070.6Z" style="fill:rgb(35,31,32);fill-rule:nonzero;"/>
                <path d="M1202.22,1271.31C1193.83,1296.5 1186.58,1322.51 1186.49,1349.09C1186.39,1375.68 1194.16,1403.19 1212.39,1422.31C1237.87,1449.05 1277.63,1454.54 1314.23,1457.13C1354.94,1460.01 1384.99,1458.77 1424.65,1449.09C1495.17,1431.86 1495.13,1334.73 1495.38,1308.31C1495.85,1260.44 1492.22,1214.28 1487.74,1166.43C1485.9,1146.78 1479.14,1127.03 1473.24,1108.28C1466.73,1087.6 1432.5,1091.15 1411.73,1085.38C1386.02,1078.25 1360.4,1065.97 1344.59,1044.22C1336.52,1033.11 1302.06,975.244 1300.45,991.11C1296.34,1031.66 1211.23,1244.25 1202.22,1271.31Z" style="fill:rgb(191,148,109);fill-rule:nonzero;"/>
                <path d="M1323.69,1255.21C1340.05,1262.74 1353.71,1276.06 1361.42,1292.33C1370.33,1311.15 1371.1,1333.11 1366.7,1353.47C1362.3,1373.82 1353.04,1392.81 1342.55,1410.8C1370.24,1416.53 1396.98,1426.87 1421.33,1441.28C1424.53,1443.17 1427.92,1445.21 1431.65,1445.16C1435.38,1445.11 1394.08,1412.83 1368.81,1407.13C1385.31,1384.69 1397.2,1354.31 1396.2,1326.47C1395.67,1311.55 1381.81,1265.72 1334.92,1247.07C1312.6,1238.19 1276.4,1239.95 1256.31,1253.11C1259.76,1250.85 1267.85,1253.46 1272.13,1251.77C1277.22,1249.76 1280.46,1248.21 1286.46,1247.96C1299.21,1247.45 1312.1,1249.87 1323.69,1255.21Z" style="fill:rgb(175,137,103);fill-rule:nonzero;"/>
                <path d="M1257.32,1444.94C1267.47,1450.91 1276.59,1452.28 1287.03,1456.06C1320.32,1468.09 1355.79,1478.34 1388.87,1490.94C1397.33,1494.17 1405.87,1497.43 1414.84,1498.67C1417.81,1499.08 1420.94,1499.25 1423.71,1498.11C1426.48,1496.97 1428.78,1494.19 1428.47,1491.2C1432.9,1492.54 1437.46,1493.89 1442.07,1493.53C1446.68,1493.17 1451.43,1490.7 1453.14,1486.41C1454.95,1481.84 1452.96,1476.68 1450.5,1472.43C1439.6,1453.59 1419.99,1441.54 1400.2,1432.48C1369.17,1418.28 1335.66,1409.51 1301.66,1406.69C1278.76,1404.79 1250.61,1440.99 1257.32,1444.94Z" style="fill:rgb(191,148,109);fill-rule:nonzero;"/>
                <path d="M1396.25,1245.2C1423.71,1265.03 1468.29,1264.43 1495.3,1284.87C1495.07,1270.09 1495.01,1248.99 1493.13,1236.8C1490.3,1218.38 1456.33,1212.54 1443.66,1198.87C1434.13,1188.57 1427.28,1175.78 1416.39,1166.94C1395.12,1149.67 1372.91,1159.66 1370.39,1185.24C1368.17,1207.77 1377.68,1231.8 1396.25,1245.2Z" style="fill:rgb(175,137,103);fill-rule:nonzero;"/>
                <path d="M1437.23,1161.87C1440.51,1158.22 1442.79,1158.14 1447.65,1157.5C1458.4,1156.07 1460.93,1171.58 1473.82,1175.38C1484.67,1178.57 1488.77,1177.54 1489.84,1189.62C1491.07,1203.39 1485.84,1200.32 1485.64,1214.15C1485.6,1216.93 1485.42,1219.96 1483.56,1222.02C1482.24,1223.5 1480.27,1224.22 1478.34,1224.69C1467.51,1227.29 1455.63,1223.19 1447.83,1215.25C1440.37,1207.67 1437.56,1198.07 1436.2,1187.82C1435.11,1179.65 1430.97,1168.85 1437.23,1161.87Z" style="fill:rgb(175,137,103);fill-rule:nonzero;"/>
                <path d="M1393.16,1221.07C1404.66,1234.91 1421.73,1244.61 1439.72,1245.03C1457.1,1245.42 1474.02,1237.44 1491.34,1238.87C1508.29,1240.27 1524.09,1251.42 1531.1,1266.92C1532,1268.93 1532.92,1271.16 1534.86,1272.2C1538.82,1274.32 1543.15,1269.98 1545.05,1265.91C1551.56,1251.99 1557.19,1236.59 1549.98,1223.02C1542.06,1208.11 1522.37,1198.18 1507.65,1193.77C1495.76,1190.22 1482.41,1189.78 1472.61,1182.18C1465.3,1176.51 1461.14,1167.66 1454.36,1161.37C1443.16,1151 1426.53,1149.05 1411.3,1150.15C1396.06,1151.24 1374.74,1157.54 1373.56,1175.82C1372.62,1190.4 1384.28,1210.38 1393.16,1221.07Z" style="fill:rgb(191,148,109);fill-rule:nonzero;"/>
                <path d="M1553.52,1280.06C1549.94,1283.65 1545.18,1286.35 1540.11,1286.39C1535.03,1286.44 1529.79,1283.32 1528.36,1278.46C1526.58,1281.18 1522.33,1279.59 1519.8,1277.55C1509.89,1269.53 1502.91,1257.96 1500.44,1245.46C1499.49,1240.69 1499.19,1235.71 1500.33,1230.97C1503.54,1217.67 1518.75,1209.13 1532.17,1211.81C1546.89,1214.75 1555.07,1227.42 1558.08,1241.09C1561.12,1254.91 1564.95,1268.59 1553.52,1280.06Z" style="fill:rgb(191,148,109);fill-rule:nonzero;"/>
                <path d="M1535.23,1257.71C1538.85,1266.1 1537.7,1276.51 1532.03,1283.67C1531.96,1283.76 1529.27,1280.97 1529.03,1280.62C1528.18,1279.35 1528.01,1278.9 1528.77,1277.7C1530.09,1275.65 1531.46,1273.71 1532.53,1271.51C1534.61,1267.24 1535.84,1262.47 1535.23,1257.71Z" style="fill:rgb(175,137,103);fill-rule:nonzero;"/>
                <path d="M1428.47,1491.2C1428.47,1491.2 1429.16,1488.53 1428.09,1484.42C1426.08,1476.74 1420.02,1471.9 1420.02,1471.9C1420.02,1471.9 1431.41,1478.01 1433.3,1481.55C1436.74,1487.99 1434.37,1492.82 1434.37,1492.82L1428.47,1491.2Z" style="fill:rgb(175,137,103);fill-rule:nonzero;"/>
                <path d="M1535.98,1451.48C1535.98,1451.48 1536.78,1449.24 1535.25,1442.68C1533.71,1436.12 1526.47,1431.86 1526.47,1431.86C1526.47,1431.86 1535.42,1432.88 1539.68,1440.13C1543.94,1447.37 1544.2,1453.55 1544.2,1453.55C1544.2,1453.55 1542.49,1453.72 1539.42,1452.8C1536.36,1451.88 1535.98,1451.48 1535.98,1451.48Z" style="fill:rgb(143,113,86);fill-rule:nonzero;"/>
            </g>
        </g>
    </g>
</svg>
