<svg width="533" height="810" viewBox="0 0 533 810" fill="none" xmlns="http://www.w3.org/2000/svg">
<path d="M496.434 184.088C498.646 177.196 499.855 169.85 499.855 162.221C499.855 125.054 471.496 94.5209 435.238 91.0542C427.375 44.4792 386.871 8.99166 338.054 8.99166C318.417 8.99166 300.138 14.7583 284.767 24.6542C278.15 10.125 263.538 0 246.529 0C235.567 0 225.617 4.23334 218.129 11.1125C205.517 4.04584 190.979 0 175.496 0C127.225 0 88.0959 39.1292 88.0959 87.4001C88.0959 98.2709 90.0959 108.667 93.7209 118.267C91.8542 118.146 89.9834 118.067 88.0959 118.067C39.4417 118.067 0 157.508 0 206.163C0 254.817 39.4417 294.259 88.0959 294.259C88.2501 294.259 88.4042 294.246 88.5626 294.246C88.2584 297.379 88.0959 300.554 88.0959 303.771C88.0959 357.675 131.792 401.371 185.7 401.371C227.85 401.371 263.754 374.654 277.417 337.234C295.021 358.721 321.763 372.438 351.713 372.438C391.188 372.438 425.084 348.604 439.838 314.55C446.584 316.663 453.767 317.804 461.209 317.804C500.696 317.804 532.709 285.792 532.709 246.3C532.709 219.625 518.088 196.375 496.434 184.088Z" fill="#AAC85A"/>
<path d="M348.559 272.319C234.538 298.19 209.304 242.665 126.067 219.665C78.6875 206.573 46.7499 239.644 28.0166 270.569C33.6041 275.786 39.8291 280.252 46.5541 283.857C68.9458 295.861 85.5375 315.948 94.8666 339.577C109.112 375.648 144.304 401.373 185.7 401.373C208.229 401.373 228.975 393.744 245.492 380.923C267.017 364.215 295.817 359.136 321.7 367.652C331.142 370.757 341.229 372.44 351.713 372.44C378.896 372.44 403.438 361.136 420.9 342.977C434.325 329.015 452 319.836 471.179 317.115C495.084 313.727 516.554 298.319 526.788 274.806C480.242 267.598 465.75 245.731 348.559 272.319Z" fill="#8EAC37"/>
<path d="M246.196 393.573V809.894H290.742L295.992 560.053C297.021 518.532 305.962 477.586 322.329 439.407L397.992 262.956C392.329 263.769 386.342 264.736 379.962 265.886C379.962 265.886 288.742 453.494 288.742 389.957V278.915C272.767 278.431 258.921 275.84 246.196 271.927V313.04C246.196 318.798 240.287 322.661 235.008 320.369C204.433 307.077 177.983 269.536 163.562 233.381C158.608 231.144 153.496 228.973 148.129 226.923C158.316 254.59 176.85 298.081 219.75 334.944C236.762 349.561 246.196 371.144 246.196 393.573Z" fill="#746663"/>
</svg>
