<svg width="489" height="586" viewBox="0 0 489 586" fill="none" xmlns="http://www.w3.org/2000/svg">
<path d="M427.534 167.863C432.83 159.042 435.763 149.358 435.763 139.188C435.763 98.2959 388.421 65.1501 330.025 65.1501C307.179 65.1501 286.05 70.2376 268.763 78.8584C256.867 33.6834 210.871 0 155.9 0C91.8959 0 40.0126 45.6375 40.0126 101.933C40.0126 115.713 43.1417 128.85 48.7792 140.838C20.0209 152.267 0 177.704 0 207.275C0 247.525 37.075 280.154 82.8126 280.154C97.6584 280.154 111.583 276.7 123.629 270.675C139.308 312.238 188.146 342.563 246 342.563C302.634 342.563 350.625 313.5 367.33 273.284C379.517 278.846 393.909 282.075 409.342 282.075C453.146 282.075 488.663 256.159 488.663 224.196C488.663 196.8 462.567 173.867 427.534 167.863Z" fill="#B3D843"/>
<path d="M310.567 232.95C232.367 249.396 212.817 240.654 96.9418 192.354C47.55 171.767 18.325 179.812 1.04167 195.812C0.370834 199.55 0 203.371 0 207.275C0 249.346 38.775 279.35 81.2376 280.192C105.792 280.679 129.758 289.021 147.525 305.975C170.933 328.321 206.346 342.562 246 342.562C283.167 342.562 316.609 330.046 339.934 310.075C359.7 293.146 384.279 282.425 410.305 282.129C447.542 281.7 482.184 261.85 487.871 232.321C456.909 200.071 377.45 218.887 310.567 232.95Z" fill="#8EAC37"/>
<path d="M349.613 224.804C333.672 245.337 259.296 342.562 259.013 286.896V240.387C246.205 240.929 234.28 240.071 221.626 237.662V292.146C193.938 272.046 158.546 235.825 136.834 208.904C131.871 206.871 126.655 204.717 121.242 202.471C123.721 206.892 126.238 211.292 128.805 215.667C144.996 242.996 170.096 279.792 197.009 304.846C212.717 319.462 221.626 339.942 221.626 361.396V585.338C229.521 586.538 237.659 585.338 246.001 585.338C250.396 585.338 254.734 585.654 259.013 585.621V389.546C259.013 360.442 271.576 332.442 294.209 314.142C323.288 290.637 349.026 249.896 363.563 222.121C358.917 222.979 354.267 223.875 349.613 224.804Z" fill="#8A6A60"/>
</svg>
