<svg width="545" height="786" viewBox="0 0 545 786" fill="none" xmlns="http://www.w3.org/2000/svg">
<path d="M0.00146484 176.296C0.00146484 119.233 46.264 72.9709 103.327 72.9709C107.56 72.9709 111.722 73.2584 115.827 73.7501C115.827 73.6834 115.814 73.6126 115.814 73.5417C115.814 53.9375 131.71 38.0459 151.314 38.0459C159.864 38.0459 167.71 41.0709 173.835 46.1042C186.256 22.1417 211.239 5.74166 240.093 5.74166C257.448 5.74166 273.377 11.7167 286.052 21.6542C301.535 8.17917 321.748 0 343.885 0C390.073 0 427.939 35.5334 431.698 80.7501C434.502 80.5251 437.331 80.3751 440.193 80.3751C498.06 80.3751 544.973 127.288 544.973 185.154C544.973 223.996 523.823 257.875 492.431 275.967C493.844 281.2 494.669 286.679 494.669 292.359C494.669 326.954 466.627 355 432.031 355C418.285 355 405.614 350.517 395.285 343.013C357.873 394.421 288.464 420.425 218.839 403.267C153.364 387.129 105.797 337.279 92.6765 279.075C40.614 273.742 0.00146484 229.763 0.00146484 176.296Z" fill="#B3D843"/>
<path d="M186.267 190.896C239.492 259.792 298.667 262.184 359.817 236.826C477.513 188.03 492.43 275.967 492.43 275.967C493.846 281.201 494.671 286.68 494.671 292.363C494.671 326.955 466.625 355.001 432.029 355.001C431.167 355.001 430.313 354.984 429.463 354.951C405.075 353.951 381.425 362.126 361.721 376.53C323.154 404.726 271.059 416.138 218.838 403.267C169.783 391.18 130.788 360.167 108.792 320.896C95.7001 297.53 75.3667 279.351 52.1125 266.055C20.9833 248.255 0 214.726 0 176.296C14.8 107.155 133.042 122.005 186.267 190.896Z" fill="#8EAC37"/>
<path d="M281.564 785.168V250.971C266.939 249.459 252.543 245.171 238.443 237.521V785.168H281.564Z" fill="#746663"/>
<path d="M404.685 291.319C390.91 294.852 377.247 299.727 364.127 305.311C350.972 310.915 338.302 317.494 326.364 324.982C314.468 332.536 303.356 341.102 293.672 350.807C288.835 355.657 284.443 360.844 280.406 366.203C276.439 371.619 273.014 377.315 270.01 383.148L266.935 389.111L259.602 388.978C243.618 388.011 229.252 382.336 216.643 375.186C203.977 367.982 192.772 359.161 182.472 349.652C161.947 330.527 144.818 308.707 129.851 285.694C114.956 262.627 102.218 238.244 92.3431 212.657C87.4347 199.852 83.2514 186.736 80.3306 173.252C77.4556 159.786 75.6722 145.873 77.0264 131.781L84.6181 132.398C83.9847 145.248 86.2472 158.332 89.6014 171.019C93.0014 183.74 97.6222 196.177 102.943 208.298C113.639 232.532 127.114 255.573 142.497 277.073C157.922 298.515 175.376 318.577 195.152 335.298C205.043 343.607 215.568 351.036 226.635 356.632C237.656 362.244 249.335 365.902 260.402 365.994L249.997 371.823C254.318 365.123 259.077 358.794 264.306 352.969C269.602 347.215 275.197 341.836 281.139 336.957C293.022 327.202 305.947 319.202 319.314 312.465C332.722 305.802 346.547 300.302 360.639 295.886C374.76 291.473 388.972 287.927 403.652 285.677L404.685 291.319Z" fill="#746663"/>
</svg>
