<svg width="98" height="59" viewBox="0 0 98 59" fill="none" xmlns="http://www.w3.org/2000/svg">
<path d="M81 10.5L77.7794 13C78.9412 14.5454 79.7509 16.3465 80.2739 18.5L83.5 16.5C83.5 16.5 85.0179 20.9449 88 19.5C89.5116 18.7676 90.5 17 90.5 17C92.9448 17.2899 92.3514 18.5242 97 15C98.4029 13.2944 95.5 9.49998 95.5 9.49998C95.5 9.49998 94.5444 3.78568 91.5 3.49998C88.4556 3.21429 87.7751 0.778709 83.5 1.50001C78.5911 2.32823 79.8618 7.32819 81 10.5Z" fill="#3FA700" stroke="black"/>
<path d="M79.9275 15.7393L79.9255 15.7364C78.6609 13.4638 76.9709 11.047 74.9032 9.19046C72.8287 7.32781 70.3398 6 67.5 6C65.6962 6 63.2916 6.77623 60.5157 8.07443C57.7229 9.38056 54.493 11.2451 51.0181 13.486C44.0669 17.9686 36.0978 23.9813 28.6204 30.1134C21.1427 36.2458 14.1458 42.5066 9.13946 47.4894C6.63809 49.979 4.62349 52.1596 3.29347 53.8511C2.6303 54.6945 2.12328 55.4338 1.81269 56.0401C1.65776 56.3425 1.54122 56.6317 1.48458 56.8976C1.42935 57.1569 1.41834 57.4547 1.55278 57.7236C1.69948 58.017 1.97594 58.1739 2.23296 58.2605C2.49568 58.3491 2.81314 58.3906 3.16064 58.4029C3.85879 58.4276 4.79066 58.3372 5.90516 58.1567C8.14136 57.7943 11.2117 57.0519 14.8304 56.0361C22.0731 54.0029 31.5701 50.8579 41.1076 47.4077C50.6456 43.9573 60.2348 40.198 67.6621 36.9343C71.3746 35.303 74.5553 33.7919 76.9218 32.5025C78.1045 31.8582 79.0929 31.2643 79.8458 30.7341C80.5806 30.2168 81.1513 29.7197 81.4287 29.2572C83.286 26.1618 82.8706 22.7412 82.0384 20.1591C81.6202 18.8618 81.0906 17.7548 80.666 16.9725C80.4534 16.5807 80.2664 16.269 80.1317 16.0539C80.0643 15.9463 80.01 15.8628 79.9719 15.8055C79.9642 15.7939 79.9572 15.7834 79.9509 15.7739C79.9416 15.76 79.9337 15.7485 79.9275 15.7393Z" fill="#FF6B00" stroke="black"/>
<path d="M81 29C77.5 34.8333 4 61.5 2 57.5C2 57.5 58.5 39 74 27C77.7977 24.0598 79.5 16 79.5 16C79.5 16 84.5 23.1667 81 29Z" fill="black" fill-opacity="0.2"/>
<path d="M19 46.5L21 50" stroke="#F06500" stroke-linecap="round"/>
<path d="M27.5 37L29.5 40" stroke="#F06500" stroke-linecap="round"/>
<path d="M41 37L43.5 41" stroke="#F06500" stroke-linecap="round"/>
<path d="M36 29.5L38.5 33" stroke="#F06500" stroke-linecap="round"/>
<path d="M51.5 23.5L53.5 27" stroke="#F06500" stroke-linecap="round"/>
<path d="M57.5 32.5L59.5 35.5" stroke="#F06500" stroke-linecap="round"/>
<path d="M64 15.5L66.5 19" stroke="#F06500" stroke-linecap="round"/>
<path d="M73.5 20L76 24" stroke="#F06500" stroke-linecap="round"/>
<path d="M69.5 8.5C72.6672 9.47452 79.5 17 72.5 15.5C61.6998 13.1856 50 26 45.5 23C42.3316 20.8878 64 6.80768 69.5 8.5Z" fill="#D9D9D9" fill-opacity="0.2"/>
</svg>
