<svg width="3125" height="2084" viewBox="0 0 3125 2084" fill="none" xmlns="http://www.w3.org/2000/svg">
<g clip-path="url(#clip0_227_558)">
<path d="M3125 0H0V2083.33H3125V0Z" fill="#E7F3FA"/>
<path d="M2829.54 305.708V642.459H2648.34V526.792H2471.21V604.167H2392.3V642.459H2301.92V533.5H2178.46V642.459H2142.79V305.708H1999.59V534.288H1939.59V642.459H1821.21V305.708H1644.04V584.625H1603.13V539.084H1508.25V305.708H1376.55V642.459H1195.38V526.792H1018.21V604.167H939.297V642.459H848.922V533.5H725.505V642.459H689.838V305.708H546.63V534.288H486.584V642.459H368.213V305.708H191.084V584.625H146.754V539.084H60.296V642.459H3.4585V1121.83H3121.54V642.459H3053.63V551.459H2961.22V305.708H2829.54Z" fill="#BADEE3"/>
<path d="M1812.38 173.818H2193.07C2193.07 173.818 2134.94 90.7764 2069.03 146.743C2069.03 146.743 2039.93 28.4805 1918.1 148.31C1918.1 148.31 1871.47 90.3472 1812.38 173.818Z" fill="white"/>
<path d="M821.138 159.727H1066.32C1066.32 159.727 1028.88 106.244 986.43 142.289C986.43 142.289 967.688 66.1227 889.222 143.298C889.222 143.298 859.188 105.969 821.138 159.727Z" fill="white"/>
<path d="M1374.67 833.522C1391.65 844.513 1402.92 866.351 1396.69 885.438H963.867C965.467 866.784 981.676 851.892 999.538 846.322C1017.42 840.751 1036.7 842.688 1055.2 845.492C1038.65 837.434 1023.84 825.842 1012.04 811.705C1006.99 805.68 1002.38 798.942 1000.93 791.226C999.463 783.505 1001.84 774.622 1008.35 770.255C1016.16 765.022 1026.61 767.655 1035.45 770.78C1064.29 781.005 1091.87 794.726 1117.42 811.555C1120.15 789.867 1127.64 768.805 1139.18 750.242C1143.32 743.597 1148.12 737.142 1154.67 732.851C1161.22 728.559 1169.82 726.751 1177 729.876C1187.7 734.526 1191.49 747.663 1192.86 759.242C1194.95 776.751 1194.52 794.538 1191.56 811.909C1206.11 794.255 1225.05 780.23 1246.21 771.497C1253.68 768.409 1261.76 765.922 1269.78 767.017C1277.82 768.088 1285.7 773.567 1287.36 781.492C1288.83 788.513 1285.29 795.534 1281.39 801.559C1275.1 811.309 1267.6 820.251 1259.09 828.138C1277.35 823.772 1296.06 821.305 1314.83 820.776C1335.53 820.192 1357.28 822.284 1374.67 833.522Z" fill="#87AFB9"/>
<path d="M787.575 879.234C801.842 879.234 813.871 867.896 813.946 853.63V853.359C813.946 822.771 787.096 796.255 747.875 783.221C725.417 775.755 709.342 756.167 707.013 732.617C706.959 732.076 706.905 731.534 706.846 730.988C698.096 651.534 630.05 593.434 550.221 597.555C517.634 599.234 487.813 611.342 464.013 630.6C429.513 658.517 386.563 673.525 342.179 673.417H341.321C207.192 673.417 98.4541 749.371 98.4541 843.067C98.4541 855.484 100.417 867.576 104.042 879.234H787.575Z" fill="#87AFB9"/>
<path d="M218.317 270.937C218.317 213.875 264.579 167.612 321.642 167.612C325.875 167.612 330.038 167.9 334.142 168.391C334.142 168.325 334.129 168.254 334.129 168.183C334.129 148.579 350.025 132.687 369.63 132.687C378.18 132.687 386.025 135.712 392.15 140.745C404.571 116.783 429.555 100.383 458.409 100.383C475.763 100.383 491.692 106.358 504.367 116.295C519.85 102.82 540.063 94.6411 562.2 94.6411C608.388 94.6411 646.255 130.174 650.013 175.391C652.817 175.166 655.646 175.016 658.509 175.016C716.376 175.016 763.288 221.929 763.288 279.795C763.288 318.637 742.138 352.516 710.746 370.608C712.159 375.841 712.984 381.321 712.984 387C712.984 421.596 684.942 449.641 650.346 449.641C636.601 449.641 623.93 445.158 613.601 437.654C576.188 489.062 506.78 515.066 437.155 497.908C371.68 481.771 324.113 431.921 310.992 373.716C258.929 368.383 218.317 324.404 218.317 270.937Z" fill="#B3D843"/>
<path d="M404.582 285.538C457.807 354.434 516.982 356.825 578.132 331.467C695.828 282.671 710.745 370.609 710.745 370.609C712.162 375.842 712.987 381.321 712.987 387.005C712.987 421.596 684.941 449.642 650.345 449.642C649.482 449.642 648.628 449.625 647.778 449.592C623.391 448.592 599.741 456.767 580.037 471.171C541.47 499.367 489.374 510.78 437.153 497.909C388.099 485.821 349.103 454.809 327.107 415.538C314.015 392.171 293.682 373.992 270.428 360.696C239.299 342.896 218.315 309.367 218.315 270.938C233.115 201.796 351.357 216.646 404.582 285.538Z" fill="#8EAC37"/>
<path d="M499.879 879.809V345.613C485.254 344.1 470.859 339.813 456.759 332.163V879.809H499.879Z" fill="#746663"/>
<path d="M394.464 273.875C396.556 292.225 399.977 310.383 404.239 328.283C408.544 346.171 413.835 363.804 420.502 380.825C423.785 389.35 427.527 397.675 431.61 405.775C435.664 413.892 440.219 421.717 445.277 429.121C455.244 444.013 467.694 457.063 482.248 466.167L474.385 478.088C458.269 466.496 445.76 451.238 436.227 434.85C431.385 426.675 427.173 418.204 423.519 409.546C419.835 400.9 416.556 392.117 413.769 383.208C408.094 365.417 403.914 347.271 400.739 329.004C397.614 310.733 395.373 292.329 394.464 273.875Z" fill="#746663"/>
<path d="M623 385.96C609.225 389.494 595.563 394.369 582.442 399.952C569.288 405.556 556.617 412.135 544.68 419.623C532.784 427.177 521.671 435.744 511.988 445.448C507.15 450.298 502.759 455.486 498.721 460.844C494.755 466.261 491.33 471.956 488.325 477.79L485.25 483.752L477.917 483.619C461.934 482.652 447.567 476.977 434.959 469.827C422.292 462.623 411.088 453.802 400.788 444.294C380.263 425.169 363.134 403.348 348.167 380.335C333.271 357.269 320.534 332.885 310.659 307.298C305.75 294.494 301.567 281.377 298.646 267.894C295.771 254.427 293.988 240.515 295.342 226.423L302.933 227.04C302.3 239.89 304.563 252.973 307.917 265.66C311.317 278.381 315.938 290.819 321.259 302.94C331.954 327.173 345.429 350.215 360.813 371.715C376.238 393.156 393.692 413.219 413.467 429.94C423.359 438.248 433.884 445.677 444.95 451.273C455.971 456.886 467.65 460.544 478.717 460.636L468.313 466.465C472.634 459.765 477.392 453.436 482.621 447.611C487.917 441.856 493.513 436.477 499.454 431.598C511.338 421.844 524.263 413.844 537.63 407.106C551.038 400.444 564.863 394.944 578.955 390.527C593.075 386.115 607.288 382.569 621.967 380.319L623 385.96Z" fill="#746663"/>
<path d="M518.671 431.479C518.671 388.9 484.155 354.383 441.575 354.383C438.417 354.383 435.309 354.596 432.25 354.967C432.25 354.917 432.259 354.863 432.259 354.813C432.259 340.183 420.4 328.325 405.767 328.325C399.392 328.325 393.538 330.583 388.967 334.342C379.696 316.458 361.059 304.221 339.529 304.221C326.579 304.221 314.692 308.679 305.234 316.096C293.684 306.042 278.6 299.938 262.083 299.938C227.621 299.938 199.371 326.45 196.563 360.188C194.471 360.021 192.363 359.913 190.221 359.913C147.046 359.913 112.046 394.913 112.046 438.088C112.046 467.071 127.825 492.346 151.25 505.85C150.192 509.754 149.575 513.842 149.575 518.079C149.575 543.892 170.5 564.817 196.317 564.817C206.571 564.817 216.025 561.475 223.733 555.871C251.65 594.234 303.438 613.634 355.388 600.834C404.242 588.792 439.734 551.596 449.525 508.167C488.367 504.188 518.671 471.375 518.671 431.479Z" fill="#AAC85A"/>
<path d="M379.692 442.371C339.979 493.775 295.829 495.559 250.196 476.642C162.379 440.229 151.25 505.846 151.25 505.846C150.192 509.75 149.579 513.838 149.579 518.075C149.579 543.888 170.504 564.813 196.317 564.813C196.958 564.813 197.6 564.8 198.233 564.775C216.429 564.034 234.075 570.129 248.779 580.88C277.554 601.921 316.425 610.43 355.388 600.83C391.992 591.809 421.088 568.671 437.5 539.371C447.267 521.934 462.442 508.367 479.788 498.446C503.017 485.167 518.671 460.15 518.671 431.475C507.634 379.884 419.409 390.967 379.692 442.371Z" fill="#8EAC37"/>
<path d="M461.201 398.267L455.538 398.725C457.713 442.971 410.821 524.771 362.325 558.367C358.767 560.834 354.375 556.734 356.542 552.984C376.292 518.792 385.446 470.234 387.242 433.671C383.071 470.25 347.088 561.934 340.763 549.18V477.167C330.238 482.871 319.5 486.071 308.588 487.2V535.055C307.463 553.901 242.984 517.001 217.492 513.092L216.721 517.305C240.771 523.471 267.609 536.809 288.571 554.371C301.192 564.942 308.588 580.476 308.588 596.942V879.813H340.763V628.746C340.763 609.113 350.334 590.821 366.23 579.292C418.267 541.555 465.93 447.346 461.201 398.267Z" fill="#8A6A60"/>
<path d="M2887.92 895.446C2904.5 888.646 2915.5 876.846 2915.5 863.405C2915.5 842.576 2892.77 829.863 2868.39 826.326C2855.23 824.417 2843.9 816.421 2837.85 804.576C2830.14 789.471 2816.29 777.121 2798.96 769.759C2778.63 761.121 2762.66 744.234 2756.21 723.101C2737.15 660.713 2679.15 615.33 2610.53 615.33C2547.78 615.33 2493.9 653.271 2470.56 707.467C2460.8 730.134 2441.18 747.534 2417.22 753.476C2380.05 762.696 2351.12 794.367 2346.45 833.392C2344.75 847.596 2335.63 859.571 2322.7 865.692C2308.84 872.255 2299.7 883.109 2299.39 895.446H2887.92Z" fill="#87AFB9"/>
<path d="M2755.41 273.09C2757.62 266.198 2758.83 258.852 2758.83 251.223C2758.83 214.056 2730.47 183.523 2694.21 180.056C2686.35 133.481 2645.84 97.9936 2597.03 97.9936C2577.39 97.9936 2559.11 103.76 2543.74 113.656C2537.12 99.127 2522.51 89.002 2505.5 89.002C2494.54 89.002 2484.59 93.2353 2477.1 100.114C2464.49 93.0478 2449.95 89.002 2434.47 89.002C2386.2 89.002 2347.07 128.131 2347.07 176.402C2347.07 187.273 2349.07 197.669 2352.69 207.269C2350.83 207.148 2348.96 207.069 2347.07 207.069C2298.41 207.069 2258.97 246.51 2258.97 295.165C2258.97 343.819 2298.41 383.261 2347.07 383.261C2347.22 383.261 2347.38 383.248 2347.54 383.248C2347.23 386.381 2347.07 389.556 2347.07 392.773C2347.07 446.677 2390.76 490.373 2444.67 490.373C2486.82 490.373 2522.73 463.656 2536.39 426.236C2553.99 447.723 2580.74 461.44 2610.69 461.44C2650.16 461.44 2684.06 437.606 2698.81 403.552C2705.56 405.665 2712.74 406.806 2720.18 406.806C2759.67 406.806 2791.68 374.794 2791.68 335.302C2791.68 308.627 2777.06 285.377 2755.41 273.09Z" fill="#AAC85A"/>
<path d="M2607.53 361.321C2493.51 387.192 2468.28 331.667 2385.04 308.667C2337.66 295.575 2305.72 328.646 2286.99 359.571C2292.58 364.788 2298.8 369.255 2305.53 372.859C2327.92 384.863 2344.51 404.95 2353.84 428.58C2368.09 464.65 2403.28 490.375 2444.67 490.375C2467.2 490.375 2487.95 482.746 2504.46 469.925C2525.99 453.217 2554.79 448.138 2580.67 456.655C2590.11 459.759 2600.2 461.442 2610.69 461.442C2637.87 461.442 2662.41 450.138 2679.87 431.98C2693.3 418.017 2710.97 408.838 2730.15 406.117C2754.06 402.73 2775.53 387.321 2785.76 363.809C2739.21 356.6 2724.72 334.734 2607.53 361.321Z" fill="#8EAC37"/>
<path d="M2505.17 482.575V898.897H2549.71L2554.96 649.055C2555.99 607.534 2564.94 566.588 2581.3 528.409L2656.96 351.959C2651.3 352.771 2645.31 353.738 2638.94 354.888C2638.94 354.888 2547.71 542.496 2547.71 478.959V367.917C2531.74 367.434 2517.89 364.842 2505.17 360.93V402.042C2505.17 407.8 2499.26 411.663 2493.98 409.371C2463.41 396.08 2436.96 358.538 2422.53 322.384C2417.58 320.146 2412.47 317.975 2407.1 315.925C2417.29 343.592 2435.82 387.084 2478.72 423.946C2495.73 438.563 2505.17 460.146 2505.17 482.575Z" fill="#746663"/>
<path d="M2991.67 480.888C2996.96 472.067 2999.9 462.384 2999.9 452.213C2999.9 411.321 2952.56 378.175 2894.16 378.175C2871.31 378.175 2850.19 383.263 2832.9 391.884C2821 346.709 2775.01 313.025 2720.04 313.025C2656.03 313.025 2604.15 358.663 2604.15 414.959C2604.15 428.738 2607.28 441.875 2612.91 453.863C2584.16 465.292 2564.14 490.73 2564.14 520.301C2564.14 560.551 2601.21 593.18 2646.95 593.18C2661.79 593.18 2675.72 589.726 2687.76 583.701C2703.44 625.263 2752.28 655.588 2810.14 655.588C2866.77 655.588 2914.76 626.526 2931.46 586.309C2943.65 591.871 2958.04 595.101 2973.48 595.101C3017.28 595.101 3052.8 569.184 3052.8 537.221C3052.8 509.826 3026.7 486.892 2991.67 480.888Z" fill="#B3D843"/>
<path d="M2874.7 545.975C2796.5 562.421 2776.95 553.679 2661.08 505.379C2611.69 484.792 2582.46 492.838 2565.18 508.838C2564.51 512.575 2564.14 516.396 2564.14 520.3C2564.14 562.371 2602.91 592.375 2645.37 593.217C2669.93 593.705 2693.89 602.046 2711.66 619C2735.07 641.346 2770.48 655.588 2810.14 655.588C2847.3 655.588 2880.74 643.071 2904.07 623.1C2923.84 606.171 2948.41 595.45 2974.44 595.154C3011.68 594.725 3046.32 574.875 3052.01 545.346C3021.04 513.096 2941.59 531.913 2874.7 545.975Z" fill="#8EAC37"/>
<path d="M2913.75 537.829C2897.81 558.363 2823.43 655.588 2823.15 599.921V553.413C2810.34 553.954 2798.41 553.096 2785.76 550.688V605.171C2758.07 585.071 2722.68 548.85 2700.97 521.929C2696.01 519.896 2690.79 517.742 2685.38 515.496C2687.86 519.917 2690.37 524.317 2692.94 528.692C2709.13 556.021 2734.23 592.817 2761.14 617.871C2776.85 632.488 2785.76 652.967 2785.76 674.421V898.363C2793.66 899.563 2801.79 898.363 2810.14 898.363C2814.53 898.363 2818.87 898.68 2823.15 898.646V702.571C2823.15 673.467 2835.71 645.467 2858.34 627.167C2887.42 603.663 2913.16 562.921 2927.7 535.146C2923.05 536.004 2918.4 536.9 2913.75 537.829Z" fill="#8A6A60"/>
<path d="M2002.09 879.313L1991.8 878.313L2001.11 884.434C2000.91 885.505 2000.57 886.597 2000.09 887.713H1785.56C1780.4 878.859 1776.32 869.072 1774.05 858.601C1770.71 843.192 1769.34 828.351 1769.72 815.242L1789.28 808.321L1770.59 803.338C1773.12 782.963 1780.56 768.696 1791.87 766.234C1798.97 764.688 1806.67 768.034 1814.04 775.088L1808.21 780.734L1815.93 776.98C1821.01 782.305 1825.95 789.338 1830.41 797.717C1831.2 783.651 1833.21 770.492 1836.19 758.838L1850.62 757.267L1837.46 754.171C1845.24 727.246 1858.36 709.538 1873.24 709.538C1881.18 709.538 1888.61 714.546 1894.98 723.309L1881.89 729.271H1898.85C1903.36 737.101 1907.2 746.934 1910.14 758.201L1887.53 769.63H1912.71C1914.03 776.526 1915.03 783.855 1915.67 791.476C1921.02 784.742 1926.52 779.301 1931.94 775.409L1940.34 780.734L1935.49 773.088C1942.6 768.876 1949.4 767.488 1955.27 769.676C1964.83 773.226 1970.11 785.471 1970.98 802.359L1956.82 805.43L1971.07 809.484C1970.89 819.726 1969.25 831.288 1966.15 843.463C1973.94 833.426 1982.4 828.101 1989.94 829.784C1996.7 831.288 1999.5 840.826 2001.82 852.592L1991.8 855.663H2002.32C2003.39 863.109 2003.03 871.142 2002.09 879.313Z" fill="#87AFB9"/>
<path d="M1871.67 792.367L1878.5 887.713H1874.22L1867.41 792.684C1867.32 791.501 1868.21 790.476 1869.39 790.384C1870.58 790.317 1871.58 791.205 1871.67 792.367Z" fill="#297F63"/>
<path d="M1919.56 847.242L1907.36 887.709H1902.9L1915.46 846.013C1915.81 844.876 1917.01 844.238 1918.12 844.58C1919.26 844.922 1919.9 846.126 1919.56 847.242Z" fill="#297F63"/>
<path d="M1857.11 887.713H1851.5L1809.88 838.525C1809.1 837.617 1809.21 836.271 1810.13 835.521C1811.01 834.75 1812.36 834.863 1813.13 835.771L1857.11 887.713Z" fill="#297F63"/>
<path d="M1958.16 887.234L1957.16 887.713H1947.33L1956.3 883.388C1957.37 882.863 1958.64 883.322 1959.16 884.388C1959.66 885.434 1959.24 886.713 1958.16 887.234Z" fill="#297F63"/>
<path d="M0 882.078H3125V2084.52H0V882.078Z" fill="#AAC85A"/>
<path d="M3.44165 883.288H3121.56V1089.05H3.44165V883.288Z" fill="#EDDBC4"/>
<path d="M0.154053 2045.43H3125.16V2083.35H0.154053V2045.43Z" fill="#8EAC37"/>
<path d="M1296.54 1658.33L1277.71 1656.5L1294.75 1667.71C1294.38 1669.66 1293.75 1671.66 1292.88 1673.71H900.168C890.709 1657.5 883.251 1639.58 879.084 1620.41C872.959 1592.21 870.459 1565.04 871.168 1541.04L906.959 1528.37L872.751 1519.25C877.376 1481.96 891.001 1455.83 911.709 1451.33C924.709 1448.5 938.793 1454.62 952.293 1467.54L941.626 1477.87L955.751 1471C965.043 1480.75 974.084 1493.62 982.251 1508.96C983.709 1483.21 987.376 1459.12 992.834 1437.79L1019.25 1434.91L995.168 1429.25C1009.42 1379.96 1033.42 1347.54 1060.67 1347.54C1075.21 1347.54 1088.79 1356.71 1100.46 1372.75L1076.5 1383.66H1107.54C1115.79 1398 1122.83 1416 1128.21 1436.62L1086.83 1457.54H1132.92C1135.33 1470.16 1137.17 1483.58 1138.33 1497.54C1148.13 1485.21 1158.21 1475.25 1168.13 1468.12L1183.5 1477.87L1174.63 1463.87C1187.63 1456.16 1200.08 1453.62 1210.83 1457.62C1228.33 1464.12 1238 1486.54 1239.58 1517.46L1213.67 1523.08L1239.75 1530.5C1239.42 1549.25 1236.42 1570.41 1230.75 1592.71C1245 1574.33 1260.5 1564.58 1274.29 1567.66C1286.67 1570.41 1291.79 1587.87 1296.04 1609.41L1277.71 1615.04H1296.96C1298.92 1628.66 1298.25 1643.37 1296.54 1658.33Z" fill="#6EAA50"/>
<path d="M1057.8 1499.16L1070.3 1673.71H1062.46L1050 1499.75C1049.84 1497.58 1051.46 1495.71 1053.63 1495.54C1055.8 1495.42 1057.63 1497.04 1057.8 1499.16Z" fill="#297F63"/>
<path d="M1145.46 1599.62L1123.13 1673.71H1114.96L1137.96 1597.37C1138.58 1595.29 1140.79 1594.12 1142.83 1594.75C1144.92 1595.37 1146.08 1597.58 1145.46 1599.62Z" fill="#297F63"/>
<path d="M1031.13 1673.71H1020.88L944.668 1583.66C943.251 1581.99 943.459 1579.53 945.126 1578.16C946.751 1576.74 949.209 1576.95 950.626 1578.62L1031.13 1673.71Z" fill="#297F63"/>
<path d="M1216.13 1672.83L1214.3 1673.71H1196.3L1212.71 1665.79C1214.67 1664.83 1217.01 1665.66 1217.96 1667.62C1218.88 1669.54 1218.09 1671.87 1216.13 1672.83Z" fill="#297F63"/>
<path d="M358.346 1168.37L342.833 1166.84L357.129 1176.26C356.233 1180.92 355.033 1185.48 353.471 1189.78H98.2496C91.9079 1176.31 86.5329 1160.52 82.7871 1143.31C78.7787 1124.9 77.1454 1107.19 77.6121 1091.53L100.945 1083.28L78.6454 1077.32C81.6579 1052.99 90.5621 1035.95 104.058 1033C112.545 1031.15 121.716 1035.15 130.554 1043.57L123.562 1050.33L132.783 1045.83C138.858 1052.19 144.733 1060.6 150.075 1070.61C151.025 1053.8 153.42 1038.09 156.983 1024.18L174.208 1022.3L158.516 1018.6C167.783 986.451 183.462 965.296 201.254 965.296C210.704 965.296 219.575 971.288 227.216 981.738L211.571 988.88H231.808C237.2 998.201 241.796 1009.95 245.308 1023.41L218.312 1037.06H248.366C249.933 1045.3 251.146 1054.04 251.9 1063.14C258.287 1055.1 264.879 1048.61 271.337 1043.97L281.387 1050.33L275.596 1041.19C284.05 1036.15 292.191 1034.52 299.212 1037.13C310.612 1041.37 316.937 1055.97 317.954 1076.15L301.046 1079.83L318.087 1084.64C317.837 1096.88 315.904 1110.7 312.212 1125.25C321.5 1113.25 331.6 1106.89 340.621 1108.91C348.675 1110.69 354.466 1121.34 357.246 1135.37L342.833 1139.81H357.996C359.308 1148.68 359.475 1158.6 358.346 1168.37Z" fill="#6EAA50"/>
<path d="M191.085 1039.73L194.927 1189.78H189.935L189.635 1178.34C173.177 1169.65 160.993 1155.13 155.318 1137.39L142.918 1098.68C142.502 1097.36 143.218 1095.96 144.535 1095.55C145.831 1095.13 147.231 1095.85 147.647 1097.16L160.047 1135.87C165.039 1151.48 175.439 1164.4 189.485 1172.6L186.11 1039.84C186.056 1038.46 187.156 1037.33 188.539 1037.28H188.606C189.952 1037.28 191.052 1038.36 191.085 1039.73Z" fill="#297F63"/>
<path d="M299.846 1132.92L270.821 1161.75C257.871 1174.61 240.816 1181.89 222.62 1182.37L220.625 1189.78H215.466L246.587 1074.17C246.937 1072.84 248.321 1072.06 249.633 1072.41C250.966 1072.78 251.762 1074.14 251.4 1075.47L223.97 1177.34C240.329 1176.55 255.608 1169.82 267.308 1158.2L296.316 1129.38C297.3 1128.4 298.883 1128.41 299.846 1129.38C300.829 1130.36 300.812 1131.94 299.846 1132.92Z" fill="#297F63"/>
<path d="M2504.06 1321.28L2480.26 1320.81L2501.05 1335.65C2497.26 1350.41 2491.11 1366.45 2482.72 1382.58H2214.57L2229.9 1368.64L2201.58 1366.92C2199.46 1358.66 2199.04 1349.39 2199.89 1340.03L2216.73 1334.8L2200.94 1331.88C2202.61 1321.88 2205.59 1312.12 2209.4 1303.68L2224.44 1308L2211.41 1299.49C2218.16 1286.37 2226.94 1277.48 2235.44 1277.99C2244.94 1278.57 2253.13 1287.75 2258.95 1302.27C2259.41 1286.81 2261.42 1272.56 2264.67 1260.37L2282.92 1260.44L2267.21 1252C2273.98 1232.28 2284.39 1219.61 2296.91 1218.65C2304.61 1218.05 2312.19 1221.99 2319.16 1229.38L2310.81 1236.8L2322.57 1233.35C2327.67 1239.81 2332.35 1248.12 2336.38 1257.9C2339.72 1249.1 2343.4 1240.77 2347.32 1233.04L2377.1 1241.59L2354.25 1220.41C2361.55 1208.07 2369.44 1197.71 2377.44 1190L2397.51 1195.77L2384.03 1184.25C2394.57 1176.05 2405.06 1172.65 2414.44 1175.34C2432.06 1180.4 2441.57 1205.82 2441.62 1240.32L2425.02 1239.55L2441.55 1246.29C2441.11 1261.11 2439.04 1277.37 2435.18 1294.28C2443.31 1285.86 2451.53 1279.22 2459.37 1274.65L2467.24 1281.74L2462.22 1273.05C2473.39 1267.21 2483.61 1265.85 2491.49 1270.11C2504.04 1276.86 2508 1296.3 2504.06 1321.28Z" fill="#8EAC37"/>
<path d="M2257.34 1341.08L2297.82 1382.58H2288.49L2252.56 1345.73C2251.26 1344.42 2251.28 1342.31 2252.62 1341.01C2253.94 1339.72 2256.05 1339.74 2257.34 1341.08Z" fill="#1F664D"/>
<path d="M2310.85 1307.69L2324.48 1382.58H2317.69L2304.28 1308.89C2303.95 1307.06 2305.15 1305.33 2306.97 1304.99C2308.8 1304.66 2310.52 1305.86 2310.85 1307.69Z" fill="#1F664D"/>
<path d="M2378.28 1294.5L2365.56 1382.58H2358.79L2371.66 1293.54C2371.93 1291.71 2373.63 1290.42 2375.45 1290.71C2377.28 1290.96 2378.55 1292.68 2378.28 1294.5Z" fill="#1F664D"/>
<path d="M2449.64 1337.43L2384.25 1382.58H2372.49L2445.82 1331.92C2447.34 1330.88 2449.43 1331.25 2450.48 1332.79C2451.53 1334.3 2451.15 1336.38 2449.64 1337.43Z" fill="#1F664D"/>
<path d="M849.871 1268.37C849.584 1268.32 849.363 1268.22 849.18 1268.1C787.201 1269.8 725.192 1271.07 663.184 1271.9C662.73 1272.28 662.088 1272.4 661.43 1271.93C661.413 1271.91 661.413 1271.91 661.396 1271.9C660.605 1271.86 660.113 1271.36 659.963 1270.73C648.53 1261.15 647.246 1243.31 653.117 1230.12C662.609 1208.83 682.78 1222.11 698.226 1227.91C693.455 1215.87 691.18 1203.09 692.309 1190.09C692.951 1182.62 695.109 1172.16 703.338 1169.43C712.209 1166.48 721.163 1175.16 726.205 1181.38C733.471 1190.33 738.092 1201 745.026 1210.17C748.009 1189.83 763.355 1163 786.646 1166.03C813.426 1169.48 802.905 1206.6 798.18 1225.74C811.438 1216.65 829.938 1203 845.605 1211.61C851.842 1215.03 854.359 1221.69 853.359 1228.57C852.334 1235.7 847.763 1241.15 842.567 1245.84C854.796 1242.72 873.159 1239.52 876.667 1252.25C880.58 1266.47 859.23 1269.92 849.871 1268.37Z" fill="#8EAC37"/>
<path d="M2979.09 1217.18C2978.81 1217.13 2978.59 1217.03 2978.4 1216.91C2916.42 1218.61 2854.41 1219.88 2792.4 1220.71C2791.95 1221.09 2791.31 1221.21 2790.65 1220.74C2790.64 1220.72 2790.64 1220.72 2790.62 1220.71C2789.82 1220.67 2789.34 1220.17 2789.18 1219.54C2777.75 1209.96 2776.46 1192.12 2782.34 1178.93C2791.83 1157.63 2812 1170.92 2827.44 1176.72C2822.67 1164.68 2820.4 1151.9 2821.53 1138.9C2822.17 1131.43 2824.33 1120.97 2832.56 1118.24C2841.43 1115.29 2850.38 1123.97 2855.42 1130.2C2862.69 1139.13 2867.31 1149.81 2874.25 1158.98C2877.23 1138.64 2892.58 1111.81 2915.86 1114.83C2942.65 1118.29 2932.13 1155.41 2927.4 1174.55C2940.66 1165.46 2959.16 1151.81 2974.83 1160.42C2981.06 1163.84 2983.58 1170.5 2982.58 1177.38C2981.55 1184.51 2976.98 1189.96 2971.79 1194.65C2984.01 1191.53 3002.38 1188.33 3005.89 1201.06C3009.8 1215.28 2988.45 1218.73 2979.09 1217.18Z" fill="#8EAC37"/>
<path d="M1801.34 1318.43H1823.43V1687.28H1801.34V1318.43Z" fill="#47284F"/>
<path d="M1780.85 1544.04H1843.91V1560.81H1780.85V1544.04Z" fill="#47284F"/>
<path d="M1281.63 1318.43H1303.72V1687.28H1281.63V1318.43Z" fill="#47284F"/>
<path d="M1261.15 1544.04H1324.21V1560.81H1261.15V1544.04Z" fill="#47284F"/>
<path d="M1877.73 1544.03H1225.51C1222.26 1544.03 1219.62 1541.4 1219.62 1538.14V1516.03C1219.62 1512.78 1222.26 1510.14 1225.51 1510.14H1877.73C1880.98 1510.14 1883.62 1512.78 1883.62 1516.03V1538.14C1883.62 1541.4 1880.98 1544.03 1877.73 1544.03Z" fill="#CF7630"/>
<path d="M1877.73 1395.72H1225.51C1222.26 1395.72 1219.62 1393.08 1219.62 1389.83V1349.37C1219.62 1346.12 1222.26 1343.48 1225.51 1343.48H1877.73C1880.98 1343.48 1883.62 1346.12 1883.62 1349.37V1389.83C1883.62 1393.08 1880.98 1395.72 1877.73 1395.72Z" fill="#E09048"/>
<path d="M1877.73 1459.46H1225.51C1222.26 1459.46 1219.62 1456.82 1219.62 1453.56V1413.11C1219.62 1409.86 1222.26 1407.22 1225.51 1407.22H1877.73C1880.98 1407.22 1883.62 1409.86 1883.62 1413.11V1453.56C1883.62 1456.82 1880.98 1459.46 1877.73 1459.46Z" fill="#E09048"/>
<path d="M1322.78 1696.05C1322.68 1696.03 1322.6 1695.99 1322.54 1695.95C1301.51 1696.58 1280.47 1697.05 1259.43 1697.36C1259.28 1697.5 1259.06 1697.55 1258.84 1697.37C1258.83 1697.37 1258.83 1697.37 1258.83 1697.36C1258.56 1697.35 1258.39 1697.16 1258.34 1696.93C1254.46 1693.36 1254.03 1686.71 1256.02 1681.8C1259.24 1673.87 1266.08 1678.82 1271.32 1680.98C1269.7 1676.49 1268.93 1671.73 1269.31 1666.89C1269.53 1664.11 1270.26 1660.21 1273.06 1659.2C1276.07 1658.1 1279.11 1661.33 1280.82 1663.65C1283.28 1666.98 1284.85 1670.96 1287.2 1674.37C1288.21 1666.8 1293.42 1656.8 1301.32 1657.93C1310.41 1659.22 1306.84 1673.04 1305.24 1680.17C1309.74 1676.78 1316.01 1671.7 1321.33 1674.91C1323.44 1676.18 1324.3 1678.66 1323.96 1681.22C1323.61 1683.88 1322.06 1685.91 1320.3 1687.66C1324.45 1686.49 1330.68 1685.3 1331.87 1690.04C1333.2 1695.34 1325.95 1696.62 1322.78 1696.05Z" fill="#8EAC37"/>
<path d="M1836.17 1695.38C1836.09 1695.37 1836.03 1695.34 1835.98 1695.3C1819.2 1695.83 1802.41 1696.22 1785.62 1696.48C1785.5 1696.6 1785.33 1696.63 1785.15 1696.49C1785.14 1696.48 1785.14 1696.48 1785.14 1696.48C1784.92 1696.47 1784.79 1696.31 1784.75 1696.11C1781.66 1693.15 1781.31 1687.62 1782.9 1683.53C1785.47 1676.94 1790.93 1681.05 1795.11 1682.85C1793.82 1679.12 1793.2 1675.16 1793.51 1671.13C1793.68 1668.82 1794.27 1665.58 1796.49 1664.73C1798.9 1663.82 1801.32 1666.51 1802.69 1668.43C1804.65 1671.2 1805.9 1674.51 1807.78 1677.35C1808.59 1671.05 1812.74 1662.74 1819.05 1663.68C1826.3 1664.75 1823.45 1676.25 1822.17 1682.18C1825.76 1679.36 1830.77 1675.13 1835.01 1677.8C1836.7 1678.86 1837.38 1680.92 1837.11 1683.05C1836.84 1685.26 1835.6 1686.95 1834.19 1688.4C1837.5 1687.44 1842.47 1686.44 1843.42 1690.39C1844.48 1694.79 1838.7 1695.86 1836.17 1695.38Z" fill="#8EAC37"/>
</g>
<defs>
<clipPath id="clip0_227_558">
<rect width="3125" height="2084" fill="white"/>
</clipPath>
</defs>
</svg>
