<svg width="111" height="33" viewBox="0 0 111 33" fill="none" xmlns="http://www.w3.org/2000/svg">
<path d="M0 6.67999L4.20806 8.08268V12.2907H0L0.701343 9.48536L0 6.67999Z" fill="black"/>
<path d="M110.812 21.4082L107.305 22.1095L106.604 25.6163L110.812 26.3176L110.111 24.2136L110.812 21.4082Z" fill="black"/>
<path d="M99.7281 10.4073C97.2273 9.69283 91.2649 8.81203 83.6085 7.87138C75.9323 6.92831 66.5038 5.91971 57.0348 4.95527C49.0641 4.14344 41.0679 3.36318 34.0608 2.67945C24.4091 1.73766 16.6342 0.97899 13.3875 0.573164C11.0742 0.284 9.12888 0.869234 7.60213 2.02705C6.08436 3.17805 5.00751 4.8731 4.37114 6.77067C3.1043 10.5483 3.53903 15.2703 5.91112 18.4544C7.26362 20.2699 9.2428 21.5771 11.8608 21.9044C14.1561 22.1913 18.5088 22.7427 24.0948 23.4504C45.8008 26.2003 86.1297 31.3095 96.733 32.4256C101.309 32.9074 104.372 30.9981 105.995 28.0709C107.596 25.1838 107.768 21.3651 106.747 18.0101C105.685 14.5227 103.298 11.4273 99.7281 10.4073Z" fill="#D53A49" stroke="black"/>
<path d="M11.9228 21.4082C23.1443 22.8109 83.4598 30.5257 96.7853 31.9284C105.554 32.8514 108.249 24.6629 106.269 18.1557C107.43 31.8165 75.1117 28.271 6.31207 18.1557C7.58888 19.8696 9.44911 21.099 11.9228 21.4082Z" fill="#D9D9D9" fill-opacity="0.2"/>
</svg>
