<svg width="261" height="216" viewBox="0 0 261 216" fill="none" xmlns="http://www.w3.org/2000/svg">
<g clip-path="url(#clip0_9_660)">
<path d="M15.5689 109.185C20.1586 106.427 23.8934 104.508 26.3649 103.327C26.3279 103.291 26.2929 103.252 26.2559 103.216C25.6617 102.945 25.0508 102.703 24.4248 102.496C20.3481 101.123 16.1806 101.325 12.1858 102.444C13.158 104.752 14.3192 106.991 15.5689 109.185Z" fill="#828588"/>
<path d="M15.902 109.766C20.6357 106.942 24.4548 105.019 26.906 103.865C26.7207 103.686 26.5412 103.506 26.3652 103.327C23.8937 104.508 20.1589 106.427 15.5692 109.185C15.6789 109.378 15.7922 109.573 15.902 109.766Z" fill="#696C6F"/>
<path d="M8.03538 114.001C9.85283 112.77 11.5856 111.644 13.2378 110.615C11.8855 108.232 10.6425 105.802 9.59989 103.299C7.32102 104.163 5.11594 105.291 3.04307 106.548C4.26052 109.373 5.81171 111.986 8.03538 114.001Z" fill="#828588"/>
<path d="M8.54707 114.446C10.294 113.27 11.9744 112.176 13.5644 111.189C13.4526 110.999 13.3428 110.806 13.2367 110.615C11.5845 111.643 9.85173 112.769 8.03429 114.001C8.20262 114.151 8.37097 114.301 8.54707 114.446ZM4.48366 100.567C5.61927 99.717 6.72059 98.9095 7.79122 98.1468C6.72059 98.9095 5.61566 99.7149 4.48366 100.567Z" fill="#696C6F"/>
<path d="M-2.50516 121.748C0.35676 119.474 3.12729 117.417 5.76198 115.571C3.58901 113.426 2.02644 110.816 0.770672 108.008C0.451334 108.227 0.134038 108.443 -0.176 108.664C-2.87248 110.576 -5.43585 112.666 -7.8877 114.888C-6.44336 117.478 -4.73721 119.872 -2.50516 121.748Z" fill="#828588"/>
<path d="M-1.99514 122.157C0.85997 119.904 3.61853 117.859 6.24127 116.025C6.07655 115.877 5.91958 115.723 5.76263 115.57C3.12795 117.417 0.357416 119.474 -2.5045 121.748C-2.33922 121.886 -2.1682 122.024 -1.99514 122.157Z" fill="#696C6F"/>
<path d="M12.1853 102.444C16.1801 101.325 20.3476 101.123 24.4243 102.496C25.0503 102.703 25.6612 102.945 26.2553 103.216C22.0001 98.7529 21.0178 93.9375 20.9093 90.8005C18.0683 92.3212 14.5167 94.4228 10.3664 97.2613C10.85 99.032 11.4672 100.755 12.1853 102.444Z" fill="#5D6063"/>
<path d="M10.3672 97.2618C14.5175 94.4234 18.0691 92.3218 20.9101 90.801C20.898 90.5053 20.8961 90.2252 20.8988 89.9622C17.9258 91.5366 14.3162 93.672 10.1685 96.4976C10.2279 96.7532 10.2965 97.0093 10.3672 97.2618Z" fill="#4B4E51"/>
<path d="M3.04239 106.548C5.11526 105.291 7.32034 104.163 9.59921 103.299C8.99681 101.859 8.46482 100.398 8.01305 98.905C6.0766 100.284 4.02624 101.819 1.87078 103.519C2.23109 104.545 2.61628 105.561 3.04239 106.548Z" fill="#5D6063"/>
<path d="M1.87095 103.518C4.02641 101.818 6.07677 100.284 8.01322 98.9048C7.93682 98.6538 7.86251 98.3992 7.7918 98.1467C6.72118 98.9094 5.61986 99.7169 4.48424 100.567C3.54773 101.273 2.59243 102.011 1.61481 102.779C1.69899 103.025 1.78677 103.273 1.87095 103.518Z" fill="#4B4E51"/>
<path d="M-7.88748 114.887C-5.43562 112.665 -2.87225 110.575 -0.175772 108.663C0.134266 108.443 0.451562 108.227 0.770899 108.007C0.374321 107.119 0.0052078 106.208 -0.339028 105.288C-3.07725 107.522 -5.96701 110.011 -8.99345 112.786C-8.64206 113.494 -8.27357 114.198 -7.88748 114.887Z" fill="#5D6063"/>
<path d="M21.8735 87.5412C21.8735 87.5412 138.164 39.5196 169.584 33.4251C201.003 27.3307 210.182 44.8989 210.182 44.8989L149.866 72.6604L30.1351 105.59C19.3431 97.8823 21.8735 87.5412 21.8735 87.5412Z" fill="#B6B8BA"/>
<path d="M209.115 44.5774L149.557 71.9924L30.281 104.785C21.327 98.2106 22.1929 89.9108 22.5122 88.0744C29.7128 85.111 139.602 39.9943 169.722 34.1504C185.642 31.0589 195.612 34.2315 201.176 37.444L201.205 37.4607C205.798 40.1221 208.223 43.2395 209.115 44.5774ZM29.9922 106.394L30.3301 106.3L150.061 73.3704L211.188 45.245L210.834 44.5592C210.736 44.3779 201.039 26.5732 169.443 32.7C138.309 38.7425 22.7539 86.3808 21.592 86.8599L21.2436 87.0051L21.1546 87.3675C21.1293 87.478 18.6382 98.2844 29.7115 106.188L29.9922 106.394Z" fill="#939598"/>
<path d="M134.387 71.0857C135.122 70.904 135.859 70.728 136.597 70.5576C145.218 65.7586 155.45 60.653 166.335 55.7416C171.519 53.4039 177.328 50.917 183.243 48.5391C178.13 48.1034 172.95 48.2591 167.879 48.8004C167.793 48.8083 167.71 48.8182 167.627 48.8282C163.975 50.9629 160.373 53.1847 156.817 55.4765C149.157 60.4115 141.705 65.6597 134.387 71.0857Z" fill="#96999B"/>
<path d="M58.527 97.0221L121.735 79.6434C123.346 78.5193 125.246 77.2781 127.482 75.889C128.327 75.3666 129.195 74.8382 130.092 74.3021C131.517 73.2247 132.95 72.1514 134.388 71.0859C126.079 73.1353 117.902 75.6985 109.812 78.4853C100.333 81.7451 90.9424 85.2771 81.5466 88.7677C73.9073 91.6077 66.2225 94.3348 58.527 97.0221Z" fill="#96999B"/>
<path d="M47.9917 100.677L120.005 80.8721C120.544 80.4807 121.117 80.0708 121.734 79.6431L58.5268 97.0218C55.0587 98.2286 51.5871 99.4333 48.1175 100.634L47.9917 100.677Z" fill="#797C7F"/>
<path d="M130.091 74.3014C132.134 73.08 134.309 71.8292 136.598 70.5571C135.859 70.7275 135.123 70.9035 134.387 71.0853C132.95 72.1507 131.517 73.224 130.091 74.3014Z" fill="#7C7F81"/>
<path d="M23.5166 96.4193C31.5921 93.1239 39.7176 89.9584 47.8886 86.9057C62.7413 81.3551 77.7218 76.1332 92.7109 70.9548C105.866 66.4111 118.968 61.6925 132.175 57.3088C143.708 53.4835 155.514 50.1431 167.628 48.828C176.539 43.6096 185.734 38.8917 195.223 34.8242C189.363 32.9231 181.047 31.9517 169.722 34.1505C139.603 39.9944 29.7135 85.1111 22.5129 88.0745C22.3246 89.159 21.9464 92.5057 23.5166 96.4193Z" fill="#96999B"/>
<path d="M22.8651 96.6883C23.0795 96.6004 23.2995 96.5109 23.516 96.4194C21.9457 92.5058 22.324 89.159 22.5123 88.0745C29.7129 85.1111 139.602 39.9944 169.722 34.1505C181.047 31.9517 189.363 32.9232 195.222 34.8243C195.567 34.677 195.912 34.5297 196.255 34.386C198.265 35.0947 200.02 35.9299 201.543 36.8091C203.463 37.9174 205.014 39.097 206.243 40.2105L206.245 40.2069C205.014 39.097 203.465 37.9138 201.545 36.8055C195.313 33.2076 185.193 30.3955 169.582 33.4253C138.163 39.5198 21.8722 87.5414 21.8722 87.5414C21.8722 87.5414 20.8672 91.6906 22.8651 96.6883Z" fill="#797C7F"/>
<path d="M167.628 48.8284C167.711 48.8184 167.793 48.8084 167.88 48.8005C172.951 48.2593 178.131 48.1035 183.244 48.5392C190.827 45.4886 198.582 42.6145 205.418 40.4655C204.287 39.4754 202.893 38.4398 201.206 37.4611L201.177 37.4445C199.571 36.5174 197.598 35.5943 195.223 34.8246C185.734 38.892 176.539 43.61 167.628 48.8284Z" fill="#7C7F81"/>
<path d="M195.222 34.8241C197.597 35.5939 199.571 36.5169 201.177 37.444L201.206 37.4607C202.892 38.4393 204.286 39.475 205.418 40.4651C205.693 40.3789 205.969 40.2928 206.243 40.2103C205.014 39.0968 203.463 37.9172 201.543 36.8089C200.021 35.9297 198.266 35.0945 196.255 34.3858C195.912 34.5295 195.567 34.6768 195.222 34.8241Z" fill="#64676A"/>
<path d="M166.638 56.4167C197.685 42.4092 224.349 34.3679 226.192 38.4584L231.355 52.2071L124.098 100.498L118.931 102.932L113.766 89.178C111.923 85.0875 135.598 70.4228 166.638 56.4167Z" fill="#B6B8BA"/>
<path d="M230.419 51.8206L123.797 99.8289L119.341 101.923C117.917 98.1226 114.54 89.0958 114.441 88.8752C114.024 87.956 116.467 84.4494 128.259 77.1414C138.218 70.9684 151.957 63.8464 166.944 57.0886C201.358 41.5564 224.263 35.9496 225.519 38.7579L230.419 51.8206ZM118.52 103.936L124.413 101.161L232.284 52.599L226.878 38.1955C224.192 32.2231 189.203 45.4265 166.336 55.7416C151.293 62.5297 137.496 69.6856 127.482 75.8888C111.449 85.8245 112.69 88.5759 113.096 89.4796C113.237 89.8203 116.856 99.4926 118.24 103.188L118.52 103.936Z" fill="#939598"/>
<path d="M118.684 100.177C129.694 91.874 151.253 80.3902 172.572 70.7736C193.599 61.287 216.144 52.8211 229.725 49.9569L229.391 49.0764C223.776 49.0772 217.997 50.7109 212.844 52.3113C209.051 53.4893 205.316 54.85 201.547 56.1041C196.47 57.7968 191.402 59.4994 186.39 61.3732C176.24 65.1696 166.104 69.1514 156.19 73.522C151.337 75.6612 146.548 77.9237 141.773 80.2188C139.526 81.3029 137.129 82.2623 135.012 83.595C133.623 84.4674 132.198 85.6606 130.502 85.8313C129.796 85.9047 129.189 85.7562 128.666 85.4542C126.714 84.3271 125.906 81.0753 125.38 79.1695L125.342 78.9936C116.058 85.0502 114.064 88.0368 114.441 88.8752C114.527 89.0689 117.081 95.894 118.684 100.177Z" fill="#96999B"/>
<path d="M118.073 100.643C118.273 100.488 118.478 100.333 118.684 100.177C117.081 95.8938 114.527 89.0687 114.441 88.8751C114.064 88.0367 116.058 85.0501 125.343 78.9935L125.164 78.2361C117.297 83.3455 112.937 87.3381 113.766 89.178L118.073 100.643ZM229.725 49.9568C229.97 49.9062 230.21 49.8572 230.45 49.8081L230.184 49.0865C229.919 49.0781 229.656 49.0754 229.391 49.0762L229.725 49.9568Z" fill="#797C7F"/>
<path d="M172.877 71.4448C208.603 55.3231 239.286 46.0707 241.41 50.7755L247.35 66.6036L123.921 122.172L117.974 124.973L112.032 109.149C109.908 104.444 137.149 87.5608 172.877 71.4448Z" fill="#B6B8BA"/>
<path d="M246.418 66.2102L123.62 121.502L118.381 123.968C116.769 119.659 112.817 109.097 112.699 108.842C111.255 105.636 131.957 90.7124 173.178 72.1148C214.407 53.5121 239.294 47.8899 240.738 51.0809L246.418 66.2102ZM117.56 125.981L124.234 122.838L248.283 66.9885L242.097 50.5185C239.387 44.5036 204.261 56.4779 172.572 70.7735C140.888 85.0677 108.668 103.483 111.358 109.448C111.525 109.843 115.692 120.976 117.28 125.232L117.56 125.981Z" fill="#939598"/>
<path d="M118.381 123.967L123.62 121.502L246.418 66.2101L246.189 65.6064C244.425 64.7613 242.342 64.444 240.453 64.3493C236.835 64.1657 233.187 64.6674 229.664 65.4527C225.504 66.3846 221.395 67.6594 217.32 68.8915C212.242 70.4291 207.202 72.0998 202.199 73.8584C192.291 77.3519 182.547 81.2715 172.698 84.9141C167.883 86.6953 163.011 88.4918 158.043 89.8139C155.523 90.4859 152.864 90.808 150.264 90.8124C147.784 90.8148 145.023 90.5389 142.826 89.2702C142.458 89.0577 142.11 88.8184 141.779 88.5502C141.54 88.3548 141.335 88.1446 141.142 87.9277C121.36 98.7491 111.698 106.618 112.7 108.842C112.817 109.097 116.769 119.659 118.381 123.967Z" fill="#96999B"/>
<path d="M117.973 124.973L123.921 122.172L247.35 66.6036L247.186 66.1626C247.06 66.0804 246.929 65.9997 246.799 65.9247C246.6 65.8101 246.395 65.7063 246.189 65.6062L246.417 66.2098L123.62 121.502L118.381 123.967C116.769 119.659 112.816 109.097 112.699 108.841C111.698 106.618 121.36 98.7489 141.142 87.9275C140.983 87.7443 140.841 87.5566 140.707 87.3637C122.239 97.4762 110.618 106.013 112.031 109.149L117.973 124.973Z" fill="#797C7F"/>
<path d="M178.819 87.27C143.091 103.386 115.85 120.269 117.974 124.974C120.095 129.682 150.78 120.426 186.504 104.308C222.229 88.19 249.47 71.307 247.35 66.6043C245.226 61.8996 214.543 71.152 178.819 87.27Z" fill="#DEDFE0"/>
<path d="M246.253 66.4707L246.677 66.9031C248.125 70.1113 227.421 85.0383 186.202 103.632C144.972 122.235 120.072 127.864 118.643 124.672C117.195 121.464 137.899 106.537 179.12 87.9391C218.156 70.3267 242.547 64.3312 246.253 66.4707ZM118.225 126.321C119.892 127.284 124.693 127.727 139.847 123.154C152.823 119.238 169.499 112.787 186.806 104.977C204.116 97.1697 219.989 88.9361 231.51 81.7985C249.878 70.4162 248.481 67.3195 248.022 66.2988C247.56 65.2817 246.165 62.1813 225.473 68.4212C212.499 72.3336 195.821 78.7883 178.514 86.5979C161.209 94.4038 145.337 102.637 133.816 109.775C115.445 121.161 116.842 124.258 117.302 125.278C117.426 125.547 117.615 125.969 118.225 126.321Z" fill="#939598"/>
<path d="M233.869 71.2863C232.016 72.1215 230.677 73.1574 230.878 73.6007C231.079 74.044 232.741 73.7238 234.594 72.8886C236.448 72.0534 237.789 71.0138 237.591 70.5726C237.39 70.1293 235.725 70.4475 233.869 71.2863Z" fill="#65686A"/>
<path d="M131.334 117.941C129.481 118.776 128.139 119.815 128.337 120.256C128.538 120.7 130.204 120.382 132.057 119.546C133.91 118.711 135.252 117.672 135.05 117.228C134.853 116.787 133.187 117.105 131.334 117.941Z" fill="#65686A"/>
<path d="M202.216 86.4454C200.362 87.2806 199.021 88.3201 199.219 88.7614C199.42 89.2046 201.086 88.8865 202.941 88.0477C204.794 87.2125 206.133 86.1765 205.932 85.7332C205.731 85.2899 204.069 85.6102 202.216 86.4454Z" fill="#65686A"/>
<path d="M160.34 99.4106C158.487 100.246 157.145 101.285 157.347 101.729C157.548 102.172 159.208 101.855 161.063 101.017C162.916 100.181 164.255 99.1454 164.06 98.7006C163.859 98.2573 162.193 98.5754 160.34 99.4106Z" fill="#65686A"/>
<path d="M148.692 110.017C146.839 110.852 145.498 111.891 145.695 112.333C145.897 112.776 147.562 112.458 149.415 111.623C151.269 110.787 152.61 109.748 152.409 109.305C152.208 108.861 150.546 109.181 148.692 110.017Z" fill="#65686A"/>
<path d="M178.035 96.8197C176.179 97.6585 174.836 98.6924 175.038 99.1357C175.237 99.5826 176.904 99.2608 178.758 98.4256C180.611 97.5904 181.949 96.5488 181.751 96.1076C181.55 95.6643 179.884 95.9825 178.035 96.8197Z" fill="#65686A"/>
<path d="M186.846 86.6648C184.991 87.5036 183.652 88.5396 183.849 88.9808C184.048 89.4277 185.716 89.1059 187.569 88.2707C189.419 87.4334 190.764 86.396 190.563 85.9527C190.361 85.5094 188.699 85.8296 186.846 86.6648Z" fill="#65686A"/>
<path d="M190.573 97.6687C188.719 98.5039 187.378 99.5434 187.579 99.9867C187.777 100.428 189.442 100.11 191.298 99.2709C193.151 98.4357 194.49 97.3998 194.291 96.9529C194.092 96.5153 192.423 96.8314 190.573 97.6687Z" fill="#65686A"/>
<path d="M165.507 108.961C163.651 109.8 162.312 110.836 162.514 111.279C162.715 111.722 164.377 111.402 166.23 110.567C168.083 109.732 169.425 108.692 169.227 108.251C169.026 107.808 167.36 108.126 165.507 108.961Z" fill="#65686A"/>
<path d="M213.926 76.1975C212.072 77.0327 210.733 78.0687 210.931 78.5099C211.132 78.9532 212.797 78.635 214.651 77.7998C216.504 76.9646 217.845 75.9251 217.644 75.4818C217.443 75.0385 215.781 75.3587 213.926 76.1975Z" fill="#65686A"/>
<path d="M217.059 84.3961C215.205 85.2313 213.864 86.2708 214.065 86.7141C214.263 87.1553 215.928 86.8371 217.782 86.0019C219.637 85.1631 220.976 84.1272 220.775 83.6839C220.578 83.2427 218.912 83.5609 217.059 84.3961Z" fill="#65686A"/>
<path d="M229.703 75.5446C229.703 75.5446 232.123 78.9193 234.018 82.5051C235.914 86.0874 237.338 89.8541 235.452 90.5212C233.224 91.3133 231.807 87.5751 230.945 83.6274C230.08 79.6834 229.703 75.5446 229.703 75.5446Z" fill="#9FDDF9"/>
<path d="M236.553 111.714C236.553 111.714 238.831 115.176 240.641 118.809C242.45 122.442 243.703 126.263 241.803 126.87C239.546 127.597 238.301 123.794 237.533 119.834C236.764 115.873 236.553 111.714 236.553 111.714Z" fill="#9FDDF9"/>
<path d="M243.403 148.482C243.403 148.482 245.609 152.002 247.292 155.697C248.95 159.392 250.132 163.235 248.204 163.792C245.936 164.445 244.762 160.621 244.152 156.627C243.523 152.641 243.403 148.482 243.403 148.482Z" fill="#9FDDF9"/>
<path d="M207.303 86.0338C207.303 86.0338 209.723 89.4086 211.621 92.9965C213.511 96.5802 214.937 100.343 213.051 101.01C210.823 101.803 209.407 98.0643 208.544 94.1167C207.68 90.1726 207.303 86.0338 207.303 86.0338Z" fill="#9FDDF9"/>
<path d="M212.299 125.972C212.299 125.972 214.577 129.433 216.387 133.066C218.196 136.699 219.449 140.521 217.553 141.13C215.292 141.854 214.05 138.054 213.278 134.091C212.51 130.13 212.299 125.972 212.299 125.972Z" fill="#9FDDF9"/>
<path d="M212.937 163.969C212.937 163.969 215.143 167.489 216.825 171.184C218.483 174.879 219.663 178.726 217.737 179.279C215.469 179.932 214.299 176.11 213.691 172.112C213.057 168.128 212.937 163.969 212.937 163.969Z" fill="#9FDDF9"/>
<path d="M165.255 114.913C165.255 114.913 167.226 118.566 168.658 122.362C170.08 126.156 171.021 130.068 169.062 130.495C166.756 130.997 165.824 127.11 165.467 123.089C165.103 119.068 165.255 114.913 165.255 114.913Z" fill="#9FDDF9"/>
<path d="M136.786 116.581C136.786 116.581 138.612 120.301 139.95 124.133C141.285 127.964 142.044 131.914 140.083 132.278C137.753 132.713 137 128.785 136.736 124.76C136.473 120.731 136.786 116.581 136.786 116.581Z" fill="#9FDDF9"/>
<path d="M154.257 146.546C154.257 146.546 156 150.319 157.203 154.194C158.381 158.069 159.065 162.034 157.085 162.339C154.754 162.701 154.07 158.76 153.973 154.721C153.85 150.685 154.257 146.546 154.257 146.546Z" fill="#9FDDF9"/>
<path d="M182.638 98.5874C182.638 98.5874 184.93 102.051 186.698 105.704C188.46 109.353 189.747 113.166 187.837 113.766C185.584 114.477 184.307 110.689 183.586 106.712C182.863 102.739 182.638 98.5874 182.638 98.5874Z" fill="#9FDDF9"/>
<path d="M182.82 135.156C182.82 135.156 184.971 138.697 186.648 142.393C188.324 146.089 189.436 149.955 187.519 150.493C185.238 151.134 184.132 147.292 183.507 143.308C182.878 139.322 182.82 135.156 182.82 135.156Z" fill="#9FDDF9"/>
<path d="M180.167 170.793C180.167 170.793 182.241 174.392 183.792 178.14C185.314 181.896 186.355 185.783 184.407 186.266C182.12 186.836 181.086 182.977 180.62 178.96C180.134 174.95 180.167 170.793 180.167 170.793Z" fill="#9FDDF9"/>
</g>
<defs>
<clipPath id="clip0_9_660">
<rect width="261" height="216" fill="white"/>
</clipPath>
</defs>
</svg>
