<svg width="125" height="84" viewBox="0 0 125 84" fill="none" xmlns="http://www.w3.org/2000/svg">
<path d="M28.9964 83.501C4.49641 82.001 -1.67402 71.5466 1.96285 48.1767C52.4415 58.3217 78.9632 53.3199 123.617 28.501C124.183 40.2621 128.496 52.001 106.496 59.001C106.496 59.001 68.2743 64.8253 61.2941 66.8433C54.314 68.8613 46.4964 82.501 28.9964 83.501Z" fill="#C79B76" stroke="black"/>
<path d="M57.9964 57.001C43.9964 68.001 37.2171 72.9658 27.9964 73.001C11.4964 70.001 5.00937 67.0566 2.99644 57.001C-4.00359 32.501 24.3596 7.83854 74.4964 1.00097C106.379 0.8889 121.996 12.001 123.496 28.501C121.996 46.001 99.9964 53.501 57.9964 57.001Z" fill="#C03435" stroke="black"/>
<path d="M94.4964 26.501C94.4964 32.7408 87.9073 38.001 79.4964 38.001C71.0856 38.001 64.4964 32.7408 64.4964 26.501C64.4964 20.2612 71.0856 15.001 79.4964 15.001C87.9073 15.001 94.4964 20.2612 94.4964 26.501Z" fill="#EAC2A5" stroke="black"/>
<ellipse cx="80.4964" cy="25.001" rx="7.5" ry="5.5" fill="#E9B79E"/>
</svg>
