<?xml version="1.0" encoding="UTF-8" standalone="no"?>
<!DOCTYPE svg PUBLIC "-//W3C//DTD SVG 1.1//EN" "http://www.w3.org/Graphics/SVG/1.1/DTD/svg11.dtd">
<svg width="100%" height="100%" viewBox="0 0 167 108" version="1.1" xmlns="http://www.w3.org/2000/svg" xmlns:xlink="http://www.w3.org/1999/xlink" xml:space="preserve" xmlns:serif="http://www.serif.com/" style="fill-rule:evenodd;clip-rule:evenodd;stroke-linejoin:round;stroke-miterlimit:2;">
    <g transform="matrix(1,0,0,1,-1003.74,-363.426)">
        <g transform="matrix(1,0,0,1,-2270.75,-1941.97)">
            <g transform="matrix(1.98895,0,0,1.98895,2880.87,2009.78)">
                <path d="M200.332,184.921C200.332,184.921 203.616,191.007 198.87,194.845L247.606,200.819L249.154,190.203L200.332,184.921Z" style="fill:rgb(229,229,229);fill-rule:nonzero;"/>
            </g>
            <g transform="matrix(1.98895,0,0,1.98895,2880.87,2009.78)">
                <path d="M248.343,196.811C247.758,196.213 240.929,189.222 201.078,186.815C201.078,186.815 201.083,185.847 200.274,184.883L248.553,189.615L248.343,196.811Z" style="fill:rgb(206,205,204);fill-rule:nonzero;"/>
            </g>
            <g transform="matrix(1.98895,0,0,1.98895,2880.87,2009.78)">
                <path d="M248.417,188.034L280.942,155.909L281.398,166.525L248.139,201.84L248.417,188.034Z" style="fill:rgb(99,163,67);fill-rule:nonzero;"/>
            </g>
            <g transform="matrix(1.98895,0,0,1.98895,2880.87,2009.78)">
                <path d="M199.707,181.944L248.417,188.034L280.942,155.909L237.417,148.628L199.707,181.944Z" style="fill:rgb(91,145,64);fill-rule:nonzero;"/>
            </g>
            <g transform="matrix(1.98895,0,0,1.98895,2880.87,2009.78)">
                <path d="M247.974,194.433C248.027,194.018 248.083,193.552 248.146,193.047C248.446,190.586 246.632,190.563 246.632,190.563L199.359,184.771L199.707,181.944L247.466,187.798C248.468,187.921 249.125,188.328 249.55,188.857L249.554,188.859C249.592,188.906 249.625,188.954 249.659,189C249.664,189.005 249.668,189.01 249.67,189.017C249.69,189.041 249.71,189.069 249.726,189.097C250.507,190.225 253.437,195.264 248.613,201.293C248.065,202.089 247.159,202.709 245.661,202.526L197.901,196.672L198.249,193.846L245.521,199.64C245.521,199.64 247.286,200.059 247.586,197.598C247.649,197.093 247.707,196.627 247.758,196.213C247.758,196.213 247.845,195.501 247.974,194.433Z" style="fill:rgb(99,163,67);fill-rule:nonzero;"/>
            </g>
            <g transform="matrix(1.98895,0,0,1.98895,2880.87,2009.78)">
                <path d="M248.739,201.303C253.702,195.269 250.655,190.232 249.844,189.105C249.826,189.078 249.806,189.05 249.787,189.024C249.782,189.018 249.78,189.013 249.775,189.009C249.741,188.963 249.703,188.915 249.666,188.869L249.661,188.866C249.221,188.337 248.539,187.931 247.503,187.809L231.92,185.892L231.584,188.72L246.652,190.576C246.652,190.576 248.527,190.597 248.224,193.057C248.162,193.562 248.107,194.028 248.054,194.443C247.924,195.512 247.837,196.224 247.837,196.224C247.784,196.638 247.728,197.104 247.665,197.609C247.363,200.07 245.538,199.654 245.538,199.654L230.966,197.856L230.715,200.694L245.692,202.54C247.242,202.721 248.175,202.1 248.739,201.303Z" style="fill:rgb(79,130,60);fill-rule:nonzero;"/>
            </g>
            <g transform="matrix(1.98895,0,0,1.98895,2880.87,2009.78)">
                <path d="M281.398,166.507L248.139,201.84L249.8,195.917L281.254,163.167L281.398,166.507Z" style="fill:rgb(79,130,60);fill-rule:nonzero;"/>
            </g>
        </g>
    </g>
</svg>
