<?xml version="1.0" encoding="UTF-8" standalone="no"?>
<!DOCTYPE svg PUBLIC "-//W3C//DTD SVG 1.1//EN" "http://www.w3.org/Graphics/SVG/1.1/DTD/svg11.dtd">
<svg width="100%" height="100%" viewBox="0 0 115 118" version="1.1" xmlns="http://www.w3.org/2000/svg" xmlns:xlink="http://www.w3.org/1999/xlink" xml:space="preserve" xmlns:serif="http://www.serif.com/" style="fill-rule:evenodd;clip-rule:evenodd;stroke-linejoin:round;stroke-miterlimit:2;">
    <g transform="matrix(1,0,0,1,-1029.56,-791.201)">
        <g transform="matrix(0.481705,0,0,0.481705,998.079,779.482)">
            <g transform="matrix(0.995609,-0.0936057,0.0936057,0.995609,-121.107,-181.451)">
                <path d="M381.125,465.542C381.115,471.318 376.425,475.992 370.65,475.98L253.416,475.778C247.642,475.767 242.967,471.078 242.978,465.303L243.306,277.117C243.316,271.34 248.007,266.667 253.781,266.678L371.015,266.881C376.789,266.892 381.464,271.581 381.453,277.357L381.125,465.542Z" style="fill:rgb(224,224,224);fill-rule:nonzero;"/>
                <path d="M382.172,464.495C382.162,470.271 377.472,474.946 371.697,474.933L254.463,474.731C248.689,474.721 244.014,470.032 244.024,464.256L244.352,276.07C244.363,270.294 249.053,265.621 254.828,265.632L372.061,265.835C377.836,265.845 382.51,270.535 382.5,276.31L382.172,464.495Z" style="fill:rgb(224,224,224);"/>
                <path d="M262.493,300.075C261.35,300.089 256.276,305.294 256.29,306.436C256.276,305.294 251.071,300.22 249.928,300.233C251.071,300.22 256.144,295.016 256.131,293.873C256.144,295.016 261.35,300.089 262.493,300.075Z" style="fill:rgb(224,224,224);"/>
                <path d="M377.609,435.135C376.467,435.138 371.344,440.295 371.347,441.437C371.344,440.295 366.186,435.171 365.044,435.173C366.186,435.171 371.309,430.015 371.307,428.872C371.309,430.015 376.467,435.138 377.609,435.135Z" style="fill:rgb(224,224,224);"/>
                <path d="M256.665,283.216C256.738,283.216 256.786,283.157 256.762,283.079L255.911,278.275L255.862,278.275L255.059,283.098C255.034,283.176 255.083,283.216 255.132,283.216L256.665,283.216ZM257.005,284.431C256.98,284.334 256.907,284.255 256.786,284.255L254.985,284.255C254.912,284.255 254.864,284.314 254.84,284.393L254.474,286.549C254.451,286.686 254.499,286.804 254.597,286.903L255.132,287.353C255.229,287.451 255.375,287.53 255.375,287.589C255.375,287.648 255.326,287.706 255.205,287.706L252.406,287.706C252.308,287.706 252.26,287.648 252.26,287.589C252.26,287.53 252.357,287.451 252.43,287.393L253.112,286.844C253.258,286.726 253.282,286.53 253.307,286.353L255.521,273.176C255.545,273.078 255.594,272.999 255.716,272.999L256.616,272.999C256.738,272.999 256.81,273.098 256.834,273.215L259.147,286.373C259.17,286.569 259.245,286.785 259.414,286.903L260.121,287.412C260.193,287.471 260.267,287.53 260.267,287.589C260.267,287.648 260.217,287.706 260.096,287.706L256.592,287.706C256.47,287.706 256.422,287.648 256.422,287.589C256.422,287.53 256.519,287.471 256.592,287.412L257.249,286.883C257.346,286.804 257.394,286.667 257.37,286.491L257.005,284.431Z" style="fill:rgb(224,224,224);fill-rule:nonzero;"/>
                <path d="M256.665,283.216C256.738,283.216 256.786,283.157 256.762,283.079L255.911,278.275L255.862,278.275L255.059,283.098C255.034,283.176 255.083,283.216 255.132,283.216L256.665,283.216ZM257.005,284.431C256.98,284.334 256.907,284.255 256.786,284.255L254.985,284.255C254.912,284.255 254.864,284.314 254.84,284.393L254.474,286.549C254.451,286.686 254.499,286.804 254.597,286.903L255.132,287.353C255.229,287.451 255.375,287.53 255.375,287.589C255.375,287.648 255.326,287.706 255.205,287.706L252.406,287.706C252.308,287.706 252.26,287.648 252.26,287.589C252.26,287.53 252.357,287.451 252.43,287.393L253.112,286.844C253.258,286.726 253.282,286.53 253.307,286.353L255.521,273.176C255.545,273.078 255.594,272.999 255.716,272.999L256.616,272.999C256.738,272.999 256.81,273.098 256.834,273.215L259.147,286.373C259.17,286.569 259.245,286.785 259.414,286.903L260.121,287.412C260.193,287.471 260.267,287.53 260.267,287.589C260.267,287.648 260.217,287.706 260.096,287.706L256.592,287.706C256.47,287.706 256.422,287.648 256.422,287.589C256.422,287.53 256.519,287.471 256.592,287.412L257.249,286.883C257.346,286.804 257.394,286.667 257.37,286.491L257.005,284.431Z" style="fill:rgb(224,224,224);fill-rule:nonzero;"/>
                <path d="M370.979,455.398C370.906,455.398 370.857,455.457 370.881,455.535L371.733,460.339L371.781,460.339L372.585,455.515C372.609,455.436 372.56,455.398 372.512,455.398L370.979,455.398ZM370.638,454.181C370.662,454.28 370.735,454.358 370.857,454.358L372.658,454.358C372.731,454.358 372.78,454.3 372.803,454.22L373.169,452.064C373.193,451.927 373.145,451.808 373.048,451.71L372.512,451.261C372.414,451.163 372.269,451.083 372.269,451.025C372.269,450.966 372.317,450.907 372.439,450.907L375.238,450.907C375.335,450.907 375.384,450.966 375.384,451.025C375.384,451.083 375.286,451.163 375.213,451.221L374.532,451.77C374.385,451.888 374.361,452.083 374.337,452.26L372.123,465.438C372.098,465.536 372.049,465.613 371.928,465.613L371.027,465.613C370.906,465.613 370.833,465.515 370.808,465.399L368.497,452.241C368.472,452.044 368.399,451.829 368.229,451.71L367.523,451.201C367.45,451.142 367.377,451.083 367.377,451.025C367.377,450.966 367.426,450.907 367.547,450.907L371.052,450.907C371.173,450.907 371.222,450.966 371.222,451.025C371.222,451.083 371.124,451.142 371.052,451.201L370.395,451.731C370.297,451.808 370.248,451.946 370.273,452.123L370.638,454.181Z" style="fill:rgb(224,224,224);fill-rule:nonzero;"/>
                <path d="M337.369,370.282C332.986,370.282 313.263,390.006 313.263,394.39C313.263,390.006 293.538,370.282 289.155,370.282C293.538,370.282 313.263,350.558 313.263,346.175C313.263,350.558 332.986,370.282 337.369,370.282Z" style="fill:rgb(224,224,224);"/>
            </g>
            <g transform="matrix(0.973627,-0.228144,0.228144,0.973627,-7.42179,-178.578)">
                <path d="M205.648,465.542C205.637,471.318 200.948,475.992 195.172,475.98L77.939,475.778C72.164,475.767 67.49,471.078 67.5,465.303L67.828,277.117C67.838,271.34 72.529,266.667 78.303,266.678L195.537,266.881C201.311,266.892 205.986,271.581 205.976,277.357L205.648,465.542Z" style="fill:rgb(232,232,232);fill-rule:nonzero;"/>
                <path d="M206.694,464.495C206.684,470.271 201.994,474.946 196.219,474.933L78.985,474.731C73.21,474.721 68.536,470.032 68.546,464.256L68.875,276.07C68.885,270.294 73.576,265.621 79.35,265.632L196.584,265.835C202.358,265.845 207.033,270.535 207.022,276.31L206.694,464.495Z" style="fill:rgb(232,232,232);"/>
                <path d="M83.619,296.83C82.725,296.817 81.946,297.33 81.574,298.082C81.285,298.418 80.842,298.559 80.394,298.65C80.503,298.108 80.636,297.513 81.064,297.165C81.824,296.811 82.358,296.048 82.371,295.154C82.387,293.91 81.393,292.889 80.15,292.873C78.907,292.856 77.886,293.85 77.869,295.094C77.857,295.987 78.37,296.765 79.122,297.138C79.484,297.412 79.638,298.071 79.746,298.641C79.304,298.539 78.866,298.385 78.587,298.043C78.234,297.281 77.47,296.747 76.575,296.735C75.333,296.719 74.311,297.713 74.294,298.956C74.278,300.199 75.273,301.221 76.516,301.237C77.41,301.249 78.272,300.653 78.645,299.902C78.963,299.559 79.366,299.481 79.83,299.401C79.867,300.039 79.834,300.727 79.733,301.127C79.26,302.429 78.089,303.974 77.467,304.495C78.312,303.79 81.696,303.833 82.521,304.562C81.913,304.025 80.704,302.365 80.346,301.135C80.236,300.643 80.262,299.727 80.275,299.403C80.746,299.497 81.153,299.584 81.465,299.94C81.819,300.701 82.664,301.319 83.559,301.33C84.803,301.348 85.824,300.353 85.84,299.11C85.856,297.867 84.863,296.845 83.619,296.83Z" style="fill:rgb(232,232,232);"/>
                <path d="M192.369,438.519C193.264,438.516 194.033,437.99 194.394,437.233C194.677,436.893 195.119,436.745 195.564,436.647C195.464,437.193 195.339,437.788 194.919,438.144C194.165,438.508 193.642,439.279 193.644,440.176C193.647,441.418 194.657,442.425 195.902,442.42C197.145,442.417 198.149,441.408 198.147,440.163C198.144,439.269 197.618,438.5 196.86,438.138C196.493,437.872 196.33,437.214 196.212,436.647C196.656,436.742 197.097,436.888 197.381,437.226C197.746,437.981 198.519,438.504 199.413,438.501C200.656,438.497 201.662,437.487 201.66,436.244C201.654,435.001 200.645,433.996 199.401,433.999C198.508,434.001 197.654,434.611 197.293,435.367C196.98,435.716 196.58,435.8 196.118,435.887C196.07,435.252 196.091,434.56 196.185,434.161C196.638,432.852 197.785,431.288 198.399,430.757C197.566,431.476 194.182,431.486 193.345,430.77C193.96,431.297 195.197,432.938 195.573,434.162C195.692,434.652 195.681,435.569 195.671,435.892C195.2,435.806 194.792,435.726 194.473,435.375C194.108,434.619 193.254,434.015 192.357,434.017C191.115,434.021 190.108,435.03 190.111,436.274C190.115,437.517 191.126,438.522 192.369,438.519Z" style="fill:rgb(232,232,232);"/>
                <path d="M80.85,283.216C80.923,283.216 80.972,283.157 80.948,283.079L80.096,278.275L80.047,278.275L79.244,283.098C79.22,283.176 79.269,283.216 79.317,283.216L80.85,283.216ZM81.191,284.431C81.167,284.334 81.094,284.255 80.972,284.255L79.171,284.255C79.098,284.255 79.049,284.314 79.026,284.393L78.66,286.549C78.636,286.686 78.685,286.804 78.782,286.903L79.317,287.353C79.415,287.451 79.56,287.53 79.56,287.589C79.56,287.648 79.512,287.706 79.39,287.706L76.592,287.706C76.494,287.706 76.445,287.648 76.445,287.589C76.445,287.53 76.543,287.451 76.616,287.393L77.297,286.844C77.444,286.726 77.468,286.53 77.492,286.353L79.707,273.176C79.731,273.078 79.78,272.999 79.901,272.999L80.802,272.999C80.923,272.999 80.996,273.098 81.021,273.215L83.333,286.373C83.357,286.569 83.43,286.785 83.6,286.903L84.306,287.412C84.379,287.471 84.452,287.53 84.452,287.589C84.452,287.648 84.404,287.706 84.282,287.706L80.777,287.706C80.656,287.706 80.607,287.648 80.607,287.589C80.607,287.53 80.705,287.471 80.777,287.412L81.434,286.883C81.532,286.804 81.58,286.667 81.556,286.491L81.191,284.431Z" style="fill:rgb(232,232,232);fill-rule:nonzero;"/>
                <path d="M80.85,283.216C80.923,283.216 80.972,283.157 80.948,283.079L80.096,278.275L80.047,278.275L79.244,283.098C79.22,283.176 79.269,283.216 79.317,283.216L80.85,283.216ZM81.191,284.431C81.167,284.334 81.094,284.255 80.972,284.255L79.171,284.255C79.098,284.255 79.049,284.314 79.026,284.393L78.66,286.549C78.636,286.686 78.685,286.804 78.782,286.903L79.317,287.353C79.415,287.451 79.56,287.53 79.56,287.589C79.56,287.648 79.512,287.706 79.39,287.706L76.592,287.706C76.494,287.706 76.445,287.648 76.445,287.589C76.445,287.53 76.543,287.451 76.616,287.393L77.297,286.844C77.444,286.726 77.468,286.53 77.492,286.353L79.707,273.176C79.731,273.078 79.78,272.999 79.901,272.999L80.802,272.999C80.923,272.999 80.996,273.098 81.021,273.215L83.333,286.373C83.357,286.569 83.43,286.785 83.6,286.903L84.306,287.412C84.379,287.471 84.452,287.53 84.452,287.589C84.452,287.648 84.404,287.706 84.282,287.706L80.777,287.706C80.656,287.706 80.607,287.648 80.607,287.589C80.607,287.53 80.705,287.471 80.777,287.412L81.434,286.883C81.532,286.804 81.58,286.667 81.556,286.491L81.191,284.431Z" style="fill:rgb(232,232,232);fill-rule:nonzero;"/>
                <path d="M195.164,455.398C195.092,455.398 195.043,455.457 195.067,455.535L195.918,460.339L195.967,460.339L196.771,455.515C196.795,455.436 196.746,455.398 196.697,455.398L195.164,455.398ZM194.824,454.181C194.848,454.28 194.921,454.358 195.043,454.358L196.844,454.358C196.917,454.358 196.965,454.3 196.989,454.22L197.355,452.064C197.379,451.927 197.331,451.808 197.233,451.71L196.697,451.261C196.6,451.163 196.454,451.083 196.454,451.025C196.454,450.966 196.503,450.907 196.625,450.907L199.424,450.907C199.521,450.907 199.569,450.966 199.569,451.025C199.569,451.083 199.472,451.163 199.399,451.221L198.718,451.77C198.571,451.888 198.547,452.083 198.522,452.26L196.309,465.438C196.284,465.536 196.235,465.613 196.114,465.613L195.213,465.613C195.092,465.613 195.019,465.515 194.995,465.399L192.683,452.241C192.658,452.044 192.585,451.829 192.415,451.71L191.709,451.201C191.636,451.142 191.563,451.083 191.563,451.025C191.563,450.966 191.612,450.907 191.733,450.907L195.238,450.907C195.359,450.907 195.407,450.966 195.407,451.025C195.407,451.083 195.31,451.142 195.238,451.201L194.581,451.731C194.484,451.808 194.435,451.946 194.459,452.123L194.824,454.181Z" style="fill:rgb(232,232,232);fill-rule:nonzero;"/>
                <path d="M154.781,361.028C150.462,361.028 146.743,363.554 144.992,367.204C143.62,368.842 141.49,369.553 139.342,370.022C139.828,367.394 140.433,364.515 142.47,362.808C146.12,361.056 148.646,357.337 148.646,353.019C148.646,347.021 143.785,342.157 137.785,342.157C131.786,342.157 126.923,347.021 126.923,353.019C126.923,357.337 129.45,361.056 133.1,362.808C134.868,364.1 135.656,367.279 136.211,370.018C134.068,369.55 131.946,368.837 130.576,367.204C128.826,363.554 125.107,361.028 120.788,361.028C114.79,361.028 109.927,365.889 109.927,371.889C109.927,377.887 114.79,382.751 120.788,382.751C125.107,382.751 129.228,379.822 130.979,376.172C132.49,374.497 134.427,374.097 136.664,373.676C136.88,376.75 136.768,380.076 136.304,382.013C134.104,388.323 128.559,395.856 125.592,398.407C129.621,394.944 145.948,394.944 149.977,398.407C147.01,395.856 141.068,387.921 139.265,382.013C138.699,379.644 138.765,375.226 138.81,373.658C141.087,374.086 143.058,374.473 144.591,376.172C146.342,379.822 150.462,382.751 154.781,382.751C160.779,382.751 165.642,377.887 165.642,371.889C165.642,365.889 160.779,361.028 154.781,361.028Z" style="fill:rgb(232,232,232);"/>
            </g>
            <g transform="matrix(0.932533,-0.361085,0.361085,0.932533,17.8223,76.287)">
                <path d="M205.648,223.93C205.637,229.707 200.948,234.381 195.172,234.369L77.939,234.167C72.164,234.156 67.49,229.468 67.5,223.691L67.828,35.506C67.838,29.729 72.529,25.057 78.303,25.067L195.537,25.27C201.311,25.281 205.986,29.971 205.976,35.746L205.648,223.93Z" style="fill:rgb(239,239,239);fill-rule:nonzero;"/>
                <path d="M206.694,222.884C206.684,228.66 201.994,233.335 196.219,233.322L78.985,233.12C73.21,233.11 68.536,228.421 68.546,222.645L68.875,34.459C68.885,28.683 73.576,24.01 79.35,24.021L196.584,24.224C202.358,24.234 207.033,28.924 207.022,34.699L206.694,222.884Z" style="fill:rgb(239,239,239);"/>
                <path d="M80.16,54.554C78.479,51.379 74.099,52.56 74.067,55.69C74.032,59.197 78.544,61.033 80.04,64.313L80.064,64.358L80.088,64.311C81.65,61.065 86.196,59.319 86.233,55.811C86.264,52.68 81.908,51.415 80.16,54.554Z" style="fill:rgb(239,239,239);fill-rule:nonzero;"/>
                <path d="M195.259,200.53C193.559,203.694 189.186,202.489 189.172,199.36C189.157,195.852 193.679,194.041 195.195,190.769L195.219,190.725L195.243,190.771C196.786,194.027 201.322,195.8 201.338,199.307C201.351,202.438 196.987,203.679 195.259,200.53Z" style="fill:rgb(239,239,239);fill-rule:nonzero;"/>
                <path d="M80.85,41.605C80.923,41.605 80.972,41.546 80.948,41.468L80.096,36.664L80.047,36.664L79.244,41.487C79.22,41.566 79.269,41.605 79.317,41.605L80.85,41.605ZM81.191,42.821C81.167,42.723 81.094,42.644 80.972,42.644L79.171,42.644C79.098,42.644 79.049,42.703 79.026,42.782L78.66,44.939C78.636,45.075 78.685,45.194 78.782,45.292L79.317,45.742C79.415,45.84 79.56,45.92 79.56,45.978C79.56,46.036 79.512,46.096 79.39,46.096L76.592,46.096C76.494,46.096 76.445,46.036 76.445,45.978C76.445,45.92 76.543,45.84 76.616,45.782L77.297,45.233C77.444,45.114 77.468,44.919 77.492,44.742L79.707,31.565C79.731,31.467 79.78,31.389 79.901,31.389L80.802,31.389C80.923,31.389 80.996,31.487 81.021,31.604L83.333,44.762C83.357,44.958 83.43,45.174 83.6,45.292L84.306,45.801C84.379,45.86 84.452,45.92 84.452,45.978C84.452,46.036 84.404,46.096 84.282,46.096L80.777,46.096C80.656,46.096 80.607,46.036 80.607,45.978C80.607,45.92 80.705,45.86 80.777,45.801L81.434,45.272C81.532,45.194 81.58,45.056 81.556,44.879L81.191,42.821Z" style="fill:rgb(239,239,239);fill-rule:nonzero;"/>
                <path d="M80.85,41.605C80.923,41.605 80.972,41.546 80.948,41.468L80.096,36.664L80.047,36.664L79.244,41.487C79.22,41.566 79.269,41.605 79.317,41.605L80.85,41.605ZM81.191,42.821C81.167,42.723 81.094,42.644 80.972,42.644L79.171,42.644C79.098,42.644 79.049,42.703 79.026,42.782L78.66,44.939C78.636,45.075 78.685,45.194 78.782,45.292L79.317,45.742C79.415,45.84 79.56,45.92 79.56,45.978C79.56,46.036 79.512,46.096 79.39,46.096L76.592,46.096C76.494,46.096 76.445,46.036 76.445,45.978C76.445,45.92 76.543,45.84 76.616,45.782L77.297,45.233C77.444,45.114 77.468,44.919 77.492,44.742L79.707,31.565C79.731,31.467 79.78,31.389 79.901,31.389L80.802,31.389C80.923,31.389 80.996,31.487 81.021,31.604L83.333,44.762C83.357,44.958 83.43,45.174 83.6,45.292L84.306,45.801C84.379,45.86 84.452,45.92 84.452,45.978C84.452,46.036 84.404,46.096 84.282,46.096L80.777,46.096C80.656,46.096 80.607,46.036 80.607,45.978C80.607,45.92 80.705,45.86 80.777,45.801L81.434,45.272C81.532,45.194 81.58,45.056 81.556,44.879L81.191,42.821Z" style="fill:rgb(239,239,239);fill-rule:nonzero;"/>
                <path d="M195.164,213.786C195.092,213.786 195.043,213.844 195.067,213.923L195.918,218.728L195.967,218.728L196.771,213.904C196.795,213.825 196.746,213.786 196.697,213.786L195.164,213.786ZM194.824,212.57C194.848,212.668 194.921,212.747 195.043,212.747L196.844,212.747C196.917,212.747 196.965,212.688 196.989,212.609L197.355,210.453C197.379,210.316 197.331,210.197 197.233,210.099L196.697,209.648C196.6,209.55 196.454,209.471 196.454,209.413C196.454,209.354 196.503,209.296 196.625,209.296L199.424,209.296C199.521,209.296 199.569,209.354 199.569,209.413C199.569,209.471 199.472,209.55 199.399,209.609L198.718,210.158C198.571,210.276 198.547,210.472 198.522,210.649L196.309,223.826C196.284,223.924 196.235,224.002 196.114,224.002L195.213,224.002C195.092,224.002 195.019,223.904 194.995,223.786L192.683,210.629C192.658,210.433 192.585,210.217 192.415,210.099L191.709,209.59C191.636,209.531 191.563,209.471 191.563,209.413C191.563,209.354 191.612,209.296 191.733,209.296L195.238,209.296C195.359,209.296 195.407,209.354 195.407,209.413C195.407,209.471 195.31,209.531 195.238,209.59L194.581,210.119C194.484,210.197 194.435,210.335 194.459,210.511L194.824,212.57Z" style="fill:rgb(239,239,239);fill-rule:nonzero;"/>
                <path d="M137.784,115.257C131.578,103.825 115.757,108.255 115.757,119.589C115.757,132.289 132.16,136.778 137.699,148.599L137.784,148.765L137.869,148.599C143.407,136.778 159.811,132.289 159.811,119.589C159.811,108.255 143.991,103.825 137.784,115.257Z" style="fill:rgb(239,239,239);fill-rule:nonzero;"/>
            </g>
            <g transform="matrix(0.973627,-0.228144,0.228144,0.973627,-159.296,91.9108)">
                <g transform="matrix(0.951644,-0.307204,0.307204,0.951644,-24.5663,102.322)">
                    <path d="M381.125,223.93C381.115,229.707 376.425,234.381 370.65,234.369L253.416,234.167C247.642,234.156 242.967,229.468 242.978,223.691L243.306,35.506C243.316,29.729 248.007,25.057 253.781,25.067L371.015,25.27C376.789,25.281 381.464,29.971 381.453,35.746L381.125,223.93Z" style="fill:rgb(130,130,130);fill-rule:nonzero;"/>
                </g>
                <g transform="matrix(0.951644,-0.307204,0.307204,0.951644,-24.5663,102.322)">
                    <path d="M382.172,222.884C382.162,228.66 377.472,233.335 371.697,233.322L254.463,233.12C248.689,233.11 244.014,228.421 244.024,222.645L244.352,34.459C244.363,28.683 249.053,24.01 254.828,24.021L372.061,24.224C377.836,24.234 382.51,28.924 382.5,34.699L382.172,222.884Z" style="fill:rgb(244,244,244);"/>
                </g>
                <g transform="matrix(0.951644,-0.307204,0.307204,0.951644,-24.5663,102.322)">
                    <path d="M256.665,41.605C256.738,41.605 256.786,41.546 256.762,41.468L255.911,36.664L255.862,36.664L255.059,41.487C255.034,41.566 255.083,41.605 255.132,41.605L256.665,41.605ZM257.005,42.821C256.98,42.723 256.907,42.644 256.786,42.644L254.985,42.644C254.912,42.644 254.864,42.703 254.84,42.782L254.474,44.939C254.451,45.075 254.499,45.194 254.597,45.292L255.132,45.742C255.229,45.84 255.375,45.92 255.375,45.978C255.375,46.036 255.326,46.096 255.205,46.096L252.406,46.096C252.308,46.096 252.26,46.036 252.26,45.978C252.26,45.92 252.357,45.84 252.43,45.782L253.112,45.233C253.258,45.114 253.282,44.919 253.307,44.742L255.521,31.565C255.545,31.467 255.594,31.389 255.716,31.389L256.616,31.389C256.738,31.389 256.81,31.487 256.834,31.604L259.147,44.762C259.17,44.958 259.245,45.174 259.414,45.292L260.121,45.801C260.193,45.86 260.267,45.92 260.267,45.978C260.267,46.036 260.217,46.096 260.096,46.096L256.592,46.096C256.47,46.096 256.422,46.036 256.422,45.978C256.422,45.92 256.519,45.86 256.592,45.801L257.249,45.272C257.346,45.194 257.394,45.056 257.37,44.879L257.005,42.821Z" style="fill-rule:nonzero;"/>
                </g>
                <g transform="matrix(0.951644,-0.307204,0.307204,0.951644,-24.5663,102.322)">
                    <path d="M256.665,41.605C256.738,41.605 256.786,41.546 256.762,41.468L255.911,36.664L255.862,36.664L255.059,41.487C255.034,41.566 255.083,41.605 255.132,41.605L256.665,41.605ZM257.005,42.821C256.98,42.723 256.907,42.644 256.786,42.644L254.985,42.644C254.912,42.644 254.864,42.703 254.84,42.782L254.474,44.939C254.451,45.075 254.499,45.194 254.597,45.292L255.132,45.742C255.229,45.84 255.375,45.92 255.375,45.978C255.375,46.036 255.326,46.096 255.205,46.096L252.406,46.096C252.308,46.096 252.26,46.036 252.26,45.978C252.26,45.92 252.357,45.84 252.43,45.782L253.112,45.233C253.258,45.114 253.282,44.919 253.307,44.742L255.521,31.565C255.545,31.467 255.594,31.389 255.716,31.389L256.616,31.389C256.738,31.389 256.81,31.487 256.834,31.604L259.147,44.762C259.17,44.958 259.245,45.174 259.414,45.292L260.121,45.801C260.193,45.86 260.267,45.92 260.267,45.978C260.267,46.036 260.217,46.096 260.096,46.096L256.592,46.096C256.47,46.096 256.422,46.036 256.422,45.978C256.422,45.92 256.519,45.86 256.592,45.801L257.249,45.272C257.346,45.194 257.394,45.056 257.37,44.879L257.005,42.821Z" style="fill:rgb(255,0,0);fill-rule:nonzero;"/>
                </g>
                <g transform="matrix(0.951644,-0.307204,0.307204,0.951644,-24.5663,102.322)">
                    <path d="M370.979,213.786C370.906,213.786 370.857,213.844 370.881,213.923L371.733,218.728L371.781,218.728L372.585,213.904C372.609,213.825 372.56,213.786 372.512,213.786L370.979,213.786ZM370.638,212.57C370.662,212.668 370.735,212.747 370.857,212.747L372.658,212.747C372.731,212.747 372.78,212.688 372.803,212.609L373.169,210.453C373.193,210.316 373.145,210.197 373.048,210.099L372.512,209.648C372.414,209.55 372.269,209.471 372.269,209.413C372.269,209.354 372.317,209.296 372.439,209.296L375.238,209.296C375.335,209.296 375.384,209.354 375.384,209.413C375.384,209.471 375.286,209.55 375.213,209.609L374.532,210.158C374.385,210.276 374.361,210.472 374.337,210.649L372.123,223.826C372.098,223.924 372.049,224.002 371.928,224.002L371.027,224.002C370.906,224.002 370.833,223.904 370.808,223.786L368.497,210.629C368.472,210.433 368.399,210.217 368.229,210.099L367.523,209.59C367.45,209.531 367.377,209.471 367.377,209.413C367.377,209.354 367.426,209.296 367.547,209.296L371.052,209.296C371.173,209.296 371.222,209.354 371.222,209.413C371.222,209.471 371.124,209.531 371.052,209.59L370.395,210.119C370.297,210.197 370.248,210.335 370.273,210.511L370.638,212.57Z" style="fill:rgb(255,0,0);fill-rule:nonzero;"/>
                </g>
                <g transform="matrix(-0.946769,0.321912,-0.321912,-0.946769,651.083,149.515)">
                    <path d="M334.791,131.017C334.791,118.604 318.758,112.262 313.345,100.708L313.262,100.546L313.179,100.708C307.765,112.262 291.733,118.604 291.733,131.017C291.733,141.402 305.466,145.415 312.162,136.723C312.706,136.017 313.244,135.195 313.244,135.195C313.244,135.195 313.47,135.409 314.104,136.602C320.641,146.027 334.791,141.616 334.791,131.017Z" style="fill:rgb(255,0,0);fill-rule:nonzero;"/>
                </g>
                <g transform="matrix(0.337003,-0.111699,0.111699,0.337003,269.971,171.626)">
                    <path d="M334.791,131.017C334.791,118.604 318.758,112.262 313.345,100.708L313.262,100.546L313.179,100.708C307.765,112.262 291.733,118.604 291.733,131.017C291.733,141.402 305.466,145.415 312.162,136.723C312.706,136.017 313.244,135.195 313.244,135.195C313.244,135.195 313.47,135.409 314.104,136.602C320.641,146.027 334.791,141.616 334.791,131.017Z" style="fill:rgb(255,0,0);fill-rule:nonzero;"/>
                </g>
                <g transform="matrix(-0.316547,0.10763,-0.10763,-0.316547,349.685,81.5812)">
                    <path d="M334.791,131.017C334.791,118.604 318.758,112.262 313.345,100.708L313.262,100.546L313.179,100.708C307.765,112.262 291.733,118.604 291.733,131.017C291.733,141.402 305.466,145.415 312.162,136.723C312.706,136.017 313.244,135.195 313.244,135.195C313.244,135.195 313.47,135.409 314.104,136.602C320.641,146.027 334.791,141.616 334.791,131.017Z" style="fill:rgb(255,0,0);fill-rule:nonzero;"/>
                </g>
            </g>
        </g>
    </g>
</svg>
