<?xml version="1.0" encoding="UTF-8" standalone="no"?>
<!DOCTYPE svg PUBLIC "-//W3C//DTD SVG 1.1//EN" "http://www.w3.org/Graphics/SVG/1.1/DTD/svg11.dtd">
<svg width="100%" height="100%" viewBox="0 0 64 119" version="1.1" xmlns="http://www.w3.org/2000/svg" xmlns:xlink="http://www.w3.org/1999/xlink" xml:space="preserve" xmlns:serif="http://www.serif.com/" style="fill-rule:evenodd;clip-rule:evenodd;stroke-linejoin:round;stroke-miterlimit:2;">
    <g transform="matrix(1,0,0,1,-1054.99,-568.312)">
        <g transform="matrix(0.433828,0,0,0.433828,987.365,534.183)">
            <path d="M302.41,332.293C302.41,342.893 293.811,351.486 283.202,351.486L175.094,351.486C164.485,351.486 155.885,342.893 155.885,332.293L155.885,97.863C155.885,87.263 164.485,78.67 175.094,78.67L283.202,78.67C293.811,78.67 302.41,87.263 302.41,97.863L302.41,332.293Z" style="fill:rgb(44,44,44);fill-rule:nonzero;"/>
            <path d="M273.579,332.958L262.595,332.958C262.367,332.958 262.182,332.774 262.182,332.547C262.182,332.32 262.367,332.135 262.595,332.135L273.579,332.135C273.807,332.135 273.991,332.32 273.991,332.547C273.991,332.774 273.807,332.958 273.579,332.958Z" style="fill:rgb(67,67,67);fill-rule:nonzero;"/>
            <path d="M273.579,335.66L262.595,335.66C262.367,335.66 262.182,335.476 262.182,335.249C262.182,335.021 262.367,334.837 262.595,334.837L273.579,334.837C273.807,334.837 273.991,335.021 273.991,335.249C273.991,335.476 273.807,335.66 273.579,335.66Z" style="fill:rgb(67,67,67);fill-rule:nonzero;"/>
            <path d="M273.579,338.362L262.595,338.362C262.367,338.362 262.182,338.178 262.182,337.951C262.182,337.723 262.367,337.539 262.595,337.539L273.579,337.539C273.807,337.539 273.991,337.723 273.991,337.951C273.991,338.178 273.807,338.362 273.579,338.362Z" style="fill:rgb(67,67,67);fill-rule:nonzero;"/>
            <path d="M228.988,327.656C225.653,327.656 222.94,330.368 222.94,333.7C222.94,337.032 225.653,339.743 228.988,339.743C232.324,339.743 235.037,337.032 235.037,333.7C235.037,330.368 232.324,327.656 228.988,327.656ZM228.988,340.919C225.004,340.919 221.764,337.68 221.764,333.7C221.764,329.718 225.004,326.48 228.988,326.48C232.973,326.48 236.214,329.718 236.214,333.7C236.214,337.68 232.973,340.919 228.988,340.919Z" style="fill:rgb(67,67,67);fill-rule:nonzero;"/>
            <path d="M192.211,331.23L185.803,331.23L187.982,329.849C188.173,329.728 188.231,329.473 188.108,329.281C187.987,329.089 187.732,329.032 187.54,329.154L184.502,331.08C184.307,331.202 184.192,331.413 184.192,331.641C184.192,331.87 184.307,332.081 184.501,332.203L187.54,334.129L187.76,334.193C187.897,334.193 188.03,334.125 188.108,334.001C188.231,333.81 188.173,333.555 187.982,333.434L185.803,332.054L192.211,332.054C193.618,332.054 194.764,333.197 194.764,334.605L194.764,334.933C194.764,336.341 193.618,337.486 192.211,337.486L184.766,337.486C184.54,337.486 184.355,337.67 184.355,337.897C184.355,338.124 184.54,338.309 184.766,338.309L192.211,338.309C194.073,338.309 195.589,336.795 195.589,334.933L195.589,334.605C195.589,332.744 194.073,331.23 192.211,331.23Z" style="fill:rgb(67,67,67);fill-rule:nonzero;"/>
            <path d="M228.988,327.656C225.648,327.656 222.94,330.361 222.94,333.7C222.94,337.037 225.648,339.743 228.988,339.743C232.098,339.743 234.701,337.387 235.007,334.296C235.337,330.975 232.909,328.014 229.586,327.686C229.386,327.666 229.187,327.656 228.988,327.656Z" style="fill:rgb(44,44,44);fill-rule:nonzero;"/>
            <path d="M292.696,314.381C292.696,316.004 291.379,317.32 289.754,317.32L168.539,317.32C166.914,317.32 165.596,316.004 165.596,314.381L165.596,115.776C165.596,114.152 166.914,112.836 168.539,112.836L289.754,112.836C291.379,112.836 292.696,114.152 292.696,115.776L292.696,314.381Z" style="fill:rgb(61,61,61);fill-rule:nonzero;"/>
            <path d="M255.628,98.074C255.628,99.697 254.31,101.013 252.685,101.013L205.605,101.013C203.98,101.013 202.662,99.697 202.662,98.074L202.662,96.898C202.662,95.274 203.98,93.957 205.605,93.957L252.685,93.957C254.31,93.957 255.628,95.274 255.628,96.898L255.628,98.074Z" style="fill:rgb(67,67,67);fill-rule:nonzero;"/>
            <path d="M205.608,99.837C204.636,99.837 203.843,99.046 203.843,98.074L203.843,96.898C203.843,95.925 204.636,95.134 205.608,95.134L252.684,95.134C253.658,95.134 254.45,95.925 254.45,96.898L254.45,98.074C254.45,99.046 253.658,99.837 252.684,99.837L205.608,99.837Z" style="fill:rgb(51,51,51);fill-rule:nonzero;"/>
            <path d="M274.997,97.486C274.997,94.915 277.083,92.831 279.656,92.831C282.229,92.831 284.315,94.915 284.315,97.486C284.315,100.056 282.229,102.139 279.656,102.139C277.083,102.139 274.997,100.056 274.997,97.486Z" style="fill:rgb(67,67,67);fill-rule:nonzero;"/>
            <path d="M276.49,97.486C276.49,95.738 277.907,94.321 279.656,94.321C281.404,94.321 282.822,95.738 282.822,97.486C282.822,99.233 281.404,100.649 279.656,100.649C277.907,100.649 276.49,99.233 276.49,97.486Z" style="fill:rgb(92,92,92);fill-rule:nonzero;"/>
            <path d="M277.237,97.486C277.237,96.15 278.32,95.068 279.656,95.068C280.992,95.068 282.075,96.15 282.075,97.486C282.075,98.82 280.992,99.903 279.656,99.903C278.32,99.903 277.237,98.82 277.237,97.486Z" style="fill:rgb(51,51,51);fill-rule:nonzero;"/>
            <path d="M155.885,188.253C155.884,188.253 155.884,188.252 155.884,188.252L155.884,97.865C155.884,92.968 157.719,88.499 160.74,85.108C157.72,88.499 155.885,92.967 155.885,97.863L155.885,188.253Z" style="fill:rgb(41,113,130);fill-rule:nonzero;"/>
            <path d="M155.885,192.88C155.885,192.88 155.884,192.879 155.884,192.878L155.884,189.256C155.884,189.257 155.884,189.257 155.885,189.258L155.885,192.88Z" style="fill:rgb(253,203,176);fill-rule:nonzero;"/>
            <path d="M155.885,189.258C155.884,189.257 155.884,189.257 155.884,189.256L155.884,188.252C155.884,188.252 155.884,188.253 155.885,188.253L155.885,189.258Z" style="fill:rgb(197,153,130);fill-rule:nonzero;"/>
            <path d="M155.884,306.959L155.884,192.878C155.884,192.879 155.885,192.88 155.885,192.88L155.885,306.956L155.884,306.959Z" style="fill:rgb(234,178,146);fill-rule:nonzero;"/>
            <path d="M155.885,306.956L155.885,97.863C155.885,92.967 157.72,88.499 160.74,85.108C164.259,81.158 169.385,78.671 175.094,78.671L244.937,78.671L238.974,93.957L205.605,93.957C203.98,93.957 202.662,95.274 202.662,96.898L202.662,98.074C202.662,99.697 203.98,101.013 205.605,101.013L236.221,101.013L231.609,112.836L168.539,112.836C166.914,112.836 165.596,114.152 165.596,115.776L165.596,282.06L155.884,306.959" style="fill:rgb(60,60,60);fill-rule:nonzero;"/>
            <path d="M165.596,282.06L165.596,115.776C165.596,114.152 166.914,112.836 168.539,112.836L231.609,112.836L165.596,282.06Z" style="fill:rgb(76,76,76);fill-rule:nonzero;"/>
            <path d="M236.221,101.013L205.605,101.013C203.98,101.013 202.662,99.697 202.662,98.074L202.662,96.898C202.662,95.274 203.98,93.957 205.605,93.957L238.974,93.957L238.515,95.134L205.608,95.134C204.636,95.134 203.843,95.925 203.843,96.898L203.843,98.074C203.843,99.046 204.636,99.837 205.608,99.837L236.68,99.837L236.221,101.013Z" style="fill:rgb(82,82,82);fill-rule:nonzero;"/>
        </g>
    </g>
</svg>
